<?xml version="1.0" encoding="utf-8"?>
<!-- Generator: Adobe Illustrator 22.1.0, SVG Export Plug-In . SVG Version: 6.00 Build 0)  -->
<svg version="1.1" id="Calque_1" xmlns="http://www.w3.org/2000/svg" xmlns:xlink="http://www.w3.org/1999/xlink" x="0px" y="0px"
	 viewBox="0 0 841.9 604.3" style="enable-background:new 0 0 841.9 604.3;" xml:space="preserve">
<g>
	<g id="DEKNnk_1_">
		<g>
			<path d="M570.2,479.3c-0.2,1-0.4,2-0.5,3c-1.2,9.7-7.2,21.2-20.2,24c-3.7,0.7-7.5,0.7-11.1,1c1.1,1.9,2.5,3.8,3.6,5.9
				c6.3,11.9,6.9,24,1.1,36.1c-5.9,12.5-18.8,17.4-30.6,17.1c-10.4-0.4-18.3-5.1-23.4-14.2c-0.1-0.2-0.4-0.5-0.7-1
				c-1,13.7-6.7,24.5-18.9,30.4c-16.8,8.2-34,8.3-50.9-0.1c-7.7-4-14.4-9.4-18.8-17.1c-0.4-0.6-0.7-1.1-1.4-2
				c-2.8,11.5-3,22.9-2.8,34.3c0,13,1.1,26,1.5,39.1c0.4,14.4,0.4,28.8,0.6,43.2c0,3.2,0.2,6.4,0.6,9.7c0.2,3.2,0.7,6.4,1.1,9.5
				c3-9,6.8-17.4,12.4-25.1c4-5.4,7.7-11,12-16.2c5.8-7.1,12.6-13.2,20.2-18.4c9.3-6.4,18.9-12,30.2-13.9c7.1-1.1,14.1-1.9,21.2-3.1
				c8.2-1.4,16-3.8,23.3-7.8c1-0.5,3-0.5,3.6,0.1c0.6,0.7,0.5,2.5,0.2,3.6c-0.2,1.4-1,2.5-1.5,3.8c-3.1,7.5-6.7,14.8-9.2,22.5
				c-5.2,16.6-13.5,31.4-24.4,44.7c-9.4,11.5-21,20.2-35.5,24.5c-16.3,4.9-32.9,8.2-50.2,3.3c0.4,3.3,0.6,6.6,1.1,9.9
				c0.9,6.6,2.6,12.7,6.7,18.2c1.6,2.1,2.6,4.7,3.3,7.2c1.5,4.9-0.7,8.4-5.8,9.3c-0.7,0.1-1.4,0.4-2.1,0.5c-0.5,0-1.1,0-1.6,0
				c-3.2-1.7-5.1-4.5-6.1-7.8c-1-3.5-2-6.9-2.8-9.8c-11.8-2.2-23.4-4.1-34.8-6.8c-20.3-4.9-39.1-13.7-56.9-24.6
				c-14.8-9-26.4-21.5-37.1-34.8c-2.2-2.8-4.7-5.4-6.6-8.5c-7.1-12-13.7-24.3-16-38.2c-1.5-9.4-0.5-18.8,1-28.1
				c1.5-8.9,3.2-17.9,0.7-27c-1-3.6-3.2-6.9-4.9-10.3c0-0.4,0-0.7,0-1.1c2.4-3,3.2-3.1,6.3-0.7c3.2,2.5,6.4,4.9,9.4,7.8
				c10.6,10.8,23.3,18.7,36.5,25.7c6.4,3.3,12.9,6.8,18.9,10.9c11,7.3,21.7,15.1,32.4,22.8c15.6,11.3,28.7,25,37.6,42.3
				c0.1,0.2,0.2,0.6,0.4,1c-1.4-17.3-0.1-34,0.4-50.9c0.6-16.8,0.4-33.7,0.5-50.5c-7.3,2.1-15.2,1.6-22.6-0.5
				c-11.5-3.2-19.9-10.6-22.6-22.8c-1.2-5.3-1.4-10.8-2-16.1c-1,0.6-2.4,1.6-3.8,2.4c-1.6,0.7-3.3,1.2-5.1,1.5
				c-15.3,1.6-27.6-9.2-28-24.5c-0.2-9.4,2.2-18.2,6.4-26.4c2.6-5.2,5.9-10.1,8.9-15.1c-8-1.1-10-2.5-11.9-11.1
				c-1.2-5.8-0.9-11.8,0.6-17.6c3.3-12.9,11.4-22.6,21.9-30.2c11.9-8.5,25.4-12.1,39.8-7.9c6.3,1.9,12.4,4.7,18.4,7.1
				c-0.1-0.4-0.2-1-0.5-1.7c-2.2-7.2-0.6-12.9,5.8-16.7c3.8-2.4,8.3-4.3,12.6-5.1c15.8-2.8,31.8-3.2,47.8-1.6
				c6.2,0.6,12.3,2.1,17.4,5.8c3.3,2.4,6.3,5.2,6.4,9.8c0,1-0.1,2.1-0.1,2.8c4.6-2.2,8.8-4.7,13.2-6.4c3.6-1.4,7.7-2.6,11.5-2.6
				c13.2,0.1,23.4,6.6,31.4,16.8c3.3,4.3,5.1,9.2,5.7,14.5c0.6,5.4-0.6,10.4-4.9,14.5c1.2,0.2,2.1,0.5,3,0.7
				c8.5,2,16.8,4.8,23.9,10.5c5.8,4.7,10.5,10,12.7,17.3c0.6,2.1,1,4.5,1.5,6.6C570.2,477.4,570.2,478.3,570.2,479.3z M482.1,657.5
				c1.9,0.6,2.7,2,2,3.8c-0.9,1.9-2.5,2-4.2,1.4c-3.5-1.1-6.8-2.6-10.3-3.2c-2.7-0.4-5.6,0.4-8.4,0.6c-1.7,0.1-3.5,0.4-5.1,0.5
				c-0.1-0.2-0.1-0.5-0.2-0.7c-9.3,7.2-18.4,14.5-28.2,22.1c9.2,0.9,17.4,1.6,25.7,2.2c2.2,0.1,3.7,0.9,3.6,3.1
				c-0.1,2.4-1.9,3-4,2.7c-6.9-0.7-14-1.5-20.9-2.1c-2.7-0.2-5.6,0.2-8.3,0.6c-1,0.1-2,0.6-2.7,1.2c-6.1,6.3-11.1,13.2-15.5,21.8
				c4,0.5,7.7,1.4,11.1,1.1c8-0.6,16.1-1.7,24.1-2.8c20-3,34.4-15,46.2-30.3c8.2-10.6,14.1-22.6,18.4-35.4c1.4-4.2,3-8.3,4.8-13.2
				c-13.2,11.3-29.8,14-43.2,21.8C471.9,654.4,477,655.9,482.1,657.5z M258.4,586.1c7.9,7.3,16.3,14.1,24.3,21.4
				c4.1,3.8,7.3,8.5,11,12.7c5.7,6.4,11.3,13.1,17.3,19.1c6.7,6.4,14.2,12.3,21,18.1c0.4-4.5,0.6-9.3,1-14.1
				c0.1-1.1,0.4-2.2,0.5-3.2c0.2-1.7,1.1-2.8,3-2.6c2,0.2,2.8,1.5,2.6,3.5c-0.4,3.8-0.7,7.7-1.1,11.5c-0.9,9.5,3.3,16.7,10,23.3
				c4.2,4.1,7.5,9,11.4,13.5c2.6,3,5.3,5.8,8.5,9.2c-0.4-3.5-0.9-6.2-0.7-9c0.2-5.1,0.6-10,1.5-15c0.2-1.6,2.1-3,3.5-4.9
				c-3.7-6.3-9.2-12.5-14.5-18.8c-5.6-6.6-12.6-11.3-19.4-16.3c-8.8-6.6-17.7-13-27-18.9c-10.5-6.7-21.5-12.5-32-19.1
				c-7.1-4.5-13.9-9.4-20.7-14.4c-2-1.5-3.5-3.7-5.3-5.6c-0.2,0.1-0.5,0.2-0.7,0.5C252.9,580.9,255.8,583.6,258.4,586.1z
				 M427.9,446.9c-0.5,0.5-2.6,0.5-3,0c-0.9-1.2-1-2.8-1.5-4.6c-4.9-0.6-10.4,0.6-15.6,2.7c-4.5,1.9-6.8,5.7-7.4,10.3
				c-0.4,2.4,0,4.8,0.2,7.2c0.2,2,0.6,3.6,3,4.8c1.9,0.9,3.1,3.1,4.5,4.8c2.8,3.5,6.2,5.9,11,6.1c1,0,1.9,1.2,2.7,1.9
				c0.7,0.5,1.5,1.5,2.2,1.5c9.8-1,19.9,0.4,28.8-5.2c2.2-1.4,4.1-3.3,6.2-4.9c1.1-0.9,2.2-1.6,3.1-2.6c4.5-5.1,1.9-12.9-4.6-15.1
				c-3.7-1.2-7.4-3.1-10.5-5.4c-4.1-3.1-8.5-4.1-13.4-4.9c-1.5-0.2-3.1-0.4-4-0.5C429,444.4,428.8,445.9,427.9,446.9z M375.1,673.4
				c-0.7,2.2-1.6,3.6-1.7,5.2c-0.7,7.5-0.5,15.1,1.6,22.5c0.7,2.5,1.4,4.9,2.4,7.2c0.4,1,1.6,1.7,2.4,2.6
				c3.5,5.1,6.8,10.3,10.3,15.3c0.4,0.6,0.9,1.1,1.5,2.1C389.4,709.1,384.6,691,375.1,673.4z M403.4,753.5c0.5,1.6,1.6,2,3,1.5
				c1.7-0.6,1.1-2,0.5-3c-2.5-4.5-4.9-8.8-7.4-13.1c-0.2,0.1-0.5,0.2-0.7,0.2C400.3,744,401.9,748.8,403.4,753.5z M473.4,572
				c4.8-3.8,7.2-9.5,8.4-15.5c2.6-12.6,0-24.4-5.4-35.8c-5.2-10.9-11.8-20.7-21-28.5c-1.1-1-2.5-2-3.8-2.6
				c-10.5-4.1-21.2-4.9-31.6-0.2c-3.5,1.5-6.6,4.3-9,7.1c-7.2,7.9-10.6,17.6-12.1,28c-1.7,11.5-0.9,22.8,4.2,33.3
				c2,4.2,4.6,8.4,7.9,11.5c6.6,6.3,14.6,10.3,23.6,11.5c3.1,0.4,6.2,0.6,9.4,0.9C455,581.9,464.9,578.7,473.4,572z M457,484.4
				c5.7,6.6,11.9,13.1,17.4,20.2c5.4,6.8,9.2,14.7,12,22.9c2,5.6,3.5,11.5,5.6,17c4.6,11.8,10.9,16.2,22.1,16.1
				c11.9-0.1,20.9-6.2,25-16.8c3.8-10,2.2-19.6-3-28.7c-3-5.2-6.9-9.4-11.4-13.5c-9.4-8.5-19.3-16.1-31.6-19.9
				c-5.3-1.7-10.6-3.6-16.2-4.8c-3.5-0.7-7.2-0.2-10.6-0.2c-1.4,0-2.7,0.2-4.2,0.4C460.4,479.7,458.6,482.1,457,484.4z M400.4,472.5
				c-0.6,0.4-1.4,1.5-2.4,1.6c-11.5,2.1-20.8,8.3-29.4,15.6C357.7,499,349,510,344,523.5c-3.5,9.3-4.3,18.7-0.2,28.1
				c4,9,11.4,14,20.8,15.7c4.9,0.9,10.1,1.1,15.1,0.4c5.3-0.7,9.5-3.1,10.1-13.4c0.2-4.7,0.5-9.4,0.5-14.1c0-12,2.4-23.6,7.9-34.2
				c4.1-7.7,9.3-14.6,14.1-21.8c0.2-0.4,0.5-0.7,0.5-0.6C408.3,479.8,404.3,476.1,400.4,472.5z M392.3,449.6
				c-7.4-3.6-15.3-3.1-23.4-1.7c-11.3,1.9-21.3,6.6-30.8,12.5c-4,2.5-8.2,4.7-12,7.3c-2.4,1.6-4.6,3.8-6.4,6.1
				c-9.4,10.9-15.3,23.3-15.7,37.7c-0.2,11.1,6.7,18.6,17.8,19.9c4.2,0.5,8-0.5,10.6-4s5.2-7.1,6.9-10.9c4-8.7,8.9-16.6,15.7-23.3
				c6.9-6.8,13.6-13.9,21.2-19.8c5.1-4.1,11.4-6.4,17.6-9.8C393.4,459.5,392.9,454.7,392.3,449.6z M470.8,464.6
				c0.7,2.6,2.2,4.6,4.9,5.4c7.8,2.5,15.6,5.1,23.4,7.5c8.5,2.8,15.5,8.2,22.3,13.7c5.7,4.7,11.8,8.7,19.2,10
				c9.3,1.7,18.1-3.8,21.8-13.6c4-10.4,1.2-20.5-6.9-28.2c-8.8-8.2-19.4-11.4-30.8-13c-5.3-0.7-10.9-1.4-16.3-1.4
				c-3.8,0-7.7,1.1-11.4,2.1c-9.4,2.5-18.8,5.2-28.3,7.8C469.3,457.9,470,461.2,470.8,464.6z M390.3,424c-7.1-4.2-14-8.8-21.4-12
				c-16.2-7.1-31.3-3.8-44.4,7.3c-8.3,7.1-15.2,15.6-17.2,27c-0.9,5.1-1.2,10.1,0.6,15c1.5,3.8,3.7,5.4,7.5,4.1
				c4.7-1.7,9.3-4.1,13.6-6.4c7.3-3.8,14.1-8.5,21.5-11.8c13.4-5.9,27.6-7.1,42.1-5.6c6.4,0.6,12.1-1.2,17.3-4.8
				C403.4,432.4,397,428.1,390.3,424z M399.7,393.8c-4.5,0.6-8.9,2.1-11.4,6.3c-0.9,1.5-1.5,3.7-1.2,5.3c0.9,5.8,4.1,10.4,8.9,13.7
				c2.8,2,5.9,3.7,8.8,5.7c3.7,2.5,7.4,4.9,10.9,7.5c5.6,4.2,11.8,4.3,18.3,3.5c5.3-0.7,9.3-3.7,13.2-6.9
				c7.4-6.1,13.2-13.2,17.6-21.8c2.8-5.4,1.6-9-4-11.8c-6.6-3.2-13.7-4.1-20.9-4.6c-2.4-0.1-4.8,0-7.2,0c0-0.2,0-0.5-0.1-0.9
				C421.6,391.3,410.6,392.3,399.7,393.8z M475.5,447.4c5.8-1.7,11.8-3.2,17.6-4.9c8.2-2.5,16.6-3.8,25.1-3.8s10.9-5.1,10-12.6
				c-0.2-2.1-1.1-4.3-2.2-6.2c-4.3-7.8-10.5-13.9-18.9-17.1c-7.9-2.8-16-2.6-23.4,1.7c-8.5,4.9-16.7,10.5-22.9,18.4
				c-3.1,4-6.8,7.4-10.5,10.9c-1.7,1.6-4.1,2.6-6.4,4.1C453,447.2,463.2,451.2,475.5,447.4z M249.1,606.6c-1.9,10.6-2,21.2,1.4,31.6
				c1.4,4.3,3.3,8.4,4.9,12.6c3.2,8.5,8.3,16.1,14.1,23c5.3,6.4,10.9,12.6,17,18.3c5.6,5.3,11.4,10.6,17.9,14.7
				c15.5,9.9,32,17.8,49.7,22.9c11.9,3.5,23.9,5.7,36.4,7.2c-7.9-11.3-14.6-23.1-24.6-32.5c-0.5-0.5-1-0.9-1.5-1.1
				c-11.3-4.2-22.4-8.7-33.7-12.5c-8.5-3-17.4-4.2-26.5-3.3c-1.9,0.1-3.3-0.2-3.7-2.4c-0.2-2,1.2-3.2,3.8-3.3
				c12-0.7,23.5,1.6,34.6,5.8c5.2,2,10.5,4.1,15.7,6.2c0.4,0.1,0.7,0.1,1.4,0.1c-0.4-0.6-0.4-1.1-0.7-1.4
				c-10.5-11.5-21-23-31.7-34.5c-0.6-0.6-1.5-1.1-2.2-1.4c-8.4-1.5-16.7-3-25.1-4.1c-4.7-0.6-9.5-0.5-14.4-0.6
				c-1.9,0-3.6,0.1-3.8-2.4c-0.1-2.5,1.4-3.5,3.3-3.5c6.8,0.4,13.6,0.7,20.4,1.4c3.8,0.4,7.7,1.2,12,2c-3.2-3-6.2-5.4-8.8-8.2
				c-5.2-5.6-10.1-11.4-15.3-17c-5.3-5.8-10.6-11.8-16.3-17.3c-6.4-6.2-13.2-11.8-19.8-17.7c-0.6-0.5-1.2-1.1-2-1.9
				C250.7,594,250.2,600.3,249.1,606.6z"/>
			<g>
				<path d="M417.9,467.8c-1-0.9-1.6-1.4-2.2-1.9c-1.7-1.7-5.3-1.2-6.2,1.1c-0.4,0.7-0.4,2.1,0.1,2.5c0.7,0.6,2.1,1.1,3,0.9
					C414.3,469.9,415.9,468.8,417.9,467.8z"/>
				<path d="M428.8,455.5c0,1.1-0.4,2.2,0.1,2.8c0.6,1,1.7,2.4,2.7,2.5c2.1,0.1,4.3-0.5,6.4-0.7c0.1-0.2,0.1-0.5,0.2-0.7
					c-1.1-0.2-2.2-0.5-3.7-0.9C434.3,454.8,431.6,455.3,428.8,455.5z"/>
				<path d="M457.1,468c0.5-2.8,4.1-5.1,0.2-7.2c-0.9-0.4-3.1,0.4-3.6,1.1C451.8,465.3,455.6,465.7,457.1,468z"/>
				<path d="M446.3,460.9c2.6-0.5,4-1.5,3.8-3.5c0-1.9-1.2-2.7-3.1-2.7c-2,0-3.5,1-3.2,2.8C444,458.8,445.5,459.7,446.3,460.9z"/>
				<path d="M425.4,475.8c0.7,0.4,1.4,0.9,2,1.2c1.5,1,3.2,1.2,4-0.5c0.5-1.1,0.1-3.2-0.6-4c-1.2-1.2-2.8-0.6-3.8,1
					C426.4,474.3,425.9,475.1,425.4,475.8z"/>
				<path d="M415.5,455.8c1.1,2.6,1.2,4.9,3.8,4.5c1-0.1,2.2-1.2,2.4-2.1c0.2-0.9-0.5-2.8-1.1-3C419.1,455,417.5,455.5,415.5,455.8z
					"/>
				<path d="M404.4,456.4c3.8,0.5,5.2-0.1,5.3-2.4c0-1.9-1-3-2.8-3C404.6,451,404,452.6,404.4,456.4z"/>
				<path d="M442.9,473.2c1.4-1.6,2.7-2.6,2.7-3.5c0-1-1.4-2.4-2.4-2.6c-1.6-0.5-3,0.6-2.8,2.4C440.5,470.5,441.6,471.4,442.9,473.2
					z"/>
			</g>
		</g>
	</g>
	<g>
		<path d="M425.5,339c-2.8-0.9-4.8-3.2-4.9-6.2c-0.4,0-0.7,0-1.1,0c-2.5-0.2-4.6-1.1-6.6-2.7c-0.2-0.2-0.4-0.2-0.7-0.2
			c-0.7,0.2-1.6-0.2-2-1c-0.4-0.7-0.2-1.6,0.4-2.1c0.6-0.6,1.5-0.7,2.2-0.4c0.7,0.4,1.2,1.2,1,2c-0.1,0.5,0,0.7,0.4,1
			c2,1.7,4.2,2.6,6.8,2.6c0.9-2.2,2.1-3.1,3.8-2.5c0.4-2,1.2-3.7,2.8-5.1c-0.4-0.4-0.7-0.7-1-1.1c-0.5-0.6-1.1-1.4-1.4-2.1
			c-2-4.6-3.8-9-5.6-13.6c-1-2.5-1.5-5.1-1.5-7.7c0-1.6,0.1-3.2,0.4-4.8c0.1-1.2,0.7-2.2,1.5-3.2c1.1-1.5,3.8-1.5,5.2-0.7
			c1,0.5,1.7,1.2,2.4,2c1.4,1.6,2.2,3.3,2.8,5.3c0.1,0.5,0.2,1,0.5,1.5c0.1,0.4,0.4,0.7,0.7,0.9c2.1,1,3.1,2.8,3.1,5.1
			c0,1.1,0.1,2.4-0.2,3.3c-0.4,1.2-0.2,2,0.7,2.8c0.9,0.7,1.1,1.9,1.1,3.1c0.4-0.2,0.7-0.5,1.1-0.7c4-3,8.3-4.2,13.2-4
			c1.6,0.1,3.3,0.5,4.9,0.7c0.7,0.1,1,0.5,0.9,1.2c-0.1,6.6-2.8,11.9-7.9,16c-0.5,0.4-1,0.7-1.6,1.1c0.1,0.1,0.2,0.1,0.4,0.2
			c1.2,0.4,2.1,1.2,2.6,2.4c0.4,0.9,0.5,1,1.5,0.9c0.4,0,0.9,0,1.2,0.1c1.1,0.2,2.1,0.5,3.1,0.9c1.7,0.6,2.8,2,3.2,3.7
			c0.1,0.9,0.5,1.5,1.2,2c1.7,1.1,3.3,2.5,4.5,4.2c0.5,0.6,0.9,1.4,1.2,2.1c0.9,1.7,0.4,4.5-1,5.6c-1.2,1-2.7,1.4-4.2,1.1
			c-1.5-0.2-3.1-0.5-4.6-1c-2.8-1-5.3-2.5-7.7-4.3c-3.3-2.7-6.6-5.3-9.9-8c-1.4-1.1-2.6-2.4-3.2-4.2c-1.7,1.1-3.6,1.5-5.7,1.2
			c-0.1,1.7-0.9,2.6-2.7,2.8c-0.4,0.1-0.5,0.1-0.6,0.5c-0.9,2.6-0.6,5.1,0.6,7.5c0,0.1,0.4,0.2,0.5,0.2c1.1,0.1,1.7,1,1.7,2
			s-0.9,1.7-1.9,1.7s-1.9-0.9-1.9-1.9c0-0.2,0-0.6,0.2-0.9c0.1-0.2,0.1-0.5,0-0.7c-1.1-2.7-1.2-5.4-0.2-8.2
			C425.3,339.3,425.5,339.1,425.5,339z M422.9,302.7c0,0,0-0.1,0.1-0.1c0-0.4,0.2-0.7-0.1-1.1c-0.1,0-0.1,0.1-0.2,0.2
			c-0.6,1-1.4,1.9-2,2.8c-0.1,0.1-0.1,0.5-0.1,0.6c0,0.5,0.1,0.9,0.2,1.2c0.1,0.2,0.4,0.4,0.6,0.2c0.4-0.4,1-0.7,1.1-1.1
			C422.7,304.5,422.7,303.6,422.9,302.7z M434.3,321.1c-0.4,0.9-0.1,2.1,0.5,3c1.2,1.9,2.7,3.5,4.5,4.9c0.2,0.2,0.6,0.4,1,0.5
			c0,0,0-0.1,0.1-0.1c0-0.1-0.1-0.1-0.1-0.2c-1-1.4-2-2.6-2.8-4c-0.1-0.1-0.2-0.4-0.1-0.5c0.5-0.7,1-1.5,1.5-2.1
			c1.6,2.1,3.1,4.1,4.6,6.2c0.7-0.4,1.4-0.9,2.1-1.4c-1.6-2.2-3.2-4.5-4.8-6.6c0.7-0.5,1.4-1,2.1-1.6c1.6,2.2,3.2,4.5,4.9,6.7
			c0.6-0.6,1.2-1.1,1.7-1.7c-1.5-2.1-3.1-4.1-4.6-6.2c0.9-0.2,1.6-0.6,2.4-0.9c0.1,0,0.4,0.1,0.5,0.2c1,1.2,2,2.6,3,4
			c0.1,0.1,0.2,0.2,0.4,0.6c0.5-1,0.9-1.9,1.2-2.7c-1.1-0.6-1.5-1.7-2.2-2.7c1.1-0.1,2-0.2,3.1-0.4c0-0.6,0.2-1.2,0.1-1.9
			c0-0.4-0.2-0.7-0.5-0.9c-0.6-0.2-1.4-0.2-2.1-0.5v0.1c0.2,0.4,0.5,0.7,0.9,1.1c-1,0-2,0.1-3,0.1c-0.1,0-0.2,0-0.2-0.1
			c-0.4-0.4-0.6-0.9-0.9-1.4c-0.9,0.1-1.9,0.2-2.8,0.5c0.5,0.6,0.9,1.1,1.2,1.6c-1,0.2-1.7,0.6-2.6,0.9c-0.4-0.5-0.7-1-1.2-1.6
			c-0.7,0.4-1.5,0.7-2.2,1.2c0.4,0.6,0.7,1,1.1,1.5c-0.7,0.5-1.4,1-2.1,1.6c-0.4-0.5-0.7-1-1.1-1.5c-0.6,0.6-1.2,1.1-1.9,1.6
			c0.4,0.4,0.6,0.7,0.9,1.1c0.1,0.1,0.2,0.4,0.1,0.5c-0.5,0.6-1.1,1.4-1.7,2.1C434.9,321.7,434.5,321.4,434.3,321.1z M425.7,318.1
			c0.1-0.1,0.1-0.1,0.1-0.1s0-0.1,0.1-0.2c-0.2-1.2-0.4-2.5-0.7-3.7c-0.5-1.7-1.2-3.3-1.4-5.2c-0.1-0.6-0.5-1.2-0.9-1.7
			c-0.2-0.5-0.7-0.4-1,0c-0.2,0.4-0.5,0.6-0.6,1c-0.1,0.2-0.1,0.6,0,0.9c1,2.5,2.1,4.8,3.2,7.2C425,316.7,425.5,317.4,425.7,318.1z
			 M440.8,338.1C440.8,338.1,440.8,338.3,440.8,338.1c0,0.2,0,0.2,0.1,0.4c2.1,2.5,4.6,4.5,7.2,6.4c0.2,0.1,0.6,0.2,1,0.2
			s0.7-0.1,1.1-0.2c0.5-0.1,0.6-0.5,0.2-0.9c-0.4-0.5-0.7-0.9-1.2-1.1c-0.7-0.5-1.5-0.7-2.2-1.2c-1-0.6-2-1.4-3-2.1
			C443,339,441.9,338.5,440.8,338.1z M460.7,344L460.7,344c0.1-0.1,0.1-0.2,0.1-0.2c0.6-0.5,0.6-0.7,0-1.2s-1.2-0.9-1.9-1.4
			c-0.5-0.4-0.9-0.5-1.5-0.4c-0.6,0.2-1.2,0.1-1.9,0.5c-0.4,0.2-0.7,0.7-0.9,1.1c-0.1,0.6,0.6,1.6,1.4,1.6c1,0.1,2.1,0.2,3.1,0.2
			C459.7,344.3,460.2,344.1,460.7,344z M425.1,302.6h0.1c0,0.1,0.1,0.1,0.1,0.2c0.5,0.6,1,0.6,1.6,0.2c1.1-0.6,1.2-1.9,1.6-2.8
			c0.1-0.2-0.1-0.5-0.1-0.7c-0.2-0.7-0.5-1.5-0.7-2.2c-0.1-0.5-0.5-0.6-1-0.4c-0.7,0.4-1.2,0.9-1.4,1.7c-0.1,0.9-0.4,1.9-0.5,2.8
			C424.8,301.9,425.1,302.3,425.1,302.6z M430.2,308.3c0.6-0.6,1.1-1.1,1.7-1.6c1.1-1.1,0.9-2.4-0.5-3.2c-0.2-0.1-0.6-0.4-1-0.5
			c-0.1,0-0.4,0-0.5,0.1c-0.6,0.9-1.1,1.9-1.1,3C428.9,307.1,429.3,307.8,430.2,308.3z M451.6,337.6c1,1.2,2.2,1.5,3.7,1.2
			c1.2-0.2,1.2-0.2,1-1.4c0-0.1-0.1-0.4-0.1-0.5c-0.5-1.4-1.2-1.7-2.6-1.2c-0.6,0.2-1.4,0.6-2,1c-0.1,0.1-0.1,0.2-0.1,0.4
			C451.4,337.5,451.6,337.6,451.6,337.6z M431.9,317.8c0.5-0.1,0.7-0.2,1.1-0.4c0.2-0.1,0.5-0.1,0.5-0.4c0.2-0.7,0.5-1.4,0.6-2.2
			c0.1-0.4,0-0.7-0.1-1.1c-0.1-0.2-0.4-0.6-0.5-1c-0.4-0.7-1.1-0.9-1.7-0.2c-0.7,0.7-1,2-0.5,3c0.4,0.6,0.5,1.2,0.5,1.9
			C431.9,317.6,431.9,317.6,431.9,317.8z M442.5,332.4c0.1,0.1,0.2,0.1,0.4,0.1c0.7,0.1,1.4,0.5,1.9,1c0.7,0.7,2,0.9,3,0.2
			c0.2-0.1,0.4-0.5,0.5-0.7c0.1-0.6-1.1-2-1.7-2h-0.2c-0.6,0-1.2-0.1-1.9,0c-0.5,0-1,0-1,0.6c0,0.1-0.2,0.2-0.2,0.4
			C442.9,332.2,442.8,332.3,442.5,332.4z M425.8,332.7c0.2,0.9,0.2,1.7-0.4,2.5c-1,1.4-2.1,1.4-2.8-0.1c-0.1-0.2-0.2-0.5-0.4-0.7
			c-0.1,0-0.1,0-0.2,0.1c0.1,0.5,0.4,1.1,0.6,1.6c1,2,3.3,2.6,5.2,1.4c0.6-0.4,0.7-0.9,0.4-1.5C427.4,334.8,426.6,333.8,425.8,332.7
			z M427.4,320.4h0.1c0-0.1,0-0.4,0-0.5c-0.1-1.1-0.2-2.2-0.4-3.3c-0.2-1.6-0.4-3.3-0.6-4.9c-0.1-1.2-0.9-2-1.7-2.8
			c-0.1,0.5-0.1,1,0,1.5c0.5,1.9,1,3.7,1.4,5.6c0.2,1,0.2,2,0.4,3C426.7,319.7,427.2,320.1,427.4,320.4z M438.8,335.8
			c0.2,0.7,0.9,1.2,1.4,1.5c0.6,0.2,1.2,0.5,1.7,0.7c2.1,0.9,3.8,2.1,5.7,3.3c0.4,0.2,0.9,0.4,1.4,0.5c-0.5-1.4-1.2-2.4-2.5-2.8
			c-1.5-0.6-2.8-1.2-4.3-1.9C441.2,336.8,440.1,336.3,438.8,335.8z M435.9,330L435.9,330c-0.2-0.6-0.5-1.2-0.9-1.7
			c-0.9-1.4-1.9-2.6-3.2-3.3c-1-0.5-1.9-0.6-2.8,0c-1.2,0.7-2.2,1.9-2.8,3.2c-0.1,0.2-0.1,0.4-0.2,0.6c0.5-0.4,0.7-0.9,1.1-1.1
			c2.6-2.4,4.3-2.2,6.6-0.1C434.4,328.2,435,329.1,435.9,330z M427.7,313.9c0,0.2,0,0.4,0,0.6c0.1,1,0.2,2.1,0.2,3.1
			c0.1,1.2,0.2,2.4,0.7,3.5c0.1,0.1,0.2,0.2,0.4,0.4c0.1-0.1,0.2-0.4,0.2-0.5c0-1.5-0.1-3.1-0.1-4.6c0-0.5-0.1-1-0.2-1.4
			C428.7,314.5,428.3,314,427.7,313.9z M455.8,346.2c0-0.5-0.5-0.5-0.7-0.6c-0.9-0.1-1.9-0.2-2.6-0.4c-0.9-0.2-1.5,0.1-2.1,0.7
			c-0.2,0.2-0.2,0.5,0.1,0.6c0.2,0.1,0.6,0.5,0.9,0.5c0.4,0.1,0.7,0.2,1.1,0.1c0.9-0.2,1.6-0.5,2.5-0.7
			C455,346.3,455.4,346.2,455.8,346.2z M445.3,337.8c0-0.2,0-0.5-0.1-0.6c-0.4-0.4-0.6-1-1.1-1.2c-1.7-0.7-3.5-1.2-5.2-1.9
			c-0.1,0-0.2,0-0.2,0c0,0.1,0,0.2,0.1,0.4c0.5,0.4,1,0.9,1.5,1.1c1.2,0.6,2.6,1.1,4,1.7C444.3,337.4,444.6,337.5,445.3,337.8z
			 M429.1,302H429c-0.4,0.5-0.6,1-1,1.5c-0.6,1.1-0.9,2.4-1,3.5c0,0.5,0.1,0.9,0.6,1.1s1.1,0.4,1.6,0.5c0,0,0-0.1,0.1-0.1
			c-0.1-0.2-0.1-0.5-0.2-0.7c-0.5-0.6-0.6-1.4-0.5-2.1s0.4-1.6,0.6-2.5C428.9,302.9,428.9,302.5,429.1,302z M422.9,297.3
			c0,0.1-0.1,0.2-0.1,0.4c-0.1,0.6-0.2,1.4-0.2,2c0,0.9,0.6,1.4,1.5,1.4c0.4,0,0.7-0.1,0.7-0.6c0.1-0.5,0.1-1,0.1-1.5
			c0-0.2-0.1-0.5-0.2-0.7c-0.2-0.4-0.5-0.6-0.7-0.9C423.5,297.1,423.2,297.1,422.9,297.3z M459.4,345.9
			C459.4,345.8,459.5,345.8,459.4,345.9c-0.2-0.4-0.5-0.7-1-1c-0.4-0.2-0.9-0.2-1.4-0.2c-0.1,0-0.4,0.1-0.6,0.2
			c-0.4,0.4-0.2,1.6,0.2,1.9c0.9,0.5,1.7,0.6,2.6,0.5c0.5-0.1,0.6-0.5,0.4-0.9C459.6,346.3,459.5,346.1,459.4,345.9z M456.9,340.1
			V340c-0.4-0.1-0.6-0.2-1-0.2c-0.7,0-1.4,0-2,0c-1.1,0-2-0.4-2.7-1.2c-0.1-0.2-0.4-0.4-0.6-0.6c0,0.6,0,1,0,1.4
			c0,0.7,0.2,1.1,1,1.2c0.5,0.1,1.1,0.2,1.6,0.2C454.4,341,455.7,340.4,456.9,340.1z M450.1,336.5c-0.6-0.5-1.1-1-1.7-1.5
			c-0.2-0.2-0.6-0.4-1-0.2c-0.7,0.1-1.4,0.5-2,0.6C446.3,336.8,449,337.4,450.1,336.5z M428.9,332.9c-0.6,0.5-0.7,1-0.6,1.4
			c0.5,1,1.9,1.1,2.6,0.4c0.4-0.4,0.5-1,0.2-1.5c-0.2-0.5-0.7-0.7-1.2-0.6S429.1,332.8,428.9,332.9z M429.7,314.5
			c0.5-0.6,0.9-1.4,1.2-2c0.1-0.1,0.1-0.2,0.1-0.4c-0.2-0.9-0.6-1.7-0.9-2.6C429.2,310.4,428.9,313.1,429.7,314.5z M429.9,321.8
			c0.4-1.4,0.9-2.7,1.1-4.1c0.2-0.9,0.1-1.9-0.7-2.7C429.8,317.4,429.5,319.6,429.9,321.8z M460.4,349.4L460.4,349.4
			c-1.1-0.5-2.2-0.9-3.3-1.4c-0.5-0.1-1-0.4-1.5-0.5c-0.6-0.1-1.2,0-1.9,0.6C455.9,348.9,458.1,349.4,460.4,349.4z M449.7,340.6
			c0.1,0,0.1-0.1,0.2-0.1c-0.1-0.9-0.2-1.7-0.4-2.6c0-0.1-0.2-0.2-0.4-0.2c-0.7-0.1-1.4-0.2-2.1-0.4c-0.2,0-0.5,0-0.7,0
			c0.1,0.2,0.2,0.5,0.4,0.7c0.1,0.1,0.2,0.1,0.4,0.2c0.9,0.5,1.7,1.1,2.2,2C449.3,340.4,449.6,340.5,449.7,340.6z M444.8,334.7
			c-0.1-0.1-0.1-0.2-0.2-0.4c0-0.1-0.1-0.1-0.2-0.2c-0.9-0.7-1.7-1-2.8-0.9c-0.7,0-1.4,0-2.1,0c-0.4,0-0.7,0-1.1-0.1v0.1
			C440.3,334.3,442.4,334.7,444.8,334.7z M455.3,344.8c0,0,0-0.1,0-0.2c-0.1-0.2-0.4-0.5-0.5-0.6c-0.7-1-1.7-1.4-2.8-1.2
			c-0.2,0-0.5,0.1-0.7,0.2c-0.4,0.1-0.4,0.4,0,0.6c1,0.5,2,1,3,1.4C454.4,345.1,454.9,344.8,455.3,344.8z M453.6,334.8
			c-1.2-0.2-2.4-0.5-3.5-0.7c-0.1,0-0.2,0-0.5,0c-0.5,0-0.5,0.2-0.4,0.7C450,336.3,452.4,336.4,453.6,334.8z M426.3,308.4
			c-0.1,0-0.1,0.1-0.1,0.1c0,0.2,0,0.5,0.1,0.6c0.9,0.9,1.2,1.9,1.5,3c0.1,0.4,0.4,0.6,0.5,1c0.1-0.2,0.1-0.2,0.1-0.2
			c0.1-0.9,0.2-1.9,0.4-2.7c0-0.1,0-0.4-0.1-0.4C427.9,309.3,427.1,308.8,426.3,308.4z M421.1,295.9c-0.7,1.6-1.1,5.6-0.6,6.6
			c0.6-0.5,1-1.1,1-1.9C421.4,299,421.3,297.6,421.1,295.9z M423.9,302c-0.1,0.4-0.2,0.5-0.4,0.7c-0.2,1.2,0,2.4,0.4,3.6
			c0.1,0.4,0.4,0.4,0.6,0.1c0.1-0.1,0.2-0.2,0.2-0.4C425.3,305.1,425.1,303.2,423.9,302z M432.9,306.7c-0.9,0.4-1.4,1-1.6,1.7
			c-0.2,0.9-0.1,1.6,0.2,2.2c0.1,0.1,0.4,0.4,0.5,0.4s0.2-0.2,0.4-0.5c0.1-0.4,0.1-0.9,0.2-1.2C432.6,308.6,432.8,307.7,432.9,306.7
			z M461.6,344.2c-0.1,0.1-0.2,0.2-0.4,0.4c-0.1,0.1-0.2,0.2-0.2,0.2c-0.4,0.5-0.4,0.7,0.1,1c0.5,0.2,1,0.5,1.6,0.6
			c0.4,0.1,0.7-0.2,0.6-0.6c-0.2-0.5-0.5-1-0.7-1.5C462.2,344,461.8,343.8,461.6,344.2z M426.3,295.2c-0.4-0.4-0.7-0.6-1.1-0.9
			c-0.4-0.2-0.6,0-0.6,0.2c-0.1,0.4-0.1,0.7-0.1,1.1c0,1.2,0.5,1.5,1.5,0.9l0,0C426.8,296.1,426.8,295.9,426.3,295.2z M460.2,348
			c0.5,0.1,0.9,0.4,1.2,0.5c0.2,0.1,0.5,0.1,0.7,0.2c0.4,0.1,0.6-0.1,0.7-0.5c0-0.2,0.1-0.6,0-0.7C462.2,346.8,460.9,347,460.2,348z
			 M422.4,296.4c0.9-0.4,1.2-0.9,1.2-2c0-0.6-0.1-0.7-0.7-0.6c-0.5,0-0.6,0.4-0.6,0.9C422.2,295.2,422.4,295.8,422.4,296.4z
			 M425.3,307.9c0.9-0.6,1.2-2.6,0.9-3.5C425.6,305.6,425.7,306.7,425.3,307.9z M450.3,341.6c1.2,0.1,2.2,0.5,3.5,0.4
			C453.1,341.2,451.3,341.1,450.3,341.6z M410.5,328c0,0.6,0.4,1.1,0.9,1.2s1-0.1,1.2-0.6C412,328.5,411.2,328.2,410.5,328z
			 M428.3,349.5c-0.7-0.1-1.5-0.1-2.2-0.2c0.1,0.6,0.5,0.9,1,1C427.4,350.4,427.9,350,428.3,349.5z M431.8,319.3c-0.6,1-1.1,1.9-1,3
			c0.2-0.1,0.5-0.4,0.5-0.6C431.5,320.9,431.5,320.2,431.8,319.3z M441.2,332.2c-0.7-0.1-1.6-0.1-2.5-0.2c-0.2,0-0.5,0.1-0.6,0.2
			C439.2,332.7,440.2,332.6,441.2,332.2z M432.4,332.8c-0.1,0-0.1,0.1-0.1,0.1c0,0.2,0,0.6,0.1,0.9c0,0.1,0.5,0.1,0.5,0
			c0.1-0.2,0.1-0.5,0.1-0.7C433,332.9,432.6,332.9,432.4,332.8z"/>
		<path d="M460.2,348c0.6-0.9,1.9-1.1,2.7-0.5c0.1,0.1,0.1,0.5,0,0.7c0,0.4-0.4,0.6-0.7,0.5c-0.2,0-0.5-0.1-0.7-0.2
			C461.1,348.4,460.7,348.2,460.2,348z"/>
	</g>
	<g id="DEKNnk_3_">
		<g>
			<path d="M45.8,414.9c0.5-2.1,0.9-4.5,1.5-6.6c2.2-7.3,6.9-12.6,12.7-17.3c7.1-5.7,15.3-8.5,23.9-10.5c0.9-0.2,1.7-0.5,3-0.7
				c-4.3-4.1-5.6-9-4.9-14.5c0.6-5.3,2.4-10.1,5.7-14.5c8-10.3,18.2-16.7,31.4-16.8c3.8,0,7.9,1.2,11.5,2.6
				c4.5,1.7,8.7,4.2,13.2,6.4c0-0.7-0.1-1.9-0.1-2.8c0.1-4.6,3.1-7.4,6.4-9.8c5.2-3.7,11.3-5.2,17.4-5.8c16-1.6,31.9-1.2,47.8,1.6
				c4.3,0.7,8.8,2.7,12.6,5.1c6.4,3.8,8,9.5,5.8,16.7c-0.2,0.7-0.4,1.4-0.5,1.7c6.1-2.4,12.1-5.2,18.4-7.1c14.5-4.2,28-0.6,39.8,7.9
				c10.5,7.5,18.6,17.3,21.9,30.2c1.5,5.8,1.9,11.8,0.6,17.6c-1.9,8.7-3.8,10-11.9,11.1c3,4.9,6.3,9.9,8.9,15.1
				c4.2,8.2,6.7,17,6.4,26.4c-0.4,15.3-12.6,26.1-28,24.5c-1.7-0.2-3.5-0.7-5.1-1.5c-1.5-0.7-2.8-1.7-3.8-2.4
				c-0.6,5.3-0.7,10.8-2,16.1c-2.7,12.1-11.1,19.6-22.6,22.8c-7.4,2.1-15.3,2.6-22.6,0.5c0.1,16.8-0.1,33.7,0.5,50.5
				c0.5,16.8,1.7,33.5,0.4,50.9c0.1-0.4,0.2-0.7,0.4-1c8.9-17.3,22-31.1,37.6-42.3c10.8-7.7,21.4-15.5,32.4-22.8
				c6.1-4.1,12.5-7.5,18.9-10.9c13.2-7.1,25.9-15,36.5-25.7c3-2.8,6.2-5.3,9.4-7.8c3.1-2.4,4-2.2,6.3,0.7c0,0.4,0,0.7,0,1.1
				c-1.7,3.3-4,6.7-4.9,10.3c-2.5,9-0.7,18.1,0.7,27c1.5,9.3,2.5,18.7,1,28.1c-2.2,14-8.9,26.2-16,38.2c-1.9,3.1-4.3,5.7-6.6,8.5
				c-10.8,13.2-22.3,25.7-37.1,34.8c-17.8,10.9-36.6,19.7-56.9,24.6c-11.4,2.7-23,4.6-34.8,6.8c-0.9,2.8-1.9,6.3-2.8,9.8
				c-1,3.3-2.8,6.1-6.1,7.8c-0.5,0-1.1,0-1.6,0c-0.7-0.1-1.4-0.4-2.1-0.5c-5.1-0.9-7.3-4.3-5.8-9.3c0.7-2.5,1.7-5.1,3.3-7.2
				c4.1-5.4,5.8-11.6,6.7-18.2c0.5-3.3,0.7-6.6,1.1-9.9c-17.3,4.8-33.9,1.6-50.2-3.3c-14.5-4.3-26.1-13-35.5-24.5
				c-10.9-13.2-19.2-28.1-24.4-44.7c-2.5-7.7-6.1-15-9.2-22.5c-0.5-1.4-1.2-2.5-1.5-3.8c-0.2-1.1-0.4-2.8,0.2-3.6
				c0.6-0.6,2.6-0.6,3.6-0.1c7.3,4,15.1,6.4,23.3,7.8c7.1,1.2,14.1,2,21.2,3.1c11.3,1.9,20.9,7.4,30.2,13.9
				c7.5,5.2,14.4,11.4,20.2,18.4c4.3,5.2,8,10.8,12,16.2c5.6,7.7,9.4,16.1,12.4,25.1c0.4-3.1,0.9-6.3,1.1-9.5
				c0.4-3.2,0.6-6.4,0.6-9.7c0.2-14.4,0.2-28.8,0.6-43.2c0.4-13.1,1.5-26.1,1.5-39.1c0.1-11.4,0-22.8-2.8-34.3c-0.6,0.9-1,1.4-1.4,2
				c-4.5,7.7-11.1,13.1-18.8,17.1c-16.8,8.4-34,8.3-50.9,0.1c-12-5.9-17.7-16.6-18.7-30.4c-0.4,0.5-0.6,0.7-0.7,1
				c-5.1,9.2-13,13.9-23.4,14.2c-11.8,0.4-24.6-4.6-30.6-17.1c-5.8-12.1-5.2-24.3,1.1-36.1c1.1-2.1,2.5-4.1,3.6-5.9
				c-3.6-0.2-7.4-0.2-11.1-1c-13-2.8-18.9-14.4-20.2-24c-0.1-1-0.2-2-0.5-3C45.4,416.5,45.4,415.7,45.8,414.9z M148.5,590.9
				c-13.4-7.8-29.9-10.5-43.2-21.8c1.9,4.9,3.5,9,4.8,13.2c4.3,12.7,10.3,24.7,18.4,35.4c11.8,15.3,26.1,27.3,46.2,30.3
				c8,1.1,16.1,2.2,24.1,2.8c3.5,0.2,7.2-0.6,11.1-1.1c-4.3-8.5-9.4-15.5-15.5-21.8c-0.7-0.6-1.7-1.1-2.7-1.2
				c-2.7-0.4-5.6-0.9-8.3-0.6c-6.9,0.6-14,1.4-20.9,2.1c-2.1,0.2-3.8-0.4-4-2.7c-0.1-2.2,1.4-3,3.6-3.1c8.3-0.6,16.6-1.4,25.7-2.2
				c-9.8-7.7-18.9-15-28.2-22.1c-0.1,0.2-0.1,0.5-0.2,0.7c-1.6-0.1-3.3-0.4-5.1-0.5c-2.8-0.2-5.7-1-8.4-0.6
				c-3.5,0.6-6.8,2.1-10.3,3.2c-1.7,0.6-3.3,0.5-4.2-1.4c-0.7-1.9,0.1-3.2,2-3.8C138.6,594.1,143.7,592.6,148.5,590.9z M363.2,515
				c-0.2-0.2-0.5-0.4-0.7-0.5c-1.9,1.9-3.3,4.1-5.3,5.6c-6.8,4.9-13.6,9.9-20.7,14.4c-10.5,6.6-21.5,12.4-32,19.1
				c-9.3,5.9-18.2,12.4-27,18.9c-6.8,5.1-13.9,9.8-19.4,16.3c-5.3,6.3-10.8,12.5-14.5,18.8c1.4,2,3.2,3.3,3.5,4.9
				c0.9,4.9,1.2,9.9,1.5,15c0.1,2.8-0.4,5.6-0.7,9c3.2-3.3,5.9-6.2,8.5-9.2c3.8-4.5,7.2-9.4,11.4-13.5c6.7-6.6,10.9-13.7,10-23.3
				c-0.4-3.8-0.7-7.7-1.1-11.5c-0.2-2,0.6-3.2,2.6-3.5c1.9-0.2,2.7,0.9,3,2.6c0.1,1,0.4,2.1,0.5,3.2c0.4,4.8,0.6,9.7,1,14.1
				c6.8-5.8,14.4-11.6,21-18.1c6.1-5.9,11.6-12.6,17.3-19.1c3.7-4.2,6.9-8.9,11-12.7c7.9-7.3,16.3-14.1,24.3-21.4
				C359.8,521.8,362.7,519.1,363.2,515z M185.9,381c-0.9,0.1-2.5,0.2-4,0.5c-4.8,0.9-9.3,1.9-13.4,4.9c-3.1,2.4-6.8,4.2-10.5,5.4
				c-6.4,2.2-9,10-4.6,15.1c0.9,1,2,1.7,3.1,2.6c2.1,1.6,4,3.6,6.2,4.9c8.9,5.6,19.1,4.2,28.8,5.2c0.7,0,1.5-1,2.2-1.5
				c0.9-0.6,1.7-1.9,2.7-1.9c4.8-0.1,8.2-2.6,11-6.1c1.4-1.7,2.6-4,4.5-4.8c2.4-1.2,2.7-2.8,3-4.8c0.2-2.4,0.6-4.8,0.2-7.2
				c-0.6-4.6-3-8.4-7.4-10.3c-5.2-2.1-10.6-3.3-15.6-2.7c-0.5,1.7-0.6,3.3-1.5,4.6c-0.4,0.5-2.5,0.5-3,0
				C186.8,384.1,186.6,382.6,185.9,381z M224.2,666.6c0.6-1,1.1-1.5,1.5-2.1c3.5-5.1,6.8-10.3,10.3-15.3c0.7-0.9,2-1.6,2.4-2.6
				c1-2.2,1.6-4.7,2.4-7.2c2.1-7.4,2.4-15,1.6-22.5c-0.1-1.6-1-3-1.7-5.2C231,629.2,226.2,647.3,224.2,666.6z M216.9,677.4
				c-0.2,0-0.5-0.1-0.7-0.2c-2.5,4.3-4.9,8.7-7.4,13.1c-0.6,1-1.2,2.4,0.5,3c1.4,0.5,2.5,0.1,3-1.5
				C213.7,687,215.3,682.2,216.9,677.4z M171.6,519.9c3.2-0.2,6.3-0.5,9.4-0.9c9-1.2,17.1-5.2,23.6-11.5c3.3-3.1,5.9-7.3,7.9-11.5
				c5.1-10.5,5.9-21.8,4.2-33.3c-1.5-10.4-4.9-20-12.1-28c-2.5-2.7-5.6-5.6-9-7.1c-10.4-4.7-21-3.8-31.6,0.2
				c-1.4,0.6-2.7,1.6-3.8,2.6c-9.3,7.8-15.8,17.6-21,28.5c-5.4,11.4-8,23.1-5.4,35.8c1.2,5.9,3.6,11.6,8.4,15.5
				C150.7,516.9,160.6,520.1,171.6,519.9z M153.4,415.1c-1.5-0.1-2.8-0.4-4.2-0.4c-3.5,0-7.2-0.5-10.6,0.2
				c-5.6,1.2-10.9,3.1-16.2,4.8c-12.3,3.8-22.1,11.4-31.6,19.9c-4.5,4.1-8.4,8.3-11.4,13.5c-5.2,9.2-6.8,18.7-3,28.7
				c4.1,10.6,13.1,16.7,25,16.8c11.3,0.1,17.6-4.3,22.1-16.1c2.1-5.4,3.6-11.4,5.6-17c2.8-8.2,6.6-16.1,12-22.9
				c5.6-7.1,11.8-13.6,17.4-20.2C157,420.4,155.2,417.9,153.4,415.1z M202.8,421.9c0-0.1,0.2,0.2,0.5,0.6c4.8,7.2,10,14.1,14.1,21.8
				c5.6,10.5,7.9,22.1,7.9,34.2c0,4.7,0.2,9.4,0.5,14.1c0.6,10.3,4.8,12.6,10.1,13.4c4.9,0.7,10.1,0.5,15.1-0.4
				c9.4-1.7,16.8-6.7,20.8-15.7c4.1-9.4,3.2-18.8-0.2-28.1c-5.1-13.5-13.7-24.5-24.6-33.8c-8.7-7.3-17.9-13.5-29.4-15.6
				c-1-0.1-1.7-1.2-2.4-1.6C211.3,414.3,207.3,418,202.8,421.9z M221.9,401.9c6.2,3.3,12.5,5.7,17.6,9.8c7.5,5.9,14.2,13,21.2,19.8
				c6.8,6.7,11.8,14.6,15.7,23.3c1.7,3.8,4.3,7.4,6.9,10.9c2.6,3.5,6.4,4.5,10.6,4c11.1-1.4,18.1-8.8,17.8-19.9
				c-0.4-14.5-6.3-26.9-15.7-37.7c-1.9-2.2-4.1-4.5-6.4-6.1c-3.8-2.6-8-4.8-12-7.3c-9.5-5.9-19.6-10.6-30.8-12.5
				c-8-1.4-16-1.9-23.4,1.7C222.7,392.9,222.2,397.7,221.9,401.9z M147,393.3c-9.5-2.6-18.9-5.3-28.3-7.8c-3.7-1-7.5-2.1-11.4-2.1
				c-5.4,0-11,0.6-16.3,1.4c-11.4,1.6-22,4.8-30.8,13c-8.2,7.7-10.9,17.8-6.9,28.2c3.7,9.8,12.5,15.3,21.8,13.6
				c7.4-1.4,13.5-5.3,19.2-10c6.8-5.6,13.7-10.9,22.3-13.7c7.8-2.5,15.6-5.1,23.4-7.5c2.7-0.9,4.2-2.8,4.9-5.4
				C145.6,399.5,146.3,396.1,147,393.3z M205.7,375c5.2,3.6,10.9,5.4,17.3,4.8c14.5-1.5,28.7-0.4,42.1,5.6
				c7.4,3.2,14.2,7.9,21.5,11.8c4.3,2.4,8.9,4.7,13.6,6.4c3.8,1.4,6.1-0.2,7.5-4.1c1.9-4.8,1.5-9.9,0.6-15c-2-11.4-8.9-19.9-17.2-27
				c-13.1-11.1-28.2-14.4-44.4-7.3c-7.4,3.2-14.4,7.8-21.4,12C218.7,366.3,212.2,370.6,205.7,375z M183,328.2
				c-0.1,0.4-0.1,0.6-0.1,0.9c-2.4,0-4.8-0.1-7.2,0c-7.2,0.5-14.4,1.4-20.9,4.6c-5.6,2.7-6.8,6.3-4,11.8
				c4.3,8.5,10.1,15.7,17.6,21.8c4,3.2,7.9,6.2,13.2,6.9c6.6,0.9,12.7,0.7,18.3-3.5c3.5-2.6,7.2-5.1,10.9-7.5c2.8-2,5.9-3.7,8.8-5.7
				c4.8-3.3,8-7.9,8.9-13.7c0.2-1.6-0.4-3.8-1.2-5.3c-2.5-4.2-6.9-5.7-11.4-6.3C205,330.5,194,329.6,183,328.2z M171.8,376.1
				c-2.4-1.5-4.7-2.5-6.4-4.1c-3.7-3.5-7.4-6.9-10.5-10.9c-6.2-7.9-14.4-13.5-22.9-18.4c-7.4-4.3-15.5-4.6-23.4-1.7
				c-8.4,3.2-14.6,9.3-18.9,17.1c-1.1,1.9-2,4.1-2.2,6.2c-0.9,7.5,1.5,12.6,10,12.6s17,1.4,25.1,3.8c5.8,1.7,11.8,3.2,17.6,4.9
				C152.5,389.4,162.6,385.5,171.8,376.1z M363.9,525.7c-0.7,0.7-1.4,1.4-2,1.9c-6.6,5.9-13.4,11.5-19.8,17.7
				c-5.7,5.6-11,11.5-16.3,17.3c-5.2,5.6-10.1,11.4-15.3,17c-2.6,2.7-5.6,5.2-8.8,8.2c4.3-0.7,8.2-1.6,12-2c6.8-0.6,13.6-1,20.4-1.4
				c2,0,3.5,1,3.3,3.5s-2,2.4-3.8,2.4c-4.8,0.1-9.7,0-14.4,0.6c-8.4,1.1-16.7,2.6-25.1,4.1c-0.7,0.2-1.6,0.7-2.2,1.4
				c-10.6,11.5-21.2,23-31.7,34.5c-0.4,0.2-0.4,0.7-0.7,1.4c0.6,0,1,0,1.4-0.1c5.2-2.1,10.5-4.2,15.7-6.2
				c11.1-4.2,22.6-6.6,34.6-5.8c2.6,0.1,4.1,1.4,3.8,3.3c-0.4,2.1-1.9,2.5-3.7,2.4c-9-0.9-17.9,0.4-26.5,3.3
				c-11.3,3.8-22.4,8.3-33.7,12.5c-0.5,0.2-1,0.6-1.5,1.1c-10,9.4-16.7,21.3-24.6,32.5c12.5-1.5,24.5-3.7,36.4-7.2
				c17.7-5.1,34.3-13,49.7-22.9c6.6-4.1,12.4-9.4,17.9-14.7c6.1-5.7,11.6-11.9,17-18.3c5.8-6.9,10.9-14.5,14.1-23
				c1.6-4.2,3.6-8.3,4.9-12.6c3.3-10.4,3.2-20.9,1.4-31.6C365.4,538.5,364.9,532.2,363.9,525.7z"/>
			<g>
				<path d="M203.1,408.6c0.9,0.2,2.2-0.2,3-0.9c0.5-0.4,0.5-1.7,0.1-2.5c-0.9-2.4-4.5-2.8-6.2-1.1c-0.6,0.5-1.2,1-2.2,1.9
					C199.7,407,201.3,408.1,203.1,408.6z"/>
				<path d="M181,396.7c-1.5,0.4-2.6,0.6-3.7,0.9c0.1,0.2,0.1,0.5,0.2,0.7c2.1,0.2,4.3,0.9,6.4,0.7c1-0.1,2.1-1.5,2.7-2.5
					c0.5-0.6,0.1-1.7,0.1-2.8C184,393.5,181.3,393,181,396.7z"/>
				<path d="M161.9,400.2c-0.5-0.7-2.7-1.5-3.6-1.1c-3.8,2.1-0.2,4.3,0.2,7.2C160,403.9,163.8,403.6,161.9,400.2z"/>
				<path d="M171.8,395.8c0.2-1.9-1.2-2.8-3.2-2.8c-1.9,0-3.1,0.9-3.1,2.7c-0.1,2,1.2,3,3.8,3.5C170.1,398,171.6,397,171.8,395.8z"
					/>
				<path d="M188.7,411.8c-1-1.6-2.6-2.2-3.8-1c-0.7,0.7-1.1,2.8-0.6,4c0.7,1.7,2.5,1.5,4,0.5c0.6-0.4,1.2-0.9,2-1.2
					C189.7,413.3,189.2,412.6,188.7,411.8z"/>
				<path d="M195,393.4c-0.6,0.1-1.4,2.1-1.1,3c0.1,0.9,1.4,2,2.4,2.1c2.6,0.5,2.7-1.9,3.8-4.5C198.1,393.8,196.5,393.3,195,393.4z"
					/>
				<path d="M208.8,389.3c-1.9,0-2.8,1.1-2.8,3c0.1,2.2,1.5,2.8,5.3,2.4C211.6,390.8,211,389.2,208.8,389.3z"/>
				<path d="M175.2,407.8c0.1-1.7-1.2-2.8-2.8-2.4c-1,0.2-2.4,1.6-2.4,2.6c0,0.9,1.4,1.9,2.7,3.5C174,409.6,175.1,408.7,175.2,407.8
					z"/>
			</g>
		</g>
	</g>
	<g id="DEKNnk_4_">
		<g>
			<path d="M-68.7,528.5c0.5-2.1,0.9-4.5,1.5-6.6c2.2-7.3,6.9-12.6,12.7-17.3c7.1-5.7,15.3-8.5,23.9-10.5c0.9-0.2,1.7-0.5,3-0.7
				c-4.3-4.1-5.6-9-4.9-14.5c0.6-5.3,2.4-10.1,5.7-14.5c8-10.3,18.2-16.7,31.4-16.8c3.8,0,7.9,1.2,11.5,2.6
				c4.5,1.7,8.7,4.2,13.2,6.4c0-0.7-0.1-1.9-0.1-2.8c0.1-4.6,3.1-7.4,6.4-9.8c5.2-3.7,11.3-5.2,17.4-5.8c16-1.6,31.9-1.2,47.8,1.6
				c4.3,0.7,8.8,2.7,12.6,5.1c6.4,3.8,8,9.5,5.8,16.7c-0.2,0.7-0.4,1.4-0.5,1.7c6.1-2.4,12.1-5.2,18.4-7.1c14.5-4.2,28-0.6,39.8,7.9
				c10.5,7.5,18.6,17.3,21.9,30.2c1.5,5.8,1.9,11.8,0.6,17.6c-1.9,8.7-3.8,10-11.9,11.1c3,4.9,6.3,9.9,8.9,15.1
				c4.2,8.2,6.7,17,6.4,26.4c-0.4,15.3-12.6,26.1-28,24.5c-1.7-0.2-3.5-0.7-5.1-1.5c-1.5-0.7-2.8-1.7-3.8-2.4
				c-0.6,5.3-0.7,10.8-2,16.1c-2.7,12.1-11.1,19.6-22.6,22.8c-7.4,2.1-15.3,2.6-22.6,0.5c0.1,16.8-0.1,33.7,0.5,50.5
				c0.5,16.8,1.7,33.5,0.4,50.9c0.1-0.4,0.2-0.7,0.4-1c8.9-17.3,22-31.1,37.6-42.3c10.8-7.7,21.4-15.5,32.4-22.8
				c6.1-4.1,12.5-7.5,18.9-10.9c13.2-7.1,25.9-15,36.5-25.7c3-2.8,6.2-5.3,9.4-7.8c3.1-2.4,4-2.2,6.3,0.7c0,0.4,0,0.7,0,1.1
				c-1.7,3.3-4,6.7-4.9,10.3c-2.5,9-0.7,18.1,0.7,27c1.5,9.3,2.5,18.7,1,28.1c-2.2,14-8.9,26.2-16,38.2c-1.9,3.1-4.3,5.7-6.6,8.5
				c-10.8,13.2-22.3,25.7-37.1,34.8c-17.8,10.9-36.6,19.7-56.9,24.6c-11.4,2.7-23,4.6-34.8,6.8c-0.9,2.8-1.9,6.3-2.8,9.8
				c-1,3.3-2.8,6.1-6.1,7.8c-0.5,0-1.1,0-1.6,0c-0.7-0.1-1.4-0.4-2.1-0.5c-5.1-0.9-7.3-4.3-5.8-9.3c0.7-2.5,1.7-5.1,3.3-7.2
				c4.1-5.4,5.8-11.6,6.7-18.2c0.5-3.3,0.7-6.6,1.1-9.9c-17.3,4.8-33.9,1.6-50.2-3.3c-14.5-4.3-26.1-13-35.5-24.5
				C2.6,727-5.7,712.1-10.9,695.5c-2.5-7.7-6.1-15-9.2-22.5c-0.5-1.4-1.2-2.5-1.5-3.8c-0.2-1.1-0.4-2.8,0.2-3.6
				c0.6-0.6,2.6-0.6,3.6-0.1c7.3,4,15.1,6.4,23.3,7.8c7.1,1.2,14.1,2,21.2,3.1c11.3,1.9,20.9,7.4,30.2,13.9
				c7.5,5.2,14.4,11.4,20.2,18.4c4.3,5.2,8,10.8,12,16.2c5.6,7.7,9.4,16.1,12.4,25.1c0.4-3.1,0.9-6.3,1.1-9.5
				c0.4-3.2,0.6-6.4,0.6-9.7c0.2-14.4,0.2-28.8,0.6-43.2c0.4-13.1,1.5-26.1,1.5-39.1c0.1-11.4,0-22.8-2.8-34.3c-0.6,0.9-1,1.4-1.4,2
				c-4.5,7.7-11.1,13.1-18.8,17.1c-16.8,8.4-34,8.3-50.9,0.1c-12-5.9-17.7-16.6-18.7-30.4c-0.4,0.5-0.6,0.7-0.7,1
				c-5.1,9.2-13,13.9-23.4,14.2c-11.8,0.4-24.6-4.6-30.6-17.1c-5.8-12.1-5.2-24.3,1.1-36.1c1.1-2.1,2.5-4.1,3.6-5.9
				c-3.6-0.2-7.4-0.2-11.1-1c-13-2.8-18.9-14.4-20.2-24c-0.1-1-0.2-2-0.5-3C-69.1,530.1-69.1,529.3-68.7,528.5z M34,704.5
				C20.6,696.7,4.1,694-9.2,682.7c1.9,4.9,3.5,9,4.8,13.2c4.3,12.7,10.3,24.7,18.4,35.4c11.8,15.3,26.1,27.3,46.2,30.3
				c8,1.1,16.1,2.2,24.1,2.8c3.5,0.2,7.2-0.6,11.1-1.1c-4.3-8.5-9.4-15.5-15.5-21.8c-0.7-0.6-1.7-1.1-2.7-1.2
				c-2.7-0.4-5.6-0.9-8.3-0.6c-6.9,0.6-14,1.4-20.9,2.1c-2.1,0.2-3.8-0.4-4-2.7c-0.1-2.2,1.4-3,3.6-3.1c8.3-0.6,16.6-1.4,25.7-2.2
				c-9.8-7.7-18.9-15-28.2-22.1c-0.1,0.2-0.1,0.5-0.2,0.7c-1.6-0.1-3.3-0.4-5.1-0.5c-2.8-0.2-5.7-1-8.4-0.6
				c-3.5,0.6-6.8,2.1-10.3,3.2c-1.7,0.6-3.3,0.5-4.2-1.4c-0.7-1.9,0.1-3.2,2-3.8C24.1,707.7,29.2,706.2,34,704.5z M248.7,628.6
				c-0.2-0.2-0.5-0.4-0.7-0.5c-1.9,1.9-3.3,4.1-5.3,5.6c-6.8,4.9-13.6,9.9-20.7,14.4c-10.5,6.6-21.5,12.4-32,19.1
				c-9.3,5.9-18.2,12.4-27,18.9c-6.8,5.1-13.9,9.8-19.4,16.3c-5.3,6.3-10.8,12.5-14.5,18.8c1.4,2,3.2,3.3,3.5,4.9
				c0.9,4.9,1.2,9.9,1.5,15c0.1,2.8-0.4,5.6-0.7,9c3.2-3.3,5.9-6.2,8.5-9.2c3.8-4.5,7.2-9.4,11.4-13.5c6.7-6.6,10.9-13.7,10-23.3
				c-0.4-3.8-0.7-7.7-1.1-11.5c-0.2-2,0.6-3.2,2.6-3.5c1.9-0.2,2.7,0.9,3,2.6c0.1,1,0.4,2.1,0.5,3.2c0.4,4.8,0.6,9.7,1,14.1
				c6.8-5.8,14.4-11.6,21-18.1c6.1-5.9,11.6-12.6,17.3-19.1c3.7-4.2,6.9-8.9,11-12.7c7.9-7.3,16.3-14.1,24.3-21.4
				C245.3,635.4,248.2,632.7,248.7,628.6z M71.4,494.6c-0.9,0.1-2.5,0.2-4,0.5C62.6,496,58.1,497,54,500c-3.1,2.4-6.8,4.2-10.5,5.4
				c-6.4,2.2-9,10-4.6,15.1c0.9,1,2,1.7,3.1,2.6c2.1,1.6,4,3.6,6.2,4.9c8.9,5.6,19.1,4.2,28.8,5.2c0.7,0,1.5-1,2.2-1.5
				c0.9-0.6,1.7-1.9,2.7-1.9c4.8-0.1,8.2-2.6,11-6.1c1.4-1.7,2.6-4,4.5-4.8c2.4-1.2,2.7-2.8,3-4.8c0.2-2.4,0.6-4.8,0.2-7.2
				c-0.6-4.6-3-8.4-7.4-10.3c-5.2-2.1-10.6-3.3-15.6-2.7c-0.5,1.7-0.6,3.3-1.5,4.6c-0.4,0.5-2.5,0.5-3,0
				C72.3,497.7,72.1,496.2,71.4,494.6z M109.7,780.2c0.6-1,1.1-1.5,1.5-2.1c3.5-5.1,6.8-10.3,10.3-15.3c0.7-0.9,2-1.6,2.4-2.6
				c1-2.2,1.6-4.7,2.4-7.2c2.1-7.4,2.4-15,1.6-22.5c-0.1-1.6-1-3-1.7-5.2C116.5,742.8,111.7,760.9,109.7,780.2z M102.4,791
				c-0.2,0-0.5-0.1-0.7-0.2c-2.5,4.3-4.9,8.7-7.4,13.1c-0.6,1-1.2,2.4,0.5,3c1.4,0.5,2.5,0.1,3-1.5
				C99.2,800.6,100.8,795.8,102.4,791z M57.1,633.5c3.2-0.2,6.3-0.5,9.4-0.9c9-1.2,17.1-5.2,23.6-11.5c3.3-3.1,5.9-7.3,7.9-11.5
				c5.1-10.5,5.9-21.8,4.2-33.3c-1.5-10.4-4.9-20-12.1-28c-2.5-2.7-5.6-5.6-9-7.1c-10.4-4.7-21-3.8-31.6,0.2
				c-1.4,0.6-2.7,1.6-3.8,2.6c-9.3,7.8-15.8,17.6-21,28.5c-5.4,11.4-8,23.1-5.4,35.8c1.2,5.9,3.6,11.6,8.4,15.5
				C36.2,630.5,46.1,633.7,57.1,633.5z M38.9,528.7c-1.5-0.1-2.8-0.4-4.2-0.4c-3.5,0-7.2-0.5-10.6,0.2c-5.6,1.2-10.9,3.1-16.2,4.8
				c-12.3,3.8-22.1,11.4-31.6,19.9c-4.5,4.1-8.4,8.3-11.4,13.5c-5.2,9.2-6.8,18.7-3,28.7c4.1,10.6,13.1,16.7,25,16.8
				c11.3,0.1,17.6-4.3,22.1-16.1c2.1-5.4,3.6-11.4,5.6-17c2.8-8.2,6.6-16.1,12-22.9c5.6-7.1,11.8-13.6,17.4-20.2
				C42.5,534,40.7,531.5,38.9,528.7z M88.3,535.5c0-0.1,0.2,0.2,0.5,0.6c4.8,7.2,10,14.1,14.1,21.8c5.6,10.5,7.9,22.1,7.9,34.2
				c0,4.7,0.2,9.4,0.5,14.1c0.6,10.3,4.8,12.6,10.1,13.4c4.9,0.7,10.1,0.5,15.1-0.4c9.4-1.7,16.8-6.7,20.8-15.7
				c4.1-9.4,3.2-18.8-0.2-28.1c-5.1-13.5-13.7-24.5-24.6-33.8c-8.7-7.3-17.9-13.5-29.4-15.6c-1-0.1-1.7-1.2-2.4-1.6
				C96.8,527.9,92.8,531.6,88.3,535.5z M107.4,515.5c6.2,3.3,12.5,5.7,17.6,9.8c7.5,5.9,14.2,13,21.2,19.8
				c6.8,6.7,11.8,14.6,15.7,23.3c1.7,3.8,4.3,7.4,6.9,10.9c2.6,3.5,6.4,4.5,10.6,4c11.1-1.4,18.1-8.8,17.8-19.9
				c-0.4-14.5-6.3-26.9-15.7-37.7c-1.9-2.2-4.1-4.5-6.4-6.1c-3.8-2.6-8-4.8-12-7.3c-9.5-5.9-19.6-10.6-30.8-12.5
				c-8-1.4-16-1.9-23.4,1.7C108.2,506.5,107.7,511.3,107.4,515.5z M32.5,506.9c-9.5-2.6-18.9-5.3-28.3-7.8c-3.7-1-7.5-2.1-11.4-2.1
				c-5.4,0-11,0.6-16.3,1.4c-11.4,1.6-22,4.8-30.8,13c-8.2,7.7-10.9,17.8-6.9,28.2c3.7,9.8,12.5,15.3,21.8,13.6
				c7.4-1.4,13.5-5.3,19.2-10c6.8-5.6,13.7-10.9,22.3-13.7c7.8-2.5,15.6-5.1,23.4-7.5c2.7-0.9,4.2-2.8,4.9-5.4
				C31.1,513.1,31.8,509.7,32.5,506.9z M91.2,488.6c5.2,3.6,10.9,5.4,17.3,4.8c14.5-1.5,28.7-0.4,42.1,5.6
				c7.4,3.2,14.2,7.9,21.5,11.8c4.3,2.4,8.9,4.7,13.6,6.4c3.8,1.4,6.1-0.2,7.5-4.1c1.9-4.8,1.5-9.9,0.6-15c-2-11.4-8.9-19.9-17.2-27
				c-13.1-11.1-28.2-14.4-44.4-7.3c-7.4,3.2-14.4,7.8-21.4,12C104.2,479.9,97.7,484.2,91.2,488.6z M68.5,441.8
				c-0.1,0.4-0.1,0.6-0.1,0.9c-2.4,0-4.8-0.1-7.2,0c-7.2,0.5-14.4,1.4-20.9,4.6c-5.6,2.7-6.8,6.3-4,11.8
				c4.3,8.5,10.1,15.7,17.6,21.8c4,3.2,7.9,6.2,13.2,6.9c6.6,0.9,12.7,0.7,18.3-3.5c3.5-2.6,7.2-5.1,10.9-7.5c2.8-2,5.9-3.7,8.8-5.7
				c4.8-3.3,8-7.9,8.9-13.7c0.2-1.6-0.4-3.8-1.2-5.3c-2.5-4.2-6.9-5.7-11.4-6.3C90.5,444.1,79.5,443.2,68.5,441.8z M57.3,489.7
				c-2.4-1.5-4.7-2.5-6.4-4.1c-3.7-3.5-7.4-6.9-10.5-10.9c-6.2-7.9-14.4-13.5-22.9-18.4c-7.4-4.3-15.5-4.6-23.4-1.7
				c-8.4,3.2-14.6,9.3-18.9,17.1c-1.1,1.9-2,4.1-2.2,6.2c-0.9,7.5,1.5,12.6,10,12.6s17,1.4,25.1,3.8c5.8,1.7,11.8,3.2,17.6,4.9
				C38,503,48.1,499.1,57.3,489.7z M249.4,639.3c-0.7,0.7-1.4,1.4-2,1.9c-6.6,5.9-13.4,11.5-19.8,17.7c-5.7,5.6-11,11.5-16.3,17.3
				c-5.2,5.6-10.1,11.4-15.3,17c-2.6,2.7-5.6,5.2-8.8,8.2c4.3-0.7,8.2-1.6,12-2c6.8-0.6,13.6-1,20.4-1.4c2,0,3.5,1,3.3,3.5
				s-2,2.4-3.8,2.4c-4.8,0.1-9.7,0-14.4,0.6c-8.4,1.1-16.7,2.6-25.1,4.1c-0.7,0.2-1.6,0.7-2.2,1.4c-10.6,11.5-21.2,23-31.7,34.5
				c-0.4,0.2-0.4,0.7-0.7,1.4c0.6,0,1,0,1.4-0.1c5.2-2.1,10.5-4.2,15.7-6.2c11.1-4.2,22.6-6.6,34.6-5.8c2.6,0.1,4.1,1.4,3.8,3.3
				c-0.4,2.1-1.9,2.5-3.7,2.4c-9-0.9-17.9,0.4-26.5,3.3c-11.3,3.8-22.4,8.3-33.7,12.5c-0.5,0.2-1,0.6-1.5,1.1
				c-10,9.4-16.7,21.3-24.6,32.5c12.5-1.5,24.5-3.7,36.4-7.2c17.7-5.1,34.3-13,49.7-22.9c6.6-4.1,12.4-9.4,17.9-14.7
				c6.1-5.7,11.6-11.9,17-18.3c5.8-6.9,10.9-14.5,14.1-23c1.6-4.2,3.6-8.3,4.9-12.6c3.3-10.4,3.2-20.9,1.4-31.6
				C250.9,652.1,250.4,645.8,249.4,639.3z"/>
			<g>
				<path d="M88.6,522.2c0.9,0.2,2.2-0.2,3-0.9c0.5-0.4,0.5-1.7,0.1-2.5c-0.9-2.4-4.5-2.8-6.2-1.1c-0.6,0.5-1.2,1-2.2,1.9
					C85.2,520.6,86.8,521.7,88.6,522.2z"/>
				<path d="M66.5,510.3c-1.5,0.4-2.6,0.6-3.7,0.9c0.1,0.2,0.1,0.5,0.2,0.7c2.1,0.2,4.3,0.9,6.4,0.7c1-0.1,2.1-1.5,2.7-2.5
					c0.5-0.6,0.1-1.7,0.1-2.8C69.5,507.1,66.8,506.6,66.5,510.3z"/>
				<path d="M47.4,513.8c-0.5-0.7-2.7-1.5-3.6-1.1c-3.8,2.1-0.2,4.3,0.2,7.2C45.5,517.5,49.3,517.2,47.4,513.8z"/>
				<path d="M57.3,509.4c0.2-1.9-1.2-2.8-3.2-2.8c-1.9,0-3.1,0.9-3.1,2.7c-0.1,2,1.2,3,3.8,3.5C55.6,511.6,57.1,510.6,57.3,509.4z"
					/>
				<path d="M74.2,525.4c-1-1.6-2.6-2.2-3.8-1c-0.7,0.7-1.1,2.8-0.6,4c0.7,1.7,2.5,1.5,4,0.5c0.6-0.4,1.2-0.9,2-1.2
					C75.2,526.9,74.7,526.2,74.2,525.4z"/>
				<path d="M80.5,507c-0.6,0.1-1.4,2.1-1.1,3c0.1,0.9,1.4,2,2.4,2.1c2.6,0.5,2.7-1.9,3.8-4.5C83.6,507.4,82,506.9,80.5,507z"/>
				<path d="M94.3,502.9c-1.9,0-2.8,1.1-2.8,3c0.1,2.2,1.5,2.8,5.3,2.4C97.1,504.4,96.5,502.8,94.3,502.9z"/>
				<path d="M60.7,521.4c0.1-1.7-1.2-2.8-2.8-2.4c-1,0.2-2.4,1.6-2.4,2.6c0,0.9,1.4,1.9,2.7,3.5C59.5,523.2,60.6,522.3,60.7,521.4z"
					/>
			</g>
		</g>
	</g>
	<g>
		<path d="M730.7,449.5c-2.8-0.9-4.8-3.2-4.9-6.2c-0.4,0-0.7,0-1.1,0c-2.5-0.2-4.6-1.1-6.6-2.7c-0.2-0.2-0.4-0.2-0.7-0.2
			c-0.7,0.2-1.6-0.2-2-1c-0.4-0.7-0.2-1.6,0.4-2.1c0.6-0.6,1.5-0.7,2.2-0.4c0.7,0.4,1.2,1.2,1,2c-0.1,0.5,0,0.7,0.4,1
			c2,1.7,4.2,2.6,6.8,2.6c0.9-2.2,2.1-3.1,3.8-2.5c0.4-2,1.2-3.7,2.8-5.1c-0.4-0.4-0.7-0.7-1-1.1c-0.5-0.6-1.1-1.4-1.4-2.1
			c-2-4.6-3.8-9-5.6-13.6c-1-2.5-1.5-5.1-1.5-7.7c0-1.6,0.1-3.2,0.4-4.8c0.1-1.2,0.7-2.2,1.5-3.2c1.1-1.5,3.8-1.5,5.2-0.7
			c1,0.5,1.7,1.2,2.4,2c1.4,1.6,2.2,3.3,2.8,5.3c0.1,0.5,0.2,1,0.5,1.5c0.1,0.4,0.4,0.7,0.7,0.9c2.1,1,3.1,2.8,3.1,5.1
			c0,1.1,0.1,2.4-0.2,3.3c-0.4,1.2-0.2,2,0.7,2.8c0.9,0.7,1.1,1.9,1.1,3.1c0.4-0.2,0.7-0.5,1.1-0.7c4-3,8.3-4.2,13.2-4
			c1.6,0.1,3.3,0.5,4.9,0.7c0.7,0.1,1,0.5,0.9,1.2c-0.1,6.6-2.8,11.9-7.9,16c-0.5,0.4-1,0.7-1.6,1.1c0.1,0.1,0.2,0.1,0.4,0.2
			c1.2,0.4,2.1,1.2,2.6,2.4c0.4,0.9,0.5,1,1.5,0.9c0.4,0,0.9,0,1.2,0.1c1.1,0.2,2.1,0.5,3.1,0.9c1.7,0.6,2.8,2,3.2,3.7
			c0.1,0.9,0.5,1.5,1.2,2c1.7,1.1,3.3,2.5,4.5,4.2c0.5,0.6,0.9,1.4,1.2,2.1c0.9,1.7,0.4,4.5-1,5.6c-1.2,1-2.7,1.4-4.2,1.1
			c-1.5-0.2-3.1-0.5-4.6-1c-2.8-1-5.3-2.5-7.7-4.3c-3.3-2.7-6.6-5.3-9.9-8c-1.4-1.1-2.6-2.4-3.2-4.2c-1.7,1.1-3.6,1.5-5.7,1.2
			c-0.1,1.7-0.9,2.6-2.7,2.8c-0.4,0.1-0.5,0.1-0.6,0.5c-0.9,2.6-0.6,5.1,0.6,7.5c0,0.1,0.4,0.2,0.5,0.2c1.1,0.1,1.7,1,1.7,2
			s-0.9,1.7-1.9,1.7s-1.9-0.9-1.9-1.9c0-0.2,0-0.6,0.2-0.9c0.1-0.2,0.1-0.5,0-0.7c-1.1-2.7-1.2-5.4-0.2-8.2
			C730.5,449.8,730.7,449.6,730.7,449.5z M728.1,413.2c0,0,0-0.1,0.1-0.1c0-0.4,0.2-0.7-0.1-1.1c-0.1,0-0.1,0.1-0.2,0.2
			c-0.6,1-1.4,1.9-2,2.8c-0.1,0.1-0.1,0.5-0.1,0.6c0,0.5,0.1,0.9,0.2,1.2c0.1,0.2,0.4,0.4,0.6,0.2c0.4-0.4,1-0.7,1.1-1.1
			C727.9,415,727.9,414.1,728.1,413.2z M739.5,431.6c-0.4,0.9-0.1,2.1,0.5,3c1.2,1.9,2.7,3.5,4.5,4.9c0.2,0.2,0.6,0.4,1,0.5
			c0,0,0-0.1,0.1-0.1c0-0.1-0.1-0.1-0.1-0.2c-1-1.4-2-2.6-2.8-4c-0.1-0.1-0.2-0.4-0.1-0.5c0.5-0.7,1-1.5,1.5-2.1
			c1.6,2.1,3.1,4.1,4.6,6.2c0.7-0.4,1.4-0.9,2.1-1.4c-1.6-2.2-3.2-4.5-4.8-6.6c0.7-0.5,1.4-1,2.1-1.6c1.6,2.2,3.2,4.5,4.9,6.7
			c0.6-0.6,1.2-1.1,1.7-1.7c-1.5-2.1-3.1-4.1-4.6-6.2c0.9-0.2,1.6-0.6,2.4-0.9c0.1,0,0.4,0.1,0.5,0.2c1,1.2,2,2.6,3,4
			c0.1,0.1,0.2,0.2,0.4,0.6c0.5-1,0.9-1.9,1.2-2.7c-1.1-0.6-1.5-1.7-2.2-2.7c1.1-0.1,2-0.2,3.1-0.4c0-0.6,0.2-1.2,0.1-1.9
			c0-0.4-0.2-0.7-0.5-0.9c-0.6-0.2-1.4-0.2-2.1-0.5v0.1c0.2,0.4,0.5,0.7,0.9,1.1c-1,0-2,0.1-3,0.1c-0.1,0-0.2,0-0.2-0.1
			c-0.4-0.4-0.6-0.9-0.9-1.4c-0.9,0.1-1.9,0.2-2.8,0.5c0.5,0.6,0.9,1.1,1.2,1.6c-1,0.2-1.7,0.6-2.6,0.9c-0.4-0.5-0.7-1-1.2-1.6
			c-0.7,0.4-1.5,0.7-2.2,1.2c0.4,0.6,0.7,1,1.1,1.5c-0.7,0.5-1.4,1-2.1,1.6c-0.4-0.5-0.7-1-1.1-1.5c-0.6,0.6-1.2,1.1-1.9,1.6
			c0.4,0.4,0.6,0.7,0.9,1.1c0.1,0.1,0.2,0.4,0.1,0.5c-0.5,0.6-1.1,1.4-1.7,2.1C740.1,432.2,739.7,431.9,739.5,431.6z M730.9,428.6
			c0.1-0.1,0.1-0.1,0.1-0.1s0-0.1,0.1-0.2c-0.2-1.2-0.4-2.5-0.7-3.7c-0.5-1.7-1.2-3.3-1.4-5.2c-0.1-0.6-0.5-1.2-0.9-1.7
			c-0.2-0.5-0.7-0.4-1,0c-0.2,0.4-0.5,0.6-0.6,1c-0.1,0.2-0.1,0.6,0,0.9c1,2.5,2.1,4.8,3.2,7.2C730.2,427.2,730.7,427.9,730.9,428.6
			z M746,448.6C746,448.6,746,448.8,746,448.6c0,0.2,0,0.2,0.1,0.4c2.1,2.5,4.6,4.5,7.2,6.4c0.2,0.1,0.6,0.2,1,0.2s0.7-0.1,1.1-0.2
			c0.5-0.1,0.6-0.5,0.2-0.9c-0.4-0.5-0.7-0.9-1.2-1.1c-0.7-0.5-1.5-0.7-2.2-1.2c-1-0.6-2-1.4-3-2.1C748.2,449.5,747.1,449,746,448.6
			z M765.9,454.5L765.9,454.5c0.1-0.1,0.1-0.2,0.1-0.2c0.6-0.5,0.6-0.7,0-1.2s-1.2-0.9-1.9-1.4c-0.5-0.4-0.9-0.5-1.5-0.4
			c-0.6,0.2-1.2,0.1-1.9,0.5c-0.4,0.2-0.7,0.7-0.9,1.1c-0.1,0.6,0.6,1.6,1.4,1.6c1,0.1,2.1,0.2,3.1,0.2
			C764.9,454.8,765.4,454.6,765.9,454.5z M730.3,413.1h0.1c0,0.1,0.1,0.1,0.1,0.2c0.5,0.6,1,0.6,1.6,0.2c1.1-0.6,1.2-1.9,1.6-2.8
			c0.1-0.2-0.1-0.5-0.1-0.7c-0.2-0.7-0.5-1.5-0.7-2.2c-0.1-0.5-0.5-0.6-1-0.4c-0.7,0.4-1.2,0.9-1.4,1.7c-0.1,0.9-0.4,1.9-0.5,2.8
			C730,412.4,730.3,412.8,730.3,413.1z M735.4,418.8c0.6-0.6,1.1-1.1,1.7-1.6c1.1-1.1,0.9-2.4-0.5-3.2c-0.2-0.1-0.6-0.4-1-0.5
			c-0.1,0-0.4,0-0.5,0.1c-0.6,0.9-1.1,1.9-1.1,3C734.1,417.6,734.5,418.3,735.4,418.8z M756.8,448.1c1,1.2,2.2,1.5,3.7,1.2
			c1.2-0.2,1.2-0.2,1-1.4c0-0.1-0.1-0.4-0.1-0.5c-0.5-1.4-1.2-1.7-2.6-1.2c-0.6,0.2-1.4,0.6-2,1c-0.1,0.1-0.1,0.2-0.1,0.4
			C756.6,448,756.8,448.1,756.8,448.1z M737.1,428.3c0.5-0.1,0.7-0.2,1.1-0.4c0.2-0.1,0.5-0.1,0.5-0.4c0.2-0.7,0.5-1.4,0.6-2.2
			c0.1-0.4,0-0.7-0.1-1.1c-0.1-0.2-0.4-0.6-0.5-1c-0.4-0.7-1.1-0.9-1.7-0.2c-0.7,0.7-1,2-0.5,3c0.4,0.6,0.5,1.2,0.5,1.9
			C737.1,428.1,737.1,428.1,737.1,428.3z M747.7,442.9c0.1,0.1,0.2,0.1,0.4,0.1c0.7,0.1,1.4,0.5,1.9,1c0.7,0.7,2,0.9,3,0.2
			c0.2-0.1,0.4-0.5,0.5-0.7c0.1-0.6-1.1-2-1.7-2h-0.2c-0.6,0-1.2-0.1-1.9,0c-0.5,0-1,0-1,0.6c0,0.1-0.2,0.2-0.2,0.4
			C748.1,442.7,748,442.8,747.7,442.9z M731,443.2c0.2,0.9,0.2,1.7-0.4,2.5c-1,1.4-2.1,1.4-2.8-0.1c-0.1-0.2-0.2-0.5-0.4-0.7
			c-0.1,0-0.1,0-0.2,0.1c0.1,0.5,0.4,1.1,0.6,1.6c1,2,3.3,2.6,5.2,1.4c0.6-0.4,0.7-0.9,0.4-1.5C732.6,445.3,731.8,444.3,731,443.2z
			 M732.6,430.9L732.6,430.9c0.1-0.1,0.1-0.4,0.1-0.5c-0.1-1.1-0.2-2.2-0.4-3.3c-0.2-1.6-0.4-3.3-0.6-4.9c-0.1-1.2-0.9-2-1.7-2.8
			c-0.1,0.5-0.1,1,0,1.5c0.5,1.9,1,3.7,1.4,5.6c0.2,1,0.2,2,0.4,3C731.9,430.2,732.4,430.6,732.6,430.9z M744,446.3
			c0.2,0.7,0.9,1.2,1.4,1.5c0.6,0.2,1.2,0.5,1.7,0.7c2.1,0.9,3.8,2.1,5.7,3.3c0.4,0.2,0.9,0.4,1.4,0.5c-0.5-1.4-1.2-2.4-2.5-2.8
			c-1.5-0.6-2.8-1.2-4.3-1.9C746.4,447.3,745.3,446.8,744,446.3z M741.1,440.5L741.1,440.5c-0.2-0.6-0.5-1.2-0.9-1.7
			c-0.9-1.4-1.9-2.6-3.2-3.3c-1-0.5-1.9-0.6-2.8,0c-1.2,0.7-2.2,1.9-2.8,3.2c-0.1,0.2-0.1,0.4-0.2,0.6c0.5-0.4,0.7-0.9,1.1-1.1
			c2.6-2.4,4.3-2.2,6.6-0.1C739.6,438.7,740.2,439.6,741.1,440.5z M732.9,424.4c0,0.2,0,0.4,0,0.6c0.1,1,0.2,2.1,0.2,3.1
			c0.1,1.2,0.2,2.4,0.7,3.5c0.1,0.1,0.2,0.2,0.4,0.4c0.1-0.1,0.2-0.4,0.2-0.5c0-1.5-0.1-3.1-0.1-4.6c0-0.5-0.1-1-0.2-1.4
			C733.9,425,733.5,424.5,732.9,424.4z M761,456.7c0-0.5-0.5-0.5-0.7-0.6c-0.9-0.1-1.9-0.2-2.6-0.4c-0.9-0.2-1.5,0.1-2.1,0.7
			c-0.2,0.2-0.2,0.5,0.1,0.6c0.2,0.1,0.6,0.5,0.9,0.5c0.4,0.1,0.7,0.2,1.1,0.1c0.9-0.2,1.6-0.5,2.5-0.7
			C760.2,456.8,760.6,456.7,761,456.7z M750.5,448.3c0-0.2,0-0.5-0.1-0.6c-0.4-0.4-0.6-1-1.1-1.2c-1.7-0.7-3.5-1.2-5.2-1.9
			c-0.1,0-0.2,0-0.2,0c0,0.1,0,0.2,0.1,0.4c0.5,0.4,1,0.9,1.5,1.1c1.2,0.6,2.6,1.1,4,1.7C749.5,447.9,749.8,448,750.5,448.3z
			 M734.3,412.5h-0.1c-0.4,0.5-0.6,1-1,1.5c-0.6,1.1-0.9,2.4-1,3.5c0,0.5,0.1,0.9,0.6,1.1s1.1,0.4,1.6,0.5c0,0,0-0.1,0.1-0.1
			c-0.1-0.2-0.1-0.5-0.2-0.7c-0.5-0.6-0.6-1.4-0.5-2.1s0.4-1.6,0.6-2.5C734.1,413.4,734.1,413,734.3,412.5z M728.1,407.8
			c0,0.1-0.1,0.2-0.1,0.4c-0.1,0.6-0.2,1.4-0.2,2c0,0.9,0.6,1.4,1.5,1.4c0.4,0,0.7-0.1,0.7-0.6c0.1-0.5,0.1-1,0.1-1.5
			c0-0.2-0.1-0.5-0.2-0.7c-0.2-0.4-0.5-0.6-0.7-0.9C728.7,407.6,728.4,407.6,728.1,407.8z M764.6,456.4
			C764.6,456.3,764.7,456.3,764.6,456.4c-0.2-0.4-0.5-0.7-1-1c-0.4-0.2-0.9-0.2-1.4-0.2c-0.1,0-0.4,0.1-0.6,0.2
			c-0.4,0.4-0.2,1.6,0.2,1.9c0.9,0.5,1.7,0.6,2.6,0.5c0.5-0.1,0.6-0.5,0.4-0.9C764.8,456.8,764.7,456.6,764.6,456.4z M762.1,450.6
			v-0.1c-0.4-0.1-0.6-0.2-1-0.2c-0.7,0-1.4,0-2,0c-1.1,0-2-0.4-2.7-1.2c-0.1-0.2-0.4-0.4-0.6-0.6c0,0.6,0,1,0,1.4
			c0,0.7,0.2,1.1,1,1.2c0.5,0.1,1.1,0.2,1.6,0.2C759.6,451.5,760.9,450.9,762.1,450.6z M755.3,447c-0.6-0.5-1.1-1-1.7-1.5
			c-0.2-0.2-0.6-0.4-1-0.2c-0.7,0.1-1.4,0.5-2,0.6C751.5,447.3,754.2,447.9,755.3,447z M734.1,443.4c-0.6,0.5-0.7,1-0.6,1.4
			c0.5,1,1.9,1.1,2.6,0.4c0.4-0.4,0.5-1,0.2-1.5c-0.2-0.5-0.7-0.7-1.2-0.6S734.3,443.3,734.1,443.4z M734.9,425
			c0.5-0.6,0.9-1.4,1.2-2c0.1-0.1,0.1-0.2,0.1-0.4c-0.2-0.9-0.6-1.7-0.9-2.6C734.4,420.9,734.1,423.6,734.9,425z M735.1,432.3
			c0.4-1.4,0.9-2.7,1.1-4.1c0.2-0.9,0.1-1.9-0.7-2.7C735,427.9,734.7,430.1,735.1,432.3z M765.6,459.9L765.6,459.9
			c-1.1-0.5-2.2-0.9-3.3-1.4c-0.5-0.1-1-0.4-1.5-0.5c-0.6-0.1-1.2,0-1.9,0.6C761.1,459.4,763.3,459.9,765.6,459.9z M754.9,451.1
			c0.1,0,0.1-0.1,0.2-0.1c-0.1-0.9-0.2-1.7-0.4-2.6c0-0.1-0.2-0.2-0.4-0.2c-0.7-0.1-1.4-0.2-2.1-0.4c-0.2,0-0.5,0-0.7,0
			c0.1,0.2,0.2,0.5,0.4,0.7c0.1,0.1,0.2,0.1,0.4,0.2c0.9,0.5,1.7,1.1,2.2,2C754.5,450.9,754.8,451,754.9,451.1z M750,445.2
			c-0.1-0.1-0.1-0.2-0.2-0.4c0-0.1-0.1-0.1-0.2-0.2c-0.9-0.7-1.7-1-2.8-0.9c-0.7,0-1.4,0-2.1,0c-0.4,0-0.7,0-1.1-0.1v0.1
			C745.5,444.8,747.6,445.2,750,445.2z M760.5,455.3c0,0,0-0.1,0-0.2c-0.1-0.2-0.4-0.5-0.5-0.6c-0.7-1-1.7-1.4-2.8-1.2
			c-0.2,0-0.5,0.1-0.7,0.2c-0.4,0.1-0.4,0.4,0,0.6c1,0.5,2,1,3,1.4C759.6,455.6,760.1,455.3,760.5,455.3z M758.8,445.3
			c-1.2-0.2-2.4-0.5-3.5-0.7c-0.1,0-0.2,0-0.5,0c-0.5,0-0.5,0.2-0.4,0.7C755.2,446.8,757.6,446.9,758.8,445.3z M731.5,418.9
			c-0.1,0-0.1,0.1-0.1,0.1c0,0.2,0,0.5,0.1,0.6c0.9,0.9,1.2,1.9,1.5,3c0.1,0.4,0.4,0.6,0.5,1c0.1-0.2,0.1-0.2,0.1-0.2
			c0.1-0.9,0.2-1.9,0.4-2.7c0-0.1,0-0.4-0.1-0.4C733.1,419.8,732.3,419.3,731.5,418.9z M726.3,406.4c-0.7,1.6-1.1,5.6-0.6,6.6
			c0.6-0.5,1-1.1,1-1.9C726.6,409.5,726.5,408.1,726.3,406.4z M729.1,412.5c-0.1,0.4-0.2,0.5-0.4,0.7c-0.2,1.2,0,2.4,0.4,3.6
			c0.1,0.4,0.4,0.4,0.6,0.1c0.1-0.1,0.2-0.2,0.2-0.4C730.5,415.6,730.3,413.7,729.1,412.5z M738.1,417.2c-0.9,0.4-1.4,1-1.6,1.7
			c-0.2,0.9-0.1,1.6,0.2,2.2c0.1,0.1,0.4,0.4,0.5,0.4c0.1,0,0.2-0.2,0.4-0.5c0.1-0.4,0.1-0.9,0.2-1.2
			C737.8,419.1,738,418.2,738.1,417.2z M766.8,454.7c-0.1,0.1-0.2,0.2-0.4,0.4c-0.1,0.1-0.2,0.2-0.2,0.2c-0.4,0.5-0.4,0.7,0.1,1
			c0.5,0.2,1,0.5,1.6,0.6c0.4,0.1,0.7-0.2,0.6-0.6c-0.2-0.5-0.5-1-0.7-1.5C767.4,454.5,767,454.3,766.8,454.7z M731.5,405.7
			c-0.4-0.4-0.7-0.6-1.1-0.9c-0.4-0.2-0.6,0-0.6,0.2c-0.1,0.4-0.1,0.7-0.1,1.1c0,1.2,0.5,1.5,1.5,0.9l0,0
			C732,406.6,732,406.4,731.5,405.7z M765.4,458.5c0.5,0.1,0.9,0.4,1.2,0.5c0.2,0.1,0.5,0.1,0.7,0.2c0.4,0.1,0.6-0.1,0.7-0.5
			c0-0.2,0.1-0.6,0-0.7C767.4,457.3,766.1,457.5,765.4,458.5z M727.6,406.9c0.9-0.4,1.2-0.9,1.2-2c0-0.6-0.1-0.7-0.7-0.6
			c-0.5,0-0.6,0.4-0.6,0.9C727.4,405.7,727.6,406.3,727.6,406.9z M730.5,418.4c0.9-0.6,1.2-2.6,0.9-3.5
			C730.8,416.1,730.9,417.2,730.5,418.4z M755.5,452.1c1.2,0.1,2.2,0.5,3.5,0.4C758.3,451.7,756.5,451.6,755.5,452.1z M715.7,438.5
			c0,0.6,0.4,1.1,0.9,1.2s1-0.1,1.2-0.6C717.2,439,716.4,438.7,715.7,438.5z M733.5,460c-0.7-0.1-1.5-0.1-2.2-0.2
			c0.1,0.6,0.5,0.9,1,1C732.6,460.9,733.1,460.5,733.5,460z M737,429.8c-0.6,1-1.1,1.9-1,3c0.2-0.1,0.5-0.4,0.5-0.6
			C736.7,431.4,736.7,430.7,737,429.8z M746.4,442.7c-0.7-0.1-1.6-0.1-2.5-0.2c-0.2,0-0.5,0.1-0.6,0.2
			C744.4,443.2,745.4,443.1,746.4,442.7z M737.6,443.3c-0.1,0-0.1,0.1-0.1,0.1c0,0.2,0,0.6,0.1,0.9c0,0.1,0.5,0.1,0.5,0
			c0.1-0.2,0.1-0.5,0.1-0.7C738.2,443.4,737.8,443.4,737.6,443.3z"/>
		<path d="M765.4,458.5c0.6-0.9,1.9-1.1,2.7-0.5c0.1,0.1,0.1,0.5,0,0.7c0,0.4-0.4,0.6-0.7,0.5c-0.2,0-0.5-0.1-0.7-0.2
			C766.3,458.9,765.9,458.7,765.4,458.5z"/>
	</g>
	<g>
		<path d="M647.9,176.2c-2.4-1.7-3.7-4.5-2.9-7.4c-0.4-0.1-0.7-0.2-1.1-0.3c-2.3-0.9-4.1-2.4-5.5-4.5c-0.1-0.2-0.3-0.3-0.6-0.4
			c-0.7,0-1.5-0.7-1.6-1.5c-0.2-0.8,0.3-1.6,1-1.9c0.7-0.4,1.6-0.2,2.2,0.3c0.6,0.6,0.8,1.5,0.4,2.2c-0.2,0.4-0.2,0.7,0.1,1.1
			c1.4,2.2,3.3,3.7,5.7,4.5c1.5-1.8,2.9-2.4,4.4-1.3c1-1.8,2.2-3.2,4.2-4.1c-0.3-0.5-0.5-0.9-0.6-1.3c-0.3-0.7-0.6-1.7-0.7-2.4
			c-0.6-5-1-9.7-1.4-14.6c-0.2-2.7,0-5.3,0.8-7.8c0.5-1.5,1-3,1.8-4.5c0.4-1.1,1.3-1.9,2.4-2.6c1.5-1.1,4.1-0.3,5.2,0.8
			c0.8,0.8,1.3,1.6,1.7,2.6c0.9,1.9,1.1,3.8,1.1,5.9c0,0.5-0.1,1,0,1.6c0,0.4,0.2,0.8,0.4,1.1c1.7,1.6,2.2,3.6,1.5,5.8
			c-0.3,1.1-0.6,2.3-1.2,3.1c-0.7,1-0.8,1.9-0.1,2.9c0.7,0.9,0.5,2.1,0.2,3.3c0.4-0.1,0.8-0.3,1.3-0.3c4.7-1.7,9.2-1.6,13.8,0
			c1.5,0.6,3,1.4,4.5,2.1c0.6,0.3,0.8,0.8,0.5,1.4c-2,6.3-6.1,10.6-12.2,13c-0.6,0.2-1.2,0.4-1.9,0.6c0.1,0.1,0.2,0.2,0.3,0.3
			c1,0.7,1.7,1.8,1.8,3.1c0.1,1,0.2,1.1,1.2,1.3c0.4,0.1,0.9,0.3,1.1,0.4c1,0.5,1.9,1.1,2.7,1.8c1.5,1.1,2.1,2.7,2,4.5
			c-0.2,0.9,0,1.6,0.6,2.3c1.3,1.5,2.4,3.4,3.1,5.3c0.3,0.7,0.5,1.6,0.5,2.4c0.4,1.9-0.9,4.4-2.6,5.1c-1.4,0.6-3,0.6-4.3-0.2
			c-1.4-0.6-2.8-1.4-4.1-2.3c-2.4-1.8-4.3-3.9-6.1-6.4c-2.4-3.5-4.8-7-7.1-10.5c-1-1.5-1.8-3.1-1.8-4.9c-1.9,0.6-3.9,0.4-5.8-0.5
			c-0.6,1.6-1.6,2.2-3.4,1.9c-0.4,0-0.5,0-0.7,0.3c-1.6,2.2-2.1,4.7-1.6,7.4c0,0.1,0.3,0.3,0.4,0.3c1,0.4,1.3,1.5,1,2.4
			s-1.4,1.4-2.3,1.1c-1-0.3-1.6-1.4-1.3-2.4c0.1-0.2,0.2-0.6,0.5-0.8c0.2-0.2,0.2-0.4,0.2-0.7c-0.3-2.9,0.4-5.5,2.2-7.9
			C647.6,176.4,647.9,176.3,647.9,176.2z M656,140.7c0,0,0-0.1,0.1-0.1c0.1-0.4,0.4-0.6,0.2-1.1c-0.1,0-0.1,0.1-0.2,0.1
			c-0.9,0.8-1.9,1.4-2.7,2.1c-0.1,0.1-0.2,0.4-0.3,0.5c-0.1,0.5-0.2,0.9-0.2,1.2c0,0.2,0.3,0.5,0.5,0.4c0.5-0.3,1.2-0.4,1.4-0.7
			C655.3,142.3,655.5,141.5,656,140.7z M661.5,161.6c-0.6,0.7-0.7,2-0.4,3c0.6,2.2,1.6,4.1,2.9,6c0.1,0.2,0.5,0.6,0.8,0.8
			c0,0,0-0.1,0.1-0.1c0-0.1-0.1-0.1,0-0.2c-0.5-1.6-1.2-3.1-1.5-4.6c-0.1-0.1-0.1-0.4,0-0.5c0.7-0.5,1.4-1.1,2-1.6
			c0.9,2.5,1.8,4.8,2.6,7.3c0.8-0.2,1.6-0.5,2.4-0.7c-0.9-2.6-1.8-5.2-2.7-7.7c0.8-0.3,1.6-0.5,2.5-0.9c0.9,2.6,1.8,5.2,2.7,7.8
			c0.7-0.4,1.5-0.7,2.1-1.1c-0.8-2.4-1.8-4.8-2.6-7.3c0.9,0.1,1.7-0.1,2.6-0.2c0.1,0,0.4,0.2,0.4,0.3c0.6,1.4,1.2,3.1,1.7,4.7
			c0.1,0.1,0.1,0.2,0.2,0.7c0.8-0.8,1.4-1.6,1.9-2.2c-0.9-0.9-0.9-2.1-1.3-3.2c1.1,0.2,2,0.4,3.1,0.5c0.2-0.6,0.5-1.1,0.6-1.8
			c0.1-0.4,0-0.7-0.2-1c-0.5-0.4-1.3-0.6-1.9-1.1l0,0.1c0.1,0.4,0.3,0.8,0.5,1.3c-1-0.3-1.9-0.5-2.9-0.8c-0.1,0-0.2-0.1-0.2-0.2
			c-0.3-0.5-0.3-1-0.5-1.6c-0.9-0.2-1.9-0.4-2.8-0.3c0.3,0.7,0.5,1.3,0.7,1.9c-1-0.1-1.8,0.1-2.7,0.1c-0.2-0.6-0.4-1.2-0.7-1.9
			c-0.8,0.2-1.6,0.2-2.5,0.5c0.2,0.7,0.4,1.2,0.6,1.8c-0.8,0.3-1.6,0.5-2.5,0.9c-0.2-0.6-0.4-1.2-0.6-1.8c-0.7,0.4-1.5,0.7-2.3,1
			c0.3,0.5,0.4,0.8,0.5,1.3c0.1,0.1,0.1,0.4,0,0.5c-0.7,0.4-1.5,1-2.2,1.5C661.9,162.3,661.7,161.9,661.5,161.6z M654.2,156.2
			c0.1-0.1,0.1-0.1,0.1-0.1s0-0.1,0.2-0.2c0.2-1.2,0.3-2.5,0.4-3.7c0-1.8-0.2-3.5,0.2-5.4c0.1-0.6-0.1-1.3-0.4-1.9
			c0-0.5-0.6-0.6-1-0.3c-0.3,0.3-0.7,0.4-0.9,0.8c-0.2,0.2-0.3,0.5-0.3,0.9c0.2,2.7,0.6,5.2,1,7.8
			C653.9,154.7,654.2,155.5,654.2,156.2z M662.8,179.7C662.8,179.7,662.8,179.9,662.8,179.7c-0.1,0.2-0.1,0.2,0,0.4
			c1.3,3,3.1,5.6,5,8.2c0.2,0.2,0.5,0.4,0.9,0.5c0.4,0.1,0.7,0.1,1.1,0.1c0.5,0,0.7-0.3,0.5-0.8c-0.2-0.6-0.4-1.1-0.8-1.4
			c-0.5-0.7-1.2-1.1-1.8-1.8c-0.8-0.9-1.5-1.9-2.3-2.9C664.7,181.2,663.8,180.4,662.8,179.7z M680.1,191.2L680.1,191.2
			c0.1-0.1,0.2-0.2,0.2-0.2c0.7-0.3,0.8-0.5,0.3-1.1c-0.4-0.7-0.9-1.2-1.4-1.9c-0.4-0.5-0.7-0.7-1.3-0.8c-0.6,0-1.2-0.3-2-0.1
			c-0.4,0.1-0.9,0.5-1.2,0.8c-0.3,0.5,0.1,1.7,0.9,1.9c0.9,0.4,2,0.8,2.9,1.1C679.1,191.2,679.6,191.1,680.1,191.2z M658.1,141.2
			L658.1,141.2c0.1,0.1,0.2,0.2,0.1,0.2c0.3,0.7,0.8,0.9,1.5,0.7c1.2-0.3,1.7-1.5,2.3-2.2c0.2-0.2,0-0.5,0.1-0.7c0-0.7,0-1.6,0-2.3
			c0-0.5-0.3-0.7-0.8-0.7c-0.8,0.2-1.4,0.5-1.8,1.2c-0.4,0.8-0.9,1.7-1.3,2.5C658,140.5,658.2,140.9,658.1,141.2z M661.4,148.2
			c0.7-0.4,1.4-0.7,2.1-1c1.4-0.7,1.6-2,0.5-3.2c-0.2-0.2-0.5-0.6-0.8-0.8c-0.1,0-0.4-0.1-0.5,0c-0.8,0.7-1.6,1.5-1.9,2.6
			C660.5,146.6,660.6,147.4,661.4,148.2z M673.3,182.4c0.6,1.4,1.7,2.1,3.2,2.2c1.2,0.2,1.2,0.2,1.4-1c0-0.1,0-0.4,0-0.5
			c-0.1-1.5-0.7-2-2.1-1.9c-0.6,0-1.5,0.2-2.2,0.4c-0.1,0.1-0.2,0.2-0.2,0.4C673.1,182.3,673.3,182.4,673.3,182.4z M660.2,157.7
			c0.5,0,0.7,0,1.2-0.1c0.2,0,0.5,0,0.6-0.2c0.4-0.6,0.9-1.2,1.2-1.9c0.2-0.4,0.2-0.7,0.2-1.1c0-0.2-0.2-0.7-0.2-1.1
			c-0.2-0.8-0.8-1.2-1.6-0.7c-0.9,0.5-1.5,1.6-1.4,2.7c0.2,0.7,0.1,1.3-0.1,2C660.3,157.5,660.3,157.5,660.2,157.7z M666.1,174.8
			c0.1,0.1,0.2,0.2,0.4,0.2c0.6,0.3,1.2,0.9,1.5,1.5c0.5,0.9,1.7,1.4,2.8,1.1c0.2,0,0.5-0.4,0.7-0.5c0.3-0.5-0.5-2.2-1-2.4l-0.2-0.1
			c-0.6-0.2-1.1-0.4-1.8-0.6c-0.5-0.1-1-0.3-1.1,0.3c0,0.1-0.2,0.1-0.3,0.3C666.5,174.7,666.4,174.8,666.1,174.8z M650,170.2
			c-0.1,0.9-0.3,1.7-1.1,2.3c-1.4,1-2.4,0.7-2.6-0.9c0-0.2,0-0.5-0.2-0.8c-0.1,0-0.1,0-0.2,0c0,0.5,0.1,1.2,0.1,1.7
			c0.4,2.2,2.4,3.4,4.6,2.9c0.7-0.2,0.9-0.7,0.8-1.3C651,172.7,650.5,171.5,650,170.2z M655.2,158.9L655.2,158.9
			c0.1-0.1,0.2-0.4,0.2-0.4c0.2-1.1,0.4-2.2,0.6-3.3c0.3-1.6,0.6-3.3,0.9-4.9c0.3-1.2-0.3-2.2-0.8-3.2c-0.2,0.4-0.4,0.9-0.4,1.4
			c-0.1,2-0.1,3.8-0.3,5.8c-0.1,1-0.4,2-0.5,3C654.7,158,655,158.6,655.2,158.9z M661.6,177c0,0.7,0.5,1.4,0.9,1.8
			c0.5,0.4,1,0.8,1.4,1.2c1.7,1.5,3,3.1,4.5,4.8c0.3,0.3,0.7,0.6,1.2,0.9c-0.1-1.5-0.4-2.6-1.6-3.4c-1.3-1-2.3-2-3.6-3.1
			C663.6,178.6,662.7,177.8,661.6,177z M660.5,170.6L660.5,170.6c0-0.6-0.1-1.3-0.4-1.9c-0.5-1.6-1.1-3-2.1-4.1
			c-0.8-0.8-1.6-1.1-2.7-0.8c-1.4,0.3-2.7,1.2-3.6,2.2c-0.2,0.2-0.2,0.4-0.4,0.5c0.6-0.2,0.9-0.7,1.4-0.7c3.2-1.5,4.8-0.9,6.3,1.8
			C659.6,168.4,659.9,169.4,660.5,170.6z M657.3,152.8c-0.1,0.2-0.1,0.4-0.2,0.6c-0.2,1-0.4,2.1-0.7,3c-0.3,1.2-0.5,2.4-0.3,3.6
			c0.1,0.1,0.1,0.2,0.3,0.5c0.1-0.1,0.3-0.3,0.3-0.4c0.4-1.4,0.8-3,1.2-4.4c0.1-0.5,0.2-1,0.2-1.4
			C658.1,153.6,657.9,153.1,657.3,152.8z M674.8,191.9c0.1-0.5-0.3-0.6-0.5-0.8c-0.8-0.4-1.8-0.7-2.4-1.1c-0.8-0.5-1.5-0.3-2.2,0.1
			c-0.2,0.1-0.3,0.4-0.1,0.6c0.2,0.2,0.4,0.7,0.7,0.7c0.4,0.2,0.6,0.4,1,0.4c0.9,0.1,1.7,0,2.6,0.1
			C674,191.7,674.4,191.7,674.8,191.9z M667.2,180.8c0.1-0.2,0.1-0.5,0.1-0.6c-0.3-0.5-0.3-1.1-0.7-1.5c-1.4-1.2-3-2.2-4.4-3.3
			c-0.1,0-0.2-0.1-0.2-0.1c0,0.1-0.1,0.2,0,0.4c0.4,0.5,0.7,1.2,1.1,1.5c1,0.9,2.2,1.8,3.3,2.8C666.4,180.1,666.6,180.3,667.2,180.8
			z M662.1,141.8L662.1,141.8c-0.6,0.3-1,0.8-1.5,1.1c-0.9,0.9-1.6,2-2,3.1c-0.1,0.5-0.2,0.9,0.3,1.2c0.4,0.3,0.9,0.7,1.4,0.9
			c0,0,0-0.1,0.1-0.1c0-0.2,0-0.5,0-0.7c-0.3-0.7-0.2-1.5,0.1-2.2c0.3-0.6,0.8-1.4,1.3-2.2C661.7,142.6,661.8,142.2,662.1,141.8z
			 M657.6,135.5c0,0.1-0.2,0.2-0.2,0.4c-0.3,0.5-0.6,1.3-0.8,1.9c-0.3,0.9,0.2,1.5,1,1.8c0.4,0.1,0.7,0.1,0.8-0.4
			c0.2-0.4,0.4-0.9,0.5-1.4c0.1-0.2,0-0.5,0-0.7c-0.1-0.4-0.3-0.7-0.4-1.1C658.2,135.5,657.9,135.4,657.6,135.5z M678.3,192.6
			C678.4,192.5,678.5,192.6,678.3,192.6c-0.1-0.4-0.3-0.8-0.7-1.2c-0.3-0.3-0.8-0.5-1.3-0.6c-0.1,0-0.4,0-0.6,0
			c-0.5,0.3-0.7,1.5-0.4,1.9c0.7,0.7,1.5,1.1,2.3,1.2c0.5,0,0.7-0.3,0.6-0.7C678.4,193.1,678.4,192.8,678.3,192.6z M677.6,186.3
			L677.6,186.3c-0.3-0.3-0.5-0.5-0.9-0.6c-0.7-0.2-1.3-0.4-1.9-0.6c-1.1-0.3-1.8-1-2.2-1.9c0-0.2-0.3-0.5-0.4-0.7
			c-0.2,0.6-0.3,1-0.4,1.3c-0.2,0.7-0.1,1.1,0.6,1.4c0.4,0.2,1,0.5,1.5,0.7C675,186.5,676.4,186.3,677.6,186.3z M672.2,180.9
			c-0.4-0.7-0.8-1.3-1.2-1.9c-0.1-0.2-0.5-0.6-0.9-0.5c-0.7-0.1-1.5,0.1-2.1,0C668.5,180.1,670.9,181.5,672.2,180.9z M652.9,171.3
			c-0.7,0.3-1,0.8-1,1.2c0.2,1.1,1.5,1.6,2.4,1.1c0.5-0.3,0.8-0.8,0.6-1.4c0-0.5-0.5-0.9-1-0.9C653.5,171.3,653.2,171.3,652.9,171.3
			z M659.1,153.9c0.7-0.4,1.3-1.1,1.7-1.6c0.1-0.1,0.2-0.2,0.2-0.4c0.1-0.9-0.1-1.8-0.1-2.7C659.8,149.9,658.7,152.4,659.1,153.9z
			 M657.1,161c0.8-1.2,1.6-2.3,2.2-3.6c0.5-0.8,0.6-1.8,0.1-2.8C658.3,156.7,657.4,158.8,657.1,161z M678.3,196.3L678.3,196.3
			c-0.9-0.8-1.8-1.5-2.7-2.3c-0.4-0.2-0.8-0.7-1.3-0.9c-0.5-0.3-1.1-0.3-2,0C674.1,194.5,676.1,195.6,678.3,196.3z M670.6,184.7
			c0.1,0,0.1-0.1,0.2,0c0.2-0.9,0.3-1.7,0.4-2.6c0-0.1-0.1-0.2-0.3-0.3c-0.6-0.3-1.3-0.6-1.9-1c-0.2-0.1-0.5-0.1-0.7-0.2
			c0,0.2,0,0.5,0.2,0.8c0.1,0.1,0.2,0.2,0.3,0.3c0.7,0.7,1.3,1.5,1.5,2.6C670.3,184.4,670.5,184.6,670.6,184.7z M667.6,177.7
			c-0.1-0.1,0-0.2-0.1-0.4c0-0.1-0.1-0.1-0.1-0.2c-0.7-0.9-1.3-1.5-2.4-1.7c-0.7-0.2-1.3-0.4-2-0.6c-0.4-0.1-0.7-0.2-1-0.4l0,0.1
			C663.4,176,665.3,177,667.6,177.7z M674.7,190.4c0,0,0-0.1,0.1-0.2c0-0.2-0.2-0.6-0.3-0.7c-0.4-1.2-1.2-1.8-2.3-2
			c-0.2-0.1-0.5,0-0.7,0c-0.4,0-0.5,0.3-0.2,0.6c0.8,0.8,1.6,1.5,2.5,2.2C673.8,190.4,674.4,190.3,674.7,190.4z M676,180.3
			c-1.1-0.5-2.2-1.2-3.1-1.7c-0.1,0-0.2-0.1-0.5-0.1c-0.5-0.1-0.5,0-0.6,0.6C672.1,180.7,674.4,181.5,676,180.3z M657.6,147.1
			c-0.1,0-0.1,0.1-0.1,0.1c-0.1,0.2-0.1,0.5-0.1,0.6c0.6,1.1,0.6,2.2,0.6,3.3c0,0.4,0.2,0.7,0.2,1.1c0.2-0.2,0.2-0.2,0.2-0.2
			c0.4-0.8,0.7-1.8,1.2-2.5c0-0.1,0.1-0.4,0-0.4C658.9,148.4,658.2,147.7,657.6,147.1z M656.3,133.6c-1.1,1.3-2.7,5-2.5,6.1
			c0.7-0.3,1.3-0.8,1.5-1.5C655.6,136.7,655.9,135.3,656.3,133.6z M657.2,140.3c-0.2,0.4-0.3,0.4-0.6,0.6c-0.5,1.1-0.7,2.3-0.7,3.6
			c0,0.4,0.3,0.5,0.5,0.3c0.1-0.1,0.2-0.1,0.3-0.3C657.6,143.7,658,141.8,657.2,140.3z M664.4,147.4c-1,0.1-1.6,0.5-2,1.2
			c-0.5,0.8-0.6,1.5-0.4,2.2c0.1,0.1,0.3,0.5,0.4,0.5c0.1,0,0.2-0.1,0.5-0.4c0.2-0.4,0.4-0.8,0.5-1.1
			C663.6,149.1,664,148.3,664.4,147.4z M680.9,191.6c-0.1,0.1-0.2,0.1-0.5,0.3c-0.1,0.1-0.2,0.1-0.2,0.1c-0.5,0.4-0.6,0.6-0.2,1
			c0.4,0.3,0.8,0.8,1.4,1c0.4,0.2,0.7,0,0.7-0.4c0-0.5-0.2-1.1-0.2-1.6C681.6,191.6,681.3,191.3,680.9,191.6z M661.4,134.5
			c-0.3-0.5-0.5-0.8-0.8-1.2c-0.3-0.3-0.6-0.2-0.6,0c-0.2,0.4-0.3,0.6-0.4,1c-0.3,1.1,0,1.6,1.2,1.3l0,0
			C661.6,135.5,661.7,135.3,661.4,134.5z M678.5,194.9c0.4,0.2,0.7,0.6,1,0.8c0.2,0.2,0.4,0.2,0.6,0.4c0.4,0.2,0.6,0.1,0.8-0.3
			c0.1-0.2,0.3-0.5,0.2-0.7C680.8,194.3,679.5,194.1,678.5,194.9z M657.4,134.5c1-0.1,1.4-0.5,1.7-1.6c0.2-0.6,0.1-0.7-0.5-0.8
			c-0.5-0.1-0.7,0.2-0.8,0.7C657.5,133.3,657.5,133.9,657.4,134.5z M656.8,146.3c1-0.3,1.9-2.1,1.9-3.1
			C657.7,144.2,657.5,145.3,656.8,146.3z M670.9,185.9c1.1,0.4,2,1.1,3.2,1.4C673.7,186.3,672,185.7,670.9,185.9z M636.8,161.3
			c-0.2,0.6,0.1,1.2,0.5,1.4s1,0.2,1.3-0.2C638.1,162.2,637.4,161.7,636.8,161.3z M647.5,187c-0.6-0.3-1.4-0.5-2-0.8
			c-0.1,0.6,0.2,1,0.7,1.2C646.4,187.6,647,187.4,647.5,187z M659.7,159.1c-0.9,0.8-1.6,1.5-1.8,2.6c0.2,0,0.6-0.2,0.7-0.4
			C658.9,160.6,659.1,159.9,659.7,159.1z M664.9,174.2c-0.6-0.3-1.5-0.6-2.3-0.9c-0.2-0.1-0.5,0-0.6,0
			C662.9,174.1,663.8,174.3,664.9,174.2z M656.3,172.2c-0.1,0-0.1,0.1-0.1,0.1c-0.1,0.2-0.2,0.6-0.2,0.9c0,0.1,0.4,0.2,0.5,0.1
			c0.2-0.2,0.2-0.4,0.3-0.6C656.9,172.5,656.5,172.4,656.3,172.2z"/>
		<path d="M678.5,194.9c0.8-0.7,2.1-0.5,2.7,0.3c0.1,0.1,0,0.5-0.2,0.7c-0.1,0.4-0.6,0.5-0.8,0.3c-0.2-0.1-0.4-0.2-0.6-0.4
			C679.2,195.5,678.9,195.2,678.5,194.9z"/>
	</g>
</g>
</svg>
