<?xml version="1.0" encoding="utf-8"?>
<!-- Generator: Adobe Illustrator 22.1.0, SVG Export Plug-In . SVG Version: 6.00 Build 0)  -->
<svg version="1.1" id="Calque_1" xmlns="http://www.w3.org/2000/svg" xmlns:xlink="http://www.w3.org/1999/xlink" x="0px" y="0px"
	 viewBox="0 0 841.9 604.3" style="enable-background:new 0 0 841.9 604.3;" xml:space="preserve">
<style type="text/css">
	.st0{fill:#1D1D1B;}
	.st1{fill:#FDC99A;}
</style>
<g>
	<g id="buVBKC_2_">
		<g>
			<path class="st0" d="M398.7,220.9c4.6-4.6,8.9-9.4,13.8-13.5c4.7-4,4.9-9.4,6.3-14.5c1.5-5.9,5.7-9.8,12.1-13.1
				c0.5,9.1-2.9,16.1-5.5,23.3c4.5,0.6,9.1,0.9,13.5,1.9c9.4,2,15.3,8.6,19.9,16.5c1.1,2,2.7,3.7,3.9,5.6c6.2,9.8,6,20.2-1.5,29
				c-12.8,15-29.3,21-48.6,17.2c-14.9-2.9-24.4-19.6-20.3-34.3c1.7-6.2,4.3-12.2,6.5-18.2C398.8,220.8,398.7,220.9,398.7,220.9z
				 M418,227.8c2.3-3.4,5.1-5.7,9.9-4.3c1.3,0.4,3.3-1.4,5.1-2c2.3-0.8,5-2.6,7.1-2c5.2,1.4,6.8,1.5,9.9-2
				c-6.8-9.8-16.5-11.9-27-8.3c-11.4,3.9-19.6,11.9-23.8,23.5c-0.3,0.9,1.2,2.6,1.8,3.9c2.1-2.1,6-1.2,7.4-5.2
				C410.6,225,411.7,224.9,418,227.8z M405.5,267.4c7.2,6,18.3,7.3,28.2,3.5C424,272.4,414.3,273.4,405.5,267.4z M433.6,235.8
				c-1.6-2.7-2.9-4.9-4.3-7.1c-1.2,2.9-2.1,5.3-3.4,8.6C428.7,236.8,431.1,236.4,433.6,235.8z M421.9,233.3
				c-0.4-0.1-0.8-0.3-1.2-0.4c-1,2.2-2,4.4-3.1,6.6c0.4,0.3,0.9,0.5,1.3,0.8c1.6-0.6,3.2-1.2,4.8-1.9
				C423.1,236.4,422.5,234.9,421.9,233.3z M406.5,245.8c0,0.3,0.1,0.6,0.2,0.8c6.1-1.4,12.2-2.8,18.2-4.2c0-0.3-0.1-0.6-0.2-1
				C418.6,242.9,412.6,244.4,406.5,245.8z M432.8,230.4c2.8,0.9,4.5,1.4,6,1.9c-0.1-2.2-0.2-4.2-0.3-6.6
				C436.7,227.1,435.2,228.4,432.8,230.4z"/>
		</g>
	</g>
	<g>
		<path class="st0" d="M445,160.4c4.5,2.5,6.6,7.3,5.7,12.2c0.6,0.1,1.2,0.3,1.8,0.5c4,1.3,7.2,3.7,9.8,7.1c0.3,0.4,0.6,0.6,1.2,0.6
			c1.4,0,2.6,1,2.9,2.3c0.3,1.3-0.2,2.7-1.4,3.4c-1.2,0.7-2.7,0.6-3.8-0.3c-1-0.9-1.5-2.4-0.8-3.7c0.3-0.7,0.2-1.2-0.1-1.7
			c-2.6-3.6-5.8-6-10.2-6.9c-2.2,3.3-4.8,4.3-7.4,2.6c-1.4,3.1-3.6,5.6-6.7,7.2c0.5,0.8,0.9,1.5,1.2,2.3c0.5,1.3,1.2,2.6,1.5,4.1
			c1.3,8.3,2.6,16.5,3.8,25c0.6,4.4,0.4,8.9-0.6,13.3c-0.6,2.6-1.5,5.2-2.5,7.8c-0.7,1.9-2.1,3.4-3.8,4.7c-2.4,1.9-7,0.8-8.9-0.8
			c-1.4-1.1-2.4-2.6-3.1-4.2c-1.5-3.1-2.3-6.5-2.6-10c0-0.9,0-1.7-0.2-2.6c0-0.6-0.4-1.4-0.9-1.7c-3.1-2.6-4-5.9-3.1-9.7
			c0.4-1.9,0.7-3.9,1.7-5.4c1.1-1.8,1.2-3.1,0-4.8c-1.2-1.5-1.2-3.5-0.6-5.5c-0.7,0.3-1.5,0.6-2,0.9c-7.7,3.3-15.5,3.7-23.5,1.2
			c-2.7-0.8-5.3-2.1-7.9-3.3c-1.2-0.6-1.4-1.1-1-2.4c2.9-10.8,9.4-18.6,19.6-23.3c0.9-0.4,2-0.8,3.1-1.2c-0.1-0.1-0.3-0.3-0.6-0.5
			c-1.9-1.1-2.9-2.9-3.4-4.9c-0.3-1.7-0.4-1.7-2-2c-0.7-0.1-1.4-0.3-2-0.7c-1.7-0.9-3.4-1.6-4.8-2.7c-2.6-1.7-4-4.3-3.8-7.6
			c0-1.5-0.3-2.6-1.3-3.7c-2.5-2.4-4.5-5.4-5.7-8.7c-0.5-1.2-0.9-2.6-1.2-4c-0.8-3.3,1.1-7.6,4-8.9c2.4-1.1,5-1.1,7.4-0.1
			c2.4,1,4.9,2,7.2,3.6c4.3,2.7,7.9,6.2,11,10.2c4.3,5.7,8.7,11.6,13,17.3c1.8,2.4,3.3,5,3.7,8.2c3.3-1,6.5-1,9.9,0.3
			c0.9-2.8,2.5-3.9,5.7-3.6c0.6,0,0.9-0.1,1.2-0.6c2.5-4,3.1-8.2,2-12.7c0-0.2-0.4-0.4-0.7-0.6c-1.7-0.6-2.6-2.3-2-4
			c0.5-1.6,2.2-2.6,3.8-2.1c1.7,0.4,2.7,2.1,2.2,3.8c-0.1,0.4-0.3,0.9-0.6,1.3c-0.3,0.3-0.5,0.8-0.3,1.3c0.6,4.9-0.1,9.6-2.9,13.7
			C445.2,160.2,445.1,160.3,445,160.4z M434.8,221.6c0,0,0,0.1-0.2,0.2c-0.1,0.6-0.8,1.2-0.3,1.9c0.1,0,0.2-0.2,0.3-0.2
			c1.5-1.2,2.9-2.5,4.3-3.8c0.2-0.2,0.4-0.6,0.4-1c0-0.7,0-1.5,0-2.2c0-0.4-0.3-0.8-0.8-0.6c-0.8,0.4-1.8,0.9-2.2,1.5
			C435.6,218.7,435.3,220.2,434.8,221.6z M423.1,186.7c0.9-1.2,0.9-3.5,0.3-5.2c-1.2-3.6-3-6.9-5.4-9.9c-0.3-0.5-0.9-0.8-1.5-1.2
			c0,0,0,0.1-0.2,0.2c0,0.1,0.1,0.3,0.2,0.5c1.1,2.6,2.1,5.1,3.1,7.7c0.1,0.3,0.1,0.7,0,0.9c-1,1-2.2,2-3.4,2.9
			c-1.7-4.2-3.4-8-5.1-12.1c-1.4,0.4-2.6,0.9-4.1,1.3c1.8,4.3,3.6,8.6,5.4,12.9c-1.5,0.6-2.8,1.2-4.2,1.7c-1.8-4.3-3.6-8.6-5.4-12.9
			c-1.3,0.8-2.5,1.5-3.7,2.2c1.7,4.1,3.4,8,5.1,12.2c-1.5,0.1-2.9,0.3-4.3,0.3c-0.2,0-0.6-0.3-0.7-0.6c-1.2-2.6-2.2-5.1-3.3-7.7
			c-0.1-0.3-0.2-0.6-0.4-1.1c-1.2,1.5-2.2,2.7-3.1,3.9c1.5,1.5,1.7,3.5,2.5,5.4c-1.8-0.2-3.4-0.4-5.4-0.7c-0.3,0.9-0.8,2-1,3
			c0,0.5,0,1.4,0.3,1.6c1,0.6,2.1,1,3.2,1.5c0,0,0-0.1,0.1-0.2c-0.3-0.6-0.6-1.4-0.9-2.1c1.7,0.3,3.3,0.6,4.9,0.9
			c0.1,0,0.3,0.1,0.4,0.3c0.3,0.8,0.6,1.6,0.9,2.7c1.5,0.1,3.1,0.2,5,0.4c-0.5-1.2-0.9-2.1-1.4-3.2c1.7-0.1,3.1-0.2,4.7-0.3
			c0.4,1,0.8,2,1.3,3.1c1.4-0.4,2.7-0.7,4.2-1.2c-0.4-1.1-0.8-2-1.2-2.9c1.5-0.6,2.8-1.2,4.2-1.7c0.4,0.9,0.8,1.8,1.2,2.9
			c1.3-0.7,2.6-1.3,3.8-2c-0.3-0.7-0.8-1.5-1-2.1c-0.1-0.3-0.2-0.7,0-0.8c1.2-0.9,2.4-1.8,3.7-2.8
			C422.5,185.3,422.8,186,423.1,186.7z M436.1,195c-0.2,0-0.3,0.1-0.3,0.1c0,0-0.1,0.2-0.2,0.3c-0.1,2.2-0.3,4.3-0.3,6.5
			c0,3.1,0.6,6.1,0.1,9.2c-0.1,1,0.2,2.2,0.6,3.2c0.3,0.9,0.9,0.9,1.6,0.3c0.5-0.4,1-0.9,1.4-1.5c0.3-0.3,0.5-0.9,0.3-1.4
			c-0.7-4.4-1.5-8.8-2.3-13.2C436.8,197.5,436.4,196.3,436.1,195z M419.2,155.7c0,0,0-0.1,0.1-0.1c0-0.2-0.1-0.3-0.2-0.6
			c-2.4-4.9-5.8-9.3-9.2-13.6c-0.3-0.3-0.9-0.6-1.5-0.8c-0.6-0.1-1.3,0-2,0c-0.8,0-1.2,0.6-0.8,1.3c0.4,0.9,0.9,1.7,1.7,2.4
			c1,1,2.1,1.8,3.1,2.9c1.5,1.5,2.8,3.1,4.2,4.7C415.9,153.5,417.5,154.6,419.2,155.7z M388.5,138.1c0,0,0,0.1,0,0.2
			c-0.1,0-0.2,0-0.3,0.1c-1.2,0.6-1.2,1.1-0.4,2c0.8,1,1.7,2,2.5,3c0.6,0.8,1.3,1.2,2.3,1.1c1.1,0,2.2,0.2,3.2,0
			c0.7-0.1,1.6-0.8,2-1.5c0.5-1-0.4-2.9-1.6-3.2c-1.6-0.6-3.3-1.2-5.1-1.7C390.4,137.9,389.5,138.1,388.5,138.1z M430.9,220.8
			c0,0-0.1,0-0.3,0c0-0.1-0.1-0.3-0.2-0.5c-0.6-1.2-1.2-1.5-2.5-1.2c-2,0.6-2.8,2.5-3.8,4c-0.2,0.3,0,0.8,0,1.2c0,1.3,0.2,2.6,0.3,4
			c0,0.9,0.5,1.3,1.5,1.1c1.3-0.3,2.3-0.9,2.9-2.3c0.6-1.5,1.4-2.9,2-4.5C430.9,222.2,430.8,221.5,430.9,220.8z M424.9,209.4
			c-1.2,0.7-2.3,1.3-3.4,2c-2.2,1.5-2.4,3.5-0.5,5.4c0.4,0.3,0.9,0.7,1.4,1.1c0.2,0,0.6,0.1,0.8,0c1.5-1.2,2.6-2.6,3-4.5
			C426.3,212,426,210.5,424.9,209.4z M401.2,152.1c-1-2.5-3-3.4-5.6-3.5c-2,0-2.1,0-2.1,1.9c0,0.2,0,0.6,0,0.8
			c0.3,2.4,1.4,3.3,3.8,3.1c1.2-0.2,2.6-0.5,3.7-0.8c0.2,0,0.3-0.4,0.3-0.6C401.4,152.5,401.3,152.3,401.2,152.1z M425.7,193
			c-0.8,0-1.4,0.1-2,0.3c-0.3,0-0.9,0.1-1,0.3c-0.7,1-1.4,2.1-1.9,3.3c-0.3,0.5-0.2,1.2-0.2,1.8c0,0.5,0.3,1.2,0.5,1.7
			c0.3,1.3,1.6,1.8,2.8,1.1c1.5-0.9,2.4-2.9,1.9-4.7c-0.3-1.1-0.4-2.2,0-3.2C425.7,193.4,425.7,193.2,425.7,193z M414.1,164.4
			c-0.2-0.2-0.3-0.3-0.5-0.3c-1.2-0.4-2-1.3-2.7-2.4c-0.9-1.5-3-2.3-4.8-1.7c-0.4,0.1-0.9,0.6-1.1,1.1c-0.3,0.9,1,3.7,2.1,4.1
			c0,0,0.2,0,0.3,0c1,0.3,2,0.6,3,0.9c0.8,0.2,1.6,0.3,2-0.6c0-0.2,0.4-0.3,0.6-0.4C413.4,164.8,413.6,164.7,414.1,164.4z
			 M441.9,170.7c0-1.5,0.3-2.9,1.5-4c2.1-1.9,4-1.4,4.7,1.4c0.1,0.5,0.2,0.9,0.3,1.5c0.1,0,0.2,0,0.3,0c0-0.9-0.1-2-0.3-2.9
			c-0.7-3.6-4.6-5.7-8-4.4c-1.2,0.4-1.7,1.1-1.2,2.3C440,166.6,441,168.6,441.9,170.7z M434.2,190.3c0,0-0.1,0-0.2,0
			c0,0.3,0,0.5-0.1,0.8c-0.3,1.9-0.5,3.7-0.7,5.6c-0.3,2.9-0.7,5.7-1.1,8.5c-0.2,2,0.6,3.7,1.8,5.4c0.3-0.8,0.5-1.6,0.6-2.4
			c0-3.2-0.1-6.5,0-9.9c0-1.7,0.3-3.4,0.6-5.1C435.1,191.9,434.6,191.1,434.2,190.3z M421.5,160.5c-0.1-1.4-0.9-2.3-1.7-3
			c-0.9-0.7-1.7-1.4-2.6-2c-3.1-2.2-5.5-5.1-8.1-7.8c-0.5-0.5-1.2-0.9-2.1-1.4c0.2,2.5,1.1,4.3,3,5.7c2.2,1.5,4.3,3.1,6.5,4.7
			C418.1,157.9,419.7,159.1,421.5,160.5z M424.1,171.2c0,0,0,0-0.1,0c0.3,1.1,0.6,2.1,0.9,3.1c0.9,2.6,2,5,4,7
			c1.3,1.2,2.9,1.7,4.6,1.2c2.4-0.8,4.5-2.2,6-4.3c0.2-0.3,0.3-0.6,0.6-0.9c-0.9,0.4-1.5,1-2.3,1.5c-5.3,2.9-8,2-10.9-2.5
			C425.9,174.7,425.1,173,424.1,171.2z M431.1,201.1c0-0.3,0.1-0.7,0.1-0.9c0.2-1.7,0.4-3.5,0.8-5.3c0.3-2,0.5-4,0.2-6
			c0-0.3-0.3-0.5-0.4-0.8c-0.2,0.2-0.5,0.4-0.6,0.7c-0.6,2.5-1.1,5.1-1.6,7.7c-0.1,0.8-0.2,1.6-0.1,2.4
			C429.7,199.7,430.2,200.6,431.1,201.1z M397.8,136.5c-0.1,0.9,0.5,1.1,1,1.2c1.4,0.6,2.9,1.1,4.3,1.7c1.3,0.6,2.5,0.3,3.7-0.3
			c0.4-0.3,0.6-0.6,0-1.1c-0.4-0.3-0.8-0.9-1.2-1.2c-0.5-0.3-1.2-0.6-1.7-0.6c-1.5,0-2.9,0.2-4.3,0.2
			C398.8,136.4,398.4,136.4,397.8,136.5z M411.8,154.6c0,0.5-0.1,0.9,0,1.1c0.4,0.8,0.7,1.9,1.4,2.4c2.6,1.8,5.3,3.5,7.9,5.3
			c0.1,0,0.3,0,0.5,0c0-0.1,0-0.4,0-0.6c-0.6-0.8-1.2-1.7-2-2.4c-1.9-1.5-3.8-2.9-5.8-4.4C413.2,155.6,412.5,155.2,411.8,154.6z
			 M424.1,220.2c0,0,0.2,0,0.3,0.1c0.7-0.7,1.5-1.3,2.2-2c1.5-1.5,2.4-3.4,3-5.4c0.2-0.7,0.2-1.5-0.5-2.1c-0.7-0.6-1.6-0.9-2.4-1.5
			c0,0,0,0.1-0.1,0.1c0,0.4,0,0.9,0.2,1.3c0.5,1.2,0.5,2.5,0,3.7c-0.5,1.2-1.3,2.6-1.9,3.8C424.7,218.8,424.4,219.6,424.1,220.2z
			 M432.5,230.6c0-0.1,0.3-0.3,0.4-0.5c0.4-1,1-2,1.3-3.1c0.3-1.4-0.3-2.5-1.8-2.9c-0.6-0.2-1.2,0-1.5,0.6c-0.3,0.8-0.6,1.5-0.9,2.4
			c0,0.3,0,0.8,0.1,1.2c0.3,0.6,0.6,1.2,0.9,1.8C431.4,230.7,431.9,230.8,432.5,230.6z M391.6,135.4c0,0-0.1,0-0.1,0.1
			c0.4,0.6,0.8,1.3,1.4,1.7c0.6,0.4,1.4,0.8,2.1,1c0.3,0.1,0.7,0,1,0c0.8-0.5,1-2.6,0.3-3.2c-1.2-1-2.6-1.7-4.2-1.8
			c-0.8,0-1.2,0.5-0.9,1.2C391.3,134.7,391.4,135,391.6,135.4z M393.4,145.8c0,0,0,0.2-0.1,0.3c0.5,0.3,0.9,0.6,1.5,0.7
			c1.1,0.3,2.3,0.5,3.3,0.8c1.7,0.5,3.2,1.4,4,3.2c0.1,0.4,0.4,0.7,0.9,1.2c0.2-1,0.3-1.6,0.5-2.3c0.2-1.2,0-1.8-1.1-2.4
			c-0.8-0.4-1.7-0.7-2.6-1.1C397.8,145.5,395.6,146.1,393.4,145.8z M403.2,154.6c0.7,1,1.5,2.1,2.3,3.1c0.3,0.4,0.9,0.8,1.5,0.8
			c1.2,0,2.4-0.2,3.6-0.3C409.6,155.6,405.5,153.6,403.2,154.6z M436.8,169.1c1.3-0.5,1.7-1.2,1.5-2c-0.5-1.7-2.6-2.6-4.1-1.6
			c-0.8,0.5-1.2,1.5-1,2.4c0.2,0.9,0.9,1.5,1.8,1.5C435.8,169.4,436.5,169.2,436.8,169.1z M428,199.3c-1,0.9-2,1.8-2.9,2.6
			c-0.1,0.1-0.3,0.4-0.3,0.6c0,1.5,0.2,3.1,0.3,4.6C427.4,206.3,428.8,201.9,428,199.3z M430.6,187.1c-1.2,2-2.4,4.1-3.5,6.2
			c-0.7,1.5-1,2.9,0,4.7C429.1,194.6,430.5,191,430.6,187.1z M391.3,129.2c0,0,0,0.2-0.1,0.3c1.7,1.1,3.4,2.2,5,3.3
			c0.8,0.5,1.5,1.1,2.3,1.5c1,0.5,2,0.5,3.4-0.1C398.6,131.8,395.1,130.1,391.3,129.2z M405.5,148c-0.1,0-0.2,0-0.3,0
			c0,1.5-0.2,2.9-0.3,4.5c0,0.2,0.3,0.5,0.6,0.6c1.1,0.5,2.2,1,3.3,1.5c0.3,0.1,0.8,0.2,1.2,0.3c-0.1-0.5-0.2-0.9-0.3-1.5
			c0-0.2-0.3-0.3-0.4-0.4c-1.3-1.2-2.4-2.5-3-4.2C406.1,148.5,405.7,148.3,405.5,148z M411.2,159.8c0.1,0.3,0.1,0.5,0.2,0.6
			s0.1,0.3,0.3,0.4c1.1,1.6,2.5,2.3,4.3,2.6c1.2,0.2,2.3,0.6,3.4,0.9c0.6,0.1,1.2,0.3,1.7,0.6c0,0,0-0.2,0-0.3
			C418.6,162.3,415.2,160.8,411.2,159.8z M398,138.8c0,0,0,0.2,0,0.3c0.1,0.4,0.4,0.9,0.6,1.3c0.8,1.8,2.3,2.9,4.2,3.3
			c0.3,0,0.8,0,1.2-0.1c0.6-0.1,0.7-0.6,0.3-0.9c-1.4-1.2-2.8-2.4-4.3-3.5C399.3,138.8,398.7,138.9,398,138.8z M396.8,156
			c1.9,0.9,3.7,1.7,5.6,2.6c0.2,0,0.4,0.1,0.7,0.2c0.7,0,1-0.3,0.9-1C403.2,155,399.2,154,396.8,156z M431.2,210.8
			c0.1,0,0.1-0.1,0.3-0.2c0-0.3,0.1-0.8,0-1.1c-1.1-1.7-1.2-3.7-1.2-5.6c0-0.6-0.3-1.1-0.5-1.8c-0.3,0.3-0.3,0.3-0.3,0.4
			c-0.5,1.5-1.2,2.9-1.6,4.3c0,0.2,0,0.5,0,0.6C428.9,208.7,430.1,209.7,431.2,210.8z M434.7,233.6c1.9-2.3,4.2-8.8,3.7-10.6
			c-1.2,0.4-2,1.5-2.3,2.8C435.6,228.2,435.2,230.8,434.7,233.6z M432.7,222.3c0.3-0.5,0.7-0.8,0.9-1.2c0.8-1.9,0.9-4,0.9-6
			c0-0.6-0.3-0.8-0.9-0.4c-0.1,0.1-0.4,0.3-0.6,0.5C431.4,216.7,431.3,219.9,432.7,222.3z M419.7,211c1.5-0.3,2.6-1.1,3.4-2.3
			c0.8-1.2,0.9-2.5,0.4-3.8c-0.1-0.3-0.4-0.7-0.7-0.7c-0.2,0-0.6,0.3-0.7,0.6c-0.3,0.6-0.6,1.3-0.9,2
			C420.7,208,420.3,209.4,419.7,211z M387.2,137.3c0.3-0.1,0.6-0.2,0.7-0.3c0.1-0.1,0.3-0.2,0.6-0.3c0.7-0.6,0.9-1.1,0.2-1.7
			c-0.6-0.6-1.5-1.2-2.4-1.7c-0.6-0.3-1.3,0.1-1.2,0.8c0.1,0.9,0.3,1.9,0.6,2.7C386.1,137.5,386.6,137.8,387.2,137.3z M425.8,232.7
			c0.5,0.6,0.9,1.4,1.5,2c0.4,0.5,0.9,0.3,1.2-0.2c0.3-0.5,0.4-1.2,0.6-1.7c0.4-2-0.2-2.6-2.2-2.1h0
			C425.4,231,425.3,231.3,425.8,232.7z M391,131.5c-0.6-0.4-1.2-0.9-1.9-1.3c-0.3-0.3-0.8-0.5-1.2-0.6c-0.6-0.3-1.2,0-1.4,0.5
			c-0.1,0.3-0.3,1-0.2,1.2C387.4,132.7,389.6,132.7,391,131.5z M432.9,232.3c-1.5,0.1-2.3,0.9-2.7,2.8c-0.3,1.1-0.1,1.2,0.9,1.4
			c0.7,0,1.2-0.2,1.4-1.2C432.6,234.3,432.8,233.3,432.9,232.3z M432.6,212c-1.7,0.6-3.1,3.7-2.7,5.4
			C431.3,215.8,431.5,213.9,432.6,212z M404.9,146.1c-2-0.6-3.5-1.6-5.5-1.9C400.2,145.6,403.1,146.6,404.9,146.1z M465.4,184.7
			c0.2-1-0.1-2-0.9-2.3s-1.7-0.3-2.3,0.4C463.1,183.3,464.2,184,465.4,184.7z M444.6,141.9c1.2,0.4,2.4,0.9,3.6,1.3
			c0-1-0.3-1.6-1.2-2C446.2,140.8,445.3,141.1,444.6,141.9z M426.6,190.5c1.5-1.2,2.6-2.6,2.9-4.6c-0.5,0.2-0.9,0.4-1,0.8
			C427.7,188,427.2,189.2,426.6,190.5z M416.2,165.3c1.2,0.4,2.6,0.9,4,1.5c0.3,0,0.8,0,1.2,0C419.7,165.3,418,165.2,416.2,165.3z
			 M431,167.9c0.1,0,0.2,0,0.3-0.1c0-0.5,0.1-0.9,0.1-1.5c0-0.1-0.8-0.3-0.9-0.3c-0.2,0.4-0.4,0.8-0.4,1.2
			C430.2,167.4,430.6,167.7,431,167.9z"/>
		<path class="st0" d="M391,131.5c-1.4,1.2-3.6,1.2-4.7-0.2c-0.2-0.2,0-0.9,0.2-1.2c0.2-0.6,0.8-0.8,1.4-0.5
			c0.3,0.1,0.8,0.3,1.2,0.6C389.7,130.6,390.4,131,391,131.5z"/>
	</g>
</g>
<g>
	<g id="solghn_2_">
		<g>
			<path class="st0" d="M609.2,178.7c0.9,1.7,1.4,4.2,2.8,5.1c10.1,6.3,20.3,12.8,30.8,18.3c13.6,7.2,28.5,6.8,43.2,5.7
				c14.8-1.1,28.6,1.2,42.4,7.1c10.9,4.6,22.8,7.1,34.4,9.5c10.3,2.1,20.8,2.8,32,4.2c0,4.8,0,9.4,0,13.9c0,9.3-0.9,10-10.3,9.4
				c-17.7-1.2-34.3-6.2-50.3-13.9c-11-5.3-22-10.6-33.5-14.8c-6.9-2.5-14.7-2.7-22.1-3.9c10.6,15.3,21.4,28.6,31.9,42.1
				c2.2,2.8,3.1,6.6,4.6,10c3,6.1,5.7,12.5,9.3,18.3c4.1,6.7,5.9,13.7,5.5,21.6c-0.2,3.8,0.6,8.5,2.7,11.5
				c7.1,9.6,8.1,19.7,4.6,30.8c-0.6,1.8-0.2,4.6,0.7,6.1c5.5,8.8,6.5,18.3,4.2,28c-1.2,5.4-1,10,0.9,15.2c6.1,17.3,1.2,31.7-14,42.7
				c-1.1,0.7-2.1,1.8-2.6,3c-3.7,9-10.9,13.4-19.5,16.3c-26.6,8.7-54,13.3-82.1,13.5c-23.5,0.2-40.8-9.5-51.8-30.2
				c-1-1.8-2.7-3.7-4.6-4.6c-14.8-7.4-20.8-25.9-13.1-40.7c0.8-1.7,1.1-4.2,0.5-6c-4-12.4-5-24.2,3.4-35.4c0.8-1.2,1.1-3.6,0.5-4.9
				c-5.7-13.6-2.9-25.6,6.6-36.4c1-1.2,2.5-2.9,2.2-3.9c-4.2-12.1,2.8-20.8,9-29.7c1-1.5,2.2-3.3,2.1-4.9
				c-1-12.4,6.1-19.6,15.3-25.9c1.9-1.3,3.7-4.1,4.1-6.5c1.7-9.5,6.3-17.2,13.4-23.5c2.2-1.8,4.4-3.6,7.1-5.7
				c-19.8-3.7-19.8-3.3-38.3,1.5c-8.4,2.2-17.2,2.7-25.9,3.4c-2.9,0.2-5.9-1.6-10.3-2.9c14.7-3.4,27.2-6.2,41.3-9.5
				c-6-3.5-9.8-5.7-13.6-8c3.7,1.2,7.2,2.7,11,3.5c1.7,0.3,3.7-0.9,5.6-1.4c12.9,5.6,39.9,6.5,44.6,0.9c-1.1-1.3-2-3.1-3.5-4
				c-23-14.8-46.1-29.1-75-15.7c-1.2,0.6-2.7,1-4,1.2c-5.4,0.5-7.1,3.9-7.6,8.7c-0.6,4.8-1.9,9.6-2.8,14.4c-0.4-0.1-0.8-0.2-1.2-0.2
				c1-6.2,2-12.5,3-18.9c-6.2,0-11.9,0-17.5,0c-10,0-12.4-1.2-14.4-7.5c10.8,4.2,21.2,2.3,31.5-0.4c13.4-3.6,26.8-7.2,40.2-10.8
				c-8-7.6-16.6-15.9-25.2-24.1c0.6-0.7,1.2-1.2,1.7-1.9c15.4,10.6,27.6,26.1,46.9,32.6c-0.7-2.6-1.1-4.1-1.5-5.6
				C606.2,176.3,607.7,177.5,609.2,178.7z M634.3,416.8c-23.3,2.9-45.8-1.9-68.1-7.5c-1.2-0.3-2.6-0.4-4.5-0.7
				c-0.4,10.5,3,19.3,7.9,27.6c1.2,2,4.6,2.8,7.1,3.7c23.6,7.5,48,8.6,72.4,8.3c22.3-0.3,44.7-1.5,66.9-2.5
				c15.9-0.7,29.6-22.2,23.7-37.2c-2.7-6.8-8.6-7.3-14.4-6.5c-9.8,1.4-19.4,3.7-29.1,5.5c-11.5,2.1-23.2,4.1-34.7,5.9
				c-2.4,0.4-4.9,0.1-7.4,0.1c21.6-4.5,43.2-9,64.7-13.4c1.8-0.4,3.7-0.5,5.3-1.4c4.4-2.4,10.7-4.2,12.4-7.8
				c3.4-7.8,2.2-16.4-4-23.2c-8-8.7-18.8-11.5-29.8-12.9c-36-4.8-72.1-3.7-108.2,0c-7.8,0.8-15.4,4.2-23.1,6.8
				c-6.1,2-9,6.5-9.6,12.9c-2,19.4,3.6,32.9,24.5,35.9c22.7,3.3,45.2,6,68.1,3C647.6,414.6,641,416,634.3,416.8z M707.6,317.4
				c-24.3-1.8-48.6-5.1-72.9-5.1c-19.7,0.1-39.3,4.3-58.9,6.9c-1.5,0.2-3.1,1.2-4.2,2.2c-6.4,6.1-9.1,21-5.6,29.1
				c1.7,3.8,3.7,5.3,8.5,4.2c32.5-7.3,65.3-7.1,98.3-5.1c18.8,1.2,37.5,3.1,56.2,4.6C733,338.9,729.4,319,707.6,317.4z M693.1,281.1
				c-33.7-2-67.2,0.7-100.6,4.3c-11,1.2-19.3,14.9-15.8,25.6c0.6,1.6,4.2,3.2,6.4,3.1c6.6-0.4,13.2-1.9,19.8-2.6
				c36.7-3.7,73.2-0.7,109.7,3.2c3.7,0.4,7.2,0.7,11.5,1C722.9,288.2,712,282.2,693.1,281.1z M683.4,252.5
				c-18.3-1.3-36.8-0.9-55.1-0.9c-5.7,0-11.5,0.8-17.2,1.8c-15.6,2.7-24,12.6-24.5,29.5c41.3-3.5,82.6-7.1,124.7-2.3
				C709.4,267,696.9,253.4,683.4,252.5z M584.5,449.2c2.1,12.8,12.2,21.5,25.9,24.3c18.3,3.7,36.2,0.8,54.1-2.2
				c12.2-2.1,24.4-4.6,36.3-8c8.1-2.3,15.1-7.4,19-14.2C674.5,449.2,629.5,449.2,584.5,449.2z M695.8,250.2
				c-2.7-3.8-4.9-7.3-7.6-10.5c-2.2-2.7-4.9-4.9-7.1-7.5c-7-8.4-14.7-13-26.2-8.1c-3.8,1.6-9.1,0.3-13.5-0.7
				c-7.8-1.7-15.1-5.1-22.7,1.2c-8.6,7.1-13.4,15.2-13.9,25.6C634.9,250.2,664.6,250.2,695.8,250.2z"/>
			<g>
				<path class="st1" d="M654.3,413.4c-22.8,3-45.4,0.3-68.1-3c-20.8-3.1-26.5-16.5-24.5-35.9c0.7-6.4,3.7-10.9,9.6-12.9
					c7.6-2.5,15.2-6,23.1-6.8c36-3.7,72.1-4.8,108.2,0c11,1.5,21.8,4.2,29.8,12.9c6.2,6.8,7.4,15.4,4,23.2
					c-1.7,3.7-8.1,5.5-12.4,7.8c-1.6,0.8-3.5,1-5.3,1.4c-21.6,4.5-43.2,9-64.7,13.4C654,413.6,654.3,413.4,654.3,413.4z
					 M625.5,357.6c-12.3,10.8-13.1,33.4-2.5,50.7c-2.6-1.6-5.1-3.1-8.1-4.9c8.4,11.4,19.1,11.6,27.1,0.9c9.1-12.1,6.7-35.9-4.9-45.6
					c-4-3.4-8.3-6-14.6-2.2C624,357,624.7,357.4,625.5,357.6z"/>
				<path class="st1" d="M654.3,413.4c-6.6,1.2-13.3,2.6-19.9,3.4c-23.3,2.9-45.8-1.9-68.1-7.5c-1.2-0.3-2.6-0.4-4.5-0.7
					c-0.4,10.5,3,19.3,7.9,27.6c1.2,2,4.6,2.8,7.1,3.7c23.6,7.5,48,8.6,72.4,8.3c22.3-0.3,44.7-1.5,66.9-2.5
					c15.9-0.7,29.6-22.2,23.7-37.2c-2.7-6.8-8.6-7.3-14.4-6.5c-9.8,1.4-19.4,3.7-29.1,5.5c-11.5,2.1-23.2,4.1-34.7,5.9
					c-2.4,0.4-4.9,0.1-7.4,0C654,413.6,654.3,413.4,654.3,413.4z"/>
				<path class="st1" d="M729.1,354.3c3.7-15.5,0.2-35.3-21.5-36.9c-24.3-1.8-48.6-5.1-72.9-5.1c-19.7,0.1-39.3,4.3-58.9,6.9
					c-1.5,0.2-3.1,1.2-4.2,2.2c-6.4,6.1-9.1,21-5.6,29.1c1.7,3.8,3.7,5.3,8.5,4.2c32.5-7.3,65.3-7.1,98.3-5.1
					C691.7,350.9,710.5,352.8,729.1,354.3z"/>
				<path class="st1" d="M724.2,315.8c-1.2-27.6-12.1-33.6-31-34.7c-33.7-2-67.2,0.7-100.6,4.3c-11,1.2-19.3,14.9-15.8,25.6
					c0.6,1.6,4.2,3.2,6.4,3.1c6.6-0.4,13.2-1.9,19.8-2.6c36.7-3.7,73.2-0.7,109.7,3.2C716.3,315.2,719.8,315.5,724.2,315.8z"/>
				<path class="st1" d="M711.3,280.5c-2-13.5-14.5-27.1-27.9-28c-18.3-1.3-36.8-0.9-55.1-0.9c-5.7,0-11.5,0.8-17.2,1.8
					c-15.6,2.7-24,12.6-24.5,29.5C628,279.3,669.2,275.7,711.3,280.5z"/>
				<path class="st1" d="M719.8,449.2c-45.2,0-90.2,0-135.2,0c2.1,12.8,12.2,21.5,25.9,24.3c18.3,3.7,36.2,0.8,54.1-2.2
					c12.2-2.1,24.4-4.6,36.3-8C708.9,461.1,715.9,456.1,719.8,449.2z"/>
				<path class="st1" d="M604.8,250.2c30.1,0,59.9,0,91,0c-2.7-3.8-4.9-7.3-7.6-10.5c-2.2-2.7-4.9-4.9-7.1-7.5
					c-7-8.4-14.7-13-26.2-8.1c-3.8,1.6-9.1,0.3-13.5-0.7c-7.8-1.7-15.1-5.1-22.7,1.2C610,231.7,605.2,239.7,604.8,250.2z"/>
			</g>
			<path d="M622.6,356.5c1.3,0.5,2.1,0.7,2.8,1.1c-12.3,10.8-13.1,33.4-2.5,50.7c-2.6-1.6-5.1-3.1-8.1-4.9
				c8.4,11.4,19.1,11.6,27.1,0.9c9.1-12.1,6.7-35.9-4.9-45.6C633.3,355.5,629,352.9,622.6,356.5z"/>
		</g>
	</g>
	<g>
		<path class="st0" d="M594,388.8c1.2,0.7,1.8,2,1.6,3.3c0.2,0,0.3,0.1,0.5,0.2c1.1,0.3,2,1,2.7,1.9c0.1,0.1,0.2,0.2,0.3,0.2
			c0.4,0,0.7,0.2,0.7,0.7c0.1,0.3-0.1,0.7-0.4,0.9c-0.3,0.2-0.7,0.2-1-0.1c-0.2-0.2-0.4-0.7-0.2-1c0.1-0.2,0.1-0.3,0-0.5
			c-0.7-1-1.6-1.6-2.7-1.9c-0.6,0.9-1.3,1.2-2,0.7c-0.3,0.8-1,1.5-1.8,2c0.2,0.2,0.2,0.4,0.3,0.6c0.2,0.3,0.3,0.7,0.4,1.1
			c0.3,2.2,0.7,4.5,1,6.7c0.2,1.2,0.2,2.4-0.2,3.6c-0.2,0.7-0.4,1.4-0.7,2.2c-0.2,0.5-0.6,0.9-1.1,1.2c-0.7,0.5-1.9,0.2-2.4-0.2
			c-0.3-0.3-0.7-0.7-0.8-1.2c-0.4-0.8-0.7-1.7-0.7-2.7c0-0.2,0-0.5-0.1-0.7c0-0.2-0.1-0.3-0.2-0.5c-0.8-0.7-1.1-1.6-0.8-2.7
			c0.1-0.5,0.2-1.1,0.5-1.5c0.3-0.5,0.3-0.8,0-1.3c-0.3-0.4-0.3-0.9-0.2-1.5c-0.2,0.1-0.4,0.2-0.6,0.2c-2.1,0.9-4.2,1-6.4,0.3
			c-0.7-0.2-1.4-0.6-2.2-0.9c-0.3-0.2-0.3-0.3-0.2-0.7c0.7-2.9,2.6-5.1,5.3-6.3c0.2-0.1,0.6-0.2,0.8-0.3c-0.1-0.1-0.1-0.1-0.2-0.2
			c-0.5-0.3-0.8-0.7-0.9-1.3c-0.1-0.4-0.1-0.5-0.6-0.6c-0.2,0-0.4-0.1-0.6-0.2c-0.4-0.2-0.9-0.4-1.3-0.7c-0.7-0.5-1.1-1.2-1-2.1
			c0-0.4-0.1-0.7-0.3-1c-0.7-0.7-1.2-1.5-1.6-2.3c-0.2-0.3-0.2-0.7-0.3-1.1c-0.2-0.9,0.3-2.1,1.1-2.4c0.7-0.3,1.3-0.3,2,0
			c0.7,0.2,1.3,0.6,2,1c1.2,0.7,2.2,1.7,3,2.7c1.2,1.6,2.3,3.2,3.6,4.7c0.5,0.7,0.9,1.3,1,2.2c0.9-0.2,1.7-0.2,2.7,0.1
			c0.2-0.7,0.7-1.1,1.6-1c0.2,0,0.2,0,0.3-0.2c0.7-1.1,0.8-2.2,0.6-3.5c0-0.1-0.1-0.2-0.2-0.2c-0.5-0.2-0.7-0.6-0.6-1.1
			c0.2-0.4,0.6-0.7,1.1-0.6c0.5,0.1,0.7,0.6,0.6,1c0,0.2-0.1,0.2-0.2,0.3s-0.2,0.2-0.1,0.3C595.1,386.3,594.8,387.6,594,388.8
			C594.1,388.7,594,388.7,594,388.8z M591.2,405.4L591.2,405.4c-0.1,0.2-0.2,0.3-0.2,0.6l0.1-0.1c0.4-0.3,0.8-0.7,1.2-1.1
			c0.1-0.1,0.1-0.2,0.2-0.2c0-0.2,0-0.4,0-0.6s-0.1-0.2-0.2-0.2c-0.2,0.1-0.5,0.2-0.6,0.4C591.4,404.6,591.4,405,591.2,405.4z
			 M588,396c0.2-0.3,0.2-0.9,0.1-1.4c-0.3-1-0.8-1.8-1.5-2.7c-0.1-0.2-0.2-0.2-0.4-0.3c0,0,0,0-0.1,0.1c0,0,0,0.1,0.1,0.2
			c0.3,0.7,0.6,1.4,0.8,2.1c0,0.1,0,0.2,0,0.2c-0.2,0.2-0.6,0.5-0.9,0.8c-0.5-1.2-0.9-2.2-1.3-3.2c-0.3,0.1-0.7,0.2-1.1,0.3
			c0.5,1.2,1,2.3,1.5,3.5c-0.4,0.2-0.7,0.3-1.2,0.5c-0.5-1.2-1-2.3-1.5-3.5c-0.3,0.2-0.7,0.4-1,0.6c0.5,1.1,0.9,2.2,1.4,3.3
			c-0.4,0-0.7,0.1-1.2,0.1c-0.1,0-0.2-0.1-0.2-0.2c-0.3-0.7-0.6-1.4-0.9-2.1c0-0.1-0.1-0.2-0.2-0.3c-0.3,0.4-0.6,0.7-0.8,1.1
			c0.4,0.4,0.5,1,0.7,1.5c-0.5-0.1-0.9-0.1-1.4-0.2c-0.1,0.2-0.2,0.5-0.2,0.8c0,0.2,0,0.4,0.1,0.4c0.2,0.2,0.6,0.2,0.9,0.4
			c0,0,0,0,0-0.1c-0.1-0.2-0.2-0.4-0.2-0.6c0.5,0.1,0.9,0.2,1.3,0.2c0.1,0,0.1,0.1,0.1,0.1c0.1,0.2,0.2,0.4,0.2,0.7
			c0.4,0,0.8,0.1,1.3,0.1c-0.2-0.3-0.2-0.6-0.3-0.9c0.4,0,0.8-0.1,1.3-0.1c0.1,0.2,0.2,0.6,0.3,0.8c0.3-0.1,0.7-0.2,1.2-0.3
			c-0.2-0.3-0.2-0.6-0.3-0.7c0.4-0.2,0.7-0.3,1.2-0.5c0.1,0.2,0.2,0.5,0.3,0.7c0.3-0.2,0.7-0.3,1-0.6c-0.1-0.2-0.2-0.4-0.2-0.6
			c0-0.1-0.1-0.2,0-0.2c0.3-0.2,0.7-0.5,1-0.7C587.9,395.6,588,395.7,588,396z M591.6,398.2C591.5,398.2,591.5,398.2,591.6,398.2
			c-0.1,0-0.1,0.1-0.2,0.1c0,0.6-0.1,1.2-0.1,1.7c0,0.8,0.2,1.7,0.1,2.5c0,0.2,0.1,0.6,0.2,0.9c0.1,0.2,0.2,0.2,0.4,0.1
			c0.2-0.2,0.2-0.2,0.4-0.4c0.1-0.1,0.2-0.2,0.1-0.4c-0.2-1.2-0.4-2.4-0.7-3.6C591.8,398.9,591.7,398.5,591.6,398.2z M587,387.5
			L587,387.5c0-0.1,0-0.2,0-0.2c-0.7-1.3-1.6-2.5-2.5-3.7c-0.1-0.1-0.2-0.2-0.4-0.2c-0.2,0-0.3,0-0.5,0c-0.2,0-0.3,0.2-0.2,0.3
			c0.1,0.2,0.2,0.5,0.4,0.7c0.2,0.2,0.6,0.5,0.8,0.8c0.4,0.4,0.7,0.8,1.2,1.2C586.1,386.9,586.5,387.3,587,387.5z M578.7,382.8
			L578.7,382.8C578.7,382.9,578.7,382.9,578.7,382.8c-0.4,0.2-0.4,0.4-0.2,0.7c0.2,0.2,0.5,0.5,0.7,0.8c0.2,0.2,0.3,0.3,0.6,0.3
			c0.3,0,0.6,0.1,0.9,0c0.2,0,0.4-0.2,0.6-0.4c0.2-0.2-0.2-0.7-0.4-0.9c-0.4-0.2-0.9-0.3-1.3-0.5C579.1,382.7,579,382.8,578.7,382.8
			z M590.2,405.2C590.2,405.2,590.1,405.2,590.2,405.2c-0.1-0.1-0.1-0.1-0.2-0.2c-0.2-0.3-0.3-0.4-0.7-0.3c-0.6,0.2-0.7,0.7-1.1,1.1
			c-0.1,0.1,0,0.2,0,0.3c0,0.3,0.1,0.7,0.1,1.1c0,0.2,0.2,0.3,0.4,0.3c0.3-0.1,0.7-0.2,0.8-0.6c0.2-0.4,0.4-0.8,0.5-1.2
			C590.2,405.6,590.2,405.3,590.2,405.2z M588.5,402.1c-0.3,0.2-0.7,0.3-0.9,0.6c-0.6,0.4-0.7,1-0.2,1.5c0.1,0.1,0.2,0.2,0.3,0.3
			c0.1,0,0.2,0,0.2,0c0.4-0.3,0.7-0.7,0.8-1.2C588.9,402.8,588.9,402.4,588.5,402.1z M582.1,386.5c-0.2-0.7-0.8-0.9-1.5-1
			c-0.6,0-0.6,0-0.6,0.5c0,0.1,0,0.2,0,0.2c0.1,0.7,0.4,0.9,1,0.8c0.3-0.1,0.7-0.2,1-0.2c0.1,0,0.1-0.1,0.1-0.2
			C582.2,386.7,582.1,386.6,582.1,386.5z M588.8,397.6c-0.2,0-0.4,0.1-0.6,0.1c-0.1,0-0.2,0-0.2,0.1c-0.2,0.2-0.4,0.6-0.5,0.9
			c-0.1,0.2-0.1,0.3-0.1,0.5s0.1,0.3,0.2,0.5c0.1,0.3,0.4,0.5,0.7,0.3c0.4-0.2,0.7-0.8,0.5-1.2c-0.1-0.3-0.1-0.6,0-0.9
			C588.8,397.8,588.8,397.7,588.8,397.6z M585.6,389.9c-0.1-0.1-0.1-0.1-0.2-0.1c-0.3-0.1-0.6-0.3-0.7-0.7c-0.2-0.4-0.8-0.6-1.3-0.4
			c-0.1,0.1-0.2,0.2-0.3,0.3c-0.1,0.2,0.2,1,0.6,1.1h0.1c0.2,0.1,0.6,0.2,0.8,0.2s0.4,0.1,0.6-0.2c0-0.1,0.1-0.1,0.2-0.1
			C585.5,390,585.5,389.9,585.6,389.9z M593.2,391.6c0-0.4,0.1-0.8,0.4-1.1c0.6-0.5,1.1-0.4,1.2,0.3c0,0.2,0.1,0.2,0.1,0.4h0.1
			c0-0.2-0.1-0.5-0.1-0.7c-0.2-1-1.2-1.6-2.2-1.2c-0.3,0.1-0.4,0.3-0.3,0.7C592.7,390.5,592.9,391.1,593.2,391.6z M591.1,396.9
			C591,396.9,591,396.9,591.1,396.9c-0.1,0.1-0.1,0.2-0.1,0.2c-0.1,0.5-0.2,1-0.2,1.5c-0.1,0.7-0.2,1.6-0.3,2.3
			c-0.1,0.6,0.2,1,0.5,1.4c0.1-0.2,0.2-0.4,0.2-0.7c0-0.9,0-1.7,0-2.7c0-0.5,0.1-0.9,0.2-1.4C591.4,397.4,591.2,397.1,591.1,396.9z
			 M587.6,388.8c-0.1-0.4-0.2-0.7-0.5-0.8c-0.2-0.2-0.5-0.3-0.7-0.6c-0.8-0.6-1.5-1.4-2.2-2.1c-0.2-0.2-0.3-0.2-0.6-0.4
			c0.1,0.7,0.3,1.2,0.8,1.6c0.6,0.4,1.2,0.8,1.7,1.2C586.7,388.1,587.1,388.4,587.6,388.8z M588.4,391.7L588.4,391.7
			c0.1,0.3,0.1,0.6,0.2,0.9c0.2,0.7,0.6,1.3,1.1,1.9c0.3,0.3,0.7,0.5,1.2,0.3c0.7-0.2,1.2-0.6,1.6-1.2c0.1-0.1,0.1-0.2,0.2-0.2
			c-0.2,0.1-0.4,0.2-0.7,0.4c-1.4,0.7-2.2,0.6-3-0.7C588.9,392.7,588.6,392.2,588.4,391.7z M590.3,399.9c0-0.1,0-0.2,0.1-0.2
			c0.1-0.5,0.2-1,0.2-1.4c0.1-0.6,0.2-1.1,0.1-1.6c0-0.1-0.1-0.2-0.1-0.2c-0.1,0.1-0.2,0.2-0.2,0.2c-0.2,0.7-0.3,1.4-0.4,2.1
			c-0.1,0.2-0.1,0.4,0,0.7C589.9,399.5,589.9,399.7,590.3,399.9z M581.2,382.3c0,0.2,0.2,0.3,0.2,0.3c0.4,0.2,0.7,0.3,1.2,0.5
			c0.3,0.2,0.7,0.1,1-0.1c0.1-0.1,0.2-0.2,0-0.3c-0.1-0.1-0.2-0.2-0.3-0.3c-0.2-0.1-0.3-0.2-0.5-0.2c-0.4,0-0.7,0.1-1.2,0.1
			C581.5,382.3,581.4,382.3,581.2,382.3z M585,387.3c0,0.2,0,0.2,0,0.3c0.1,0.2,0.2,0.5,0.4,0.7c0.7,0.5,1.4,0.9,2.2,1.4
			c0,0,0.1,0,0.2,0c0-0.1,0-0.1,0-0.2c-0.2-0.2-0.3-0.5-0.6-0.7c-0.5-0.4-1.1-0.8-1.6-1.2C585.4,387.5,585.2,387.4,585,387.3z
			 M588.4,405C588.4,405.1,588.4,405.1,588.4,405c0.2-0.2,0.5-0.3,0.7-0.5c0.4-0.4,0.7-0.9,0.8-1.5c0.1-0.2,0.1-0.4-0.2-0.6
			s-0.4-0.2-0.7-0.4c0,0,0,0-0.1,0.1c0,0.1,0,0.2,0.1,0.3c0.2,0.3,0.2,0.7,0,1c-0.2,0.3-0.3,0.7-0.5,1
			C588.5,404.7,588.4,404.8,588.4,405z M590.6,407.8c0,0,0.1-0.1,0.1-0.2c0.2-0.2,0.2-0.6,0.3-0.8c0.1-0.4-0.1-0.7-0.5-0.7
			c-0.2-0.1-0.3,0-0.4,0.2c-0.1,0.2-0.2,0.4-0.2,0.7c0,0.1,0,0.2,0,0.3c0.1,0.2,0.2,0.3,0.2,0.5
			C590.4,407.9,590.4,407.9,590.6,407.8z M579.5,382L579.5,382c0.1,0.2,0.2,0.4,0.3,0.5c0.2,0.1,0.4,0.2,0.6,0.2c0.1,0,0.2,0,0.2,0
			c0.2-0.2,0.2-0.7,0.1-0.9c-0.3-0.2-0.7-0.5-1.2-0.5c-0.2,0-0.3,0.2-0.2,0.3C579.5,381.9,579.5,381.9,579.5,382z M580.1,384.8
			C580,384.8,580,384.9,580.1,384.8c0.1,0.2,0.2,0.2,0.4,0.2c0.3,0.1,0.6,0.2,0.9,0.2c0.5,0.2,0.8,0.4,1.1,0.9
			c0.1,0.1,0.1,0.2,0.2,0.3c0.1-0.2,0.1-0.4,0.2-0.7c0.1-0.3,0-0.5-0.3-0.7c-0.2-0.2-0.5-0.2-0.7-0.3
			C581.2,384.8,580.6,384.9,580.1,384.8z M582.6,387.3c0.2,0.2,0.4,0.6,0.7,0.8c0.1,0.1,0.2,0.2,0.4,0.2c0.3,0,0.7-0.1,1-0.1
			C584.4,387.5,583.3,387,582.6,387.3z M591.8,391.2c0.3-0.2,0.4-0.3,0.4-0.6c-0.2-0.5-0.7-0.7-1.1-0.4c-0.2,0.2-0.3,0.4-0.2,0.7
			c0.1,0.2,0.2,0.4,0.5,0.4C591.5,391.2,591.7,391.2,591.8,391.2z M589.4,399.4c-0.2,0.2-0.6,0.5-0.7,0.7c-0.1,0.1-0.1,0.1-0.1,0.2
			c0,0.4,0.1,0.8,0.1,1.2C589.2,401.3,589.6,400,589.4,399.4z M590.1,396.1c-0.3,0.6-0.7,1.1-0.9,1.7c-0.2,0.4-0.2,0.8,0,1.2
			C589.7,398,590.1,397.1,590.1,396.1z M579.5,380.4C579.4,380.4,579.4,380.4,579.5,380.4c0.4,0.4,0.9,0.7,1.3,1
			c0.2,0.2,0.4,0.3,0.7,0.4c0.2,0.2,0.6,0.2,0.9-0.1C581.4,381,580.5,380.6,579.5,380.4z M583.3,385.4L583.3,385.4
			c-0.1,0.4-0.2,0.8-0.2,1.2c0,0.1,0.1,0.2,0.2,0.2c0.3,0.2,0.6,0.2,0.9,0.4c0.1,0.1,0.2,0.1,0.3,0.1c0-0.2-0.1-0.2-0.1-0.4
			c0-0.1-0.1-0.1-0.1-0.2c-0.3-0.3-0.7-0.7-0.8-1.2C583.5,385.6,583.4,385.5,583.3,385.4z M584.9,388.7c0,0.1,0,0.2,0.1,0.2
			c0,0,0,0.1,0.1,0.1c0.3,0.4,0.7,0.7,1.2,0.7c0.3,0.1,0.6,0.2,0.9,0.2c0.2,0,0.3,0.1,0.5,0.2V390
			C586.9,389.3,586,388.9,584.9,388.7z M581.2,382.9L581.2,382.9c0.1,0.2,0.1,0.3,0.2,0.4c0.2,0.5,0.7,0.7,1.2,0.9
			c0.1,0,0.2,0,0.3,0c0.2-0.1,0.2-0.2,0.1-0.2c-0.4-0.3-0.7-0.7-1.2-0.9C581.6,382.9,581.4,382.9,581.2,382.9z M581,387.7
			c0.5,0.2,1,0.5,1.5,0.7c0.1,0,0.2,0,0.2,0.1c0.2,0,0.2-0.1,0.2-0.2C582.6,387.3,581.6,387.1,581,387.7z M590.3,402.4L590.3,402.4
			c0.1-0.2,0.2-0.3,0.1-0.4c-0.3-0.5-0.3-1-0.3-1.5c0-0.2-0.1-0.3-0.2-0.5c-0.1,0.1-0.1,0.1-0.1,0.1c-0.2,0.4-0.3,0.8-0.4,1.2
			c0,0.1,0,0.2,0,0.2C589.7,401.9,589.9,402.2,590.3,402.4z M591.2,408.7c0.5-0.7,1.2-2.4,1-2.9c-0.3,0.1-0.6,0.4-0.7,0.7
			C591.4,407.2,591.4,407.9,591.2,408.7z M590.7,405.6c0.1-0.2,0.2-0.2,0.2-0.3c0.2-0.5,0.2-1.1,0.2-1.7c0-0.2-0.1-0.2-0.2-0.1
			c-0.1,0.1-0.1,0.1-0.2,0.2C590.4,404.1,590.3,404.9,590.7,405.6z M587.1,402.5c0.4-0.1,0.7-0.3,0.9-0.6c0.2-0.3,0.2-0.7,0.1-1.1
			c0-0.1-0.1-0.2-0.2-0.2s-0.2,0.1-0.2,0.2c-0.1,0.2-0.2,0.3-0.2,0.6C587.4,401.7,587.3,402.1,587.1,402.5z M578.3,382.5
			c0.1,0,0.2-0.1,0.2-0.1c0.1-0.1,0.1-0.1,0.2-0.1c0.2-0.2,0.2-0.3,0.1-0.5c-0.2-0.2-0.4-0.3-0.7-0.4c-0.2-0.1-0.3,0-0.3,0.2
			s0.1,0.5,0.2,0.7C578,382.6,578.2,382.7,578.3,382.5z M588.8,408.4c0.2,0.2,0.2,0.4,0.4,0.5c0.2,0.2,0.2,0.1,0.3-0.1
			c0.1-0.2,0.1-0.3,0.2-0.5c0.2-0.6-0.1-0.7-0.6-0.6l0,0C588.7,408,588.7,408,588.8,408.4z M579.4,380.9c-0.2-0.1-0.3-0.2-0.5-0.3
			c-0.1-0.1-0.2-0.2-0.3-0.2c-0.2-0.1-0.3,0-0.4,0.2c-0.1,0.1-0.1,0.2-0.1,0.3C578.4,381.3,579,381.3,579.4,380.9z M590.7,408.3
			c-0.4,0.1-0.7,0.2-0.7,0.7c-0.1,0.3,0,0.3,0.2,0.4c0.2,0,0.3-0.1,0.4-0.3C590.7,408.8,590.7,408.6,590.7,408.3z M590.7,402.8
			c-0.4,0.2-0.8,1-0.7,1.5C590.3,403.9,590.4,403.3,590.7,402.8z M583.1,384.9c-0.5-0.2-1-0.4-1.5-0.5
			C581.9,384.8,582.6,385,583.1,384.9z M599.6,395.4c0.1-0.2-0.1-0.5-0.2-0.7c-0.2-0.1-0.4-0.1-0.7,0.1
			C598.9,395.1,599.2,395.2,599.6,395.4z M593.9,383.8c0.3,0.1,0.7,0.2,1,0.3c0-0.2-0.1-0.4-0.3-0.6
			C594.3,383.5,594.1,383.6,593.9,383.8z M589,397c0.4-0.3,0.7-0.7,0.7-1.2c-0.2,0.1-0.2,0.1-0.2,0.2
			C589.4,396.3,589.2,396.6,589,397z M586.2,390.2c0.3,0.1,0.7,0.2,1.1,0.4c0.1,0,0.2,0,0.3,0C587.1,390.2,586.7,390.2,586.2,390.2z
			 M590.2,390.8L590.2,390.8c0.1-0.2,0.2-0.2,0.1-0.4l-0.2-0.1c-0.1,0.1-0.2,0.2-0.1,0.3C590,390.7,590.1,390.7,590.2,390.8z"/>
		<path class="st0" d="M579.4,380.9c-0.4,0.3-1,0.3-1.2-0.1c-0.1-0.1,0-0.2,0.1-0.3c0.1-0.2,0.2-0.2,0.4-0.2
			c0.1,0.1,0.2,0.1,0.3,0.2C579,380.7,579.1,380.9,579.4,380.9z"/>
	</g>
	<g>
		<path class="st0" d="M604.9,521.3c1.3-0.3,2.7,0.2,3.4,1.4c0.2-0.1,0.3-0.2,0.5-0.2c1.1-0.5,2.1-0.6,3.2-0.4c0.2,0,0.2,0,0.3-0.1
			c0.2-0.2,0.7-0.2,1-0.1c0.3,0.2,0.4,0.6,0.3,0.9c-0.1,0.4-0.4,0.7-0.8,0.7s-0.7-0.2-0.8-0.6c-0.1-0.2-0.2-0.2-0.3-0.3
			c-1.2-0.2-2.2-0.1-3.3,0.5c0.2,1.1-0.2,1.7-1,1.9c0.3,0.9,0.3,1.7,0,2.7c0.2,0.1,0.5,0.1,0.7,0.2c0.3,0.2,0.7,0.3,1.1,0.6
			c1.8,1.4,3.6,2.8,5.3,4.2c0.9,0.7,1.7,1.7,2.3,2.7c0.3,0.7,0.7,1.3,0.9,2c0.2,0.5,0.2,1.1,0.1,1.7c-0.2,0.8-1.2,1.4-1.9,1.5
			c-0.5,0-1-0.1-1.4-0.2c-0.9-0.3-1.7-0.8-2.3-1.5c-0.2-0.2-0.3-0.3-0.5-0.5c-0.2-0.1-0.3-0.2-0.5-0.2c-1.1,0.1-1.9-0.4-2.4-1.3
			c-0.2-0.4-0.6-0.9-0.7-1.4c-0.1-0.6-0.3-0.8-0.9-1c-0.5-0.1-0.9-0.5-1.2-1c-0.1,0.2-0.2,0.4-0.2,0.6c-0.9,2.1-2.4,3.6-4.4,4.6
			c-0.7,0.3-1.4,0.6-2.2,0.8c-0.3,0.1-0.5,0-0.7-0.3c-1.4-2.7-1.6-5.5-0.4-8.2c0.1-0.2,0.2-0.5,0.3-0.8c-0.1,0-0.2,0-0.2,0
			c-0.6,0.2-1.1,0-1.6-0.3c-0.3-0.2-0.4-0.2-0.8,0c-0.2,0.1-0.3,0.2-0.5,0.2c-0.5,0.2-1,0.3-1.5,0.3c-0.8,0.2-1.6-0.1-2.2-0.8
			c-0.2-0.3-0.5-0.5-0.9-0.5c-0.9,0-1.9-0.2-2.7-0.7c-0.3-0.2-0.7-0.3-1-0.6c-0.7-0.5-1.2-1.7-0.8-2.5c0.2-0.7,0.8-1.2,1.4-1.4
			c0.7-0.2,1.3-0.5,2.1-0.6c1.3-0.2,2.7-0.2,4.1,0c1.9,0.3,3.8,0.7,5.8,1.1c0.8,0.2,1.6,0.4,2.2,1c0.5-0.8,1.1-1.4,2-1.7
			c-0.3-0.7-0.2-1.2,0.5-1.7c0.1-0.1,0.2-0.2,0.2-0.3c-0.2-1.2-0.9-2.2-1.9-2.9c-0.1-0.1-0.2,0-0.2,0c-0.4,0.2-0.9,0-1.2-0.4
			c-0.2-0.4,0-0.9,0.4-1.2s0.9-0.1,1.2,0.3c0.1,0.1,0.1,0.2,0.1,0.4s0.1,0.2,0.2,0.3C604,518.9,604.6,520,604.9,521.3
			C604.9,521.2,604.9,521.3,604.9,521.3z M614.1,535.4C614.1,535.4,614.1,535.5,614.1,535.4c0.1,0.2,0,0.5,0.2,0.5v-0.1
			c0.1-0.5,0.1-1.1,0.2-1.6c0-0.1,0-0.2-0.1-0.2c-0.2-0.2-0.2-0.3-0.4-0.4c-0.1-0.1-0.2-0.1-0.2,0c-0.1,0.2-0.2,0.5-0.2,0.7
			C613.8,534.7,613.9,535,614.1,535.4z M605.4,530.6c-0.1-0.4-0.4-0.9-0.9-1.1c-0.9-0.5-1.9-0.8-2.9-1c-0.2,0-0.3,0-0.5,0v0.1
			c0,0,0.1,0.1,0.2,0.1c0.7,0.3,1.4,0.7,2.1,0.9c0.1,0,0.2,0.1,0.2,0.2c0,0.4-0.1,0.8-0.2,1.2c-1.1-0.5-2.2-1-3.2-1.5
			c-0.2,0.3-0.3,0.7-0.6,1c1.2,0.5,2.3,1.1,3.5,1.6c-0.2,0.4-0.3,0.7-0.5,1.1c-1.2-0.5-2.3-1.1-3.5-1.6c-0.1,0.4-0.2,0.7-0.3,1.1
			c1.1,0.5,2.2,1,3.2,1.5c-0.2,0.3-0.5,0.6-0.7,0.8c-0.1,0.1-0.2,0.1-0.2,0c-0.7-0.3-1.4-0.6-2.1-0.9c-0.1,0-0.2-0.1-0.3-0.2
			c0,0.5,0.1,0.9,0.1,1.3c0.6,0,1,0.4,1.5,0.6c-0.4,0.2-0.7,0.6-1.2,0.8c0.1,0.2,0.2,0.6,0.3,0.8c0.1,0.2,0.2,0.2,0.4,0.2
			c0.3-0.1,0.7-0.2,0.9-0.2v-0.1c-0.2-0.1-0.3-0.2-0.6-0.2c0.4-0.2,0.7-0.5,1.2-0.7c0,0,0.1,0,0.2,0c0.2,0.1,0.4,0.2,0.7,0.3
			c0.3-0.2,0.7-0.5,1.1-0.8c-0.3-0.2-0.6-0.2-0.9-0.4c0.3-0.3,0.6-0.7,0.9-0.9c0.2,0.2,0.5,0.2,0.8,0.4c0.2-0.3,0.4-0.7,0.6-1
			c-0.3-0.2-0.5-0.2-0.7-0.3c0.2-0.4,0.3-0.7,0.5-1.1c0.2,0.1,0.5,0.2,0.7,0.3c0.2-0.4,0.2-0.7,0.4-1.1c-0.2-0.1-0.4-0.2-0.6-0.2
			c-0.1,0-0.2-0.1-0.2-0.2c0.1-0.4,0.2-0.8,0.2-1.2C605,530.4,605.2,530.5,605.4,530.6z M609.4,529.9
			C609.4,529.9,609.4,529.9,609.4,529.9l-0.1,0.2c0.3,0.5,0.7,0.9,1.2,1.3c0.6,0.6,1.2,1.1,1.7,1.8c0.2,0.2,0.4,0.4,0.7,0.5
			c0.2,0.1,0.4,0,0.4-0.2c0-0.2,0-0.3,0-0.6c0-0.1-0.1-0.2-0.2-0.3c-1-0.7-1.9-1.5-2.9-2.2C610.1,530.2,609.8,530.1,609.4,529.9z
			 M598.9,525.1L598.9,525.1c-0.1-0.1-0.1-0.1-0.2-0.2c-1.4-0.6-2.9-0.7-4.3-1c-0.2,0-0.3,0-0.4,0.1c-0.2,0.1-0.2,0.2-0.4,0.3
			c-0.2,0.2-0.2,0.3,0.1,0.4s0.5,0.2,0.7,0.2c0.4,0,0.7,0,1.2,0c0.6,0,1.2,0.1,1.7,0.2C597.8,525.3,598.3,525.3,598.9,525.1z
			 M589.5,527.3C589.5,527.4,589.5,527.4,589.5,527.3c0,0.1,0,0.1,0,0.2c-0.2,0.3-0.1,0.4,0.2,0.5c0.3,0.1,0.7,0.1,1.1,0.2
			c0.2,0.1,0.5,0,0.7-0.2c0.2-0.2,0.5-0.3,0.7-0.6c0.1-0.2,0.2-0.5,0.1-0.7c-0.1-0.3-0.7-0.5-0.9-0.3c-0.4,0.2-0.9,0.3-1.3,0.6
			C589.9,527,589.7,527.2,589.5,527.3z M613.2,535.9C613.2,536,613.2,536,613.2,535.9c-0.1,0-0.2,0-0.2,0c-0.3-0.2-0.5-0.1-0.7,0.2
			c-0.3,0.5-0.1,1,0,1.5c0,0.1,0.2,0.2,0.2,0.2c0.2,0.2,0.5,0.5,0.7,0.7c0.2,0.2,0.3,0.2,0.5-0.1c0.2-0.3,0.2-0.7,0.2-1
			c-0.2-0.4-0.2-0.8-0.4-1.2C613.4,536.2,613.3,536.1,613.2,535.9z M609.9,534.8c-0.1,0.3-0.2,0.7-0.3,1.1c-0.2,0.7,0.2,1.2,0.9,1.2
			c0.2,0,0.3,0,0.5,0c0.1,0,0.2-0.1,0.2-0.2c0.1-0.5,0.1-1-0.2-1.4C610.7,535,610.4,534.8,609.9,534.8z M594.6,527.8
			c-0.7-0.3-1.2-0.1-1.7,0.3c-0.4,0.3-0.4,0.4-0.1,0.7c0.1,0.1,0.1,0.1,0.2,0.2c0.5,0.4,0.9,0.4,1.3-0.1c0.2-0.2,0.4-0.6,0.6-0.8
			c0-0.1,0-0.2-0.1-0.2C594.8,527.8,594.7,527.8,594.6,527.8z M607,531.4c-0.2,0.2-0.2,0.3-0.3,0.4s-0.2,0.2-0.2,0.2
			c0.1,0.3,0.1,0.7,0.2,1c0.1,0.2,0.2,0.2,0.2,0.4c0.1,0.1,0.2,0.2,0.4,0.2c0.3,0.2,0.7,0.1,0.7-0.3c0.1-0.5-0.1-1.1-0.5-1.3
			C607.5,531.9,607.2,531.7,607,531.4C607.1,531.4,607.1,531.4,607,531.4z M599.4,527.9c-0.1,0-0.2,0-0.2,0c-0.3,0.2-0.7,0.1-1,0
			c-0.5-0.2-1,0.1-1.2,0.6c-0.1,0.1-0.1,0.2,0,0.4c0.1,0.2,0.9,0.6,1.2,0.4h0.1c0.2-0.2,0.5-0.2,0.7-0.4c0.2-0.1,0.4-0.2,0.2-0.5
			c0-0.1,0-0.2,0.1-0.2C599.4,528,599.4,527.9,599.4,527.9z M606.1,524c-0.2-0.3-0.5-0.7-0.4-1.1c0.1-0.7,0.5-1,1.2-0.6
			c0.1,0.1,0.2,0.2,0.3,0.2l0.1-0.1c-0.2-0.2-0.4-0.3-0.6-0.5c-0.8-0.6-2-0.2-2.4,0.6c-0.2,0.3-0.2,0.5,0.2,0.7
			C605,523.5,605.5,523.7,606.1,524z M608.2,529.3L608.2,529.3c0,0.1,0,0.2,0.1,0.2c0.3,0.4,0.6,0.8,0.9,1.2
			c0.4,0.7,0.9,1.2,1.3,1.9c0.3,0.4,0.8,0.6,1.3,0.7c-0.1-0.2-0.2-0.4-0.3-0.6c-0.6-0.7-1.2-1.2-1.8-2c-0.3-0.3-0.6-0.7-0.8-1.2
			C608.7,529.4,608.5,529.4,608.2,529.3z M600.2,525.7c-0.3-0.2-0.6-0.3-0.9-0.2c-0.3,0-0.6,0.1-0.9,0.1c-1,0.2-2.1,0-3.1-0.1
			c-0.2,0-0.4,0.1-0.7,0.1c0.5,0.4,1,0.7,1.7,0.6c0.7-0.1,1.4-0.2,2.2-0.2C599.1,525.8,599.6,525.7,600.2,525.7z M602.7,527.4
			L602.7,527.4c0.2,0.2,0.5,0.3,0.7,0.5c0.7,0.3,1.3,0.7,2.1,0.7c0.5,0,0.9-0.2,1.2-0.7c0.3-0.6,0.5-1.2,0.4-1.9
			c0-0.1-0.1-0.2-0.1-0.3c-0.1,0.2-0.1,0.5-0.2,0.7c-0.5,1.6-1.2,1.9-2.7,1.5C603.7,527.7,603.2,527.5,602.7,527.4z M609.6,532
			c-0.1-0.1-0.1-0.2-0.2-0.2c-0.2-0.4-0.6-0.8-0.8-1.2c-0.3-0.5-0.7-0.9-1.1-1.2c-0.1-0.1-0.2-0.1-0.2-0.1c0,0.1,0,0.2,0,0.2
			c0.3,0.6,0.7,1.2,1.1,1.8c0.1,0.2,0.2,0.3,0.4,0.5C609.1,531.9,609.4,532.1,609.6,532z M591,525.3c0.2,0.2,0.3,0.1,0.4,0.1
			c0.4-0.2,0.7-0.3,1.2-0.4c0.4-0.1,0.6-0.4,0.7-0.7c0-0.2,0-0.2-0.2-0.2s-0.3-0.1-0.5,0c-0.2,0-0.3,0.1-0.5,0.2
			c-0.2,0.2-0.5,0.6-0.8,0.8C591.3,525.1,591.2,525.2,591,525.3z M597.2,526.4c0.1,0.1,0.2,0.2,0.2,0.2c0.2,0.1,0.5,0.2,0.7,0.2
			c0.8-0.1,1.7-0.2,2.6-0.4c0.1,0,0.1-0.1,0.1-0.1l-0.1-0.1c-0.2,0-0.6-0.2-0.8-0.1c-0.7,0-1.3,0.1-2,0.2
			C597.7,526.3,597.4,526.3,597.2,526.4z M611.8,537.1C611.8,537.1,611.9,537.1,611.8,537.1c0.1-0.3,0.2-0.6,0.2-0.8
			c0-0.6-0.2-1.2-0.4-1.7c-0.1-0.2-0.2-0.3-0.5-0.3s-0.5,0.1-0.7,0.2v0.1c0.1,0.1,0.2,0.2,0.2,0.2c0.3,0.2,0.6,0.4,0.7,0.7
			c0.2,0.3,0.2,0.7,0.3,1.1C611.6,536.7,611.7,536.9,611.8,537.1z M615.3,537.6c0-0.1,0-0.1,0-0.2c-0.1-0.2-0.2-0.6-0.3-0.8
			c-0.2-0.3-0.6-0.4-0.9-0.2c-0.2,0.1-0.2,0.2-0.2,0.4c0.1,0.2,0.2,0.4,0.2,0.7c0.1,0.1,0.2,0.2,0.2,0.2c0.2,0.1,0.3,0.1,0.5,0.2
			C615.2,537.8,615.3,537.7,615.3,537.6z M589.6,526.2C589.6,526.2,589.6,526.3,589.6,526.2c0.2,0.1,0.4,0.2,0.6,0.2
			c0.2,0,0.4-0.1,0.7-0.2c0.1,0,0.2-0.2,0.2-0.2c0.1-0.2-0.2-0.7-0.5-0.7c-0.4,0-0.8,0.2-1.2,0.4c-0.2,0.2-0.2,0.3,0.1,0.4
			C589.4,526.1,589.5,526.2,589.6,526.2z M591.9,527.9C591.9,528,591.9,528,591.9,527.9c0.2,0,0.3,0,0.5-0.1
			c0.2-0.2,0.6-0.3,0.8-0.4c0.4-0.2,0.9-0.3,1.4-0.1c0.1,0.1,0.2,0.1,0.4,0.1c-0.2-0.2-0.2-0.4-0.3-0.6c-0.2-0.2-0.3-0.3-0.7-0.2
			c-0.2,0.1-0.5,0.2-0.7,0.2C592.8,527.1,592.4,527.6,591.9,527.9z M595.5,527.9c0.3,0.1,0.7,0.2,1.1,0.2c0.2,0,0.3,0,0.5-0.2
			c0.2-0.2,0.4-0.5,0.7-0.7C596.9,527,595.8,527.3,595.5,527.9z M604.9,524.6c0.2-0.3,0.1-0.6-0.1-0.7c-0.4-0.2-1,0-1.1,0.4
			c-0.1,0.2,0,0.5,0.2,0.7c0.2,0.2,0.4,0.2,0.7-0.1C604.7,524.8,604.8,524.6,604.9,524.6z M608.7,532.2c0,0.3-0.1,0.7-0.1,1.1
			c0,0.1,0,0.2,0.1,0.2c0.3,0.3,0.6,0.6,0.9,0.8C609.9,533.8,609.3,532.6,608.7,532.2z M607,529.3c0.2,0.7,0.2,1.2,0.5,1.9
			c0.2,0.4,0.3,0.7,0.9,0.9C608,531,607.6,530.1,607,529.3z M588.4,525C588.4,525,588.4,525.1,588.4,525c0.6,0,1.1-0.1,1.7-0.2
			c0.2-0.1,0.5-0.1,0.7-0.2c0.3-0.1,0.5-0.2,0.7-0.7C590.4,524.2,589.4,524.5,588.4,525z M594.8,526.2
			C594.8,526.2,594.8,526.3,594.8,526.2c0.2,0.4,0.4,0.7,0.7,1c0.1,0.1,0.2,0,0.2,0c0.3-0.1,0.7-0.2,0.9-0.3c0.1,0,0.2-0.1,0.3-0.2
			c-0.1-0.1-0.2-0.2-0.3-0.2c-0.1,0-0.1,0-0.2,0c-0.5,0-0.9-0.1-1.4-0.2C594.9,526.2,594.8,526.2,594.8,526.2z M598,527.5
			c0.1,0.1,0.1,0.1,0.2,0.1c0,0,0.1,0.1,0.2,0c0.5,0.1,0.9,0,1.3-0.2c0.2-0.2,0.6-0.3,0.8-0.5c0.2-0.1,0.3-0.2,0.5-0.2v-0.1
			C600,526.6,599,527,598,527.5z M591.5,525.7C591.5,525.7,591.5,525.8,591.5,525.7c0.2,0.2,0.3,0.2,0.4,0.2c0.5,0.2,1,0.2,1.4-0.2
			c0.1-0.1,0.2-0.2,0.2-0.2c0.1-0.2,0.1-0.2-0.1-0.2c-0.5,0-1,0-1.5,0.1C591.8,525.5,591.7,525.6,591.5,525.7z M594.5,529.4
			c0.6-0.2,1.1-0.3,1.6-0.5c0.1,0,0.1-0.1,0.2-0.1c0.2-0.2,0.2-0.2,0-0.3C595.6,527.9,594.6,528.5,594.5,529.4z M611.4,533.9
			L611.4,533.9c-0.1-0.2-0.1-0.2-0.2-0.3c-0.6-0.2-0.9-0.5-1.2-0.9c-0.1-0.1-0.2-0.2-0.4-0.2c0,0.1,0,0.2,0,0.2
			c0.2,0.4,0.3,0.8,0.5,1.2c0,0.1,0.1,0.2,0.1,0.1C610.6,533.9,611,533.9,611.4,533.9z M616.3,537.8c-0.1-0.8-0.7-2.5-1.2-2.8
			c-0.2,0.3-0.2,0.7,0.1,1C615.5,536.6,615.9,537.2,616.3,537.8z M613.8,535.9c0-0.2,0-0.3-0.1-0.4c-0.2-0.5-0.6-0.9-0.9-1.3
			c-0.1-0.1-0.2-0.1-0.2,0.1c0,0.1,0,0.2,0,0.2C612.5,535.1,613.1,535.7,613.8,535.9z M609.2,536.1c0.2-0.3,0.3-0.7,0.2-1.1
			s-0.2-0.7-0.7-0.8c-0.1-0.1-0.2-0.1-0.2,0c-0.1,0-0.1,0.2,0,0.2c0.1,0.2,0.1,0.3,0.2,0.6C608.9,535.3,609,535.7,609.2,536.1z
			 M589.1,527.4c0.1-0.1,0.1-0.2,0.1-0.2c0-0.1,0-0.1,0-0.2c0-0.2,0-0.3-0.2-0.3s-0.5,0-0.8,0.1c-0.2,0.1-0.2,0.2-0.1,0.4
			c0.2,0.2,0.4,0.3,0.7,0.4C588.9,527.6,589.1,527.6,589.1,527.4z M614.4,539.2c0.2,0,0.4,0.1,0.7,0.1c0.2,0,0.2-0.1,0.2-0.2
			c-0.1-0.2-0.2-0.3-0.2-0.4c-0.2-0.5-0.5-0.5-0.8,0l0,0C614,539,614,539.1,614.4,539.2z M588.8,525.5c-0.2,0-0.4,0.1-0.7,0.1
			c-0.1,0-0.2,0.1-0.3,0.1c-0.2,0.1-0.2,0.2-0.2,0.3c0,0.1,0.1,0.2,0.2,0.2C588.3,526.5,588.8,526,588.8,525.5z M615.8,537.9
			c-0.2,0.3-0.3,0.6,0,1.1c0.2,0.2,0.2,0.2,0.4,0.1c0.2-0.2,0.2-0.2,0.1-0.5C616,538.3,615.9,538.1,615.8,537.9z M611.9,533.9
			c-0.2,0.4,0.1,1.3,0.4,1.6C612.4,534.9,612,534.4,611.9,533.9z M594.3,525.9c-0.5,0.2-1,0.3-1.5,0.7
			C593.3,526.6,594,526.3,594.3,525.9z M613.4,522.4c-0.2-0.2-0.4-0.3-0.7-0.2c-0.2,0.1-0.4,0.2-0.4,0.5
			C612.7,522.6,613,522.5,613.4,522.4z M601.4,517.7c0.3-0.2,0.7-0.2,1-0.4c-0.2-0.2-0.4-0.2-0.6-0.2
			C601.5,517.2,601.4,517.5,601.4,517.7z M606.8,530.8c0.1-0.5,0.1-1-0.2-1.4c-0.1,0.2-0.1,0.2-0.1,0.3
			C606.5,530,606.6,530.4,606.8,530.8z M600.1,527.6c0.3-0.2,0.7-0.2,1.1-0.4c0.1-0.1,0.2-0.2,0.2-0.2
			C600.7,527,600.4,527.3,600.1,527.6z M603.5,525.5C603.5,525.5,603.5,525.4,603.5,525.5c0-0.2-0.1-0.3-0.2-0.4l-0.2,0.1
			c0,0.2,0.1,0.2,0.2,0.3C603.2,525.5,603.3,525.5,603.5,525.5z"/>
		<path class="st0" d="M588.8,525.5c-0.1,0.5-0.5,0.9-1,0.8c-0.1,0-0.2-0.2-0.2-0.2c-0.1-0.2,0-0.3,0.2-0.3c0.1,0,0.2-0.1,0.3-0.1
			C588.4,525.6,588.6,525.6,588.8,525.5z"/>
	</g>
	<g>
		<path class="st0" d="M698.4,503.8c0.2-1.4,1.3-2.3,2.7-2.5c0-0.2,0-0.3,0-0.5c0-1.2,0.3-2.2,1-3.2c0.1-0.2,0.1-0.2,0.1-0.3
			c-0.1-0.3,0.1-0.7,0.3-0.9c0.3-0.2,0.7-0.2,1,0.1c0.3,0.2,0.4,0.7,0.2,1c-0.2,0.3-0.5,0.6-0.9,0.5c-0.2,0-0.3,0-0.4,0.2
			c-0.7,1-1,2-0.9,3.2c1,0.2,1.5,0.8,1.3,1.7c0.9,0.1,1.7,0.4,2.4,1.1c0.2-0.2,0.3-0.3,0.5-0.5c0.3-0.2,0.6-0.6,0.9-0.7
			c2-1.1,4.1-2.1,6.1-3.2c1.1-0.5,2.2-0.9,3.5-1c0.7-0.1,1.5-0.1,2.2,0c0.6,0,1.1,0.2,1.6,0.6c0.7,0.5,0.8,1.7,0.6,2.3
			c-0.2,0.4-0.5,0.8-0.8,1.2c-0.7,0.7-1.5,1.2-2.3,1.5c-0.2,0.1-0.5,0.2-0.7,0.2c-0.2,0.1-0.3,0.2-0.3,0.4c-0.4,1-1.2,1.6-2.2,1.7
			c-0.5,0.1-1.1,0.2-1.6,0c-0.6-0.2-0.9,0-1.2,0.4s-0.8,0.6-1.3,0.7c0.2,0.2,0.2,0.3,0.4,0.5c1.5,1.7,2.3,3.7,2.3,5.9
			c0,0.7-0.1,1.6-0.2,2.3c0,0.3-0.2,0.4-0.5,0.5c-3.1,0.2-5.6-0.8-7.6-3.1c-0.2-0.2-0.4-0.4-0.6-0.7c0,0.1-0.1,0.2-0.1,0.2
			c-0.1,0.6-0.5,1-1,1.3c-0.4,0.2-0.4,0.2-0.3,0.7c0,0.2,0,0.4,0,0.6c-0.1,0.5-0.2,1-0.2,1.5c-0.2,0.8-0.7,1.4-1.6,1.7
			c-0.4,0.1-0.7,0.2-0.8,0.7c-0.4,0.8-1,1.6-1.7,2.2c-0.2,0.2-0.6,0.4-0.9,0.7c-0.7,0.5-2.1,0.3-2.7-0.2c-0.5-0.5-0.7-1.2-0.7-1.9
			c0.1-0.7,0.1-1.5,0.3-2.2c0.3-1.3,0.9-2.6,1.7-3.7c1.1-1.6,2.2-3.2,3.3-4.8c0.5-0.7,1-1.2,1.8-1.7c-0.6-0.7-0.8-1.6-0.7-2.6
			c-0.8,0-1.2-0.3-1.4-1.2c-0.1-0.2-0.1-0.2-0.2-0.2c-1.2-0.3-2.4-0.1-3.5,0.6c-0.1,0-0.1,0.2-0.1,0.2c0,0.5-0.3,0.8-0.8,0.9
			c-0.4,0-0.8-0.3-0.8-0.8s0.3-0.9,0.7-0.9c0.2,0,0.2,0,0.4,0.1c0.2,0.1,0.2,0.1,0.3,0c1.2-0.6,2.5-0.7,3.7-0.4
			C698.3,503.8,698.3,503.8,698.4,503.8z M715,501.2C715,501.2,715.1,501.2,715,501.2c0.2,0,0.4,0.2,0.6-0.1l-0.1-0.1
			c-0.5-0.2-0.9-0.5-1.3-0.7c-0.1,0-0.2-0.1-0.3,0c-0.2,0.1-0.4,0.1-0.6,0.2c-0.1,0.1-0.2,0.2-0.1,0.2c0.2,0.2,0.4,0.4,0.6,0.4
			C714.2,501.2,714.6,501.1,715,501.2z M707.1,507.2c-0.4-0.1-1,0.1-1.3,0.3c-0.8,0.7-1.5,1.4-2.1,2.2c-0.1,0.2-0.1,0.3-0.2,0.5h0.1
			l0.1-0.1c0.6-0.5,1.2-1,1.7-1.5c0.1-0.1,0.2-0.1,0.2-0.1c0.3,0.2,0.7,0.4,1.1,0.6c-0.9,0.8-1.7,1.6-2.7,2.3
			c0.2,0.3,0.4,0.6,0.7,0.9c1-0.8,1.9-1.7,2.8-2.5c0.2,0.3,0.5,0.6,0.8,0.9c-1,0.8-1.9,1.7-2.9,2.5c0.3,0.2,0.6,0.5,0.9,0.7
			c0.9-0.8,1.7-1.6,2.7-2.3c0.2,0.3,0.3,0.7,0.5,1.1c0,0.1,0,0.2-0.1,0.2c-0.6,0.5-1.2,1-1.7,1.5c-0.1,0.1-0.1,0.1-0.2,0.2
			c0.5,0.2,0.9,0.3,1.2,0.5c0.2-0.5,0.7-0.7,1.2-1.1c0.1,0.5,0.2,0.9,0.2,1.4c0.2,0,0.6,0,0.8,0c0.2,0,0.3-0.1,0.4-0.2
			c0.1-0.3,0.1-0.7,0.1-1h-0.1c-0.2,0.2-0.3,0.2-0.5,0.4c-0.1-0.5-0.2-0.9-0.2-1.3c0-0.1,0-0.1,0-0.2c0.2-0.2,0.3-0.3,0.6-0.5
			c-0.1-0.4-0.2-0.8-0.3-1.3c-0.2,0.2-0.5,0.4-0.7,0.7c-0.2-0.4-0.3-0.8-0.5-1.2c0.2-0.2,0.4-0.4,0.7-0.6c-0.2-0.3-0.4-0.7-0.7-1
			c-0.2,0.2-0.4,0.4-0.7,0.6c-0.2-0.3-0.5-0.6-0.8-0.9c0.2-0.2,0.4-0.3,0.7-0.6c-0.3-0.2-0.6-0.6-0.8-0.8c-0.2,0.2-0.3,0.3-0.5,0.5
			c-0.1,0.1-0.2,0.1-0.2,0.1c-0.3-0.2-0.7-0.5-1-0.7C706.7,507.4,706.9,507.3,707.1,507.2z M708.1,503.1
			C708.1,503.2,708.1,503.2,708.1,503.1c0.1,0.1,0.2,0.1,0.2,0.1c0.6-0.2,1.2-0.2,1.7-0.5c0.7-0.2,1.5-0.7,2.3-0.8
			c0.2-0.1,0.5-0.2,0.7-0.4c0.2-0.2,0.2-0.3-0.1-0.4c-0.2-0.1-0.3-0.2-0.5-0.2c-0.1,0-0.2-0.1-0.4,0c-1.1,0.6-2.2,1.2-3.2,1.7
			C708.6,502.7,708.4,503,708.1,503.1z M699.4,510.8C699.4,510.8,699.3,510.8,699.4,510.8c-0.1,0-0.2,0-0.2,0.1
			c-1.1,1.1-1.9,2.3-2.7,3.6c-0.1,0.1-0.1,0.3-0.1,0.4c0,0.2,0.1,0.3,0.2,0.5s0.2,0.2,0.4,0.1s0.3-0.4,0.5-0.7
			c0.2-0.3,0.3-0.7,0.5-1.1c0.2-0.5,0.6-1,0.8-1.5C699.1,511.9,699.3,511.4,699.4,510.8z M697.5,520.2
			C697.5,520.2,697.6,520.2,697.5,520.2c0.1,0,0.1,0,0.2,0.1c0.2,0.2,0.4,0.2,0.6-0.1s0.3-0.6,0.6-0.9c0.2-0.2,0.2-0.4,0.1-0.7
			c-0.1-0.2-0.2-0.6-0.2-0.8c-0.1-0.2-0.3-0.3-0.6-0.4c-0.3-0.1-0.7,0.3-0.7,0.7c0,0.5,0,0.9,0,1.4
			C697.4,519.8,697.4,520,697.5,520.2z M715.1,502.2C715.1,502.3,715.2,502.3,715.1,502.2c0,0.1-0.1,0.2-0.1,0.2
			c-0.2,0.2-0.2,0.5-0.1,0.7c0.3,0.5,0.9,0.5,1.4,0.7c0.1,0,0.2-0.1,0.3-0.1c0.3-0.2,0.7-0.2,1-0.4c0.2-0.1,0.3-0.2,0.2-0.5
			c-0.2-0.3-0.4-0.5-0.8-0.6c-0.4,0-0.9-0.1-1.3-0.1C715.5,502.1,715.4,502.2,715.1,502.2z M712.7,504.8c0.2,0.2,0.6,0.5,0.8,0.7
			c0.6,0.4,1.2,0.3,1.4-0.3c0.1-0.2,0.1-0.3,0.2-0.4c0-0.1,0-0.2-0.1-0.2c-0.4-0.2-0.9-0.5-1.4-0.4
			C713.3,504.2,713,504.4,712.7,504.8z M700,515.8c-0.6,0.5-0.6,1.1-0.4,1.7c0.2,0.6,0.2,0.6,0.7,0.4c0.1,0,0.2-0.1,0.2-0.1
			c0.6-0.2,0.7-0.7,0.5-1.2c-0.2-0.3-0.3-0.6-0.5-0.9c0-0.1-0.2-0.1-0.2-0.1C700.1,515.7,700.1,515.7,700,515.8z M708.5,506
			c0.1,0.2,0.2,0.3,0.2,0.5c0.1,0.1,0.1,0.2,0.2,0.2c0.3,0.1,0.7,0.2,1,0.2c0.2,0,0.3-0.1,0.5-0.1c0.2-0.1,0.2-0.2,0.4-0.2
			c0.3-0.2,0.3-0.6,0-0.8c-0.3-0.3-1-0.3-1.4-0.1C709.1,505.9,708.9,506,708.5,506C708.6,506,708.5,506,708.5,506z M702.1,511.4
			c0,0.1-0.1,0.1-0.1,0.2c0,0.3-0.2,0.7-0.4,0.9c-0.3,0.4-0.3,1,0,1.4c0.1,0.1,0.2,0.2,0.4,0.2c0.2,0,0.8-0.6,0.8-0.9v-0.1
			c0-0.2,0-0.6-0.1-0.8c0-0.2-0.1-0.4-0.3-0.5c-0.1,0-0.1-0.1-0.2-0.2C702.2,511.6,702.2,511.5,702.1,511.4z M701.3,503.7
			c-0.4,0.2-0.7,0.2-1.2-0.1c-0.7-0.4-0.7-0.9-0.1-1.3c0.1-0.1,0.2-0.2,0.3-0.2c0,0,0-0.1-0.1-0.1c-0.2,0.1-0.5,0.2-0.7,0.3
			c-0.8,0.5-1.1,1.7-0.4,2.4c0.2,0.2,0.4,0.3,0.7,0.1C700.4,504.5,700.8,504.1,701.3,503.7z M707.1,504L707.1,504
			c0.1,0.1,0.2,0,0.2,0c0.5-0.1,1-0.2,1.5-0.2c0.7-0.2,1.5-0.3,2.3-0.4c0.6-0.1,0.9-0.5,1.2-0.9c-0.2,0-0.5,0-0.7,0.1
			c-0.8,0.2-1.7,0.6-2.5,0.8c-0.4,0.2-0.9,0.2-1.4,0.2C707.4,503.6,707.2,503.9,707.1,504z M700.4,509.9c-0.3,0.2-0.5,0.4-0.7,0.7
			c-0.1,0.2-0.2,0.6-0.2,0.8c-0.3,1-0.8,1.8-1.3,2.7c-0.1,0.2-0.1,0.4-0.2,0.7c0.7-0.2,1-0.7,1.2-1.2c0.2-0.7,0.4-1.4,0.7-2.1
			C700.1,510.9,700.3,510.4,700.4,509.9z M703,508.3L703,508.3c0.2-0.2,0.5-0.3,0.7-0.5c0.6-0.4,1.1-0.9,1.4-1.7
			c0.2-0.4,0.2-0.9-0.1-1.3c-0.4-0.6-0.9-1-1.6-1.2c-0.1,0-0.2-0.1-0.3-0.1c0.2,0.2,0.4,0.3,0.6,0.5c1.2,1.2,1.2,1.9,0.2,3
			C703.7,507.4,703.3,507.9,703,508.3z M710.1,503.9c-0.1,0-0.2,0-0.2,0c-0.5,0.1-0.9,0.2-1.4,0.2c-0.6,0.1-1.1,0.2-1.6,0.5
			c-0.1,0-0.1,0.1-0.2,0.2c0.1,0,0.2,0.1,0.2,0.1c0.7-0.1,1.4-0.2,2.1-0.2c0.2,0,0.4-0.1,0.7-0.2
			C709.8,504.4,710.1,504.2,710.1,503.9z M696.3,518.1c0.2-0.1,0.2-0.2,0.2-0.4c0-0.4,0-0.8,0.1-1.2c0.1-0.4-0.2-0.7-0.4-0.9
			c-0.1-0.1-0.2-0.1-0.3,0.1s-0.2,0.3-0.2,0.4c0,0.2-0.1,0.3,0,0.5c0.2,0.3,0.3,0.7,0.4,1.1C696.2,517.7,696.3,517.9,696.3,518.1z
			 M699.8,512.8c0.2,0,0.2-0.1,0.2-0.1c0.2-0.2,0.4-0.3,0.5-0.6c0.2-0.8,0.4-1.7,0.7-2.5c0-0.1,0-0.1,0-0.2c-0.1,0-0.1,0-0.2,0.1
			c-0.2,0.2-0.3,0.5-0.4,0.7c-0.2,0.6-0.4,1.2-0.7,1.9C699.9,512.4,699.8,512.6,699.8,512.8z M715.6,504L715.6,504
			c-0.2-0.2-0.5-0.3-0.7-0.5c-0.5-0.2-1.1-0.3-1.7-0.3c-0.2,0-0.4,0.1-0.5,0.3c-0.1,0.2-0.1,0.5-0.2,0.7h0.1
			c0.1-0.1,0.2-0.1,0.3-0.2c0.2-0.2,0.6-0.3,0.9-0.3c0.4,0,0.7,0.1,1.2,0.2C715.2,504,715.4,504,715.6,504z M717.5,501
			c-0.1,0-0.1-0.1-0.2-0.1c-0.3,0-0.6-0.1-0.9-0.1c-0.4,0-0.6,0.3-0.6,0.7c0,0.2,0.1,0.3,0.3,0.3c0.2,0,0.5,0,0.7,0
			c0.1,0,0.2-0.1,0.3-0.2c0.2-0.1,0.2-0.2,0.4-0.4C717.7,501.2,717.7,501.1,717.5,501z M696.5,519.7
			C696.6,519.7,696.6,519.7,696.5,519.7c0.2-0.2,0.3-0.2,0.4-0.5c0.1-0.2,0.1-0.4,0.1-0.7c0-0.1-0.1-0.2-0.1-0.2
			c-0.2-0.2-0.7,0-0.8,0.2c-0.2,0.4-0.2,0.8-0.1,1.2c0.1,0.2,0.2,0.2,0.4,0.2C696.4,519.8,696.5,519.8,696.5,519.7z M699.1,518.3
			L699.1,518.3c0.1-0.2,0.2-0.3,0.2-0.5c0-0.3-0.1-0.7-0.1-0.9c0-0.5,0.1-0.9,0.5-1.3c0.1-0.1,0.2-0.2,0.2-0.3
			c-0.2,0-0.4,0.1-0.7,0.1c-0.3,0-0.5,0.2-0.5,0.5c-0.1,0.2-0.1,0.5-0.1,0.7C698.6,517.2,699,517.7,699.1,518.3z M700.5,515.1
			c0.2-0.2,0.4-0.6,0.6-0.8c0.1-0.2,0.1-0.3,0.1-0.5c-0.1-0.3-0.2-0.6-0.4-0.9C700.3,513.3,700.1,514.6,700.5,515.1z M701.3,505.2
			c-0.2-0.3-0.5-0.3-0.7-0.2c-0.4,0.2-0.4,0.9-0.1,1.2c0.2,0.2,0.5,0.2,0.7,0.1c0.2-0.2,0.3-0.3,0.2-0.6
			C701.5,505.5,701.4,505.2,701.3,505.2z M709.9,504.9c0.3,0.2,0.7,0.3,0.9,0.5c0.1,0,0.2,0,0.2,0c0.4-0.2,0.7-0.3,1.2-0.5
			C711.7,504.4,710.5,504.4,709.9,504.9z M706.5,505.2c0.7,0.2,1.2,0.2,1.9,0.3c0.4,0.1,0.8,0,1.2-0.4
			C708.6,505,707.6,505,706.5,505.2z M695,520.3L695,520.3c0.2-0.5,0.3-1.1,0.5-1.6c0.1-0.2,0.2-0.5,0.2-0.7
			c0.1-0.3-0.1-0.6-0.3-0.8C695,518.2,694.9,519.2,695,520.3z M698.6,515.1C698.6,515.1,698.6,515.2,698.6,515.1
			c0.5,0,0.8-0.1,1.2-0.2c0.1,0,0.1-0.2,0.1-0.2c0-0.3,0.1-0.7,0.1-1c0-0.1,0-0.2,0-0.3c-0.1,0.1-0.2,0.2-0.3,0.2
			c-0.1,0-0.1,0.1-0.1,0.2c-0.2,0.4-0.4,0.8-0.8,1.2C698.7,514.8,698.7,515,698.6,515.1z M701.2,512.6c0.1-0.1,0.1-0.1,0.2-0.1
			l0.1-0.1c0.3-0.4,0.4-0.8,0.3-1.3c0-0.3-0.1-0.7-0.1-1c0-0.2,0-0.3,0-0.5h-0.1C701.2,510.4,701.1,511.4,701.2,512.6z M696.9,517.8
			L696.9,517.8c0.2-0.1,0.2-0.2,0.3-0.2c0.4-0.3,0.5-0.8,0.5-1.4c0-0.1-0.1-0.2-0.2-0.3c-0.1-0.2-0.2-0.2-0.2,0
			c-0.2,0.5-0.4,0.9-0.5,1.4C696.8,517.4,696.9,517.6,696.9,517.8z M701.4,516.6c0.1-0.6,0.2-1.1,0.2-1.7c0-0.1,0-0.2,0-0.2
			c-0.1-0.2-0.2-0.2-0.3-0.2C700.6,515,700.7,516.2,701.4,516.6z M712.5,503C712.5,503,712.5,503,712.5,503c-0.2,0-0.3,0-0.3,0
			c-0.3,0.4-0.8,0.7-1.3,0.8c-0.2,0.1-0.2,0.2-0.4,0.2c0.1,0.1,0.1,0.1,0.2,0.1c0.4,0,0.8,0.1,1.2,0c0.1,0,0.2,0,0.2-0.1
			C712.2,503.8,712.4,503.4,712.5,503z M718.1,500.1c-0.7-0.3-2.6-0.3-3.1-0.1c0.2,0.2,0.6,0.4,0.9,0.3
			C716.7,500.4,717.4,500.3,718.1,500.1z M715.4,501.6c-0.2-0.1-0.2-0.1-0.4-0.2c-0.6-0.1-1.1,0.1-1.7,0.2c-0.2,0.1-0.2,0.2,0,0.2
			c0.1,0,0.2,0.1,0.2,0.1C714,502.5,714.9,502.2,715.4,501.6z M713.6,506c-0.2-0.4-0.5-0.6-0.9-0.7s-0.7,0-1,0.2
			c-0.1,0.1-0.2,0.2-0.2,0.2s0.2,0.2,0.2,0.2c0.2,0,0.4,0,0.6,0.1C712.8,506,713.1,506,713.6,506z M697.4,520.6
			c-0.1-0.1-0.1-0.1-0.2-0.2c-0.1-0.1-0.1-0.1-0.2-0.1c-0.2-0.2-0.3-0.2-0.4,0.1c-0.1,0.2-0.2,0.5-0.2,0.7c-0.1,0.2,0.2,0.3,0.3,0.2
			c0.2-0.1,0.4-0.2,0.7-0.4C697.6,521,697.6,520.8,697.4,520.6z M718.7,502.5c0.2-0.2,0.2-0.3,0.3-0.6c0.1-0.2,0-0.2-0.2-0.3
			c-0.2,0-0.3,0-0.5,0c-0.6,0.1-0.7,0.2-0.3,0.7l0,0C718.3,502.8,718.4,502.8,718.7,502.5z M695.6,520.2c-0.1,0.2-0.2,0.4-0.2,0.6
			c0,0.1-0.1,0.2-0.1,0.3c0,0.2,0.1,0.3,0.2,0.3c0.1,0,0.3,0,0.3-0.1C696.2,521.1,696,520.5,695.6,520.2z M717.9,500.7
			c0.2,0.4,0.4,0.5,0.9,0.5c0.3,0,0.3-0.1,0.2-0.3c-0.1-0.2-0.2-0.2-0.4-0.2C718.4,500.6,718.2,500.7,717.9,500.7z M712.7,502.5
			c0.3,0.3,1.2,0.5,1.6,0.2C713.9,502.5,713.3,502.7,712.7,502.5z M698.2,515.4c0,0.6-0.1,1.1,0,1.6
			C698.4,516.6,698.4,515.8,698.2,515.4z M702.9,496.5c-0.2,0-0.5,0.2-0.5,0.4c0,0.2,0.1,0.4,0.3,0.6
			C702.7,497.2,702.8,496.8,702.9,496.5z M693.7,505.5c0-0.3,0-0.7,0-1.1c-0.2,0.1-0.4,0.2-0.4,0.5
			C693.3,505.2,693.4,505.4,693.7,505.5z M707.7,506c-0.5-0.2-0.9-0.5-1.4-0.3c0.1,0.1,0.2,0.2,0.3,0.2
			C707,505.9,707.3,505.9,707.7,506z M702.2,510.8c0-0.3,0-0.7,0-1.2c0-0.1-0.1-0.2-0.2-0.3C701.8,509.9,702,510.4,702.2,510.8z
			 M701.5,506.8C701.5,506.8,701.5,506.7,701.5,506.8c-0.2-0.1-0.3,0-0.4,0v0.2c0.2,0,0.2,0.1,0.3,0
			C701.5,507,701.5,506.9,701.5,506.8z"/>
		<path class="st0" d="M695.6,520.2c0.4,0.2,0.6,0.8,0.3,1.2c-0.1,0.1-0.2,0.1-0.3,0.1c-0.2,0-0.2-0.2-0.2-0.3c0-0.1,0-0.2,0.1-0.3
			C695.5,520.6,695.5,520.4,695.6,520.2z"/>
	</g>
	<g>
		<path class="st0" d="M213.5,521.6c1.3-0.3,2.7,0.2,3.4,1.4c0.2-0.1,0.3-0.2,0.5-0.2c1.1-0.5,2.1-0.6,3.2-0.4c0.2,0,0.2,0,0.3-0.1
			c0.2-0.2,0.7-0.2,1-0.1c0.3,0.2,0.4,0.6,0.3,0.9c-0.1,0.4-0.4,0.7-0.8,0.7c-0.4,0-0.7-0.2-0.8-0.6c-0.1-0.2-0.2-0.2-0.3-0.3
			c-1.2-0.2-2.2-0.1-3.3,0.5c0.2,1.1-0.2,1.7-1,1.9c0.3,0.9,0.3,1.7,0,2.7c0.2,0.1,0.5,0.1,0.7,0.2c0.3,0.2,0.7,0.3,1.1,0.6
			c1.8,1.4,3.6,2.8,5.3,4.2c0.9,0.7,1.7,1.7,2.3,2.7c0.3,0.7,0.7,1.3,0.9,2c0.2,0.5,0.2,1.1,0.1,1.7c-0.2,0.8-1.2,1.4-1.9,1.5
			c-0.5,0-1-0.1-1.4-0.2c-0.9-0.3-1.7-0.8-2.3-1.5c-0.2-0.2-0.3-0.3-0.5-0.5c-0.2-0.1-0.3-0.2-0.5-0.2c-1.1,0.1-1.9-0.4-2.4-1.3
			c-0.2-0.4-0.6-0.9-0.7-1.4c-0.1-0.6-0.3-0.8-0.9-1c-0.5-0.1-0.9-0.5-1.2-1c-0.1,0.2-0.2,0.4-0.2,0.6c-0.9,2.1-2.4,3.6-4.4,4.6
			c-0.7,0.3-1.4,0.6-2.2,0.8c-0.3,0.1-0.5,0-0.7-0.3c-1.4-2.7-1.6-5.5-0.4-8.2c0.1-0.2,0.2-0.5,0.3-0.8c-0.1,0-0.2,0-0.2,0
			c-0.6,0.2-1.1,0-1.6-0.3c-0.3-0.2-0.4-0.2-0.8,0c-0.2,0.1-0.3,0.2-0.5,0.2c-0.5,0.2-1,0.3-1.5,0.3c-0.8,0.2-1.6-0.1-2.2-0.8
			c-0.2-0.3-0.5-0.5-0.9-0.5c-0.9,0-1.9-0.2-2.7-0.7c-0.3-0.2-0.7-0.3-1-0.6c-0.7-0.5-1.2-1.7-0.8-2.5c0.2-0.7,0.8-1.2,1.4-1.4
			c0.7-0.2,1.3-0.5,2.1-0.6c1.3-0.2,2.7-0.2,4.1,0c1.9,0.3,3.8,0.7,5.8,1.1c0.8,0.2,1.6,0.4,2.2,1c0.5-0.8,1.1-1.4,2-1.7
			c-0.3-0.7-0.2-1.2,0.5-1.7c0.1-0.1,0.2-0.2,0.2-0.3c-0.2-1.2-0.9-2.2-1.9-2.9c-0.1-0.1-0.2,0-0.2,0c-0.4,0.2-0.9,0-1.2-0.4
			c-0.2-0.4,0-0.9,0.4-1.2s0.9-0.1,1.2,0.3c0.1,0.1,0.1,0.2,0.1,0.4s0.1,0.2,0.2,0.3C212.6,519.2,213.2,520.3,213.5,521.6
			C213.5,521.5,213.5,521.6,213.5,521.6z M222.7,535.7C222.7,535.7,222.7,535.8,222.7,535.7c0.1,0.2,0,0.5,0.2,0.5v-0.1
			c0.1-0.5,0.1-1.1,0.2-1.6c0-0.1,0-0.2-0.1-0.2c-0.2-0.2-0.2-0.3-0.4-0.4c-0.1-0.1-0.2-0.1-0.2,0c-0.1,0.2-0.2,0.5-0.2,0.7
			C222.4,535,222.5,535.3,222.7,535.7z M214,530.9c-0.1-0.4-0.4-0.9-0.9-1.1c-0.9-0.5-1.9-0.8-2.9-1c-0.2,0-0.3,0-0.5,0v0.1
			c0,0,0.1,0.1,0.2,0.1c0.7,0.3,1.4,0.7,2.1,0.9c0.1,0,0.2,0.1,0.2,0.2c0,0.4-0.1,0.8-0.2,1.2c-1.1-0.5-2.2-1-3.2-1.5
			c-0.2,0.3-0.3,0.7-0.6,1c1.2,0.5,2.3,1.1,3.5,1.6c-0.2,0.4-0.3,0.7-0.5,1.1c-1.2-0.5-2.3-1.1-3.5-1.6c-0.1,0.4-0.2,0.7-0.3,1.1
			c1.1,0.5,2.2,1,3.2,1.5c-0.2,0.3-0.5,0.6-0.7,0.8c-0.1,0.1-0.2,0.1-0.2,0c-0.7-0.3-1.4-0.6-2.1-0.9c-0.1,0-0.2-0.1-0.3-0.2
			c0,0.5,0.1,0.9,0.1,1.3c0.6,0,1,0.4,1.5,0.6c-0.4,0.2-0.7,0.6-1.2,0.8c0.1,0.2,0.2,0.6,0.3,0.8c0.1,0.2,0.2,0.2,0.4,0.2
			c0.3-0.1,0.7-0.2,0.9-0.2v-0.1c-0.2-0.1-0.3-0.2-0.6-0.2c0.4-0.2,0.7-0.5,1.2-0.7c0,0,0.1,0,0.2,0c0.2,0.1,0.4,0.2,0.7,0.3
			c0.3-0.2,0.7-0.5,1.1-0.8c-0.3-0.2-0.6-0.2-0.9-0.4c0.3-0.3,0.6-0.7,0.9-0.9c0.2,0.2,0.5,0.2,0.8,0.4c0.2-0.3,0.4-0.7,0.6-1
			c-0.3-0.2-0.5-0.2-0.7-0.3c0.2-0.4,0.3-0.7,0.5-1.1c0.2,0.1,0.5,0.2,0.7,0.3c0.2-0.4,0.2-0.7,0.4-1.1c-0.2-0.1-0.4-0.2-0.6-0.2
			c-0.1,0-0.2-0.1-0.2-0.2c0.1-0.4,0.2-0.8,0.2-1.2C213.6,530.8,213.8,530.8,214,530.9z M218.1,530.2
			C218.1,530.3,218.1,530.3,218.1,530.2l-0.1,0.2c0.3,0.5,0.7,0.9,1.2,1.3c0.6,0.6,1.2,1.1,1.7,1.8c0.2,0.2,0.4,0.4,0.7,0.5
			c0.2,0.1,0.4,0,0.4-0.2c0-0.2,0-0.3,0-0.6c0-0.1-0.1-0.2-0.2-0.3c-1-0.7-1.9-1.5-2.9-2.2C218.7,530.5,218.4,530.4,218.1,530.2z
			 M207.5,525.4L207.5,525.4c-0.1-0.1-0.1-0.1-0.2-0.2c-1.4-0.6-2.9-0.7-4.3-1c-0.2,0-0.3,0-0.4,0.1c-0.2,0.1-0.2,0.2-0.4,0.3
			c-0.2,0.2-0.2,0.3,0.1,0.4c0.2,0.1,0.5,0.2,0.7,0.2c0.4,0,0.7,0,1.2,0c0.6,0,1.2,0.1,1.7,0.2C206.4,525.6,206.9,525.6,207.5,525.4
			z M198.1,527.6C198.1,527.7,198.1,527.7,198.1,527.6c0,0.1,0,0.1,0,0.2c-0.2,0.3-0.1,0.4,0.2,0.5c0.3,0.1,0.7,0.1,1.1,0.2
			c0.2,0.1,0.5,0,0.7-0.2c0.2-0.2,0.5-0.3,0.7-0.6c0.1-0.2,0.2-0.5,0.1-0.7c-0.1-0.3-0.7-0.5-0.9-0.3c-0.4,0.2-0.9,0.3-1.3,0.6
			C198.5,527.3,198.3,527.5,198.1,527.6z M221.8,536.2C221.8,536.3,221.8,536.3,221.8,536.2c-0.1,0-0.2,0-0.2,0
			c-0.3-0.2-0.5-0.1-0.7,0.2c-0.3,0.5-0.1,1,0,1.5c0,0.1,0.2,0.2,0.2,0.2c0.2,0.2,0.5,0.5,0.7,0.7c0.2,0.2,0.3,0.2,0.5-0.1
			c0.2-0.3,0.2-0.7,0.2-1c-0.2-0.4-0.2-0.8-0.4-1.2C222,536.6,222,536.4,221.8,536.2z M218.5,535.2c-0.1,0.3-0.2,0.7-0.3,1.1
			c-0.2,0.7,0.2,1.2,0.9,1.2c0.2,0,0.3,0,0.5,0c0.1,0,0.2-0.1,0.2-0.2c0.1-0.5,0.1-1-0.2-1.4C219.3,535.3,219,535.2,218.5,535.2z
			 M203.2,528.1c-0.7-0.3-1.2-0.1-1.7,0.3c-0.4,0.3-0.4,0.4-0.1,0.7c0.1,0.1,0.1,0.1,0.2,0.2c0.5,0.4,0.9,0.4,1.3-0.1
			c0.2-0.2,0.4-0.6,0.6-0.8c0-0.1,0-0.2-0.1-0.2C203.4,528.1,203.3,528.1,203.2,528.1z M215.6,531.7c-0.2,0.2-0.2,0.3-0.3,0.4
			c-0.1,0.1-0.2,0.2-0.2,0.2c0.1,0.3,0.1,0.7,0.2,1c0.1,0.2,0.2,0.2,0.2,0.4c0.1,0.1,0.2,0.2,0.4,0.2c0.3,0.2,0.7,0.1,0.7-0.3
			c0.1-0.5-0.1-1.1-0.5-1.3C216.1,532.2,215.8,532,215.6,531.7C215.7,531.8,215.7,531.8,215.6,531.7z M208,528.2c-0.1,0-0.2,0-0.2,0
			c-0.3,0.2-0.7,0.1-1,0c-0.5-0.2-1,0.1-1.2,0.6c-0.1,0.1-0.1,0.2,0,0.4c0.1,0.2,0.9,0.6,1.2,0.4h0.1c0.2-0.2,0.5-0.2,0.7-0.4
			c0.2-0.1,0.4-0.2,0.2-0.5c0-0.1,0-0.2,0.1-0.2C208,528.4,208,528.3,208,528.2z M214.7,524.3c-0.2-0.3-0.5-0.7-0.4-1.1
			c0.1-0.7,0.5-1,1.2-0.6c0.1,0.1,0.2,0.2,0.3,0.2l0.1-0.1c-0.2-0.2-0.4-0.3-0.6-0.5c-0.8-0.6-2-0.2-2.4,0.6
			c-0.2,0.3-0.2,0.5,0.2,0.7C213.7,523.8,214.2,524,214.7,524.3z M216.8,529.6L216.8,529.6c0,0.1,0,0.2,0.1,0.2
			c0.3,0.4,0.6,0.8,0.9,1.2c0.4,0.7,0.9,1.2,1.3,1.9c0.3,0.4,0.8,0.6,1.3,0.7c-0.1-0.2-0.2-0.4-0.3-0.6c-0.6-0.7-1.2-1.2-1.8-2
			c-0.3-0.3-0.6-0.7-0.8-1.2C217.3,529.8,217.1,529.7,216.8,529.6z M208.8,526c-0.3-0.2-0.6-0.3-0.9-0.2c-0.3,0-0.6,0.1-0.9,0.1
			c-1,0.2-2.1,0-3.1-0.1c-0.2,0-0.4,0.1-0.7,0.1c0.5,0.4,1,0.7,1.7,0.6c0.7-0.1,1.4-0.2,2.2-0.2C207.7,526.1,208.2,526,208.8,526z
			 M211.3,527.7L211.3,527.7c0.2,0.2,0.5,0.3,0.7,0.5c0.7,0.3,1.3,0.7,2.1,0.7c0.5,0,0.9-0.2,1.2-0.7c0.3-0.6,0.5-1.2,0.4-1.9
			c0-0.1-0.1-0.2-0.1-0.3c-0.1,0.2-0.1,0.5-0.2,0.7c-0.5,1.6-1.2,1.9-2.7,1.5C212.3,528,211.8,527.9,211.3,527.7z M218.2,532.3
			c-0.1-0.1-0.1-0.2-0.2-0.2c-0.2-0.4-0.6-0.8-0.8-1.2c-0.3-0.5-0.7-0.9-1.1-1.2c-0.1-0.1-0.2-0.1-0.2-0.1c0,0.1,0,0.2,0,0.2
			c0.3,0.6,0.7,1.2,1.1,1.8c0.1,0.2,0.2,0.3,0.4,0.5C217.7,532.3,218,532.4,218.2,532.3z M199.6,525.6c0.2,0.2,0.3,0.1,0.4,0.1
			c0.4-0.2,0.7-0.3,1.2-0.4c0.4-0.1,0.6-0.4,0.7-0.7c0-0.2,0-0.2-0.2-0.2c-0.2,0-0.3-0.1-0.5,0c-0.2,0-0.3,0.1-0.5,0.2
			c-0.2,0.2-0.5,0.6-0.8,0.8C199.9,525.4,199.8,525.5,199.6,525.6z M205.8,526.7c0.1,0.1,0.2,0.2,0.2,0.2c0.2,0.1,0.5,0.2,0.7,0.2
			c0.8-0.1,1.7-0.2,2.6-0.4c0.1,0,0.1-0.1,0.1-0.1l-0.1-0.1c-0.2,0-0.6-0.2-0.8-0.1c-0.7,0-1.3,0.1-2,0.2
			C206.3,526.6,206,526.6,205.8,526.7z M220.4,537.4C220.4,537.4,220.5,537.4,220.4,537.4c0.1-0.3,0.2-0.6,0.2-0.8
			c0-0.6-0.2-1.2-0.4-1.7c-0.1-0.2-0.2-0.3-0.5-0.3c-0.2,0-0.5,0.1-0.7,0.2v0.1c0.1,0.1,0.2,0.2,0.2,0.2c0.3,0.2,0.6,0.4,0.7,0.7
			c0.2,0.3,0.2,0.7,0.3,1.1C220.2,537,220.3,537.2,220.4,537.4z M223.9,537.9c0-0.1,0-0.1,0-0.2c-0.1-0.2-0.2-0.6-0.3-0.8
			c-0.2-0.3-0.6-0.4-0.9-0.2c-0.2,0.1-0.2,0.2-0.2,0.4c0.1,0.2,0.2,0.4,0.2,0.7c0.1,0.1,0.2,0.2,0.2,0.2c0.2,0.1,0.3,0.1,0.5,0.2
			C223.8,538.1,223.9,538.1,223.9,537.9z M198.2,526.5C198.2,526.5,198.2,526.6,198.2,526.5c0.2,0.1,0.4,0.2,0.6,0.2
			c0.2,0,0.4-0.1,0.7-0.2c0.1,0,0.2-0.2,0.2-0.2c0.1-0.2-0.2-0.7-0.5-0.7c-0.4,0-0.8,0.2-1.2,0.4c-0.2,0.2-0.2,0.3,0.1,0.4
			C198,526.4,198.1,526.5,198.2,526.5z M200.5,528.3C200.5,528.4,200.5,528.4,200.5,528.3c0.2,0,0.3,0,0.5-0.1
			c0.2-0.2,0.6-0.3,0.8-0.4c0.4-0.2,0.9-0.3,1.4-0.1c0.1,0.1,0.2,0.1,0.4,0.1c-0.2-0.2-0.2-0.4-0.3-0.6c-0.2-0.2-0.3-0.3-0.7-0.2
			c-0.2,0.1-0.5,0.2-0.7,0.2C201.4,527.4,201,527.9,200.5,528.3z M204.1,528.2c0.3,0.1,0.7,0.2,1.1,0.2c0.2,0,0.3,0,0.5-0.2
			c0.2-0.2,0.4-0.5,0.7-0.7C205.5,527.3,204.4,527.6,204.1,528.2z M213.5,525c0.2-0.3,0.1-0.6-0.1-0.7c-0.4-0.2-1,0-1.1,0.4
			c-0.1,0.2,0,0.5,0.2,0.7s0.4,0.2,0.7-0.1C213.3,525.1,213.4,525,213.5,525z M217.3,532.5c0,0.3-0.1,0.7-0.1,1.1
			c0,0.1,0,0.2,0.1,0.2c0.3,0.3,0.6,0.6,0.9,0.8C218.5,534.1,217.9,532.9,217.3,532.5z M215.6,529.6c0.2,0.7,0.2,1.2,0.5,1.9
			c0.2,0.4,0.3,0.7,0.9,0.9C216.6,531.3,216.2,530.4,215.6,529.6z M197.1,525.4C197.1,525.4,197.1,525.4,197.1,525.4
			c0.6,0,1.1-0.1,1.7-0.2c0.2-0.1,0.5-0.1,0.7-0.2c0.3-0.1,0.5-0.2,0.7-0.7C199,524.5,198,524.9,197.1,525.4z M203.4,526.5
			C203.4,526.5,203.4,526.6,203.4,526.5c0.2,0.4,0.4,0.7,0.7,1c0.1,0.1,0.2,0,0.2,0c0.3-0.1,0.7-0.2,0.9-0.3c0.1,0,0.2-0.1,0.3-0.2
			c-0.1-0.1-0.2-0.2-0.3-0.2c-0.1,0-0.1,0-0.2,0c-0.5,0-0.9-0.1-1.4-0.2C203.5,526.5,203.4,526.5,203.4,526.5z M206.6,527.8
			c0.1,0.1,0.1,0.1,0.2,0.1c0,0,0.1,0.1,0.2,0c0.5,0.1,0.9,0,1.3-0.2c0.2-0.2,0.6-0.3,0.8-0.5c0.2-0.1,0.3-0.2,0.5-0.2v-0.1
			C208.6,526.9,207.6,527.3,206.6,527.8z M200.1,526C200.1,526,200.1,526.1,200.1,526c0.2,0.2,0.3,0.2,0.4,0.2
			c0.5,0.2,1,0.2,1.4-0.2c0.1-0.1,0.2-0.2,0.2-0.2c0.1-0.2,0.1-0.2-0.1-0.2c-0.5,0-1,0-1.5,0.1C200.4,525.8,200.3,525.9,200.1,526z
			 M203.1,529.7c0.6-0.2,1.1-0.3,1.6-0.5c0.1,0,0.1-0.1,0.2-0.1c0.2-0.2,0.2-0.2,0-0.3C204.2,528.3,203.2,528.9,203.1,529.7z
			 M220,534.2L220,534.2c-0.1-0.2-0.1-0.2-0.2-0.3c-0.6-0.2-0.9-0.5-1.2-0.9c-0.1-0.1-0.2-0.2-0.4-0.2c0,0.1,0,0.2,0,0.2
			c0.2,0.4,0.3,0.8,0.5,1.2c0,0.1,0.1,0.2,0.1,0.1C219.2,534.2,219.6,534.2,220,534.2z M224.9,538.1c-0.1-0.8-0.7-2.5-1.2-2.8
			c-0.2,0.3-0.2,0.7,0.1,1C224.1,536.9,224.5,537.5,224.9,538.1z M222.5,536.2c0-0.2,0-0.3-0.1-0.4c-0.2-0.5-0.6-0.9-0.9-1.3
			c-0.1-0.1-0.2-0.1-0.2,0.1c0,0.1,0,0.2,0,0.2C221.1,535.4,221.7,536,222.5,536.2z M217.8,536.4c0.2-0.3,0.3-0.7,0.2-1.1
			c-0.1-0.4-0.2-0.7-0.7-0.8c-0.1-0.1-0.2-0.1-0.2,0c-0.1,0-0.1,0.2,0,0.2c0.1,0.2,0.1,0.3,0.2,0.6
			C217.5,535.7,217.6,536,217.8,536.4z M197.7,527.7c0.1-0.1,0.1-0.2,0.1-0.2c0-0.1,0-0.1,0-0.2c0-0.2,0-0.3-0.2-0.3s-0.5,0-0.8,0.1
			c-0.2,0.1-0.2,0.2-0.1,0.4c0.2,0.2,0.4,0.3,0.7,0.4C197.5,527.9,197.7,527.9,197.7,527.7z M223,539.6c0.2,0,0.4,0.1,0.7,0.1
			c0.2,0,0.2-0.1,0.2-0.2c-0.1-0.2-0.2-0.3-0.2-0.4c-0.2-0.5-0.5-0.5-0.8,0l0,0C222.6,539.3,222.6,539.4,223,539.6z M197.4,525.9
			c-0.2,0-0.4,0.1-0.7,0.1c-0.1,0-0.2,0.1-0.3,0.1c-0.2,0.1-0.2,0.2-0.2,0.3c0,0.1,0.1,0.2,0.2,0.2
			C196.9,526.8,197.4,526.4,197.4,525.9z M224.4,538.2c-0.2,0.3-0.3,0.6,0,1.1c0.2,0.2,0.2,0.2,0.4,0.1c0.2-0.2,0.2-0.2,0.1-0.5
			C224.6,538.6,224.5,538.4,224.4,538.2z M220.5,534.2c-0.2,0.4,0.1,1.3,0.4,1.6C221,535.2,220.6,534.7,220.5,534.2z M202.9,526.2
			c-0.5,0.2-1,0.3-1.5,0.7C201.9,526.9,202.6,526.6,202.9,526.2z M222,522.7c-0.2-0.2-0.4-0.3-0.7-0.2s-0.4,0.2-0.4,0.5
			C221.3,522.9,221.6,522.8,222,522.7z M210,518.1c0.3-0.2,0.7-0.2,1-0.4c-0.2-0.2-0.4-0.2-0.6-0.2C210.1,517.6,210,517.8,210,518.1
			z M215.4,531.1c0.1-0.5,0.1-1-0.2-1.4c-0.1,0.2-0.1,0.2-0.1,0.3C215.1,530.3,215.2,530.7,215.4,531.1z M208.7,527.9
			c0.3-0.2,0.7-0.2,1.1-0.4c0.1-0.1,0.2-0.2,0.2-0.2C209.3,527.3,209,527.6,208.7,527.9z M212.1,525.8
			C212.1,525.8,212.1,525.7,212.1,525.8c0-0.2-0.1-0.3-0.2-0.4l-0.2,0.1c0,0.2,0.1,0.2,0.2,0.3C211.8,525.8,211.9,525.8,212.1,525.8
			z"/>
		<path class="st0" d="M197.4,525.9c-0.1,0.5-0.5,0.9-1,0.8c-0.1,0-0.2-0.2-0.2-0.2c-0.1-0.2,0-0.3,0.2-0.3c0.1,0,0.2-0.1,0.3-0.1
			C197,525.9,197.2,525.9,197.4,525.9z"/>
	</g>
	<g>
		<path class="st0" d="M459.3,402.1c1.1,0.9,1.4,2.3,0.9,3.6c0.2,0.1,0.3,0.2,0.5,0.2c1.1,0.6,1.7,1.3,2.3,2.3
			c0.1,0.1,0.2,0.2,0.3,0.2c0.3,0,0.6,0.4,0.7,0.7c0.1,0.4-0.2,0.7-0.5,0.8c-0.4,0.2-0.8,0.1-1-0.3c-0.3-0.3-0.3-0.7,0-1
			c0.1-0.2,0.1-0.3,0.1-0.5c-0.5-1.1-1.3-1.8-2.4-2.3c-0.8,0.8-1.5,0.9-2.1,0.4c-0.5,0.8-1.2,1.3-2.1,1.6c0.1,0.2,0.2,0.4,0.2,0.7
			c0.1,0.4,0.2,0.8,0.2,1.2c0,2.3-0.1,4.5-0.1,6.8c0,1.2-0.3,2.4-0.8,3.5c-0.3,0.7-0.7,1.3-1,1.9c-0.2,0.5-0.8,0.8-1.3,1.1
			c-0.8,0.4-1.9-0.1-2.3-0.6c-0.3-0.4-0.5-0.8-0.7-1.3c-0.3-0.9-0.3-1.8-0.2-2.8c0-0.2,0.1-0.5,0.1-0.7c0-0.2-0.1-0.4-0.2-0.5
			c-0.7-0.8-0.8-1.8-0.4-2.7c0.2-0.4,0.4-1,0.7-1.4c0.4-0.4,0.5-0.8,0.2-1.3c-0.2-0.4-0.2-1,0.1-1.5c-0.2,0-0.4,0.1-0.6,0.2
			c-2.2,0.5-4.3,0.3-6.3-0.7c-0.7-0.3-1.3-0.8-2-1.2c-0.3-0.2-0.3-0.4-0.1-0.7c1.3-2.7,3.4-4.6,6.3-5.3c0.2-0.1,0.5-0.1,0.9-0.2
			c-0.1-0.1-0.1-0.1-0.2-0.2c-0.5-0.4-0.7-0.9-0.7-1.5c0-0.4-0.1-0.5-0.5-0.7c-0.2-0.1-0.3-0.2-0.5-0.2c-0.4-0.3-0.9-0.6-1.2-1
			c-0.6-0.6-0.9-1.3-0.6-2.2c0.1-0.4,0.1-0.7-0.2-1c-0.6-0.7-1-1.7-1.1-2.6c-0.1-0.4-0.1-0.7-0.1-1.1c-0.1-0.9,0.6-1.9,1.5-2.2
			c0.7-0.2,1.4,0,2,0.3c0.6,0.4,1.2,0.8,1.7,1.3c1,0.9,1.9,2,2.5,3.2c0.9,1.7,1.8,3.4,2.7,5.3c0.4,0.8,0.6,1.5,0.6,2.4
			c1-0.1,1.8,0,2.6,0.5c0.4-0.7,0.8-1,1.7-0.7c0.1,0,0.2,0,0.4-0.1c0.8-1,1.2-2.1,1.2-3.3c0-0.1-0.1-0.1-0.2-0.2
			c-0.4-0.2-0.6-0.7-0.4-1.2c0.2-0.4,0.7-0.6,1.2-0.4c0.4,0.2,0.6,0.7,0.4,1.1c0,0.1-0.1,0.2-0.3,0.3c-0.1,0.1-0.1,0.2-0.2,0.3
			C460.7,399.9,460.2,401.1,459.3,402.1C459.4,402,459.3,402.1,459.3,402.1z M453.7,418C453.7,418,453.6,418,453.7,418
			c-0.1,0.2-0.4,0.3-0.2,0.5l0.1-0.1c0.4-0.2,0.9-0.6,1.4-0.8c0.1-0.1,0.2-0.2,0.1-0.2c0-0.2,0.1-0.4,0.1-0.6c0-0.1-0.1-0.2-0.2-0.2
			c-0.2,0.1-0.5,0.1-0.7,0.3C454.1,417.2,453.9,417.6,453.7,418z M452.2,408.1c0.3-0.3,0.5-0.9,0.3-1.4c-0.2-1-0.5-2-1-2.9
			c-0.1-0.1-0.2-0.3-0.3-0.4l-0.1,0.1c0,0,0,0.1,0,0.2c0.1,0.7,0.3,1.5,0.5,2.2c0.1,0.1,0,0.2,0,0.2c-0.3,0.3-0.7,0.4-1.1,0.6
			c-0.3-1.2-0.5-2.3-0.8-3.5c-0.4,0.1-0.7,0.1-1.1,0.1c0.3,1.2,0.6,2.5,0.9,3.7c-0.4,0.1-0.8,0.2-1.2,0.3c-0.3-1.2-0.6-2.5-0.9-3.7
			c-0.4,0.2-0.7,0.3-1.1,0.4c0.3,1.2,0.5,2.3,0.8,3.5c-0.4,0-0.8,0-1.1-0.1c-0.1,0-0.2-0.1-0.2-0.2c-0.1-0.7-0.4-1.5-0.5-2.2
			c-0.1-0.1,0-0.2-0.1-0.4c-0.4,0.3-0.7,0.6-1,0.9c0.4,0.5,0.3,1,0.4,1.5c-0.4-0.2-0.9-0.2-1.4-0.4c-0.1,0.2-0.4,0.5-0.5,0.8
			c-0.1,0.2,0,0.3,0.1,0.5c0.3,0.2,0.5,0.4,0.8,0.6l0.1-0.1c0-0.2-0.1-0.4-0.2-0.6c0.4,0.2,0.8,0.3,1.3,0.5c0,0,0.1,0.1,0.1,0.1
			c0.1,0.2,0.1,0.5,0.1,0.7c0.4,0.1,0.8,0.2,1.3,0.4c-0.1-0.4-0.2-0.6-0.2-1c0.5,0.1,0.9,0.1,1.3,0.2c0,0.3,0.1,0.5,0.2,0.9
			c0.4-0.1,0.8-0.1,1.1-0.1c-0.1-0.4-0.1-0.5-0.2-0.8c0.4-0.1,0.8-0.2,1.2-0.3c0.1,0.2,0.1,0.5,0.2,0.8c0.4-0.1,0.7-0.3,1.1-0.3
			c-0.1-0.2-0.1-0.4-0.2-0.6c-0.1-0.1,0-0.2,0-0.2c0.4-0.2,0.8-0.4,1.1-0.6C452.1,407.7,452.2,407.9,452.2,408.1z M455.3,410.9
			c-0.1,0.1-0.1,0.1-0.1,0l-0.1,0.1c-0.2,0.6-0.3,1.1-0.4,1.7c-0.1,0.8-0.1,1.6-0.4,2.5c-0.1,0.3-0.1,0.6,0.1,0.9
			c0.1,0.2,0.3,0.3,0.4,0.2c0.1-0.1,0.3-0.2,0.5-0.4c0.1-0.1,0.1-0.2,0.2-0.3c0-1.2,0-2.4,0-3.6
			C455.4,411.6,455.3,411.3,455.3,410.9z M452.6,399.6L452.6,399.6c0-0.1,0-0.1,0-0.2c-0.4-1.5-1.2-2.8-1.8-4
			c-0.1-0.1-0.2-0.3-0.3-0.3c-0.2-0.1-0.3,0-0.5-0.1c-0.2,0-0.4,0.1-0.3,0.3c0.1,0.2,0.2,0.5,0.3,0.7c0.3,0.3,0.5,0.6,0.7,0.9
			c0.4,0.5,0.6,1,0.9,1.4C451.9,398.9,452.2,399.3,452.6,399.6z M445.2,393.5C445.2,393.5,445.2,393.5,445.2,393.5
			c-0.1,0.1-0.1,0.1-0.1,0.1c-0.4,0.1-0.4,0.2-0.2,0.5c0.1,0.3,0.4,0.6,0.5,1c0.1,0.2,0.3,0.4,0.5,0.4c0.3,0,0.6,0.2,0.9,0.2
			c0.2,0,0.5-0.2,0.6-0.3c0.2-0.3,0-0.8-0.3-0.9c-0.4-0.2-0.8-0.5-1.3-0.7C445.7,393.6,445.4,393.6,445.2,393.5z M452.7,417.5
			C452.7,417.6,452.7,417.6,452.7,417.5c-0.1-0.1-0.1-0.1-0.1-0.1c-0.1-0.4-0.2-0.4-0.7-0.4c-0.6,0-0.8,0.5-1.2,0.9
			c-0.1,0.1,0,0.2,0,0.3c0,0.3-0.1,0.7-0.1,1c0,0.2,0.1,0.4,0.4,0.3c0.4-0.1,0.7-0.2,0.9-0.5c0.2-0.4,0.5-0.7,0.7-1.1
			C452.6,417.9,452.7,417.8,452.7,417.5z M451.6,414.2c-0.3,0.1-0.7,0.2-1.1,0.4c-0.7,0.3-0.8,0.8-0.4,1.4c0.1,0.1,0.2,0.3,0.3,0.4
			c0.1,0.1,0.2,0.1,0.2,0c0.4-0.2,0.8-0.5,1-1.1C451.9,415,451.9,414.6,451.6,414.2z M447.9,397.8c-0.1-0.7-0.7-1-1.3-1.2
			c-0.5-0.1-0.6-0.1-0.6,0.4c0,0.1,0,0.1,0,0.2c0,0.6,0.2,1,0.9,1c0.3,0,0.7,0,1,0c0.1-0.1,0.1-0.1,0.1-0.2
			C448,398,448,397.9,447.9,397.8z M452.6,409.9c-0.2,0-0.4,0-0.5,0c-0.1,0-0.2,0-0.3,0c-0.2,0.3-0.5,0.5-0.6,0.8
			c-0.1,0.2-0.1,0.3-0.2,0.4c0,0.1,0,0.3,0.1,0.5c0,0.4,0.3,0.6,0.7,0.4c0.4-0.2,0.8-0.7,0.8-1.2
			C452.5,410.5,452.5,410.2,452.6,409.9C452.6,410,452.6,410,452.6,409.9z M450.8,401.7c-0.1-0.1-0.1-0.1-0.1-0.1
			c-0.3-0.2-0.5-0.5-0.6-0.8c-0.2-0.5-0.7-0.7-1.2-0.6c-0.1,0-0.2,0.1-0.3,0.3c-0.1,0.2,0.1,1.1,0.4,1.2l0.1,0.1
			c0.3,0.1,0.5,0.2,0.8,0.3c0.2,0.1,0.4,0.2,0.5-0.1c0.1-0.1,0.1-0.1,0.2,0C450.6,401.8,450.7,401.7,450.8,401.7z M457.9,404.7
			c0.1-0.4,0.2-0.8,0.6-1c0.6-0.4,1.1-0.2,1.2,0.6c0,0.1,0,0.3,0,0.4l0.1,0c0-0.2,0-0.5,0-0.8c0-1-1-1.7-1.9-1.6
			c-0.4,0.1-0.5,0.2-0.4,0.5C457.7,403.5,457.8,404.1,457.9,404.7z M455,409.6L455,409.6c-0.1,0.1-0.1,0.1-0.1,0.2
			c-0.1,0.5-0.3,1-0.4,1.5c-0.3,0.7-0.4,1.5-0.7,2.2c-0.1,0.5,0,1,0.2,1.5c0.1-0.2,0.2-0.4,0.3-0.6c0.2-0.9,0.2-1.7,0.5-2.7
			c0.1-0.5,0.2-0.9,0.4-1.4C455.2,410,455.1,409.8,455,409.6z M453,401.1c0-0.4-0.1-0.7-0.4-0.9c-0.2-0.3-0.4-0.4-0.6-0.7
			c-0.7-0.7-1.3-1.6-1.8-2.5c-0.1-0.1-0.3-0.3-0.5-0.5c0,0.6,0.1,1.2,0.5,1.7c0.5,0.5,1,1,1.5,1.6
			C452.2,400.2,452.6,400.5,453,401.1z M453.2,404L453.2,404c0,0.3,0,0.6,0.1,0.9c0.1,0.7,0.3,1.5,0.7,2.1c0.3,0.4,0.7,0.6,1.2,0.5
			c0.7-0.1,1.3-0.4,1.8-0.8c0.1-0.1,0.1-0.2,0.2-0.3c-0.2,0.1-0.4,0.2-0.7,0.3c-1.6,0.6-2.3,0.2-2.8-1.2
			C453.5,405,453.4,404.5,453.2,404z M453.7,412.3c0-0.1,0.1-0.2,0.1-0.3c0.2-0.4,0.3-1,0.4-1.4c0.2-0.6,0.3-1.1,0.3-1.6
			c0-0.1,0-0.2-0.1-0.2c-0.1,0.1-0.1,0.1-0.2,0.2c-0.3,0.6-0.5,1.3-0.8,2c-0.1,0.2-0.1,0.4-0.1,0.6
			C453.4,411.9,453.4,412.2,453.7,412.3z M447.7,393.5c0,0.2,0.1,0.3,0.2,0.4c0.4,0.2,0.7,0.4,1,0.7s0.7,0.2,1,0.1
			c0.1-0.1,0.2-0.2,0.1-0.3c-0.1-0.1-0.1-0.3-0.3-0.4c-0.1-0.1-0.3-0.2-0.4-0.3c-0.3,0-0.8,0-1.2-0.2
			C448,393.6,447.9,393.6,447.7,393.5z M450.6,399c0,0.1,0,0.2-0.1,0.3c0.1,0.2,0.1,0.5,0.3,0.7c0.6,0.6,1.2,1.2,1.9,1.8
			c0.1,0.1,0.1,0,0.1,0l0-0.1c-0.2-0.2-0.2-0.6-0.4-0.7c-0.4-0.5-0.9-1-1.3-1.5C451,399.4,450.8,399.2,450.6,399z M450.9,417.1
			C450.9,417.1,451,417.2,450.9,417.1c0.3-0.1,0.6-0.2,0.8-0.4c0.5-0.4,0.8-0.8,1.1-1.3c0.1-0.2,0.1-0.4,0-0.6
			c-0.2-0.2-0.4-0.3-0.6-0.5l-0.1,0.1c0,0.1,0,0.2,0,0.3c0.1,0.4,0,0.7-0.2,1c-0.2,0.3-0.4,0.7-0.7,0.9
			C451.2,416.7,451,417,450.9,417.1z M452.7,420.3c0.1-0.1,0.1-0.1,0.1-0.1c0.1-0.2,0.4-0.5,0.5-0.8c0.2-0.3,0-0.7-0.4-0.9
			c-0.2-0.1-0.3,0-0.4,0.1c-0.1,0.2-0.2,0.4-0.4,0.6c0,0.1,0,0.2,0,0.3c0,0.2,0.1,0.3,0.2,0.5C452.4,420.3,452.5,420.3,452.7,420.3z
			 M446.1,392.9C446.1,392.9,446.1,393,446.1,392.9c0,0.2,0.1,0.4,0.2,0.6c0.2,0.2,0.3,0.3,0.5,0.4c0.1,0.1,0.2,0,0.2,0
			c0.2-0.1,0.4-0.7,0.3-0.8c-0.3-0.3-0.6-0.6-1-0.7c-0.2,0-0.4,0.1-0.3,0.3C446.1,392.7,446.1,392.8,446.1,392.9z M446.2,395.8
			C446.1,395.9,446.1,395.9,446.2,395.8c0.1,0.1,0.2,0.3,0.4,0.3c0.3,0.1,0.6,0.3,0.8,0.4c0.4,0.2,0.8,0.5,0.9,1.1
			c0,0.1,0.1,0.2,0.2,0.4c0.1-0.3,0.2-0.4,0.3-0.6c0.1-0.3,0.1-0.5-0.2-0.7c-0.2-0.1-0.4-0.3-0.7-0.4
			C447.3,396,446.7,396,446.2,395.8z M448.4,398.6c0.1,0.3,0.3,0.6,0.5,1c0.1,0.1,0.2,0.3,0.4,0.3c0.3,0,0.6,0,1,0.1
			C450,399.2,449,398.4,448.4,398.6z M456.7,404.1c0.4-0.1,0.5-0.3,0.5-0.5c-0.1-0.5-0.6-0.8-1-0.6c-0.2,0.1-0.4,0.3-0.4,0.6
			s0.1,0.4,0.5,0.5C456.4,404.1,456.6,404,456.7,404.1z M453,411.7c-0.3,0.2-0.6,0.4-0.9,0.6c-0.1,0.1-0.1,0.1-0.1,0.2
			c-0.1,0.5-0.1,0.8-0.1,1.2C452.4,413.6,453,412.4,453,411.7z M454.2,408.6c-0.4,0.5-0.8,1-1.2,1.6c-0.2,0.4-0.4,0.7-0.2,1.3
			C453.5,410.5,454,409.6,454.2,408.6z M446.4,391.3C446.4,391.3,446.3,391.3,446.4,391.3c0.4,0.5,0.7,0.8,1.1,1.2
			c0.2,0.1,0.4,0.3,0.6,0.5c0.3,0.2,0.5,0.2,0.9,0.1C448.2,392.3,447.3,391.7,446.4,391.3z M449.3,397c0,0-0.1,0.1-0.1,0
			c-0.1,0.4-0.2,0.8-0.3,1.1c0,0.1,0.1,0.1,0.2,0.2c0.3,0.2,0.5,0.4,0.8,0.5c0.1,0.1,0.2,0.1,0.3,0.2c0-0.1,0-0.3,0-0.4
			c-0.1-0.1-0.1-0.1-0.1-0.1c-0.3-0.4-0.5-0.8-0.7-1.3C449.4,397.1,449.3,397.1,449.3,397z M450.2,400.3c0,0.1,0,0.1,0,0.2
			c0,0,0,0.1,0.1,0.1c0.2,0.4,0.6,0.7,1,0.9c0.3,0.1,0.6,0.3,0.9,0.4c0.2,0.1,0.3,0.2,0.5,0.2l0.1-0.1
			C452.1,401.4,451.2,400.8,450.2,400.3z M447.7,394.1c0,0-0.1,0.1,0,0.1c0,0.1,0.1,0.2,0.1,0.4c0.1,0.5,0.5,0.9,1,1
			c0.1,0,0.2,0,0.3,0c0.2,0,0.2-0.1,0.1-0.2c-0.3-0.4-0.6-0.8-1-1.1C448.1,394.2,447.9,394.2,447.7,394.1z M446.6,398.7
			c0.5,0.4,0.9,0.7,1.4,1c0.1,0.1,0.1,0,0.2,0.1c0.2,0,0.3,0,0.3-0.2C448.4,398.7,447.3,398.3,446.6,398.7z M453.3,414.9
			L453.3,414.9c0.1-0.2,0.1-0.2,0.2-0.3c-0.2-0.6-0.2-1,0-1.5c0-0.1,0-0.3-0.1-0.5c-0.1,0.1-0.1,0.1-0.1,0.1
			c-0.2,0.4-0.5,0.8-0.6,1.1c-0.1,0.1-0.1,0.2,0,0.1C452.7,414.3,453,414.6,453.3,414.9z M453.1,421.2c0.6-0.6,1.5-2.1,1.5-2.7
			c-0.4,0.1-0.6,0.3-0.7,0.7C453.6,419.8,453.4,420.5,453.1,421.2z M453.1,418.1c0.1-0.1,0.3-0.2,0.3-0.3c0.3-0.4,0.4-1,0.5-1.5
			c0-0.1-0.1-0.2-0.2-0.1c-0.1,0.1-0.1,0.1-0.2,0.2C453,416.5,452.9,417.3,453.1,418.1z M450.2,414.5c0.4,0,0.7-0.1,1-0.5
			c0.3-0.3,0.4-0.6,0.3-1c0-0.1-0.1-0.2-0.2-0.2c-0.1-0.1-0.2,0-0.2,0.2c-0.1,0.2-0.2,0.3-0.4,0.5
			C450.6,413.8,450.4,414.1,450.2,414.5z M444.9,393.2c0.1,0,0.2,0,0.2-0.1c0.1-0.1,0.1-0.1,0.1-0.1c0.2-0.2,0.3-0.2,0.1-0.4
			c-0.2-0.2-0.3-0.4-0.6-0.6c-0.2-0.1-0.3,0-0.4,0.2c0,0.2,0,0.5,0.1,0.8C444.6,393.2,444.7,393.4,444.9,393.2z M450.8,420.5
			c0.2,0.2,0.2,0.4,0.3,0.6c0.1,0.1,0.2,0.1,0.3,0c0.1-0.2,0.2-0.3,0.2-0.4c0.2-0.5,0.1-0.7-0.5-0.7l0,0
			C450.8,420.1,450.7,420.1,450.8,420.5z M446.2,391.8c-0.2-0.2-0.3-0.3-0.5-0.5c-0.1-0.1-0.2-0.1-0.3-0.2c-0.2-0.1-0.3-0.1-0.4,0.1
			c-0.1,0.1-0.1,0.2-0.1,0.3C445.1,392,445.8,392.1,446.2,391.8z M452.7,420.8c-0.4,0-0.7,0.1-0.9,0.7c-0.1,0.3,0,0.3,0.2,0.4
			c0.2,0,0.3,0,0.4-0.2C452.5,421.2,452.7,421,452.7,420.8z M453.6,415.3c-0.4,0.1-1,0.9-1,1.3C453,416.3,453.2,415.7,453.6,415.3z
			 M449.2,396.4c-0.5-0.2-0.9-0.6-1.4-0.8C448,396.1,448.8,396.5,449.2,396.4z M463.6,409.5c0.1-0.3,0-0.5-0.2-0.7
			c-0.2-0.1-0.4-0.2-0.6,0C463,409,463.3,409.3,463.6,409.5z M460,397.1c0.3,0.2,0.6,0.4,0.9,0.5c0.1-0.3-0.1-0.5-0.2-0.6
			C460.5,396.9,460.2,397,460,397.1z M452.9,409.3c0.4-0.2,0.8-0.5,1-1.1c-0.2,0-0.2,0.1-0.3,0.1C453.4,408.7,453.2,409,452.9,409.3
			z M451.4,402.1c0.3,0.2,0.6,0.4,1,0.6c0.1,0,0.2,0,0.3,0C452.3,402.2,451.8,402.1,451.4,402.1z M455.2,403.5c0,0,0.1-0.1,0.1,0
			c0-0.1,0.1-0.3,0.1-0.4l-0.2-0.1c-0.1,0.1-0.1,0.2-0.2,0.3C455,403.3,455.1,403.3,455.2,403.5z"/>
		<path class="st0" d="M446.2,391.8c-0.4,0.2-1,0.2-1.3-0.3c-0.1-0.1,0-0.2,0.1-0.3c0.1-0.2,0.3-0.2,0.4-0.1
			c0.1,0.1,0.2,0.1,0.3,0.2C445.9,391.6,446,391.8,446.2,391.8z"/>
	</g>
	<g>
		<path class="st0" d="M705.8,96.8c-1.1-0.8-1.5-2.2-1-3.5c-0.2-0.1-0.3-0.2-0.5-0.2c-1.1-0.5-1.7-1.3-2.3-2.3
			c-0.1-0.1-0.2-0.2-0.3-0.2c-0.3,0-0.6-0.4-0.7-0.7c-0.1-0.4,0.2-0.7,0.5-0.8c0.4-0.2,0.8-0.1,1,0.2c0.3,0.3,0.3,0.7,0.1,1
			c-0.1,0.2-0.1,0.3-0.1,0.5c0.5,1.1,1.3,1.8,2.5,2.3c0.7-0.8,1.5-1,2.1-0.4c0.5-0.8,1.2-1.3,2.1-1.7c-0.1-0.2-0.2-0.4-0.2-0.7
			c-0.1-0.4-0.2-0.8-0.2-1.2c0-2.3,0-4.6,0-6.8c0-1.2,0.2-2.4,0.7-3.5c0.3-0.7,0.6-1.3,1-2c0.2-0.5,0.7-0.8,1.2-1.1
			c0.8-0.4,1.9,0.1,2.4,0.6c0.3,0.4,0.6,0.8,0.7,1.3c0.3,0.9,0.4,1.8,0.3,2.7c0,0.2-0.1,0.5-0.1,0.7c0,0.2,0.1,0.4,0.2,0.5
			c0.7,0.8,0.9,1.8,0.5,2.7c-0.2,0.5-0.4,1-0.7,1.4c-0.4,0.4-0.4,0.8-0.2,1.3c0.2,0.4,0.2,1-0.1,1.5c0.2,0,0.4-0.1,0.6-0.2
			c2.2-0.6,4.3-0.3,6.3,0.6c0.7,0.3,1.3,0.7,2,1.2c0.3,0.2,0.3,0.4,0.2,0.7c-1.2,2.8-3.3,4.6-6.2,5.4c-0.2,0.1-0.5,0.1-0.9,0.3
			c0.1,0.1,0.1,0.1,0.2,0.2c0.5,0.4,0.7,0.8,0.7,1.4c0,0.4,0.1,0.5,0.5,0.6c0.2,0.1,0.3,0.2,0.5,0.2c0.4,0.3,0.9,0.6,1.2,1
			c0.6,0.5,0.9,1.3,0.7,2.2c-0.1,0.4-0.1,0.7,0.2,1c0.6,0.7,1,1.6,1.2,2.6c0.1,0.4,0.2,0.7,0.2,1.1c0.1,0.9-0.6,1.9-1.4,2.2
			c-0.7,0.2-1.4,0.1-2-0.2c-0.6-0.4-1.2-0.7-1.7-1.3c-1-0.9-1.9-2-2.5-3.2c-0.9-1.7-1.9-3.4-2.8-5.2c-0.4-0.8-0.7-1.5-0.6-2.4
			c-1,0.1-1.8,0-2.6-0.5c-0.4,0.7-0.8,1-1.7,0.7c-0.1,0-0.2,0-0.4,0.1c-0.8,1-1.2,2.1-1.1,3.3c0,0.1,0.1,0.1,0.2,0.2
			c0.4,0.2,0.6,0.7,0.4,1.2c-0.2,0.4-0.7,0.6-1.2,0.4c-0.5-0.2-0.6-0.7-0.5-1.1c0-0.1,0.1-0.2,0.3-0.3s0.1-0.2,0.2-0.3
			C704.5,99,704.9,97.9,705.8,96.8C705.7,96.9,705.8,96.8,705.8,96.8z M711.1,80.8C711.1,80.8,711.2,80.8,711.1,80.8
			c0.1-0.2,0.4-0.3,0.2-0.5l-0.1,0.1c-0.4,0.2-0.9,0.6-1.3,0.9c-0.1,0.1-0.2,0.2-0.1,0.2c0,0.2-0.1,0.4-0.1,0.6
			c0,0.1,0.1,0.2,0.2,0.2c0.2-0.1,0.5-0.1,0.7-0.3C710.7,81.6,710.9,81.2,711.1,80.8z M712.8,90.7c-0.3,0.3-0.5,0.9-0.3,1.4
			c0.2,1,0.5,2,1,2.9c0.1,0.1,0.2,0.3,0.3,0.4l0.1-0.1c0,0,0-0.1,0-0.2c-0.2-0.7-0.4-1.5-0.6-2.2c-0.1-0.1,0-0.2,0-0.2
			c0.3-0.3,0.7-0.5,1.1-0.6c0.3,1.2,0.6,2.3,0.8,3.5c0.4-0.1,0.7-0.2,1.1-0.2c-0.3-1.2-0.6-2.5-0.9-3.7c0.4-0.1,0.8-0.2,1.2-0.3
			c0.3,1.2,0.6,2.5,0.9,3.7c0.4-0.2,0.7-0.3,1.1-0.4c-0.3-1.2-0.6-2.3-0.8-3.5c0.4,0,0.8,0,1.1,0.1c0.1,0,0.2,0.1,0.2,0.2
			c0.2,0.7,0.4,1.5,0.6,2.2c0.1,0.1,0,0.2,0.1,0.4c0.4-0.3,0.7-0.6,1-0.9c-0.4-0.5-0.3-1-0.5-1.5c0.5,0.2,0.9,0.2,1.4,0.4
			c0.1-0.2,0.4-0.5,0.4-0.8c0.1-0.2,0-0.3-0.1-0.5c-0.3-0.2-0.5-0.4-0.8-0.6l-0.1,0.1c0,0.2,0.1,0.4,0.2,0.6
			c-0.5-0.2-0.9-0.3-1.3-0.4c0,0-0.1-0.1-0.1-0.1c-0.1-0.2-0.1-0.5-0.2-0.7c-0.4-0.1-0.8-0.2-1.3-0.3c0.1,0.4,0.2,0.6,0.2,1
			c-0.5-0.1-0.9,0-1.3-0.1c0-0.3-0.1-0.5-0.2-0.9c-0.4,0.1-0.8,0.1-1.1,0.2c0.1,0.4,0.1,0.5,0.2,0.8c-0.4,0.1-0.8,0.2-1.2,0.3
			c-0.1-0.2-0.1-0.5-0.2-0.8c-0.4,0.1-0.7,0.3-1.1,0.3c0.1,0.2,0.1,0.4,0.2,0.6c0.1,0.1,0,0.2,0,0.2c-0.4,0.2-0.8,0.4-1.1,0.6
			C712.9,91.1,712.8,90.8,712.8,90.7z M709.6,87.9c0.1-0.1,0.1-0.1,0.1,0l0.1-0.1c0.2-0.6,0.2-1.2,0.3-1.7c0.1-0.8,0.1-1.6,0.3-2.5
			c0.1-0.3,0.1-0.6-0.1-0.9c-0.1-0.2-0.3-0.3-0.5-0.2c-0.1,0.1-0.3,0.2-0.5,0.4c-0.1,0.1-0.1,0.2-0.2,0.3c0,1.2,0,2.4,0.1,3.6
			C709.5,87.2,709.6,87.5,709.6,87.9z M712.5,99.1L712.5,99.1c0,0.1,0,0.1,0,0.2c0.4,1.5,1.2,2.7,1.9,4c0.1,0.1,0.2,0.3,0.3,0.3
			c0.2,0.1,0.3,0,0.5,0.1c0.2,0,0.4-0.1,0.3-0.3c-0.1-0.2-0.2-0.5-0.3-0.7c-0.3-0.3-0.5-0.6-0.7-0.9c-0.4-0.5-0.7-1-0.9-1.4
			C713.3,99.9,713,99.5,712.5,99.1z M720,105.1C720.1,105.1,720.1,105.1,720,105.1c0.1-0.1,0.1-0.1,0.1-0.1c0.4-0.1,0.4-0.2,0.2-0.5
			c-0.1-0.3-0.4-0.6-0.5-0.9c-0.1-0.2-0.3-0.4-0.5-0.4c-0.3,0-0.6-0.2-0.9-0.2c-0.2,0-0.5,0.2-0.6,0.3c-0.2,0.3,0,0.8,0.3,0.9
			c0.4,0.2,0.8,0.5,1.3,0.7C719.6,105.1,719.9,105,720,105.1z M712.1,81.2C712.1,81.2,712.1,81.2,712.1,81.2
			c0.1,0.1,0.1,0.1,0.1,0.1c0.1,0.4,0.2,0.4,0.7,0.4c0.6-0.1,0.8-0.6,1.2-0.9c0.1-0.1,0-0.2,0-0.3c0-0.3,0.1-0.7,0.1-1
			c0-0.2-0.1-0.4-0.4-0.3c-0.4,0.1-0.7,0.2-0.9,0.5c-0.2,0.4-0.5,0.7-0.7,1.1C712.2,80.8,712.1,81,712.1,81.2z M713.3,84.5
			c0.3-0.1,0.7-0.2,1.1-0.4c0.7-0.3,0.8-0.9,0.3-1.4c-0.1-0.1-0.2-0.3-0.3-0.4c-0.1-0.1-0.2-0.1-0.2,0c-0.4,0.2-0.8,0.6-0.9,1.1
			C712.9,83.8,713,84.1,713.3,84.5z M717.3,100.9c0.2,0.7,0.7,1,1.3,1.2c0.5,0.1,0.6,0.1,0.6-0.4c0-0.1,0-0.1,0-0.2
			c0-0.6-0.2-1-0.9-1c-0.3,0-0.7,0-1,0.1c-0.1,0.1-0.1,0.1-0.1,0.2C717.2,100.7,717.2,100.8,717.3,100.9z M712.3,88.9
			c0.2,0,0.4,0,0.5,0c0.1,0,0.2,0,0.3,0c0.2-0.3,0.5-0.5,0.6-0.8c0.1-0.2,0.1-0.3,0.2-0.5c0-0.1,0-0.3-0.1-0.5
			c0-0.4-0.3-0.6-0.7-0.4c-0.4,0.2-0.8,0.7-0.7,1.2C712.4,88.3,712.5,88.6,712.3,88.9C712.3,88.8,712.3,88.8,712.3,88.9z M714.3,97
			c0.1,0.1,0.1,0.1,0.1,0.1c0.3,0.2,0.5,0.5,0.6,0.8c0.2,0.5,0.7,0.7,1.2,0.6c0.1,0,0.2-0.1,0.3-0.3c0.1-0.2-0.1-1.1-0.4-1.2
			l-0.1-0.1c-0.3-0.1-0.5-0.2-0.8-0.3c-0.2-0.1-0.5-0.2-0.5,0.1c-0.1,0.1-0.1,0.1-0.2,0C714.5,96.9,714.4,97,714.3,97z M707.1,94.2
			c-0.1,0.4-0.2,0.8-0.6,1c-0.6,0.4-1.1,0.2-1.2-0.5c0-0.1,0-0.3,0-0.4l-0.1,0c0,0.2,0,0.5,0,0.8c0.1,1,1,1.7,2,1.5
			c0.4-0.1,0.5-0.2,0.4-0.5C707.4,95.4,707.3,94.8,707.1,94.2z M710,89.3L710,89.3c0.1-0.1,0.1-0.1,0.1-0.2c0.1-0.5,0.3-1,0.4-1.5
			c0.3-0.7,0.4-1.5,0.7-2.2c0.1-0.5-0.1-1-0.2-1.5c-0.1,0.2-0.2,0.4-0.2,0.6c-0.2,0.9-0.2,1.7-0.4,2.7c-0.1,0.5-0.2,0.9-0.4,1.4
			C709.8,88.8,709.9,89,710,89.3z M712.1,97.7c0,0.4,0.1,0.7,0.4,0.9c0.2,0.3,0.4,0.4,0.6,0.7c0.8,0.7,1.3,1.6,1.8,2.5
			c0.1,0.1,0.3,0.3,0.5,0.5c0-0.6-0.1-1.2-0.6-1.7c-0.5-0.5-1-1-1.5-1.5C712.9,98.6,712.6,98.3,712.1,97.7z M711.9,94.7L711.9,94.7
			c0-0.3-0.1-0.6-0.1-0.9c-0.2-0.7-0.3-1.5-0.8-2c-0.3-0.4-0.7-0.6-1.2-0.5c-0.7,0.1-1.3,0.4-1.8,0.9c-0.1,0.1-0.1,0.2-0.2,0.3
			c0.2-0.1,0.4-0.2,0.7-0.3c1.5-0.6,2.3-0.2,2.8,1.1C711.5,93.8,711.7,94.3,711.9,94.7z M711.2,86.5c0,0.1-0.1,0.2-0.1,0.3
			c-0.2,0.5-0.3,1-0.4,1.4c-0.2,0.6-0.3,1.1-0.3,1.6c0,0.1,0,0.2,0.1,0.2c0.1-0.1,0.1-0.1,0.2-0.2c0.2-0.6,0.5-1.4,0.8-2
			c0.1-0.2,0.1-0.4,0.1-0.6C711.5,86.9,711.5,86.6,711.2,86.5z M717.6,105.2c0-0.2-0.1-0.3-0.2-0.4c-0.4-0.2-0.7-0.4-1-0.7
			c-0.3-0.3-0.7-0.2-1-0.1c-0.1,0.1-0.2,0.2-0.1,0.3c0.1,0.1,0.1,0.3,0.3,0.4c0.1,0.1,0.3,0.2,0.4,0.3c0.3,0,0.8,0,1.2,0.1
			C717.3,105.1,717.4,105.1,717.6,105.2z M714.6,99.7c0-0.1,0-0.2,0.1-0.3c-0.1-0.2-0.1-0.5-0.3-0.7c-0.6-0.6-1.2-1.1-1.9-1.8
			c-0.1-0.1-0.1,0-0.1,0l0,0.1c0.2,0.2,0.2,0.6,0.5,0.7c0.4,0.5,0.9,1,1.4,1.5C714.2,99.4,714.4,99.6,714.6,99.7z M713.9,81.6
			C713.9,81.6,713.8,81.6,713.9,81.6c-0.3,0.1-0.6,0.2-0.8,0.4c-0.5,0.4-0.8,0.9-1,1.4c-0.1,0.2-0.1,0.4,0.1,0.6
			c0.2,0.2,0.4,0.3,0.6,0.5l0.1-0.1c0-0.1,0-0.2,0-0.3c-0.1-0.4,0-0.7,0.2-1c0.2-0.3,0.4-0.7,0.6-0.9
			C713.6,82,713.8,81.8,713.9,81.6z M712,78.5c-0.1,0.1-0.1,0.1-0.1,0.1c-0.1,0.2-0.4,0.5-0.4,0.8c-0.2,0.3,0,0.7,0.4,0.9
			c0.2,0.1,0.3,0,0.4-0.1c0.1-0.2,0.2-0.4,0.4-0.6c0-0.1,0-0.2,0-0.3c0-0.2-0.1-0.3-0.2-0.5C712.3,78.5,712.2,78.5,712,78.5z
			 M719.1,105.7C719.1,105.7,719.2,105.7,719.1,105.7c0-0.2-0.1-0.4-0.2-0.6c-0.2-0.2-0.3-0.3-0.5-0.4c-0.1-0.1-0.2,0-0.2,0
			c-0.2,0.1-0.4,0.7-0.3,0.9c0.3,0.3,0.6,0.5,1,0.7c0.2,0,0.4-0.1,0.3-0.3C719.2,105.9,719.2,105.8,719.1,105.7z M719.1,102.8
			C719.1,102.8,719.1,102.8,719.1,102.8c-0.1-0.1-0.2-0.3-0.4-0.3c-0.3-0.1-0.6-0.2-0.8-0.4c-0.5-0.2-0.8-0.5-0.9-1.1
			c0-0.1-0.1-0.2-0.2-0.4c-0.1,0.3-0.2,0.5-0.2,0.6c-0.1,0.3-0.1,0.5,0.2,0.7c0.2,0.1,0.4,0.3,0.7,0.4
			C717.9,102.7,718.5,102.6,719.1,102.8z M716.8,100.1c-0.1-0.3-0.3-0.6-0.5-0.9c-0.1-0.1-0.2-0.3-0.4-0.3c-0.3,0-0.6,0-1-0.1
			C715.2,99.6,716.2,100.3,716.8,100.1z M708.4,94.8c-0.4,0.1-0.5,0.3-0.5,0.5c0.1,0.5,0.6,0.8,1,0.6c0.2-0.1,0.4-0.3,0.4-0.6
			c0-0.3-0.1-0.4-0.5-0.5C708.6,94.8,708.5,94.8,708.4,94.8z M711.9,87.1c0.3-0.2,0.6-0.4,0.9-0.6c0.1-0.1,0.1-0.1,0.1-0.2
			c0.1-0.5,0.1-0.8,0.1-1.2C712.4,85.2,711.9,86.4,711.9,87.1z M710.7,90.2c0.4-0.5,0.8-1,1.2-1.6c0.2-0.4,0.4-0.7,0.1-1.3
			C711.4,88.3,711,89.2,710.7,90.2z M719,107.4C719,107.4,719,107.3,719,107.4c-0.4-0.5-0.7-0.8-1.2-1.2c-0.2-0.1-0.4-0.3-0.6-0.5
			c-0.3-0.2-0.5-0.2-0.9-0.1C717.1,106.4,718,107,719,107.4z M715.9,101.7c0,0,0.1-0.1,0.1,0c0.1-0.4,0.2-0.8,0.2-1.2
			c0-0.1-0.1-0.1-0.2-0.2c-0.3-0.2-0.5-0.4-0.8-0.5c-0.1-0.1-0.2-0.1-0.3-0.2c0,0.1,0,0.3,0,0.4c0.1,0.1,0.1,0.1,0.1,0.1
			c0.3,0.4,0.5,0.8,0.7,1.3C715.8,101.6,715.9,101.6,715.9,101.7z M714.9,98.4c0-0.1,0-0.1,0-0.2c0,0,0-0.1-0.1-0.1
			c-0.2-0.4-0.6-0.7-1-0.9c-0.3-0.1-0.6-0.2-0.9-0.3c-0.2-0.1-0.3-0.2-0.5-0.2l-0.1,0.1C713,97.4,713.9,97.9,714.9,98.4z
			 M717.6,104.6c0,0,0.1-0.1,0-0.1c0-0.1-0.1-0.2-0.1-0.4c-0.1-0.5-0.5-0.9-1-1c-0.1,0-0.2,0-0.3,0c-0.2,0-0.2,0.1-0.1,0.2
			c0.3,0.4,0.6,0.8,1,1.1C717.2,104.5,717.4,104.5,717.6,104.6z M718.6,99.9c-0.5-0.4-0.9-0.6-1.4-0.9c-0.1-0.1-0.1,0-0.2-0.1
			c-0.2,0-0.3,0-0.3,0.2C716.8,100,717.9,100.4,718.6,99.9z M711.6,83.8L711.6,83.8c-0.1,0.2-0.1,0.2-0.2,0.3c0.2,0.6,0.2,1,0.1,1.5
			c0,0.1,0,0.3,0.1,0.5c0.1-0.1,0.1-0.1,0.1-0.1c0.2-0.4,0.4-0.8,0.6-1.1c0.1-0.1,0.1-0.2,0-0.1C712.1,84.5,711.8,84.2,711.6,83.8z
			 M711.6,77.6c-0.6,0.6-1.5,2.1-1.4,2.7c0.4-0.1,0.6-0.3,0.7-0.7C711.1,79,711.3,78.3,711.6,77.6z M711.6,80.7
			c-0.1,0.1-0.3,0.2-0.3,0.3c-0.3,0.4-0.4,1-0.5,1.5c0,0.1,0.1,0.2,0.2,0.1c0.1-0.1,0.1-0.1,0.2-0.2
			C711.8,82.3,711.9,81.5,711.6,80.7z M714.7,84.3c-0.4,0-0.7,0.2-1,0.5c-0.3,0.3-0.4,0.6-0.2,1c0,0.1,0.1,0.2,0.2,0.2
			c0.1,0.1,0.2,0,0.2-0.2c0.1-0.2,0.2-0.3,0.4-0.5C714.3,85,714.5,84.6,714.7,84.3z M720.4,105.4c-0.1,0-0.2,0-0.2,0.1
			s-0.1,0.1-0.1,0.1c-0.2,0.2-0.3,0.2-0.1,0.4c0.2,0.2,0.3,0.4,0.6,0.6c0.2,0.1,0.3,0,0.4-0.2c0-0.2,0-0.5-0.1-0.8
			C720.7,105.4,720.6,105.2,720.4,105.4z M713.9,78.2c-0.2-0.2-0.2-0.4-0.3-0.6c-0.1-0.1-0.2-0.1-0.3,0c-0.1,0.2-0.2,0.3-0.2,0.4
			c-0.2,0.5-0.1,0.7,0.5,0.6l0,0C713.9,78.7,714,78.6,713.9,78.2z M719.1,106.8c0.2,0.2,0.3,0.3,0.5,0.5c0.1,0.1,0.2,0.1,0.3,0.2
			c0.2,0.1,0.3,0.1,0.4-0.1c0.1-0.1,0.1-0.2,0.1-0.3C720.2,106.6,719.5,106.5,719.1,106.8z M712,78c0.4,0,0.7-0.1,0.8-0.7
			c0.1-0.3,0-0.3-0.2-0.4s-0.3,0-0.4,0.2C712.2,77.5,712,77.8,712,78z M711.3,83.5c0.4-0.1,1-0.9,1-1.3
			C711.8,82.5,711.6,83.1,711.3,83.5z M716,102.3c0.5,0.2,0.9,0.6,1.5,0.8C717.2,102.6,716.5,102.2,716,102.3z M701.3,89.5
			c-0.1,0.3,0,0.5,0.2,0.7s0.5,0.2,0.6,0C701.9,90,701.6,89.7,701.3,89.5z M705.2,101.8c-0.3-0.2-0.6-0.4-0.9-0.5
			c-0.1,0.3,0.1,0.5,0.2,0.6C704.7,102,705,101.9,705.2,101.8z M712,89.4c-0.4,0.2-0.8,0.6-0.9,1.1c0.2,0,0.2-0.1,0.3-0.1
			C711.6,90.1,711.8,89.8,712,89.4z M713.7,96.7c-0.3-0.2-0.6-0.4-1-0.6c-0.1,0-0.2,0-0.3,0C712.8,96.6,713.3,96.6,713.7,96.7z
			 M709.9,95.4c0,0-0.1,0.1-0.1,0c0,0.1-0.1,0.3-0.1,0.4l0.2,0.1c0.1-0.1,0.1-0.2,0.2-0.3C710.1,95.5,710,95.5,709.9,95.4z"/>
		<path class="st0" d="M719.1,106.8c0.4-0.2,1-0.2,1.3,0.3c0.1,0.1,0,0.2-0.1,0.3c-0.1,0.2-0.3,0.2-0.4,0.1
			c-0.1-0.1-0.2-0.1-0.3-0.2C719.5,107.1,719.3,106.9,719.1,106.8z"/>
	</g>
</g>
</svg>
