<?xml version="1.0" encoding="utf-8"?>
<!-- Generator: Adobe Illustrator 22.1.0, SVG Export Plug-In . SVG Version: 6.00 Build 0)  -->
<svg version="1.1" id="Calque_1" xmlns="http://www.w3.org/2000/svg" xmlns:xlink="http://www.w3.org/1999/xlink" x="0px" y="0px"
	 viewBox="0 0 841.9 604.3" style="enable-background:new 0 0 841.9 604.3;" xml:space="preserve">
<style type="text/css">
	.st0{fill:#1D1D1B;}
	.st1{fill:#FDC99A;}
</style>
<g>
	<g id="solghn_2_">
		<g>
			<path class="st0" d="M414.9,100.6c1.1,2.1,1.7,5.1,3.4,6.2c12.2,7.6,24.4,15.4,37.1,22.1c16.4,8.7,34.3,8.2,52.1,6.9
				s34.4,1.4,51.1,8.5c13.1,5.6,27.5,8.5,41.5,11.4c12.4,2.5,25.1,3.4,38.5,5.1c0,5.8,0,11.3,0,16.8c0,11.2-1.1,12.1-12.4,11.3
				c-21.3-1.5-41.3-7.5-60.6-16.7c-13.2-6.4-26.5-12.8-40.3-17.8c-8.3-3-17.7-3.3-26.6-4.7c12.8,18.4,25.8,34.4,38.4,50.7
				c2.6,3.4,3.7,8,5.6,12c3.6,7.4,6.9,15,11.2,22c4.9,8.1,7.1,16.5,6.6,26c-0.2,4.6,0.7,10.2,3.2,13.8c8.5,11.6,9.8,23.7,5.6,37.1
				c-0.7,2.2-0.3,5.5,0.9,7.4c6.6,10.6,7.8,22,5.1,33.7c-1.5,6.5-1.2,12.1,1.1,18.3c7.4,20.9,1.4,38.2-16.9,51.4
				c-1.3,0.9-2.5,2.2-3.1,3.6c-4.4,10.8-13.1,16.2-23.5,19.6c-32.1,10.5-65,16-98.9,16.3c-28.3,0.2-49.1-11.4-62.4-36.4
				c-1.2-2.2-3.2-4.5-5.5-5.6c-17.8-8.9-25-31.2-15.8-49c1-2,1.3-5.1,0.6-7.2c-4.8-14.9-6-29.2,4.1-42.6c1-1.4,1.3-4.3,0.6-5.9
				c-6.9-16.4-3.5-30.8,7.9-43.9c1.2-1.4,3-3.5,2.6-4.7c-5-14.6,3.4-25,10.8-35.8c1.2-1.8,2.7-4,2.5-5.9
				c-1.2-14.9,7.3-23.6,18.4-31.2c2.3-1.6,4.4-4.9,4.9-7.8c2-11.5,7.6-20.7,16.2-28.3c2.6-2.2,5.3-4.3,8.6-6.9
				c-23.9-4.4-23.8-4-46.1,1.8c-10.1,2.6-20.7,3.3-31.2,4.1c-3.5,0.3-7.1-1.9-12.4-3.5c17.7-4.1,32.8-7.5,49.8-11.4
				c-7.2-4.2-11.8-6.9-16.4-9.6c4.4,1.5,8.7,3.3,13.2,4.2c2.1,0.4,4.5-1.1,6.7-1.7c15.5,6.8,48.1,7.8,53.7,1.1
				c-1.3-1.6-2.4-3.7-4.2-4.8c-27.7-17.8-55.5-35-90.3-18.9c-1.5,0.7-3.2,1.2-4.8,1.4c-6.5,0.6-8.5,4.7-9.2,10.5s-2.3,11.6-3.4,17.3
				c-0.5-0.1-1-0.2-1.5-0.3c1.2-7.5,2.4-15.1,3.6-22.8c-7.5,0-14.3,0-21.1,0c-12,0-14.9-1.4-17.3-9c13,5.1,25.5,2.8,37.9-0.5
				c16.2-4.3,32.3-8.7,48.4-13c-9.6-9.1-20-19.1-30.4-29c0.7-0.8,1.4-1.5,2.1-2.3c18.5,12.8,33.2,31.5,56.5,39.3
				c-0.8-3.1-1.3-4.9-1.8-6.7C411.3,97.8,413.1,99.2,414.9,100.6z M445.2,387.5c-28.1,3.5-55.2-2.3-82.1-9c-1.5-0.4-3.1-0.5-5.4-0.8
				c-0.5,12.6,3.6,23.3,9.5,33.3c1.4,2.4,5.5,3.4,8.6,4.4c28.4,9,57.8,10.4,87.2,10c26.9-0.4,53.8-1.8,80.6-3
				c19.2-0.9,35.6-26.8,28.5-44.8c-3.2-8.2-10.4-8.8-17.4-7.8c-11.8,1.7-23.4,4.5-35.1,6.6c-13.9,2.5-27.9,4.9-41.8,7.1
				c-2.9,0.5-5.9,0.1-8.9,0.1c26-5.4,52-10.8,78-16.2c2.2-0.5,4.5-0.6,6.4-1.7c5.3-2.9,12.9-5,14.9-9.4c4.1-9.4,2.7-19.7-4.8-27.9
				c-9.6-10.5-22.7-13.8-35.9-15.5c-43.4-5.8-86.9-4.4-130.4,0c-9.4,1-18.6,5.1-27.8,8.2c-7.3,2.4-10.8,7.8-11.6,15.5
				c-2.4,23.4,4.3,39.6,29.5,43.3c27.3,4,54.4,7.2,82,3.6C461.2,384.8,453.2,386.5,445.2,387.5z M533.5,267.8
				c-29.3-2.2-58.6-6.2-87.8-6.1c-23.7,0.1-47.3,5.2-70.9,8.3c-1.8,0.2-3.7,1.4-5,2.6c-7.7,7.4-11,25.3-6.7,35.1
				c2,4.6,4.4,6.4,10.2,5.1c39.1-8.8,78.7-8.6,118.4-6.1c22.6,1.4,45.2,3.7,67.7,5.5C564,293.6,559.7,269.7,533.5,267.8z M516,224
				c-40.6-2.4-80.9,0.9-121.2,5.2c-13.2,1.4-23.3,18-19,30.8c0.7,1.9,5.1,3.9,7.7,3.7c8-0.5,15.9-2.3,23.9-3.1
				c44.2-4.5,88.2-0.8,132.1,3.9c4.4,0.5,8.7,0.8,13.9,1.2C551.9,232.6,538.8,225.4,516,224z M504.3,189.6
				c-22.1-1.6-44.3-1.1-66.4-1.1c-6.9,0-13.8,1-20.7,2.2c-18.8,3.2-28.9,15.2-29.5,35.5c49.8-4.2,99.5-8.6,150.2-2.8
				C535.6,207,520.5,190.7,504.3,189.6z M385.2,426.5c2.5,15.4,14.7,25.9,31.2,29.3c22.1,4.5,43.6,1,65.2-2.6
				c14.7-2.5,29.4-5.5,43.7-9.6c9.8-2.8,18.2-8.9,22.9-17.1C493.6,426.5,439.4,426.5,385.2,426.5z M519.2,186.8
				c-3.2-4.6-5.9-8.8-9.1-12.7c-2.6-3.2-5.9-5.9-8.5-9c-8.4-10.1-17.7-15.7-31.6-9.8c-4.6,1.9-11,0.4-16.3-0.8
				c-9.4-2.1-18.2-6.1-27.4,1.5c-10.4,8.6-16.2,18.3-16.8,30.9C445.9,186.8,481.7,186.8,519.2,186.8z"/>
			<g>
				<path class="st1" d="M469.2,383.4c-27.5,3.6-54.7,0.4-82-3.6c-25.1-3.7-31.9-19.9-29.5-43.3c0.8-7.7,4.4-13.1,11.6-15.5
					c9.2-3,18.3-7.2,27.8-8.2c43.4-4.4,86.9-5.8,130.4,0c13.2,1.8,26.3,5,35.9,15.5c7.5,8.2,8.9,18.5,4.8,27.9
					c-2,4.5-9.7,6.6-14.9,9.4c-1.9,1-4.2,1.2-6.4,1.7c-26,5.4-52,10.8-77.9,16.2C468.9,383.6,469.2,383.4,469.2,383.4z M434.5,316.2
					c-14.8,13-15.8,40.2-3,61.1c-3.1-1.9-6.2-3.7-9.7-5.9c10.1,13.7,23,14,32.7,1.1c11-14.6,8.1-43.2-5.9-54.9
					c-4.8-4.1-10-7.2-17.6-2.7C432.7,315.5,433.6,315.9,434.5,316.2z"/>
				<path class="st1" d="M469.2,383.4c-8,1.4-16,3.1-24,4.1c-28.1,3.5-55.2-2.3-82.1-9c-1.5-0.4-3.1-0.5-5.4-0.8
					c-0.5,12.6,3.6,23.3,9.5,33.3c1.4,2.4,5.5,3.4,8.6,4.4c28.4,9,57.8,10.4,87.2,10c26.9-0.4,53.8-1.8,80.6-3
					c19.2-0.9,35.6-26.8,28.5-44.8c-3.2-8.2-10.4-8.8-17.4-7.8c-11.8,1.7-23.4,4.5-35.1,6.6c-13.9,2.5-27.9,4.9-41.8,7.1
					c-2.9,0.5-5.9,0.1-8.9,0C468.9,383.6,469.2,383.4,469.2,383.4z"/>
				<path class="st1" d="M559.4,312.2c4.5-18.7,0.3-42.5-25.9-44.5c-29.3-2.2-58.6-6.2-87.8-6.1c-23.7,0.1-47.3,5.2-70.9,8.3
					c-1.8,0.2-3.7,1.4-5,2.6c-7.7,7.4-11,25.3-6.7,35.1c2,4.6,4.4,6.4,10.2,5.1c39.1-8.8,78.7-8.6,118.4-6.1
					C514.3,308.1,536.9,310.4,559.4,312.2z"/>
				<path class="st1" d="M553.4,265.8c-1.4-33.2-14.6-40.5-37.4-41.8c-40.6-2.4-80.9,0.9-121.2,5.2c-13.2,1.4-23.3,18-19,30.8
					c0.7,1.9,5.1,3.9,7.7,3.7c8-0.5,15.9-2.3,23.9-3.1c44.2-4.5,88.2-0.8,132.1,3.9C543.9,265.1,548.2,265.4,553.4,265.8z"/>
				<path class="st1" d="M537.9,223.3c-2.4-16.3-17.5-32.6-33.6-33.7c-22.1-1.6-44.3-1.1-66.4-1.1c-6.9,0-13.8,1-20.7,2.2
					c-18.8,3.2-28.9,15.2-29.5,35.5C437.5,221.9,487.2,217.5,537.9,223.3z"/>
				<path class="st1" d="M548.1,426.5c-54.5,0-108.7,0-162.9,0c2.5,15.4,14.7,25.9,31.2,29.3c22.1,4.5,43.6,1,65.2-2.6
					c14.7-2.5,29.4-5.5,43.7-9.6C535,440.9,543.4,434.8,548.1,426.5z"/>
				<path class="st1" d="M409.6,186.8c36.3,0,72.2,0,109.6,0c-3.2-4.6-5.9-8.8-9.1-12.7c-2.6-3.2-5.9-5.9-8.5-9
					c-8.4-10.1-17.7-15.7-31.6-9.8c-4.6,1.9-11,0.4-16.3-0.8c-9.4-2.1-18.2-6.1-27.4,1.5C415.9,164.5,410.1,174.2,409.6,186.8z"/>
			</g>
			<path d="M431.1,314.9c1.6,0.6,2.5,0.9,3.4,1.3c-14.8,13-15.8,40.2-3,61.1c-3.1-1.9-6.2-3.7-9.7-5.9c10.1,13.7,23,14,32.7,1.1
				c11-14.6,8.1-43.2-5.9-54.9C443.9,313.6,438.7,310.5,431.1,314.9z"/>
		</g>
	</g>
	<g>
		<path class="st0" d="M396.6,353.8c1.5,0.8,2.2,2.4,1.9,4c0.2,0,0.4,0.1,0.6,0.2c1.3,0.4,2.4,1.2,3.2,2.3c0.1,0.1,0.2,0.2,0.4,0.2
			c0.5,0,0.8,0.3,0.9,0.8c0.1,0.4-0.1,0.9-0.5,1.1s-0.9,0.2-1.2-0.1c-0.3-0.3-0.5-0.8-0.3-1.2c0.1-0.2,0.1-0.4,0-0.6
			c-0.8-1.2-1.9-1.9-3.3-2.3c-0.7,1.1-1.6,1.4-2.4,0.8c-0.4,1-1.2,1.8-2.2,2.4c0.2,0.3,0.3,0.5,0.4,0.7c0.2,0.4,0.4,0.9,0.5,1.3
			c0.4,2.7,0.9,5.4,1.2,8.1c0.2,1.4,0.2,2.9-0.2,4.3c-0.2,0.9-0.5,1.7-0.8,2.6c-0.2,0.6-0.7,1.1-1.3,1.5c-0.8,0.6-2.3,0.3-2.9-0.3
			c-0.4-0.4-0.8-0.9-1-1.4c-0.5-1-0.8-2.1-0.9-3.3c0-0.3,0-0.6-0.1-0.9c0-0.2-0.1-0.4-0.3-0.6c-1-0.9-1.3-1.9-1-3.2
			c0.1-0.6,0.2-1.3,0.6-1.8c0.4-0.6,0.4-1,0-1.6c-0.4-0.5-0.4-1.1-0.2-1.8c-0.2,0.1-0.5,0.2-0.7,0.3c-2.5,1.1-5.1,1.2-7.7,0.4
			c-0.9-0.3-1.7-0.7-2.6-1.1c-0.4-0.2-0.4-0.4-0.3-0.8c0.9-3.5,3.1-6.1,6.4-7.6c0.3-0.1,0.7-0.3,1-0.4c-0.1-0.1-0.1-0.1-0.2-0.2
			c-0.6-0.4-1-0.9-1.1-1.6c-0.1-0.5-0.1-0.6-0.7-0.7c-0.2,0-0.5-0.1-0.7-0.2c-0.5-0.3-1.1-0.5-1.6-0.9c-0.9-0.6-1.3-1.4-1.2-2.5
			c0-0.5-0.1-0.8-0.4-1.2c-0.8-0.8-1.5-1.8-1.9-2.8c-0.2-0.4-0.3-0.9-0.4-1.3c-0.3-1.1,0.4-2.5,1.3-2.9c0.8-0.4,1.6-0.4,2.4,0
			c0.8,0.3,1.6,0.7,2.4,1.2c1.4,0.9,2.6,2,3.6,3.3c1.4,1.9,2.8,3.8,4.3,5.7c0.6,0.8,1.1,1.6,1.2,2.7c1.1-0.3,2.1-0.3,3.2,0.1
			c0.3-0.9,0.8-1.3,1.9-1.2c0.2,0,0.3,0,0.4-0.2c0.8-1.3,1-2.7,0.7-4.2c0-0.1-0.1-0.2-0.2-0.2c-0.6-0.2-0.8-0.7-0.7-1.3
			c0.2-0.5,0.7-0.8,1.3-0.7s0.9,0.7,0.7,1.2c0,0.2-0.1,0.3-0.2,0.4c-0.1,0.1-0.2,0.3-0.1,0.4C397.9,350.8,397.6,352.3,396.6,353.8
			C396.7,353.7,396.6,353.7,396.6,353.8z M393.2,373.8L393.2,373.8c-0.1,0.3-0.3,0.4-0.2,0.7l0.1-0.1c0.5-0.4,1-0.8,1.4-1.3
			c0.1-0.1,0.1-0.2,0.2-0.3c0-0.3,0-0.5,0-0.7s-0.1-0.3-0.3-0.2c-0.3,0.1-0.6,0.3-0.7,0.5C393.5,372.8,393.4,373.3,393.2,373.8z
			 M389.4,362.4c0.3-0.4,0.3-1.1,0.1-1.7c-0.4-1.2-1-2.2-1.8-3.2c-0.1-0.2-0.3-0.3-0.5-0.4c0,0,0,0-0.1,0.1c0,0,0,0.1,0.1,0.2
			c0.4,0.8,0.7,1.7,1,2.5c0,0.1,0,0.2,0,0.3c-0.3,0.3-0.7,0.6-1.1,1c-0.6-1.4-1.1-2.6-1.6-3.9c-0.4,0.1-0.9,0.3-1.3,0.4
			c0.6,1.4,1.2,2.8,1.8,4.2c-0.5,0.2-0.9,0.4-1.4,0.6c-0.6-1.4-1.2-2.8-1.8-4.2c-0.4,0.3-0.8,0.5-1.2,0.7c0.6,1.3,1.1,2.6,1.7,4
			c-0.5,0-0.9,0.1-1.4,0.1c-0.1,0-0.2-0.1-0.2-0.2c-0.4-0.8-0.7-1.7-1.1-2.5c0-0.1-0.1-0.2-0.2-0.4c-0.4,0.5-0.7,0.9-1,1.3
			c0.5,0.5,0.6,1.2,0.8,1.8c-0.6-0.1-1.1-0.1-1.7-0.2c-0.1,0.3-0.3,0.6-0.3,1c0,0.2,0,0.5,0.1,0.5c0.3,0.2,0.7,0.3,1.1,0.5
			c0,0,0,0,0-0.1c-0.1-0.2-0.2-0.5-0.3-0.7c0.6,0.1,1.1,0.2,1.6,0.3c0.1,0,0.1,0.1,0.1,0.1c0.1,0.3,0.2,0.5,0.3,0.9
			c0.5,0,1,0.1,1.6,0.1c-0.2-0.4-0.3-0.7-0.4-1.1c0.5,0,1-0.1,1.6-0.1c0.1,0.3,0.3,0.7,0.4,1c0.4-0.1,0.9-0.2,1.4-0.4
			c-0.2-0.4-0.3-0.7-0.4-0.9c0.5-0.2,0.9-0.4,1.4-0.6c0.1,0.3,0.3,0.6,0.4,0.9c0.4-0.2,0.8-0.4,1.2-0.7c-0.1-0.2-0.3-0.5-0.3-0.7
			c0-0.1-0.1-0.2,0-0.3c0.4-0.3,0.8-0.6,1.2-0.9C389.3,361.9,389.4,362.1,389.4,362.4z M393.7,365.1
			C393.6,365.1,393.6,365.1,393.7,365.1c-0.1,0-0.1,0.1-0.2,0.1c0,0.7-0.1,1.4-0.1,2.1c0,1,0.2,2,0.1,3c0,0.3,0.1,0.7,0.2,1.1
			c0.1,0.3,0.3,0.3,0.5,0.1c0.2-0.2,0.3-0.3,0.5-0.5c0.1-0.1,0.2-0.3,0.1-0.5c-0.2-1.4-0.5-2.9-0.8-4.3
			C393.9,365.9,393.8,365.5,393.7,365.1z M388.2,352.2L388.2,352.2c0-0.1,0-0.2,0-0.2c-0.8-1.6-1.9-3-3-4.4
			c-0.1-0.1-0.3-0.2-0.5-0.3c-0.2,0-0.4,0-0.6,0c-0.3,0-0.4,0.2-0.3,0.4c0.1,0.3,0.3,0.6,0.5,0.8c0.3,0.3,0.7,0.6,1,1
			c0.5,0.5,0.9,1,1.4,1.5C387.1,351.5,387.6,351.9,388.2,352.2z M378.2,346.5L378.2,346.5c0,0.1-0.1,0.1-0.1,0.1
			c-0.4,0.2-0.4,0.4-0.2,0.7c0.3,0.3,0.6,0.6,0.8,1c0.2,0.3,0.4,0.4,0.7,0.4c0.4,0,0.7,0.1,1.1,0c0.2,0,0.5-0.3,0.7-0.5
			c0.2-0.3-0.2-0.9-0.5-1.1c-0.5-0.2-1.1-0.4-1.6-0.6C378.7,346.4,378.5,346.5,378.2,346.5z M392,373.5
			C392,373.5,391.9,373.5,392,373.5c-0.1-0.1-0.1-0.1-0.2-0.2c-0.2-0.4-0.4-0.5-0.8-0.4c-0.7,0.2-0.9,0.8-1.3,1.3
			c-0.1,0.1,0,0.3,0,0.4c0,0.4,0.1,0.9,0.1,1.3c0,0.3,0.2,0.4,0.5,0.4c0.4-0.1,0.8-0.3,1-0.7c0.2-0.5,0.5-1,0.6-1.5
			C392,374,392,373.7,392,373.5z M390,369.8c-0.4,0.2-0.8,0.4-1.1,0.7c-0.7,0.5-0.8,1.2-0.2,1.8c0.1,0.1,0.3,0.3,0.4,0.4
			c0.1,0,0.2,0,0.3,0c0.5-0.4,0.9-0.8,1-1.5C390.5,370.6,390.4,370.2,390,369.8z M382.3,351c-0.3-0.8-1-1.1-1.8-1.2
			c-0.7,0-0.7,0-0.7,0.6c0,0.1,0,0.2,0,0.3c0.1,0.8,0.5,1.1,1.2,1c0.4-0.1,0.8-0.2,1.2-0.3c0.1,0,0.1-0.1,0.1-0.2
			C382.4,351.2,382.3,351.1,382.3,351z M390.3,364.4c-0.3,0-0.5,0.1-0.7,0.1c-0.1,0-0.3,0-0.3,0.1c-0.2,0.3-0.5,0.7-0.6,1.1
			c-0.1,0.2-0.1,0.4-0.1,0.6s0.1,0.4,0.2,0.6c0.1,0.4,0.5,0.6,0.9,0.4c0.5-0.3,0.8-1,0.6-1.5c-0.1-0.4-0.1-0.7,0-1.1
			C390.3,364.6,390.3,364.5,390.3,364.4z M386.5,355.1c-0.1-0.1-0.1-0.1-0.2-0.1c-0.4-0.1-0.7-0.4-0.9-0.8c-0.3-0.5-1-0.7-1.6-0.5
			c-0.1,0.1-0.3,0.2-0.4,0.4c-0.1,0.3,0.3,1.2,0.7,1.3h0.1c0.3,0.1,0.7,0.2,1,0.3c0.3,0.1,0.5,0.1,0.7-0.2c0-0.1,0.1-0.1,0.2-0.1
			C386.3,355.2,386.4,355.1,386.5,355.1z M395.6,357.1c0-0.5,0.1-1,0.5-1.3c0.7-0.6,1.3-0.5,1.5,0.4c0,0.2,0.1,0.3,0.1,0.5h0.1
			c0-0.3-0.1-0.6-0.1-0.9c-0.3-1.2-1.5-1.9-2.6-1.4c-0.4,0.1-0.5,0.4-0.4,0.8C395,355.8,395.3,356.5,395.6,357.1z M393.1,363.5
			C393,363.5,393,363.5,393.1,363.5c-0.1,0.1-0.1,0.2-0.1,0.3c-0.1,0.6-0.2,1.2-0.2,1.8c-0.1,0.9-0.2,1.9-0.4,2.8
			c-0.1,0.7,0.2,1.2,0.6,1.7c0.1-0.3,0.2-0.5,0.2-0.8c0-1.1,0-2.1,0-3.2c0-0.6,0.1-1.1,0.2-1.7C393.4,364.1,393.2,363.8,393.1,363.5
			z M388.9,353.8c-0.1-0.5-0.3-0.8-0.6-1s-0.6-0.4-0.9-0.7c-1-0.7-1.8-1.7-2.6-2.5c-0.2-0.2-0.4-0.3-0.7-0.5c0.1,0.8,0.4,1.4,1,1.9
			c0.7,0.5,1.4,1,2.1,1.5C387.8,352.9,388.3,353.3,388.9,353.8z M389.8,357.3L389.8,357.3c0.1,0.4,0.1,0.7,0.3,1.1
			c0.3,0.8,0.7,1.6,1.3,2.3c0.4,0.4,0.9,0.6,1.5,0.4c0.8-0.3,1.5-0.7,1.9-1.4c0.1-0.1,0.1-0.2,0.2-0.3c-0.3,0.1-0.5,0.3-0.8,0.5
			c-1.7,0.9-2.6,0.7-3.6-0.8C390.4,358.5,390.1,357.9,389.8,357.3z M392.1,367.1c0-0.1,0-0.2,0.1-0.3c0.1-0.6,0.2-1.2,0.3-1.7
			c0.1-0.7,0.2-1.3,0.1-1.9c0-0.1-0.1-0.2-0.1-0.3c-0.1,0.1-0.2,0.2-0.2,0.2c-0.2,0.8-0.4,1.7-0.5,2.5c-0.1,0.3-0.1,0.5,0,0.8
			C391.6,366.6,391.7,366.9,392.1,367.1z M381.2,345.9c0,0.3,0.2,0.4,0.3,0.4c0.5,0.2,0.9,0.4,1.4,0.6c0.4,0.2,0.8,0.1,1.2-0.1
			c0.1-0.1,0.2-0.2,0-0.4c-0.1-0.1-0.3-0.3-0.4-0.4c-0.2-0.1-0.4-0.2-0.6-0.2c-0.5,0-0.9,0.1-1.4,0.1
			C381.5,345.9,381.4,345.9,381.2,345.9z M385.7,351.9c0,0.2,0,0.3,0,0.4c0.1,0.3,0.2,0.6,0.5,0.8c0.8,0.6,1.7,1.1,2.6,1.7
			c0,0,0.1,0,0.2,0c0-0.1,0-0.1,0-0.2c-0.2-0.3-0.4-0.6-0.7-0.8c-0.6-0.5-1.3-1-1.9-1.4C386.2,352.2,386,352.1,385.7,351.9z
			 M389.8,373.3C389.8,373.4,389.9,373.4,389.8,373.3c0.3-0.2,0.6-0.4,0.8-0.6c0.5-0.5,0.8-1.1,1-1.8c0.1-0.2,0.1-0.5-0.2-0.7
			s-0.5-0.3-0.8-0.5c0,0,0,0-0.1,0.1c0,0.1,0,0.3,0.1,0.4c0.2,0.4,0.2,0.8,0,1.2c-0.2,0.4-0.4,0.8-0.6,1.2
			C390,372.9,389.9,373.1,389.8,373.3z M392.5,376.7c0,0,0.1-0.1,0.1-0.2c0.2-0.3,0.3-0.7,0.4-1c0.1-0.5-0.1-0.8-0.6-0.9
			c-0.2-0.1-0.4,0-0.5,0.2c-0.1,0.3-0.2,0.5-0.3,0.8c0,0.1,0,0.3,0,0.4c0.1,0.2,0.2,0.4,0.3,0.6
			C392.2,376.8,392.3,376.8,392.5,376.7z M379.1,345.6L379.1,345.6c0.1,0.3,0.2,0.5,0.4,0.6s0.5,0.3,0.7,0.3c0.1,0,0.2,0,0.3,0
			c0.3-0.2,0.3-0.9,0.1-1.1c-0.4-0.3-0.9-0.6-1.4-0.6c-0.3,0-0.4,0.2-0.3,0.4C379.1,345.4,379.1,345.5,379.1,345.6z M379.8,349
			C379.7,349,379.7,349.1,379.8,349c0.1,0.2,0.3,0.3,0.5,0.3c0.4,0.1,0.7,0.2,1.1,0.3c0.6,0.2,1,0.5,1.3,1.1
			c0.1,0.1,0.1,0.2,0.3,0.4c0.1-0.3,0.1-0.5,0.2-0.8c0.1-0.4,0-0.6-0.4-0.8c-0.3-0.2-0.6-0.2-0.8-0.4
			C381.2,348.9,380.4,349.1,379.8,349z M382.9,351.9c0.3,0.3,0.5,0.7,0.8,1c0.1,0.1,0.3,0.3,0.5,0.3c0.4,0,0.8-0.1,1.2-0.1
			C385,352.2,383.7,351.6,382.9,351.9z M393.9,356.6c0.4-0.2,0.5-0.4,0.5-0.7c-0.2-0.6-0.9-0.8-1.3-0.5c-0.3,0.2-0.4,0.5-0.3,0.8
			c0.1,0.3,0.3,0.5,0.6,0.5C393.6,356.7,393.8,356.6,393.9,356.6z M391.1,366.5c-0.3,0.3-0.7,0.6-0.9,0.9c-0.1,0.1-0.1,0.1-0.1,0.2
			c0,0.5,0.1,1,0.1,1.5C390.8,368.8,391.3,367.3,391.1,366.5z M391.9,362.5c-0.4,0.7-0.8,1.3-1.1,2c-0.2,0.5-0.3,1,0,1.5
			C391.4,364.9,391.9,363.8,391.9,362.5z M379.1,343.6C379,343.6,379,343.6,379.1,343.6c0.5,0.5,1.1,0.8,1.6,1.2
			c0.3,0.2,0.5,0.4,0.8,0.5c0.3,0.2,0.7,0.2,1.1-0.1C381.4,344.4,380.3,343.9,379.1,343.6z M383.7,349.7L383.7,349.7
			c-0.1,0.5-0.2,1-0.2,1.5c0,0.1,0.1,0.2,0.2,0.2c0.4,0.2,0.7,0.3,1.1,0.5c0.1,0.1,0.3,0.1,0.4,0.1c0-0.2-0.1-0.3-0.1-0.5
			c0-0.1-0.1-0.1-0.1-0.2c-0.4-0.4-0.8-0.8-1-1.4C383.9,349.9,383.8,349.8,383.7,349.7z M385.6,353.6c0,0.1,0,0.2,0.1,0.2
			c0,0,0,0.1,0.1,0.1c0.4,0.5,0.8,0.8,1.4,0.9c0.4,0.1,0.7,0.2,1.1,0.3c0.2,0,0.4,0.1,0.6,0.2v-0.1
			C388,354.4,386.9,353.9,385.6,353.6z M381.2,346.7v0.1c0.1,0.1,0.1,0.3,0.2,0.4c0.3,0.6,0.8,0.9,1.4,1.1c0.1,0,0.3,0,0.4,0
			c0.2-0.1,0.2-0.2,0.1-0.3c-0.5-0.4-0.9-0.8-1.4-1.1C381.7,346.7,381.4,346.7,381.2,346.7z M380.9,352.4c0.6,0.3,1.2,0.6,1.8,0.8
			c0.1,0,0.2,0,0.2,0.1c0.3,0,0.3-0.1,0.3-0.3C382.9,352,381.6,351.7,380.9,352.4z M392.1,370.2l0.1-0.1c0-0.1,0.1-0.3,0-0.4
			c-0.4-0.6-0.4-1.2-0.4-1.8c0-0.2-0.1-0.4-0.2-0.6c-0.1,0.1-0.1,0.1-0.1,0.1c-0.2,0.5-0.4,1-0.5,1.4c0,0.1,0,0.2,0,0.2
			C391.4,369.5,391.7,369.9,392.1,370.2z M393.2,377.7c0.6-0.8,1.4-2.9,1.2-3.5c-0.4,0.1-0.7,0.5-0.8,0.9
			C393.5,375.9,393.4,376.8,393.2,377.7z M392.6,374c0.1-0.2,0.2-0.3,0.3-0.4c0.3-0.6,0.3-1.3,0.3-2c0-0.2-0.1-0.3-0.3-0.1
			c-0.1,0.1-0.1,0.1-0.2,0.2C392.2,372.2,392.1,373.2,392.6,374z M388.3,370.3c0.5-0.1,0.9-0.4,1.1-0.7c0.3-0.4,0.3-0.8,0.1-1.3
			c0-0.1-0.1-0.2-0.2-0.2c-0.1,0-0.2,0.1-0.2,0.2c-0.1,0.2-0.2,0.4-0.3,0.7C388.7,369.3,388.5,369.8,388.3,370.3z M377.7,346.2
			c0.1,0,0.2-0.1,0.2-0.1c0.1-0.1,0.1-0.1,0.2-0.1c0.2-0.2,0.3-0.4,0.1-0.6s-0.5-0.4-0.8-0.5c-0.2-0.1-0.4,0-0.4,0.3
			s0.1,0.6,0.2,0.9C377.3,346.3,377.5,346.4,377.7,346.2z M390.3,377.4c0.2,0.2,0.3,0.5,0.5,0.6c0.2,0.2,0.3,0.1,0.4-0.1
			s0.1-0.4,0.2-0.6c0.2-0.7-0.1-0.9-0.7-0.7l0,0C390.2,376.9,390.2,376.9,390.3,377.4z M379,344.3c-0.2-0.1-0.4-0.3-0.6-0.4
			c-0.1-0.1-0.3-0.2-0.4-0.2c-0.2-0.1-0.4,0-0.5,0.2c-0.1,0.1-0.1,0.3-0.1,0.4C377.8,344.7,378.5,344.7,379,344.3z M392.6,377.3
			c-0.5,0.1-0.8,0.3-0.9,0.9c-0.1,0.4,0,0.4,0.3,0.5c0.3,0,0.4-0.1,0.5-0.4C392.6,377.9,392.6,377.6,392.6,377.3z M392.6,370.6
			c-0.5,0.2-1,1.2-0.9,1.8C392.1,371.9,392.2,371.2,392.6,370.6z M383.5,349.1c-0.6-0.2-1.2-0.5-1.8-0.6
			C382,348.9,382.9,349.2,383.5,349.1z M403.3,361.7c0.1-0.3-0.1-0.6-0.3-0.8c-0.3-0.1-0.5-0.1-0.8,0.1
			C402.5,361.3,402.9,361.5,403.3,361.7z M396.5,347.7c0.4,0.1,0.8,0.3,1.2,0.4c0-0.3-0.1-0.5-0.4-0.7
			C397,347.4,396.7,347.5,396.5,347.7z M390.6,363.6c0.5-0.4,0.9-0.8,0.9-1.5c-0.2,0.1-0.3,0.1-0.3,0.3
			C391,362.8,390.8,363.2,390.6,363.6z M387.2,355.4c0.4,0.1,0.8,0.3,1.3,0.5c0.1,0,0.3,0,0.4,0
			C388.3,355.4,387.8,355.4,387.2,355.4z M392,356.2L392,356.2c0.1-0.2,0.2-0.3,0.1-0.5l-0.3-0.1c-0.1,0.1-0.2,0.3-0.1,0.4
			C391.8,356.1,391.9,356.1,392,356.2z"/>
		<path class="st0" d="M379,344.3c-0.5,0.4-1.2,0.4-1.5-0.1c-0.1-0.1,0-0.3,0.1-0.4c0.1-0.2,0.3-0.3,0.5-0.2
			c0.1,0.1,0.3,0.1,0.4,0.2C378.5,344,378.7,344.2,379,344.3z"/>
	</g>
	<g>
		<path class="st0" d="M409.7,513.4c1.6-0.4,3.2,0.3,4.1,1.7c0.2-0.1,0.4-0.2,0.6-0.3c1.3-0.6,2.5-0.7,3.9-0.5c0.2,0,0.3,0,0.4-0.1
			c0.3-0.3,0.8-0.3,1.2-0.1c0.4,0.2,0.5,0.7,0.4,1.1c-0.1,0.5-0.5,0.8-1,0.8s-0.9-0.3-1-0.7c-0.1-0.3-0.2-0.3-0.4-0.4
			c-1.4-0.3-2.7-0.1-4,0.6c0.2,1.3-0.2,2.1-1.2,2.3c0.4,1.1,0.4,2.1,0,3.2c0.3,0.1,0.6,0.1,0.8,0.3c0.4,0.2,0.9,0.4,1.3,0.7
			c2.2,1.7,4.3,3.4,6.4,5.1c1.1,0.9,2.1,2,2.8,3.3c0.4,0.8,0.8,1.6,1.1,2.4c0.3,0.6,0.2,1.3,0.1,2c-0.2,1-1.5,1.7-2.3,1.8
			c-0.6,0-1.2-0.1-1.7-0.3c-1.1-0.4-2-1-2.8-1.8c-0.2-0.2-0.4-0.4-0.6-0.6c-0.2-0.1-0.4-0.2-0.6-0.2c-1.3,0.1-2.3-0.5-2.9-1.6
			c-0.3-0.5-0.7-1.1-0.8-1.7c-0.1-0.7-0.4-1-1.1-1.2c-0.6-0.1-1.1-0.6-1.4-1.2c-0.1,0.2-0.2,0.5-0.3,0.7c-1.1,2.5-2.9,4.3-5.3,5.5
			c-0.8,0.4-1.7,0.7-2.6,1c-0.4,0.1-0.6,0-0.8-0.4c-1.7-3.2-1.9-6.6-0.5-9.9c0.1-0.3,0.3-0.6,0.4-1c-0.1,0-0.2,0-0.3,0
			c-0.7,0.2-1.3,0-1.9-0.4c-0.4-0.3-0.5-0.3-1,0c-0.2,0.1-0.4,0.2-0.6,0.3c-0.6,0.2-1.2,0.4-1.8,0.4c-1,0.2-1.9-0.1-2.6-1
			c-0.3-0.4-0.6-0.6-1.1-0.6c-1.1,0-2.3-0.3-3.3-0.8c-0.4-0.2-0.8-0.4-1.2-0.7c-0.9-0.6-1.4-2-1-3c0.3-0.8,1-1.4,1.7-1.7
			c0.8-0.3,1.6-0.6,2.5-0.7c1.6-0.3,3.3-0.3,4.9,0c2.3,0.4,4.6,0.8,7,1.3c1,0.2,1.9,0.5,2.7,1.2c0.6-1,1.3-1.7,2.4-2.1
			c-0.4-0.9-0.3-1.5,0.6-2.1c0.1-0.1,0.2-0.2,0.2-0.4c-0.3-1.5-1.1-2.7-2.3-3.5c-0.1-0.1-0.2,0-0.3,0c-0.5,0.2-1.1,0-1.4-0.5
			c-0.2-0.5,0-1.1,0.5-1.4s1.1-0.1,1.4,0.4c0.1,0.1,0.1,0.3,0.1,0.5s0.1,0.3,0.2,0.4C408.6,510.5,409.4,511.8,409.7,513.4
			C409.7,513.3,409.7,513.4,409.7,513.4z M420.8,530.4C420.8,530.4,420.8,530.5,420.8,530.4c0.1,0.3,0,0.6,0.3,0.6v-0.1
			c0.1-0.6,0.1-1.3,0.2-1.9c0-0.1,0-0.3-0.1-0.3c-0.2-0.2-0.3-0.4-0.5-0.5c-0.1-0.1-0.3-0.1-0.3,0c-0.1,0.3-0.3,0.6-0.2,0.9
			C420.4,529.5,420.6,529.9,420.8,530.4z M410.3,524.6c-0.1-0.5-0.5-1.1-1.1-1.3c-1.1-0.6-2.3-1-3.5-1.2c-0.2,0-0.4,0-0.6,0v0.1
			c0,0,0.1,0.1,0.2,0.1c0.8,0.4,1.7,0.8,2.5,1.1c0.1,0,0.2,0.1,0.2,0.2c0,0.5-0.1,1-0.2,1.5c-1.3-0.6-2.6-1.2-3.9-1.8
			c-0.2,0.4-0.4,0.8-0.7,1.2c1.4,0.6,2.8,1.3,4.2,1.9c-0.2,0.5-0.4,0.9-0.6,1.3c-1.4-0.6-2.8-1.3-4.2-1.9c-0.1,0.5-0.3,0.9-0.4,1.3
			c1.3,0.6,2.6,1.2,3.9,1.8c-0.3,0.4-0.6,0.7-0.9,1c-0.1,0.1-0.2,0.1-0.3,0c-0.8-0.4-1.7-0.7-2.5-1.1c-0.1,0-0.2-0.1-0.4-0.2
			c0,0.6,0.1,1.1,0.1,1.6c0.7,0,1.2,0.5,1.8,0.7c-0.5,0.3-0.9,0.7-1.4,1c0.1,0.3,0.2,0.7,0.4,1c0.1,0.2,0.3,0.3,0.5,0.3
			c0.4-0.1,0.8-0.2,1.1-0.3v-0.1c-0.2-0.1-0.4-0.2-0.7-0.3c0.5-0.3,0.9-0.6,1.4-0.9c0,0,0.1,0,0.2,0c0.3,0.1,0.5,0.3,0.8,0.4
			c0.4-0.3,0.8-0.6,1.3-1c-0.4-0.2-0.7-0.3-1.1-0.5c0.4-0.4,0.7-0.8,1.1-1.1c0.3,0.2,0.6,0.3,1,0.5c0.2-0.4,0.5-0.8,0.7-1.2
			c-0.4-0.2-0.6-0.3-0.9-0.4c0.2-0.5,0.4-0.9,0.6-1.3c0.3,0.1,0.6,0.3,0.9,0.4c0.2-0.5,0.3-0.9,0.5-1.3c-0.3-0.1-0.5-0.2-0.7-0.3
			c-0.1,0-0.2-0.1-0.2-0.2c0.1-0.5,0.2-1,0.3-1.5C409.8,524.4,410.1,524.5,410.3,524.6z M415.2,523.7
			C415.2,523.8,415.2,523.8,415.2,523.7l-0.1,0.2c0.4,0.6,0.9,1.1,1.4,1.6c0.7,0.7,1.5,1.3,2.1,2.2c0.2,0.3,0.5,0.5,0.9,0.6
			c0.3,0.1,0.5,0,0.5-0.3c0-0.2,0-0.4,0-0.7c0-0.1-0.1-0.3-0.2-0.4c-1.2-0.9-2.3-1.8-3.5-2.6C416,524.1,415.6,524,415.2,523.7z
			 M402.5,518L402.5,518c-0.1-0.1-0.1-0.1-0.2-0.2c-1.7-0.7-3.5-0.9-5.2-1.2c-0.2,0-0.4,0-0.5,0.1c-0.2,0.1-0.3,0.3-0.5,0.4
			c-0.2,0.2-0.2,0.4,0.1,0.5s0.6,0.2,0.9,0.2c0.5,0,0.9,0,1.4,0c0.7,0,1.4,0.1,2,0.2C401.2,518.2,401.8,518.2,402.5,518z
			 M391.2,520.6C391.2,520.7,391.2,520.7,391.2,520.6c0,0.1,0,0.1,0,0.2c-0.2,0.4-0.1,0.5,0.3,0.6c0.4,0.1,0.9,0.1,1.3,0.2
			c0.3,0.1,0.6,0,0.8-0.2c0.3-0.3,0.6-0.4,0.8-0.7c0.1-0.2,0.2-0.6,0.1-0.8c-0.1-0.4-0.8-0.6-1.1-0.4c-0.5,0.2-1.1,0.4-1.6,0.7
			C391.6,520.2,391.4,520.5,391.2,520.6z M419.7,531C419.7,531.1,419.7,531.1,419.7,531c-0.1,0-0.2,0-0.2,0
			c-0.4-0.2-0.6-0.1-0.9,0.3c-0.4,0.6-0.1,1.2,0,1.8c0,0.1,0.2,0.2,0.3,0.3c0.3,0.3,0.6,0.6,0.9,0.9c0.2,0.2,0.4,0.2,0.6-0.1
			c0.2-0.4,0.3-0.8,0.2-1.2c-0.2-0.5-0.3-1-0.5-1.5C420,531.4,419.9,531.2,419.7,531z M415.7,529.7c-0.1,0.4-0.3,0.8-0.4,1.3
			c-0.2,0.9,0.2,1.4,1.1,1.4c0.2,0,0.4,0,0.6,0c0.1,0,0.2-0.1,0.2-0.2c0.1-0.6,0.1-1.2-0.3-1.7C416.7,529.9,416.3,529.7,415.7,529.7
			z M397.3,521.2c-0.8-0.4-1.5-0.1-2.1,0.4c-0.5,0.4-0.5,0.5-0.1,0.9c0.1,0.1,0.1,0.1,0.2,0.2c0.6,0.5,1.1,0.5,1.6-0.1
			c0.3-0.3,0.5-0.7,0.7-1c0-0.1,0-0.2-0.1-0.2C397.5,521.2,397.4,521.2,397.3,521.2z M412.3,525.5c-0.2,0.2-0.3,0.4-0.4,0.5
			c-0.1,0.1-0.2,0.2-0.2,0.3c0.1,0.4,0.1,0.8,0.3,1.2c0.1,0.2,0.2,0.3,0.3,0.5c0.1,0.1,0.3,0.2,0.5,0.3c0.4,0.3,0.8,0.1,0.9-0.4
			c0.1-0.6-0.1-1.3-0.6-1.6C412.8,526.1,412.5,525.9,412.3,525.5C412.4,525.6,412.4,525.6,412.3,525.5z M403.1,521.3
			c-0.1,0-0.2,0-0.2,0c-0.4,0.2-0.8,0.1-1.2,0c-0.6-0.2-1.2,0.1-1.5,0.7c-0.1,0.1-0.1,0.3,0,0.5c0.1,0.3,1.1,0.7,1.4,0.5h0.1
			c0.3-0.2,0.6-0.3,0.9-0.5c0.2-0.1,0.5-0.3,0.3-0.6c0-0.1,0-0.2,0.1-0.2C403.1,521.5,403.1,521.4,403.1,521.3z M411.2,516.6
			c-0.3-0.4-0.6-0.8-0.5-1.3c0.1-0.9,0.6-1.2,1.4-0.7c0.1,0.1,0.3,0.2,0.4,0.3l0.1-0.1c-0.2-0.2-0.5-0.4-0.7-0.6
			c-1-0.7-2.4-0.3-2.9,0.7c-0.2,0.4-0.2,0.6,0.2,0.8C409.9,516,410.5,516.3,411.2,516.6z M413.7,523L413.7,523c0,0.1,0,0.2,0.1,0.3
			c0.4,0.5,0.7,1,1.1,1.5c0.5,0.8,1.1,1.5,1.6,2.3c0.4,0.5,1,0.7,1.6,0.9c-0.1-0.3-0.2-0.5-0.4-0.7c-0.7-0.8-1.5-1.5-2.2-2.4
			c-0.4-0.4-0.7-0.9-1-1.4C414.3,523.2,414,523.1,413.7,523z M404.1,518.7c-0.4-0.3-0.7-0.4-1.1-0.3c-0.4,0-0.7,0.1-1.1,0.1
			c-1.2,0.2-2.5,0-3.7-0.1c-0.2,0-0.5,0.1-0.8,0.1c0.6,0.5,1.2,0.8,2,0.7c0.9-0.1,1.7-0.2,2.6-0.3
			C402.7,518.8,403.3,518.7,404.1,518.7z M407.1,520.7L407.1,520.7c0.3,0.2,0.6,0.4,0.9,0.6c0.8,0.4,1.6,0.8,2.5,0.8
			c0.6,0,1.1-0.2,1.4-0.8c0.4-0.7,0.6-1.5,0.5-2.3c0-0.1-0.1-0.2-0.1-0.4c-0.1,0.3-0.1,0.6-0.2,0.9c-0.6,1.9-1.5,2.3-3.2,1.8
			C408.3,521.1,407.7,520.9,407.1,520.7z M415.4,526.3c-0.1-0.1-0.1-0.2-0.2-0.3c-0.3-0.5-0.7-1-1-1.4c-0.4-0.6-0.8-1.1-1.3-1.5
			c-0.1-0.1-0.2-0.1-0.3-0.1c0,0.1,0,0.2,0,0.3c0.4,0.7,0.9,1.5,1.3,2.2c0.1,0.2,0.3,0.4,0.5,0.6
			C414.8,526.2,415.1,526.4,415.4,526.3z M393,518.2c0.2,0.2,0.4,0.1,0.5,0.1c0.5-0.2,0.9-0.4,1.4-0.5s0.7-0.5,0.8-0.9
			c0-0.2,0-0.3-0.2-0.3s-0.4-0.1-0.6,0c-0.2,0-0.4,0.1-0.6,0.2c-0.3,0.3-0.6,0.7-1,1C393.3,518,393.2,518.1,393,518.2z M400.4,519.5
			c0.1,0.1,0.2,0.2,0.2,0.3c0.3,0.1,0.6,0.3,0.9,0.3c1-0.1,2-0.3,3.1-0.5c0.1,0,0.1-0.1,0.1-0.1l-0.1-0.1c-0.3,0-0.7-0.2-1-0.1
			c-0.8,0-1.6,0.1-2.4,0.2C401,519.4,400.7,519.4,400.4,519.5z M418,532.4C418,532.4,418.1,532.4,418,532.4c0.1-0.4,0.2-0.7,0.2-1
			c0-0.7-0.2-1.4-0.5-2c-0.1-0.2-0.3-0.4-0.6-0.4s-0.6,0.1-0.9,0.2v0.1c0.1,0.1,0.2,0.2,0.3,0.3c0.4,0.2,0.7,0.5,0.8,0.9
			c0.2,0.4,0.3,0.9,0.4,1.3C417.8,531.9,417.9,532.2,418,532.4z M422.3,533c0-0.1,0-0.1,0-0.2c-0.1-0.3-0.2-0.7-0.4-1
			c-0.2-0.4-0.7-0.5-1.1-0.3c-0.2,0.1-0.3,0.3-0.2,0.5c0.1,0.3,0.2,0.5,0.3,0.8c0.1,0.1,0.2,0.2,0.3,0.3c0.2,0.1,0.4,0.1,0.6,0.2
			C422.1,533.3,422.2,533.2,422.3,533z M391.3,519.3C391.3,519.3,391.3,519.4,391.3,519.3c0.2,0.1,0.5,0.2,0.7,0.2
			c0.3,0,0.5-0.1,0.8-0.2c0.1,0,0.2-0.2,0.2-0.2c0.1-0.3-0.3-0.9-0.6-0.9c-0.5,0-1,0.2-1.4,0.5c-0.2,0.2-0.2,0.4,0.1,0.5
			C391.1,519.2,391.2,519.3,391.3,519.3z M394.1,521.4C394.1,521.5,394.1,521.5,394.1,521.4c0.2,0,0.4,0,0.6-0.1
			c0.3-0.2,0.7-0.4,1-0.5c0.5-0.3,1.1-0.4,1.7-0.1c0.1,0.1,0.3,0.1,0.5,0.1c-0.2-0.3-0.3-0.5-0.4-0.7c-0.2-0.3-0.4-0.4-0.8-0.3
			c-0.3,0.1-0.6,0.2-0.9,0.3C395.1,520.4,394.7,521,394.1,521.4z M398.4,521.3c0.4,0.1,0.8,0.2,1.3,0.2c0.2,0,0.4,0,0.6-0.2
			c0.3-0.3,0.5-0.6,0.8-0.9C400.1,520.2,398.7,520.6,398.4,521.3z M409.7,517.4c0.2-0.4,0.1-0.7-0.1-0.8c-0.5-0.3-1.2,0-1.3,0.5
			c-0.1,0.3,0,0.6,0.3,0.8s0.5,0.2,0.8-0.1C409.5,517.6,409.6,517.4,409.7,517.4z M414.3,526.5c0,0.4-0.1,0.9-0.1,1.3
			c0,0.1,0,0.2,0.1,0.2c0.4,0.4,0.7,0.7,1.1,1C415.7,528.4,415,527,414.3,526.5z M412.2,523c0.2,0.8,0.3,1.5,0.6,2.3
			c0.2,0.5,0.4,0.9,1.1,1.1C413.5,525.1,413,524,412.2,523z M389.9,517.9C389.9,517.9,389.9,518,389.9,517.9c0.7,0,1.3-0.1,2-0.2
			c0.3-0.1,0.6-0.1,0.9-0.2c0.4-0.1,0.6-0.3,0.8-0.8C392.2,516.9,391,517.3,389.9,517.9z M397.5,519.3
			C397.5,519.3,397.5,519.4,397.5,519.3c0.2,0.5,0.5,0.9,0.8,1.2c0.1,0.1,0.2,0,0.3,0c0.4-0.1,0.8-0.2,1.1-0.4
			c0.1,0,0.2-0.1,0.4-0.2c-0.1-0.1-0.3-0.2-0.4-0.3c-0.1,0-0.1,0-0.2,0c-0.6,0-1.1-0.1-1.7-0.3C397.7,519.3,397.6,519.3,397.5,519.3
			z M401.4,520.8c0.1,0.1,0.1,0.1,0.2,0.1c0,0,0.1,0.1,0.2,0c0.6,0.1,1.1,0,1.6-0.3c0.3-0.2,0.7-0.4,1-0.6c0.2-0.1,0.4-0.2,0.6-0.3
			v-0.1C403.8,519.8,402.6,520.2,401.4,520.8z M393.6,518.7C393.6,518.7,393.6,518.8,393.6,518.7c0.2,0.2,0.4,0.2,0.5,0.3
			c0.6,0.3,1.2,0.2,1.7-0.2c0.1-0.1,0.2-0.2,0.3-0.3c0.1-0.2,0.1-0.3-0.1-0.3c-0.6,0-1.2,0-1.8,0.1
			C393.9,518.4,393.8,518.6,393.6,518.7z M397.2,523.1c0.7-0.2,1.3-0.4,1.9-0.6c0.1,0,0.1-0.1,0.2-0.1c0.2-0.2,0.2-0.3,0-0.4
			C398.5,521.4,397.3,522.1,397.2,523.1z M417.6,528.6L417.6,528.6c-0.1-0.2-0.1-0.3-0.2-0.4c-0.7-0.2-1.1-0.6-1.5-1.1
			c-0.1-0.1-0.3-0.2-0.5-0.3c0,0.1,0,0.2,0,0.2c0.2,0.5,0.4,1,0.6,1.4c0,0.1,0.1,0.2,0.1,0.1C416.6,528.6,417.1,528.6,417.6,528.6z
			 M423.5,533.3c-0.1-1-0.9-3-1.5-3.4c-0.2,0.4-0.2,0.8,0.1,1.2C422.5,531.8,423,532.5,423.5,533.3z M420.5,531c0-0.2,0-0.4-0.1-0.5
			c-0.2-0.6-0.7-1.1-1.1-1.6c-0.1-0.1-0.3-0.1-0.3,0.1c0,0.1,0,0.2,0,0.3C418.9,530,419.6,530.7,420.5,531z M414.9,531.2
			c0.3-0.4,0.4-0.8,0.3-1.3c-0.1-0.5-0.3-0.8-0.8-1c-0.1-0.1-0.3-0.1-0.3,0c-0.1,0-0.1,0.2,0,0.3c0.1,0.2,0.1,0.4,0.2,0.7
			C414.5,530.3,414.7,530.7,414.9,531.2z M390.7,520.7c0.1-0.1,0.1-0.2,0.1-0.3s0-0.1,0-0.2c0-0.3,0-0.4-0.3-0.4s-0.6,0-1,0.1
			c-0.2,0.1-0.3,0.3-0.1,0.5s0.5,0.4,0.8,0.5C390.5,521,390.7,521,390.7,520.7z M421.2,535c0.3,0,0.5,0.1,0.8,0.1
			c0.2,0,0.3-0.1,0.3-0.3c-0.1-0.2-0.2-0.4-0.2-0.5c-0.3-0.6-0.6-0.6-1,0l0,0C420.7,534.7,420.7,534.8,421.2,535z M390.3,518.5
			c-0.3,0-0.5,0.1-0.8,0.1c-0.1,0-0.3,0.1-0.4,0.1c-0.2,0.1-0.3,0.2-0.2,0.4c0,0.1,0.1,0.3,0.2,0.3
			C389.7,519.6,390.3,519.1,390.3,518.5z M422.8,533.4c-0.3,0.4-0.4,0.7,0,1.3c0.2,0.3,0.3,0.3,0.5,0.1s0.2-0.3,0.1-0.6
			C423.1,533.9,423,533.6,422.8,533.4z M418.2,528.6c-0.2,0.5,0.1,1.6,0.5,1.9C418.7,529.8,418.3,529.2,418.2,528.6z M396.9,518.9
			c-0.6,0.3-1.2,0.4-1.8,0.8C395.7,519.8,396.6,519.4,396.9,518.9z M420,514.7c-0.2-0.3-0.5-0.4-0.8-0.3c-0.3,0.1-0.5,0.3-0.5,0.6
			C419.1,514.9,419.5,514.8,420,514.7z M405.5,509.1c0.4-0.2,0.8-0.3,1.2-0.5c-0.2-0.3-0.5-0.3-0.7-0.2
			C405.6,508.5,405.5,508.8,405.5,509.1z M412,524.8c0.1-0.6,0.1-1.2-0.3-1.7c-0.1,0.2-0.1,0.3-0.1,0.4
			C411.7,523.9,411.8,524.3,412,524.8z M403.9,521c0.4-0.2,0.8-0.3,1.3-0.5c0.1-0.1,0.2-0.2,0.3-0.3
			C404.7,520.2,404.3,520.6,403.9,521z M408,518.4C408,518.4,408,518.3,408,518.4c0-0.2-0.1-0.4-0.2-0.5l-0.3,0.1
			c0,0.2,0.1,0.3,0.2,0.4C407.7,518.4,407.8,518.4,408,518.4z"/>
		<path class="st0" d="M390.3,518.5c-0.1,0.6-0.6,1.1-1.2,1c-0.1,0-0.2-0.2-0.2-0.3c-0.1-0.2,0-0.4,0.2-0.4c0.1,0,0.3-0.1,0.4-0.1
			C389.8,518.6,390.1,518.6,390.3,518.5z"/>
	</g>
	<g>
		<path class="st0" d="M522.4,492.3c0.3-1.7,1.6-2.8,3.2-3c0-0.2,0-0.4,0-0.6c0-1.4,0.4-2.6,1.2-3.8c0.1-0.2,0.1-0.3,0.1-0.4
			c-0.1-0.4,0.1-0.9,0.4-1.1c0.4-0.2,0.9-0.2,1.2,0.1c0.4,0.3,0.5,0.8,0.3,1.2s-0.6,0.7-1.1,0.6c-0.3,0-0.4,0-0.5,0.2
			c-0.8,1.2-1.2,2.4-1.1,3.9c1.2,0.3,1.8,1,1.6,2c1.1,0.1,2.1,0.5,2.9,1.3c0.2-0.2,0.4-0.4,0.6-0.6c0.4-0.3,0.7-0.7,1.1-0.9
			c2.4-1.3,4.9-2.5,7.3-3.8c1.3-0.6,2.7-1.1,4.2-1.2c0.9-0.1,1.8-0.1,2.7,0c0.7,0,1.3,0.3,1.9,0.7c0.9,0.6,1,2.1,0.7,2.8
			c-0.2,0.5-0.6,1-1,1.4c-0.8,0.8-1.8,1.4-2.8,1.8c-0.3,0.1-0.6,0.2-0.8,0.3c-0.2,0.1-0.4,0.3-0.4,0.5c-0.5,1.2-1.4,1.9-2.7,2
			c-0.6,0.1-1.3,0.2-1.9,0c-0.7-0.2-1.1,0-1.5,0.5s-1,0.7-1.6,0.8c0.2,0.2,0.3,0.4,0.5,0.6c1.8,2,2.8,4.4,2.8,7.1
			c0,0.9-0.1,1.9-0.2,2.8c0,0.4-0.2,0.5-0.6,0.6c-3.7,0.2-6.7-1-9.2-3.7c-0.2-0.3-0.5-0.5-0.7-0.8c0,0.1-0.1,0.2-0.1,0.2
			c-0.1,0.7-0.6,1.2-1.2,1.6c-0.5,0.3-0.5,0.3-0.4,0.9c0,0.2,0,0.5,0,0.7c-0.1,0.6-0.2,1.2-0.3,1.8c-0.3,1-0.9,1.7-1.9,2
			c-0.5,0.1-0.8,0.3-1,0.8c-0.5,1-1.2,1.9-2.1,2.7c-0.3,0.3-0.7,0.5-1.1,0.8c-0.9,0.6-2.5,0.4-3.2-0.3c-0.6-0.6-0.9-1.4-0.8-2.3
			c0.1-0.9,0.1-1.8,0.4-2.6c0.4-1.6,1.1-3.1,2-4.4c1.3-1.9,2.7-3.9,4-5.8c0.6-0.8,1.2-1.5,2.2-2c-0.7-0.9-1-1.9-0.9-3.1
			c-1,0-1.5-0.4-1.7-1.4c-0.1-0.2-0.1-0.3-0.3-0.3c-1.5-0.4-2.9-0.1-4.2,0.7c-0.1,0-0.1,0.2-0.1,0.3c0,0.6-0.4,1-1,1.1
			c-0.5,0-1-0.4-1-1s0.4-1.1,0.9-1.1c0.2,0,0.3,0,0.5,0.1s0.3,0.1,0.4,0c1.5-0.7,3-0.9,4.5-0.5C522.3,492.3,522.3,492.3,522.4,492.3
			z M542.4,489.2C542.4,489.2,542.5,489.2,542.4,489.2c0.3,0,0.5,0.2,0.7-0.1L543,489c-0.6-0.3-1.1-0.6-1.6-0.9
			c-0.1,0-0.3-0.1-0.4,0c-0.2,0.1-0.5,0.1-0.7,0.2c-0.1,0.1-0.2,0.2-0.1,0.3c0.2,0.2,0.5,0.5,0.7,0.5
			C541.4,489.2,541.9,489.1,542.4,489.2z M532.8,496.4c-0.5-0.1-1.2,0.1-1.6,0.4c-1,0.8-1.8,1.7-2.5,2.7c-0.1,0.2-0.1,0.4-0.2,0.6
			h0.1l0.1-0.1c0.7-0.6,1.4-1.2,2-1.8c0.1-0.1,0.2-0.1,0.3-0.1c0.4,0.2,0.8,0.5,1.3,0.7c-1.1,1-2.1,1.9-3.2,2.8
			c0.3,0.4,0.5,0.7,0.8,1.1c1.2-1,2.3-2,3.4-3c0.3,0.4,0.6,0.7,1,1.1c-1.2,1-2.3,2-3.5,3c0.4,0.3,0.7,0.6,1.1,0.9
			c1.1-1,2.1-1.9,3.2-2.8c0.2,0.4,0.4,0.9,0.6,1.3c0,0.1,0,0.2-0.1,0.3c-0.7,0.6-1.4,1.2-2.1,1.8c-0.1,0.1-0.1,0.1-0.3,0.3
			c0.6,0.2,1.1,0.4,1.5,0.6c0.3-0.6,0.9-0.9,1.4-1.3c0.1,0.6,0.2,1.1,0.3,1.7c0.3,0,0.7,0,1,0c0.2,0,0.4-0.1,0.5-0.3
			c0.1-0.4,0.1-0.8,0.1-1.2h-0.1c-0.2,0.2-0.4,0.3-0.6,0.5c-0.1-0.6-0.2-1.1-0.2-1.6c0-0.1,0-0.1,0-0.2c0.2-0.2,0.4-0.4,0.7-0.6
			c-0.1-0.5-0.2-1-0.4-1.6c-0.3,0.3-0.6,0.5-0.9,0.8c-0.2-0.5-0.4-1-0.6-1.4c0.3-0.2,0.5-0.5,0.8-0.7c-0.3-0.4-0.5-0.8-0.8-1.2
			c-0.3,0.3-0.5,0.5-0.8,0.7c-0.3-0.4-0.6-0.7-1-1.1c0.3-0.2,0.5-0.4,0.8-0.7c-0.4-0.3-0.7-0.7-1-1c-0.2,0.2-0.4,0.4-0.6,0.6
			c-0.1,0.1-0.2,0.1-0.2,0.1c-0.4-0.3-0.8-0.6-1.2-0.9C532.4,496.7,532.6,496.5,532.8,496.4z M534,491.5
			C534.1,491.6,534.1,491.6,534,491.5c0.1,0.1,0.2,0.1,0.2,0.1c0.7-0.2,1.4-0.3,2.1-0.6c0.9-0.3,1.8-0.8,2.8-1
			c0.3-0.1,0.6-0.3,0.9-0.5c0.2-0.2,0.2-0.4-0.1-0.5c-0.2-0.1-0.4-0.2-0.6-0.3c-0.1,0-0.3-0.1-0.5,0c-1.3,0.7-2.6,1.4-3.9,2.1
			C534.7,491,534.4,491.3,534,491.5z M523.6,500.8C523.6,500.8,523.5,500.8,523.6,500.8c-0.1,0-0.2,0-0.2,0.1
			c-1.3,1.3-2.3,2.8-3.3,4.3c-0.1,0.1-0.1,0.4-0.1,0.5c0,0.2,0.1,0.4,0.2,0.6c0.1,0.2,0.3,0.3,0.5,0.1c0.2-0.2,0.4-0.5,0.6-0.8
			c0.2-0.4,0.4-0.9,0.6-1.3c0.3-0.6,0.7-1.2,1-1.8C523.2,502.1,523.4,501.5,523.6,500.8z M521.3,512.1
			C521.3,512.1,521.4,512.1,521.3,512.1c0.1,0,0.1,0,0.2,0.1c0.3,0.3,0.5,0.3,0.7-0.1c0.2-0.4,0.4-0.7,0.7-1.1
			c0.2-0.3,0.2-0.5,0.1-0.8c-0.1-0.3-0.2-0.7-0.3-1c-0.1-0.2-0.4-0.4-0.7-0.5c-0.4-0.1-0.8,0.4-0.8,0.8c0,0.6,0,1.1,0,1.7
			C521.1,511.6,521.2,511.8,521.3,512.1z M542.5,490.4C542.5,490.5,542.6,490.5,542.5,490.4c0,0.1-0.1,0.2-0.1,0.2
			c-0.3,0.3-0.3,0.6-0.1,0.9c0.4,0.6,1.1,0.6,1.7,0.8c0.1,0,0.3-0.1,0.4-0.1c0.4-0.2,0.8-0.3,1.2-0.5c0.3-0.1,0.4-0.3,0.2-0.6
			c-0.3-0.4-0.5-0.6-1-0.7c-0.5,0-1.1-0.1-1.6-0.1C543,490.3,542.8,490.4,542.5,490.4z M539.6,493.5c0.3,0.3,0.7,0.6,1,0.9
			c0.7,0.5,1.4,0.4,1.7-0.4c0.1-0.2,0.1-0.4,0.2-0.5c0-0.1,0-0.2-0.1-0.2c-0.5-0.3-1.1-0.6-1.7-0.5
			C540.3,492.8,539.9,493,539.6,493.5z M524.3,506.8c-0.7,0.6-0.7,1.3-0.5,2.1c0.2,0.7,0.2,0.7,0.8,0.5c0.1,0,0.2-0.1,0.2-0.1
			c0.7-0.3,0.9-0.8,0.6-1.5c-0.2-0.4-0.4-0.7-0.6-1.1c0-0.1-0.2-0.1-0.2-0.1C524.4,506.6,524.4,506.7,524.3,506.8z M534.5,494.9
			c0.1,0.2,0.2,0.4,0.3,0.6c0.1,0.1,0.1,0.3,0.2,0.3c0.4,0.1,0.8,0.2,1.2,0.3c0.2,0,0.4-0.1,0.6-0.1c0.2-0.1,0.3-0.2,0.5-0.3
			c0.4-0.2,0.4-0.7,0-1c-0.4-0.4-1.2-0.4-1.7-0.1C535.3,494.8,535,495,534.5,494.9C534.6,494.9,534.5,494.9,534.5,494.9z
			 M526.8,501.5c0,0.1-0.1,0.1-0.1,0.2c0,0.4-0.2,0.8-0.5,1.1c-0.4,0.5-0.4,1.2,0,1.7c0.1,0.1,0.3,0.2,0.5,0.2c0.3,0,1-0.7,1-1.1
			v-0.1c0-0.3,0-0.7-0.1-1c0-0.3-0.1-0.5-0.4-0.6c-0.1,0-0.1-0.1-0.2-0.2C527,501.7,526.9,501.6,526.8,501.5z M525.9,492.2
			c-0.5,0.2-0.9,0.2-1.4-0.1c-0.8-0.5-0.9-1.1-0.1-1.6c0.1-0.1,0.3-0.2,0.4-0.3c0,0,0-0.1-0.1-0.1c-0.3,0.1-0.6,0.3-0.8,0.4
			c-1,0.6-1.3,2-0.5,2.9c0.3,0.3,0.5,0.4,0.8,0.1C524.8,493.2,525.3,492.7,525.9,492.2z M532.8,492.6L532.8,492.6
			c0.1,0.1,0.2,0,0.3,0c0.6-0.1,1.2-0.2,1.8-0.3c0.9-0.2,1.8-0.4,2.8-0.5c0.7-0.1,1.1-0.6,1.5-1.1c-0.3,0-0.6,0-0.8,0.1
			c-1,0.3-2,0.7-3,1c-0.5,0.2-1.1,0.2-1.7,0.3C533.2,492.1,533,492.4,532.8,492.6z M524.8,499.6c-0.4,0.2-0.6,0.5-0.8,0.9
			c-0.1,0.3-0.2,0.7-0.3,1c-0.4,1.2-1,2.2-1.6,3.3c-0.1,0.2-0.1,0.5-0.2,0.8c0.8-0.3,1.2-0.8,1.4-1.5c0.2-0.8,0.5-1.7,0.8-2.5
			C524.4,500.9,524.6,500.3,524.8,499.6z M527.9,497.7L527.9,497.7c0.3-0.2,0.6-0.4,0.9-0.6c0.7-0.5,1.3-1.1,1.7-2
			c0.2-0.5,0.2-1.1-0.1-1.6c-0.5-0.7-1.1-1.2-1.9-1.4c-0.1,0-0.2-0.1-0.4-0.1c0.2,0.2,0.5,0.4,0.7,0.6c1.4,1.4,1.5,2.3,0.3,3.6
			C528.8,496.7,528.3,497.2,527.9,497.7z M536.4,492.4c-0.1,0-0.2,0-0.3,0c-0.6,0.1-1.1,0.2-1.7,0.3c-0.7,0.1-1.3,0.2-1.9,0.6
			c-0.1,0-0.1,0.1-0.2,0.2c0.1,0,0.2,0.1,0.3,0.1c0.8-0.1,1.7-0.2,2.5-0.3c0.3,0,0.5-0.1,0.8-0.2C536.1,493,536.4,492.8,536.4,492.4
			z M519.8,509.5c0.3-0.1,0.3-0.3,0.3-0.5c0-0.5,0-1,0.1-1.5s-0.2-0.8-0.5-1.1c-0.1-0.1-0.3-0.1-0.4,0.1c-0.1,0.2-0.2,0.4-0.3,0.5
			c0,0.2-0.1,0.4,0,0.6c0.2,0.4,0.4,0.9,0.5,1.3C519.7,509.1,519.8,509.3,519.8,509.5z M524,503.2c0.2,0,0.3-0.1,0.3-0.1
			c0.2-0.2,0.5-0.4,0.6-0.7c0.3-1,0.5-2,0.8-3c0-0.1,0-0.1,0-0.2c-0.1,0-0.1,0-0.2,0.1c-0.2,0.3-0.4,0.6-0.5,0.9
			c-0.3,0.7-0.5,1.5-0.8,2.3C524.2,502.7,524.1,502.9,524,503.2z M543.1,492.6v-0.1c-0.3-0.2-0.6-0.3-0.9-0.5
			c-0.6-0.3-1.3-0.4-2-0.4c-0.3,0-0.5,0.1-0.6,0.4s-0.1,0.6-0.2,0.9h0.1c0.1-0.1,0.3-0.1,0.4-0.2c0.3-0.3,0.7-0.4,1.1-0.4
			c0.5,0,0.9,0.1,1.4,0.2C542.6,492.6,542.8,492.6,543.1,492.6z M545.4,488.9c-0.1,0-0.1-0.1-0.2-0.1c-0.4,0-0.7-0.1-1.1-0.1
			c-0.5,0-0.7,0.4-0.7,0.9c0,0.2,0.1,0.4,0.4,0.4c0.3,0,0.6,0,0.8,0c0.1,0,0.2-0.1,0.4-0.2s0.3-0.3,0.5-0.5
			C545.6,489.2,545.6,489.1,545.4,488.9z M520.1,511.5C520.2,511.5,520.2,511.5,520.1,511.5c0.2-0.2,0.4-0.3,0.5-0.6
			c0.1-0.2,0.1-0.5,0.1-0.8c0-0.1-0.1-0.2-0.1-0.3c-0.2-0.2-0.9,0-1,0.2c-0.2,0.5-0.3,1-0.1,1.5c0.1,0.3,0.3,0.3,0.5,0.2
			C520,511.6,520.1,511.6,520.1,511.5z M523.2,509.8L523.2,509.8c0.1-0.2,0.2-0.4,0.2-0.6c0-0.4-0.1-0.8-0.1-1.1
			c0-0.6,0.1-1.1,0.6-1.6c0.1-0.1,0.2-0.2,0.3-0.4c-0.3,0-0.5,0.1-0.8,0.1c-0.4,0-0.6,0.2-0.6,0.6c-0.1,0.3-0.1,0.6-0.1,0.9
			C522.6,508.5,523.1,509.1,523.2,509.8z M524.9,505.9c0.2-0.3,0.5-0.7,0.7-1c0.1-0.2,0.1-0.4,0.1-0.6c-0.1-0.4-0.3-0.7-0.5-1.1
			C524.6,503.8,524.4,505.3,524.9,505.9z M525.9,494c-0.3-0.4-0.6-0.4-0.8-0.2c-0.5,0.3-0.5,1.1-0.1,1.4c0.2,0.2,0.6,0.2,0.9,0.1
			c0.3-0.2,0.4-0.4,0.3-0.7C526.1,494.3,526,494,525.9,494z M536.2,493.6c0.4,0.2,0.8,0.4,1.1,0.6c0.1,0,0.2,0,0.2,0
			c0.5-0.2,0.9-0.4,1.4-0.6C538.4,493,536.9,493,536.2,493.6z M532.1,494c0.8,0.2,1.5,0.3,2.3,0.4c0.5,0.1,1,0,1.4-0.5
			C534.6,493.7,533.4,493.7,532.1,494z M518.3,512.2L518.3,512.2c0.3-0.6,0.4-1.3,0.6-1.9c0.1-0.3,0.2-0.6,0.2-0.9
			c0.1-0.4-0.1-0.7-0.4-1C518.3,509.7,518.1,510.9,518.3,512.2z M522.6,505.9c0,0,0,0.1,0.1,0.1c0.5-0.1,0.9-0.2,1.4-0.4
			c0.1,0,0.1-0.2,0.1-0.3c0-0.4,0.1-0.8,0.1-1.2c0-0.1,0-0.3,0-0.4c-0.1,0.1-0.3,0.2-0.4,0.3c-0.1,0-0.1,0.1-0.1,0.2
			c-0.2,0.5-0.5,1-1,1.4C522.7,505.6,522.7,505.8,522.6,505.9z M525.7,502.9c0.1-0.1,0.1-0.1,0.2-0.1l0.1-0.1c0.4-0.5,0.5-1,0.4-1.6
			c0-0.4-0.1-0.8-0.1-1.2c0-0.2,0-0.4,0-0.6h-0.1C525.7,500.3,525.6,501.5,525.7,502.9z M520.5,509.2L520.5,509.2
			c0.2-0.1,0.3-0.2,0.4-0.3c0.5-0.4,0.6-1,0.6-1.7c0-0.1-0.1-0.3-0.2-0.4c-0.1-0.2-0.2-0.2-0.3,0c-0.2,0.6-0.5,1.1-0.6,1.7
			C520.4,508.7,520.5,508.9,520.5,509.2z M526,507.7c0.1-0.7,0.2-1.3,0.2-2c0-0.1,0-0.2,0-0.2c-0.1-0.2-0.2-0.3-0.4-0.2
			C525,505.8,525.1,507.2,526,507.7z M539.4,491.4C539.4,491.3,539.4,491.3,539.4,491.4c-0.2,0-0.4,0-0.4,0c-0.4,0.5-1,0.8-1.6,1
			c-0.2,0.1-0.3,0.2-0.5,0.3c0.1,0.1,0.1,0.1,0.2,0.1c0.5,0,1,0.1,1.5,0c0.1,0,0.2,0,0.2-0.1C539,492.3,539.2,491.8,539.4,491.4z
			 M546.1,487.9c-0.9-0.4-3.1-0.4-3.7-0.1c0.3,0.3,0.7,0.5,1.1,0.4C544.4,488.2,545.2,488.1,546.1,487.9z M542.8,489.7
			c-0.2-0.1-0.3-0.1-0.5-0.2c-0.7-0.1-1.3,0.1-2,0.3c-0.2,0.1-0.2,0.2,0,0.3c0.1,0,0.2,0.1,0.2,0.1
			C541.2,490.7,542.2,490.4,542.8,489.7z M540.7,494.9c-0.3-0.5-0.6-0.7-1.1-0.8c-0.5-0.1-0.9,0-1.2,0.3c-0.1,0.1-0.2,0.2-0.2,0.3
			c0,0.1,0.2,0.2,0.3,0.2c0.2,0,0.5,0,0.7,0.1C539.7,494.9,540.1,494.9,540.7,494.9z M521.2,512.6c-0.1-0.1-0.1-0.1-0.2-0.2
			c-0.1-0.1-0.1-0.1-0.2-0.1c-0.3-0.2-0.4-0.2-0.5,0.1s-0.2,0.6-0.3,0.9c-0.1,0.2,0.2,0.4,0.4,0.3c0.3-0.1,0.5-0.3,0.8-0.5
			C521.4,513,521.4,512.8,521.2,512.6z M546.8,490.8c0.2-0.2,0.3-0.4,0.4-0.7c0.1-0.2,0-0.3-0.2-0.4c-0.2,0-0.4,0-0.6,0
			c-0.7,0.1-0.8,0.3-0.4,0.9l0,0C546.3,491.1,546.4,491.1,546.8,490.8z M519,512.1c-0.1,0.3-0.2,0.5-0.2,0.7c0,0.1-0.1,0.3-0.1,0.4
			c0,0.2,0.1,0.4,0.3,0.4c0.1,0,0.4,0,0.4-0.1C519.7,513.1,519.5,512.4,519,512.1z M545.9,488.6c0.2,0.5,0.5,0.6,1.1,0.6
			c0.4,0,0.4-0.1,0.3-0.4c-0.1-0.2-0.2-0.3-0.5-0.3S546.2,488.6,545.9,488.6z M539.6,490.8c0.4,0.4,1.5,0.6,1.9,0.3
			C541,490.8,540.3,491,539.6,490.8z M522.1,506.3c0,0.7-0.1,1.3,0,1.9C522.4,507.7,522.4,506.8,522.1,506.3z M527.8,483.5
			c-0.3,0-0.6,0.3-0.6,0.5c0,0.3,0.1,0.5,0.4,0.7C527.6,484.3,527.7,483.9,527.8,483.5z M516.7,494.4c0-0.4,0-0.8,0-1.3
			c-0.3,0.1-0.5,0.3-0.5,0.6C516.2,494,516.4,494.2,516.7,494.4z M533.6,494.9c-0.6-0.3-1.1-0.6-1.7-0.4c0.1,0.1,0.2,0.2,0.4,0.2
			C532.7,494.8,533.1,494.8,533.6,494.9z M526.9,500.7c0-0.4,0-0.9,0-1.4c0-0.1-0.1-0.2-0.2-0.4
			C526.5,499.6,526.7,500.2,526.9,500.7z M526.1,495.9C526.1,495.9,526.1,495.8,526.1,495.9c-0.2-0.1-0.4,0-0.5,0v0.3
			c0.2,0,0.3,0.1,0.4,0C526.1,496.2,526.1,496,526.1,495.9z"/>
		<path class="st0" d="M519,512.1c0.5,0.3,0.7,1,0.4,1.5c-0.1,0.1-0.3,0.1-0.4,0.1c-0.2,0-0.3-0.2-0.3-0.4c0-0.1,0-0.3,0.1-0.4
			C518.9,512.5,518.9,512.3,519,512.1z"/>
	</g>
</g>
</svg>
