<?xml version="1.0" encoding="utf-8"?>
<!-- Generator: Adobe Illustrator 22.1.0, SVG Export Plug-In . SVG Version: 6.00 Build 0)  -->
<svg version="1.1" id="Calque_1" xmlns="http://www.w3.org/2000/svg" xmlns:xlink="http://www.w3.org/1999/xlink" x="0px" y="0px"
	 viewBox="0 0 841.9 604.3" style="enable-background:new 0 0 841.9 604.3;" xml:space="preserve">
<style type="text/css">
	.st0{fill:#1D1D1B;}
	.st1{fill:#FDC99A;}
</style>
<g>
	<g>
		<path d="M386.4,214.9c-0.8-4-0.2-7.8,1.6-11.5c0.2-0.4,0.2-0.7,0.1-1.1c-0.1-0.4-0.1-0.9-0.1-1.3c0.1-1.3,1.4-2.4,2.8-2.3
			c1.4,0.1,2.4,1.3,2.4,2.7c0,1.6-1.1,2.6-2.7,2.6c-0.3,0-0.6,0.2-0.7,0.3c-2.1,3.3-2.9,6.7-2,10.5c0.1,0.4,0.3,0.6,0.7,0.7
			c2.5,0.7,3.5,2,3.4,4.4c2.9-0.2,5.4,0.7,7.7,2.4c1.1-2.4,3-4,5.1-5.4c5-3.2,9.9-6.6,14.9-9.9c3.5-2.3,7.3-4,11.3-5
			c2.1-0.6,4.4-0.8,6.5-0.9c2.2-0.2,4.1,0.5,5.7,2.1c1.9,1.8,2.2,5.5,0.6,7.9c-0.6,1-1.3,1.9-2,2.8c-1.8,2.1-4.2,3.8-6.8,5.1
			c-1.1,0.6-1.7,1.5-2,2.6c-0.7,2.5-2.4,4.1-5,4.8c-1.4,0.4-2.9,0.6-4.5,0.7c-0.6,0.1-1.1,0.1-1.7,0c-1.2-0.3-1.4-0.3-2.1,1
			c-0.9,1.6-2.2,2.7-4,3c-0.2,0-0.5,0-0.6,0.1c0.7,0.5,1.3,1.2,2,1.8c6.5,6.5,9.5,14.3,8.8,23.5c0,1-0.3,1.5-1.4,1.6
			c-2.4,0.3-4.8,0.5-7.1,0.4c-6.8-0.3-12.8-2.7-17.9-7.4c-0.4-0.4-0.8-0.9-1.4-1.3c-0.2,1.7-0.7,3.2-2,4.1c-1.3,1-1.6,2.1-1.3,3.8
			c0.5,1.4,0,3.1-0.1,4.7c-0.4,3.2-2,5.6-5.1,6.7c-0.4,0.1-0.8,0.7-1.1,1.1c-0.3,0.6-0.6,1.3-0.9,2c-1.1,2.7-2.8,5.1-4.8,7.1
			c-0.9,1-2.1,1.8-3.5,2.4c-1.9,0.8-5.7,0.3-7.1-1.8c-1-1.4-1.7-3-1.7-4.7c-0.2-2.3-0.2-4.5,0.1-6.8c0.5-3.7,1.6-7.2,3.3-10.5
			c3.1-6.1,6.4-12.2,9.8-18.3c0.6-1.1,1.4-1.9,2.3-2.8c0.5-0.5,1-1,1.6-1.4c-2-2-3.2-4.6-3.3-7.4c-2.4,0.6-4.1-1-5-4.1
			c-3.6-0.4-6.8,0.5-9.8,2.6c-0.5,0.3-0.7,0.6-0.6,1.3c0.2,1.1-0.6,2.3-1.6,2.7c-1,0.4-2.3,0.1-3-0.9s-0.7-2.1-0.1-3.1
			c0.5-1,1.7-1.5,2.8-1.1c0.4,0.2,0.7,0.2,1.1-0.1c2.8-1.9,6-2.9,9.5-2.8c0.6,0.1,1,0.1,1.6,0.1c0.7-4.1,3.7-7.2,7.8-7.9
			C386.9,214.7,386.9,214.6,386.4,214.9z M378,261.2c-0.2-0.7-0.7-1.2-1.3-1.8c-0.3-0.3-0.8-0.1-0.9,0.3c-0.3,0.6-0.5,1.1-0.6,1.7
			c0,0.2,0,0.6,0.1,0.9c0.7,1.5,1.4,2.9,2.3,4.3c0.2,0.2,0.2,0.2,0.3,0.3c0.6-0.5,0.3-1,0.3-1.6c-0.1,0-0.1-0.1-0.1-0.1
			C378.1,263.9,378.1,262.6,378,261.2z M398.2,239.9c0.7,1,1.4,2.1,2.1,3.1c0.1,0-0.2,0.5-0.3,0.6c-0.4,0.4-0.8,1-1.4,1.4
			c0.8,0.9,1.5,1.6,2.4,2.6c0.6-0.5,1.1-1.1,1.7-1.8c0.9,0.9,1.7,1.7,2.7,2.6c-0.4,0.5-1,1.1-1.7,1.8c1.2,0.8,2,1.4,3,2.1
			c0.5-0.8,1.2-1.4,1.8-2.1c1.1,0.5,2.2,1,3.5,1.6c-0.7,0.7-1.3,1.2-2,2.1c1.4,0.3,2.9,0.7,4,1c0.7-0.7,1-1.2,1.6-1.8
			c0.1-0.1,0.3-0.1,0.4-0.1c1.4,0.3,2.7,0.4,4.1,0.7c-0.4,0.5-0.9,1-1.3,1.4c0,0.2,0,0.2,0,0.3c1,0,2,0,3-0.3c0.3,0,0.7-0.7,0.7-1.1
			c0.1-1,0-1.8,0-2.7c-1.6-0.4-3-0.7-4.4-1c1.1-1.2,1.8-2.8,3.4-3.5c-0.4-1.3-0.8-2.6-1.4-4c-0.4,0.3-0.6,0.6-0.7,0.7
			c-1.6,1.7-3.1,3.4-4.7,5.1c-0.1,0.2-0.6,0.4-0.7,0.3c-1-0.4-2-0.8-3.1-1.4c2.4-2.7,4.8-5.4,7.2-8.1c-0.7-0.9-1.4-1.7-2.3-2.7
			c-2.7,2.9-5.2,5.8-7.8,8.6c-0.9-0.9-1.7-1.7-2.7-2.6c2.7-2.8,5.2-5.7,7.8-8.5c-1-0.7-1.8-1.4-2.8-2.1c-2.4,2.5-4.6,5.2-7.2,7.9
			c-0.7-1.2-1.2-2.2-1.8-3.3c0-0.1,0.2-0.6,0.3-0.7c1.4-1.7,2.9-3.4,4.5-5.1c0.2,0,0.2-0.2,0.3-0.3c-0.1-0.2-0.1-0.2-0.1-0.3
			c-0.6,0.2-1.2,0.3-1.6,0.6c-2.6,1.7-4.9,3.8-6.9,6.2c-1,1.1-1.4,2.8-1.1,4.1C397.1,240.8,397.5,240.2,398.2,239.9z M382.4,246.8
			c-1.9,3.1-3.7,6.3-5.4,9.6c-0.2,0.2-0.2,0.8-0.1,1.1c0.1,0.6,0.4,1,0.7,1.6c0.4,0.5,1,0.7,1.4,0.1c0.5-0.8,1.3-1.5,1.4-2.4
			c0.6-2.6,1.8-4.7,2.7-7.1c0.7-1.7,1.2-3.4,1.6-5.1c0,0,0-0.2,0-0.3c-0.2,0-0.2,0-0.3-0.1C383.8,245.1,383.1,245.8,382.4,246.8z
			 M412.9,216.7c1.5-0.9,2.9-1.9,4.5-2.6c1.2-0.5,2.2-0.8,3.3-1.4c0.7-0.3,1.4-0.8,2-1.4c0.6-0.4,0.3-1-0.3-1.3
			c-0.5-0.1-1-0.4-1.6-0.4c-0.5-0.2-1.1,0-1.4,0.1c-3.8,2.4-7.6,5-10.9,8.1c-0.2,0.1-0.2,0.3-0.3,0.4c0.1,0,0.1,0.1,0.1,0.1
			C409.9,217.8,411.4,217.4,412.9,216.7z M435,212.1c-1.6,0-3,0-4.4,0c-1,0-2.2,1.1-2.1,2.1c0.1,0.6,0.5,1.4,1.1,1.7
			c0.8,0.5,1.7,0.6,2.6,0.9c0.7,0.3,1.3,0.1,2-0.3c1-0.7,1.8-1.1,2.8-1.7c0.8-0.6,0.8-1,0.1-1.7c-0.2,0-0.2,0-0.3-0.1
			c0.1,0,0.1-0.1,0.1-0.1C436.2,212.7,435.5,212.3,435,212.1z M380.9,267.3c0,1.3,0.3,2.7,0.3,4c0.1,1.2,0.8,1.9,1.7,2.6
			c0.5,0.5,1.1,0.3,1.4-0.4c0.4-1,0.9-2,1.3-3c0.2-0.3,0.3-0.7,0.3-1c-0.2-1.6-0.4-3.3-1.8-4.3c-0.9-0.8-1.6-0.6-2.3,0.1
			c-0.2,0-0.2,0.2-0.3,0.3c-0.2,0-0.2,0-0.3,0C381.1,266.2,381,266.6,380.9,267.3z M387.1,261.3c-0.3,1.7,0.2,3.1,1.1,4.4
			c0,0.3,0.5,0.3,0.6,0.3c0.5-0.3,1-0.5,1.4-0.6c2-1,2.4-2.6,1.1-4.4c-0.7-0.9-1.4-1.7-2.1-2.6C387.9,258.9,387.3,259.9,387.1,261.3
			z M422.7,220.8c0,0.2,0,0.5,0.1,0.6c0.9,0.6,1.8,1.3,2.7,1.7c1.8,1,2.9,0.5,3.8-1.3c0.2-0.2,0.2-0.5,0.3-0.6
			c0.6-1.5,0.6-1.7-1.1-2.1c-1.9-0.5-3.6-0.4-5.2,1.3C423.2,220.5,422.9,220.7,422.7,220.8z M392.8,245.6c0,1-0.4,1.9-1,2.6
			c-1,1.3-0.8,3.2,0.1,4.3c0.9,0.9,2,0.9,2.6-0.1c0.3-0.4,0.8-0.9,0.9-1.3c0.2-0.4,0.3-1,0.3-1.4c0-1.1-0.3-2.1-0.6-3.1
			c-0.1-0.3-0.4-0.5-0.7-0.6c-0.4-0.1-0.8-0.4-1.4-0.7C392.9,245.6,392.9,245.6,392.8,245.6z M410.3,227c0.1,0.3,0.4,0.5,0.4,0.6
			c0.1,1,0.7,1.1,1.4,1.1c0.9,0,1.7,0.1,2.6,0.1c0.2,0,0.2,0,0.3,0c1,0,2.8-1.7,2.8-2.6c0-0.4-0.3-0.8-0.6-1.1c-1.1-1-3-1-4.1,0
			c-0.8,0.7-1.7,1.1-2.8,1.1c-0.1,0-0.1,0-0.4,0.1C410.1,226.6,410.3,226.9,410.3,227z M390.3,219.5c0.7-0.8,0.6-1.4-0.3-2.1
			c-2.4-1.8-5.9-1.3-7.5,1.3c-0.4,0.7-0.8,1.4-1.1,2.1c0.2,0,0.2,0,0.3,0.1c0.3-0.3,0.4-0.6,0.7-1c1.4-1.8,3-1.7,4.1,0.3
			c0.7,1.1,0.5,2.2,0.1,3.5C387.8,222.2,389,221,390.3,219.5z M385.6,242.9c-0.3,1.4-0.6,2.8-1,4.1c-0.9,2.6-1.8,5.1-2.7,7.7
			c-0.1,0.7-0.1,1.4-0.1,2.1c1.2-1,2.4-2,2.8-3.7c0.6-2.2,1-4.6,1.6-6.9c0.3-1.5,0.7-2.9,1-4.5c0.1-0.3,0.1-0.4,0.1-0.7
			c0-0.1-0.1-0.1-0.1-0.1C386.6,241.5,385.9,241.9,385.6,242.9z M409.9,219.4c2.1-0.5,4.3-1.2,6.4-1.8c2-0.4,3.1-1.7,4-3.5
			c-0.7,0.3-1.4,0.3-2,0.6c-2.7,1.4-5.4,2.9-8.4,3.8c-0.9,0.3-1.7,0.6-2.6,0.9c-0.8,0.2-1.5,0.8-2.1,1.8
			C406.9,220.7,408.6,220.3,409.9,219.4z M396.5,232c-3.5,2.8-5.8,2.7-9.2-1c-0.5-0.5-0.8-1.2-1.4-1.8c0,0.3,0.1,0.6,0.1,0.9
			c0.6,2,1.7,3.7,3.4,5c1.3,1,2.6,1,4,0.4c2.1-0.9,3.7-2.6,5.1-4.3c0.6-0.7,1.2-1.4,1.6-2.3c0.1,0,0.1,0,0,0
			C398.9,230,397.8,231.2,396.5,232z M388.3,248.7c0.3-0.7,0.5-1.3,0.6-2c0.3-2.1,0.6-4.3,0.9-6.4c0-0.1-0.2-0.4-0.3-0.7
			c-0.2,0.3-0.5,0.3-0.6,0.6c-0.7,1.4-1.1,3-1.4,4.7c-0.3,1.6-0.6,3-0.9,4.4c0,0.3-0.1,0.6-0.1,0.9
			C387.5,250.2,388,249.4,388.3,248.7z M429.1,208.6c-1.2-0.4-2.2-1-3.3-1.4c-0.5-0.1-1-0.1-1.6,0c-0.4,0-0.9,0.5-1.3,0.6
			c-0.6,0.2-0.6,0.6-0.3,0.9c0.8,0.9,1.5,1.4,2.8,1.3c1.2-0.1,2.5-0.1,3.8-0.1c0.4,0,1,0,1.1-0.7
			C429.7,208.9,429.4,208.8,429.1,208.6z M412.5,220.3c-2,0.5-4,1.1-5.8,1.8c-0.9,0.3-1.6,0.9-2.3,1.3c-0.1,0-0.1,0.3-0.1,0.4
			c0.1,0,0.3,0.1,0.4,0.1c2.6-0.7,5.1-1.3,7.7-2c0.6-0.3,1.1-1,1.7-1.6c0.2-0.2,0.2-0.5,0.3-0.9C413.5,219.7,413,219.8,412.5,220.3z
			 M386.5,265c-0.1-1.1-0.4-2.4-0.4-3.5c-0.1-1.1,0.3-1.9,1-2.8c0.3-0.3,0.5-0.7,0.6-1c-0.1,0-0.1-0.1-0.1-0.1
			c-0.7,0.1-1.6,0.1-2.3,0.4c-0.7,0.3-1,0.9-1,1.6c0,1.7,0,3.5,0.9,5.1c0.4,0.9,0.7,1.6,1.1,2.3c0.2,0,0.2,0,0.3,0
			C386.6,266.4,386.6,265.7,386.5,265z M378.8,272.7c0.4-0.4,0.9-0.7,1.3-1.1c0.1-0.4,0.4-0.7,0.4-1c0-0.7,0-1.4,0-2.1
			c0-0.6-0.4-0.9-1-0.9c-1.3-0.1-2.2,0.6-2.3,1.7c-0.2,1,0,1.9,0.1,2.8c0,0.3,0.1,0.5,0.1,0.6C377.8,273.1,378.1,273.2,378.8,272.7z
			 M436,209.5c0.5-0.6,0.3-1.2-0.4-1.3c-1.2-0.4-2.7-0.3-3.8,0.3c-0.7,0.3-1.2,2-0.6,2.6c0.1,0.3,0.4,0.4,0.7,0.4
			c0.7,0,1.4-0.2,2-0.3c0.6-0.1,1-0.6,1.6-1l-0.1-0.1C435.5,209.8,435.8,209.5,436,209.5z M426,216.2c-0.7,0-1.4,0-2.3,0.1
			c-1,0.2-1.5,0.6-1.6,1.6c-0.2,0.6-0.2,1.1-0.3,2c0.4-0.3,0.7-0.4,1-0.7c1.2-1.1,2.4-1.5,4-1.4c1,0.2,1.8,0.3,2.8,0.3
			c0.5,0,1-0.1,1.4-0.1c0-0.2,0-0.2,0-0.3C429.3,217.3,427.7,216.1,426,216.2z M414.3,222.2c0.9,0.4,1.7,1,2.7,1.3
			c0.4,0.3,1,0.2,1.4-0.1c0.9-0.4,1.8-1.1,2.7-1.7C419.5,220.4,415.8,220.8,414.3,222.2z M392.3,224.5c0.7,0.3,1.4,0,1.8-0.7
			c0.5-0.5,0.5-1.5-0.1-2.1c-1-1.2-2.8-1.2-3.7,0.1c-0.4,0.6-0.3,1.1,0.6,2C391.2,223.9,391.6,224.4,392.3,224.5z M389.5,256.5
			c0.6-1.2,1.2-2.4,1.6-3.5c0.1-0.2,0.1-0.5,0-0.6c-0.5-0.8-1-1.8-1.6-2.8C388,251.4,388,255.3,389.5,256.5z M390.3,249
			c1.4-1.1,1.5-2.4,1.4-3.7c-0.3-2-0.6-4-1-5.8C389.9,242.5,389.9,245.6,390.3,249z M427.5,206.4c0.9,0.9,1.6,1.1,2.6,1
			c0.9-0.2,1.6-0.5,2.3-0.6c1.5-0.4,3.2-0.7,4.8-1.1c0-0.2,0-0.2,0-0.3C434.1,204.9,430.8,205.4,427.5,206.4z M420.3,216.4
			c-0.9,1.1-2.2,1.8-3.5,2.4c-0.1,0.2-0.3,0.2-0.4,0.3c-0.3,0.3-0.4,0.6-0.7,1c0.3,0.1,0.7,0.1,1,0.1c1-0.2,2-0.2,3-0.3
			c0.3,0,0.6-0.2,0.7-0.3c0.4-1.1,0.7-2.4,1-3.5c-0.2,0-0.2,0-0.3-0.1C420.8,216.1,420.5,216.3,420.3,216.4z M404.1,224.5
			c0,0.2,0,0.2,0,0.3c0.6,0,1,0,1.6,0c1,0.2,2,0.2,3,0.3c1.5,0.2,2.8,0.1,4.1-0.9c0.2,0,0.2-0.2,0.3-0.3c0,0,0.2-0.1,0.3-0.4
			C410,223.2,406.9,223.5,404.1,224.5z M427.5,210.6c-1.5,0.5-2.9,1-4.3,1.6c-0.4,0.3-0.4,0.6,0,0.9c0.3,0.3,0.7,0.4,1,0.4
			c1.7,0.2,3.2-0.1,4.3-1.4c0.3-0.3,0.6-0.6,0.9-0.9c0-0.2,0-0.2,0-0.3C428.8,210.8,428.3,210.5,427.5,210.6z M419.6,224
			c-0.3,0.6-0.2,0.9,0.4,1c0.2,0,0.5,0,0.6,0c1.6-0.1,3.3-0.3,5-0.4C424.3,222.4,420.9,222.1,419.6,224z M387.3,255.8
			c0.1,0,0.1-0.3,0.1-0.4c0.1-1.2,0-2.5,0-3.8c0-0.1,0-0.1-0.1-0.4c-0.3,0.6-0.8,0.9-0.9,1.3c-0.4,1.4-1,3-2.4,4
			c-0.2,0.2-0.2,0.6-0.3,0.9c0,0.2,0,0.2,0.1,0.3C384.9,257.2,386.2,256.7,387.3,255.8z M375.9,268c0.3-1.1-0.1-2.1-1-2.8
			c-0.9,1.3-0.9,6.8,0,9.2C375.1,272.3,375.6,270,375.9,268z M381.3,260.6c0-0.2-0.2-0.5-0.3-0.6c-0.3-0.5-0.8-0.3-0.9,0.1
			c-0.6,1.7-1.1,3.3-1,5c0.1,0.2,0.3,0.7,0.4,1.1C381.2,264.7,382.1,262.2,381.3,260.6z M392.5,257.4c0-0.7,0-1.2-0.1-1.8
			c0-0.3-0.3-0.7-0.4-0.7s-0.6,0.1-0.7,0.4c-0.7,1-1,2-0.7,3.1c0.4,1.1,1,2,2.1,2.7C392.7,259.6,392.7,258.5,392.5,257.4z
			 M439.5,212.6c0.4-0.6,0.9-1.3,1.3-2c0.3-0.6-0.1-1.1-0.7-1c-0.7,0.1-1.6,0.4-2.3,0.7c-0.7,0.3-0.7,0.7-0.3,1.4
			c0,0.1,0.2,0.3,0.3,0.4c0,0.3,0.1,0.5,0.4,0.6C438.5,213.2,439,213.2,439.5,212.6z M381.6,274.3L381.6,274.3c-1.4-1-2.2-0.7-2.3,1
			c0,0.6,0,1.2,0,1.6s0.3,0.7,0.9,0.4c0.6-0.2,1.1-0.7,1.7-1.1C382.7,275.2,382.7,275.1,381.6,274.3z M440.6,208.5
			c0.1,0,0.1-0.7,0.1-1c0-0.6-0.4-1-1-0.9c-0.4,0-0.8,0-1.1,0.1c-0.5,0-1.1,0.3-1.8,0.4C437.6,208.5,439.3,209.1,440.6,208.5z
			 M376.2,276.5c-0.2,0.8,0.1,1.3,0.7,1.4c0.8,0.1,1,0.1,1.1-0.9c0.2-1.7-0.3-2.4-1.4-3C376.4,274.8,376.3,275.5,376.2,276.5z
			 M383.1,263.2c0.7-1.2,0.4-4-0.7-5C382.7,260.1,382.4,261.6,383.1,263.2z M426.8,214.7c-1.7-0.3-3.1,0-4.8,0
			C423.3,215.6,425.7,215.6,426.8,214.7z M367.5,227.4c-0.3-0.7-1-1.1-1.7-1c-0.7,0.2-1.3,0.7-1.4,1.6
			C365.5,227.9,366.6,227.6,367.5,227.4z M390.6,199.3c-0.7,0.2-1.1,0.4-1.4,1.3c1,0,2,0,3.1,0C392,199.7,391.4,199.3,390.6,199.3z
			 M392.6,239.9c0-0.4-0.3-0.7-0.6-1c-0.4,1.6,0.1,2.9,1,4.3C392.9,241.9,392.7,240.9,392.6,239.9z M403.6,226.1
			c0.3,0.1,0.6,0.4,0.9,0.4c1.1,0,2.3,0,3.4,0C406.6,225.9,405.2,225.5,403.6,226.1z M396.5,224.4c0.1-0.2,0-0.7,0-1.1
			c0-0.1-0.6-0.1-0.7,0c-0.2,0.2-0.2,0.7-0.3,1.1c0.2,0,0.2,0,0.3,0.1C396.1,224.4,396.5,224.4,396.5,224.4z"/>
		<path d="M438.5,206.4c0.4,0,0.8-0.1,1.1-0.1c0.6,0,1,0.3,1,0.9c0.2,0.3,0,0.9-0.1,1c-1.3,0.7-3,0.3-3.7-1.1
			C437.5,207.1,438.1,206.8,438.5,206.4z"/>
	</g>
	<g id="solghn_3_">
		<g>
			<path class="st0" d="M591.9,119c1.1,2.1,1.7,5.1,3.4,6.2c12.4,7.6,24.5,15.4,37.3,22.2c16.5,8.6,34.4,8.2,52.3,6.9
				c17.9-1.3,34.6,1.4,51.3,8.5c13.2,5.5,27.5,8.5,41.7,11.3c12.5,2.5,25.2,3.4,38.7,5.1c0,5.8,0,11.4,0,16.9
				c0,11.2-1.2,12.2-12.5,11.3c-21.4-1.4-41.5-7.5-60.8-16.7c-13.2-6.4-26.5-12.9-40.4-17.9c-8.3-3.1-17.7-3.2-26.6-4.8
				c12.7,18.5,25.9,34.5,38.5,50.9c2.7,3.4,3.7,8,5.7,12c3.7,7.4,6.9,15,11.2,22.1c5,8.1,7.1,16.5,6.7,26.1
				c-0.2,4.7,0.7,10.4,3.3,13.9c8.7,11.6,10,23.6,5.7,37.1c-0.7,2.2-0.4,5.4,0.9,7.4c6.5,10.7,7.8,22.1,5.1,33.9
				c-1.6,6.5-1.3,12.2,1,18.4c7.4,21.1,1.4,38.4-17,51.6c-1.3,1-2.5,2.3-3.1,3.7c-4.2,10.9-13.2,16.3-23.5,19.7
				c-32.3,10.6-65.3,16.1-99.3,16.4c-28.3,0.1-49.1-11.5-62.6-36.6c-1.2-2.3-3.2-4.6-5.5-5.7c-17.9-9-25.1-31.3-15.9-49.2
				c1.1-2,1.4-5.1,0.7-7.2c-4.8-14.9-6-29.3,4.1-42.8c1-1.5,1.3-4.3,0.6-6c-6.8-16.5-3.6-30.9,7.9-44.1c1.2-1.3,3-3.6,2.6-4.7
				c-5.1-14.7,3.4-25.1,10.8-36c1.3-1.9,2.7-4.2,2.6-6c-1.1-14.9,7.4-23.6,18.6-31.3c2.2-1.6,4.4-5,4.8-7.8
				c2-11.4,7.7-20.8,16.3-28.3c2.5-2.2,5.3-4.2,8.6-6.9c-24-4.4-23.8-4-46.2,1.8c-10.2,2.5-20.8,3.2-31.3,4.1
				c-3.4,0.3-7.1-1.9-12.5-3.5c17.7-4.1,33-7.5,50-11.5c-7.2-4.2-11.7-6.9-16.4-9.6c4.4,1.6,8.7,3.4,13.2,4.3
				c2.1,0.4,4.5-1.1,6.8-1.7c15.4,6.8,48.1,7.8,53.8,1.1c-1.3-1.5-2.4-3.7-4.1-4.8c-27.8-17.9-55.8-35.2-90.7-19
				c-1.5,0.7-3.2,1.3-4.8,1.4c-6.5,0.6-8.5,4.7-9.2,10.5c-0.7,5.8-2.3,11.6-3.4,17.4c-0.6-0.2-1-0.2-1.6-0.3
				c1.3-7.5,2.4-15,3.7-22.8c-7.5,0-14.3,0-21.1,0c-12,0-15-1.4-17.4-9.1c13.1,5.1,25.5,2.7,38-0.6c16.2-4.2,32.4-8.6,48.6-13
				c-9.6-9-20.1-19.1-30.6-29c0.7-0.7,1.4-1.6,2.1-2.3c18.6,12.8,33.3,31.6,56.7,39.4c-0.8-3.2-1.4-4.9-1.8-6.7
				C588.7,116.1,590.5,117.4,591.9,119z M622.6,407.2c-28.2,3.5-55.4-2.3-82.5-9.1c-1.4-0.5-3.1-0.6-5.4-0.9
				c-0.6,12.6,3.5,23.3,9.5,33.4c1.4,2.3,5.5,3.4,8.6,4.4c28.5,9.1,58,10.5,87.6,10.1c26.9-0.4,54-1.8,80.9-3.1
				c19.2-0.8,35.7-26.9,28.6-44.9c-3.2-8.2-10.3-8.8-17.4-7.8c-11.9,1.9-23.5,4.6-35.3,6.7c-13.8,2.6-27.9,4.8-41.9,7.1
				c-2.8,0.4-5.9,0-8.9,0c26.1-5.5,52.1-10.9,78.2-16.3c2.1-0.4,4.6-0.7,6.4-1.7c5.4-2.8,13-5,15-9.5c4.1-9.5,2.7-19.9-4.8-28.1
				c-9.6-10.6-22.7-13.9-36-15.6c-43.5-5.8-87.3-4.4-130.8,0c-9.5,1-18.7,5.1-27.9,8.2c-7.2,2.4-10.7,7.8-11.6,15.6
				c-2.4,23.4,4.4,39.7,29.6,43.4c27.5,3.9,54.7,7.2,82.3,3.5C638.9,404,630.8,405.7,622.6,407.2z M711.3,286.5
				c-29.3-2.3-58.8-6.2-88.1-6.1c-23.6,0.2-47.4,5.3-71.1,8.4c-1.7,0.2-3.7,1.3-5,2.6c-7.7,7.5-11.1,25.5-6.7,35.3
				c2,4.7,4.4,6.4,10.2,5.1c39.1-8.8,78.9-8.7,118.7-6.1c22.7,1.4,45.3,3.7,68,5.5C742,312.5,737.8,288.5,711.3,286.5z M693.9,242.7
				c-40.7-2.5-81.2,0.8-121.6,5.2c-13.3,1.4-23.4,18.1-19.1,30.9c0.7,2,5.2,3.8,7.8,3.7c7.9-0.5,15.8-2.2,23.9-3.1
				c44.3-4.5,88.5-0.7,132.6,4c4.4,0.6,8.8,0.9,13.9,1.3C729.8,251.3,716.7,244,693.9,242.7z M682,208.1
				c-22.2-1.5-44.5-1.1-66.7-1.1c-6.8,0-13.9,1-20.7,2.1c-18.8,3.3-29,15.3-29.6,35.6c50.1-4.2,99.9-8.6,150.8-2.8
				C713.4,225.6,698.4,209.3,682,208.1z M562.4,446c2.5,15.4,14.9,25.9,31.3,29.3c22.3,4.5,43.8,0.9,65.5-2.6
				c14.8-2.5,29.5-5.5,43.8-9.6c9.8-2.8,18.3-8.9,23-17.1C671.3,446,616.9,446,562.4,446z M697,205.5c-3.3-4.7-6-9-9.1-12.8
				c-2.6-3.3-5.9-5.8-8.6-9.1c-8.4-10.2-17.7-15.7-31.6-9.9c-4.5,2-11.1,0.4-16.3-0.7c-9.4-2.1-18.3-6.3-27.5,1.4
				c-10.5,8.6-16.3,18.4-16.9,31C623.6,205.4,659.4,205.4,697,205.5z"/>
			<g>
				<path class="st1" d="M647.1,402.3c-27.6,3.7-55,0.5-82.3-3.5c-25.2-3.7-32-19.9-29.6-43.4c0.7-7.7,4.2-13.2,11.6-15.6
					c9.2-3.1,18.4-7.2,27.9-8.2c43.5-4.4,87.3-5.8,130.8,0c13.2,1.7,26.4,5,36,15.6c7.5,8.4,8.9,18.7,4.8,28.1
					c-2,4.5-9.8,6.7-15,9.5c-1.9,1-4.3,1.3-6.4,1.7c-26.1,5.5-52.1,10.9-78.2,16.3C646.7,402.8,646.8,402.6,647.1,402.3z
					 M611.9,335.2c-14.9,13.1-15.9,40.4-3,61.4c-3.1-2-6.3-3.9-9.8-6c10.2,13.7,23.1,14,32.9,1.1c11.2-14.6,8.2-43.3-5.8-55.1
					c-4.8-4-10-7.2-17.7-2.7C610.2,334.6,611.1,334.9,611.9,335.2z"/>
				<path class="st1" d="M646.5,402.6c2.9,0,5.9,0.4,8.9,0c14-2.3,27.9-4.5,41.9-7.1c11.8-2.2,23.5-5,35.3-6.7
					c7.1-1,14.1-0.4,17.4,7.8c7.1,18-9.3,44-28.6,44.9c-26.9,1.3-54,2.7-80.9,3.1c-29.6,0.4-59.1-1-87.6-10.1c-3.1-1-7.2-2-8.6-4.4
					c-5.8-10-10.1-20.8-9.5-33.4c2.3,0.5,3.8,0.5,5.4,0.9c27.1,6.8,54.3,12.6,82.5,9.1c8.1-1,16-2.7,24.1-4.1
					C646.8,402.6,646.7,402.8,646.5,402.6z"/>
				<path class="st1" d="M669.2,325.8c-39.8-2.5-79.4-2.7-118.7,6.1c-5.8,1.3-8.2-0.4-10.2-5.1c-4.4-9.9-1.1-27.9,6.7-35.3
					c1.3-1.2,3.3-2.3,5-2.6c23.6-3.2,47.3-8.3,71.1-8.4c29.3-0.1,58.8,3.8,88.1,6.1c26.4,1.9,30.6,25.9,26.1,44.6
					C714.8,329.4,692.1,327.1,669.2,325.8z"/>
				<path class="st1" d="M717.5,283.5c-44.2-4.9-88.2-8.5-132.6-4c-7.9,0.8-15.8,2.5-23.9,3.1c-2.7,0.1-7.1-1.7-7.8-3.7
					c-4.3-12.8,5.9-29.5,19.1-30.9c40.4-4.3,80.8-7.6,121.6-5.2c22.8,1.2,36.1,8.6,37.5,41.9C726.1,284.2,721.8,283.9,717.5,283.5z"
					/>
				<path class="st1" d="M565.1,244.6c0.6-20.3,10.8-32.3,29.6-35.6c6.8-1.1,13.8-2.1,20.7-2.1c22.2,0,44.6-0.5,66.7,1.1
					c16.1,1.2,31.3,17.6,33.7,33.9C664.9,236.1,615.1,240.5,565.1,244.6z"/>
				<path class="st1" d="M703.1,463.1c-14.3,4.1-29.1,7.2-43.8,9.6c-21.7,3.6-43.4,7.1-65.5,2.6c-16.6-3.4-28.7-13.9-31.3-29.3
					c54.4,0,108.8,0,163.5,0C721.3,454.2,713,460.3,703.1,463.1z"/>
				<path class="st1" d="M604,174.3c9.2-7.5,18.1-3.5,27.5-1.4c5.2,1.1,11.8,2.5,16.3,0.7c13.9-5.8,23.1-0.2,31.6,9.9
					c2.6,3.1,6,5.8,8.6,9.1c3.1,4,5.8,8.3,9.1,12.8c-37.7,0-73.7,0-110.1,0C587.6,192.8,593.4,183,604,174.3z"/>
			</g>
			<path d="M626.2,336.6c13.9,11.7,16.9,40.5,5.8,55.1c-9.8,12.9-22.8,12.6-32.9-1.1c3.6,2.3,6.7,4.2,9.8,6
				c-12.9-21-11.9-48.4,3-61.4c-0.8-0.3-1.8-0.7-3.4-1.3C616.2,329.5,621.4,332.6,626.2,336.6z"/>
		</g>
	</g>
	<g>
		<path d="M572.9,375.9c-3.6-1.8-6.3-4.6-8.1-8.3c-0.2-0.4-0.4-0.6-0.8-0.8c-0.4-0.2-0.8-0.5-1.1-0.7c-1-0.9-1-2.6-0.1-3.6
			s2.5-1.1,3.6-0.2c1.3,1,1.4,2.5,0.4,3.7c-0.2,0.2-0.2,0.6-0.2,0.7c1.3,3.7,3.5,6.4,7.1,8c0.4,0.2,0.7,0.1,1-0.1
			c2.1-1.5,3.7-1.5,5.6,0c1.6-2.4,3.9-3.8,6.6-4.6c-1.2-2.3-1.3-4.8-1.1-7.3c0.5-5.9,0.9-11.9,1.3-17.8c0.3-4.2,1.3-8.2,3-12
			c0.8-2,2.1-4,3.3-5.7c1.2-1.9,2.9-2.9,5.2-3.2c2.6-0.4,5.7,1.6,6.6,4.4c0.4,1.1,0.7,2.2,1,3.3c0.6,2.7,0.4,5.6-0.1,8.5
			c-0.2,1.2,0.1,2.3,0.8,3.2c1.5,2.1,1.8,4.4,0.7,6.9c-0.5,1.4-1.3,2.7-2.2,4c-0.3,0.5-0.6,0.9-1,1.3c-1,0.8-1.1,0.9-0.5,2.3
			c0.7,1.7,0.8,3.4-0.1,5c-0.1,0.2-0.3,0.4-0.3,0.5c0.8-0.2,1.7-0.3,2.6-0.5c9.1-1.1,17.1,1.3,24,7.5c0.8,0.6,1,1.2,0.4,2.1
			c-1.2,2.1-2.6,4.1-4,5.9c-4.4,5.2-10,8.4-16.8,9.6c-0.6,0.1-1.2,0.1-1.9,0.3c1.2,1.2,2.1,2.5,2,4.1c0,1.6,0.7,2.6,2.2,3.4
			c1.4,0.5,2.4,1.9,3.6,3c2.3,2.3,3.2,5,2.2,8.1c-0.2,0.4,0.1,1.1,0.2,1.5c0.3,0.6,0.7,1.3,1,1.9c1.5,2.5,2.3,5.3,2.7,8.1
			c0.2,1.3,0.1,2.8-0.3,4.2c-0.5,2-3.3,4.7-5.8,4.5c-1.7-0.1-3.4-0.5-4.8-1.5c-1.9-1.3-3.7-2.6-5.3-4.3c-2.6-2.7-4.7-5.7-6.3-9
			c-2.9-6.2-5.7-12.5-8.4-19c-0.5-1.1-0.6-2.3-0.8-3.5c-0.1-0.7-0.2-1.4-0.1-2.1c-2.8,0.4-5.6-0.3-7.9-1.9c-1,2.3-3.3,2.6-6.3,1.4
			c-2.5,2.6-3.8,5.7-4,9.3c-0.1,0.6,0,0.9,0.7,1.3c1,0.5,1.4,1.9,1.1,2.9c-0.3,1-1.3,1.9-2.6,1.8c-1.2-0.1-2.1-0.7-2.5-1.8
			c-0.5-1-0.1-2.3,0.8-2.9c0.4-0.2,0.6-0.4,0.6-0.9c0.2-3.4,1.4-6.5,3.6-9.2c0.4-0.4,0.7-0.7,1.1-1.2c-2.8-3.1-3.4-7.3-1.5-11
			C573,375.4,572.9,375.3,572.9,375.9z M604.3,410.9c-0.7-0.3-1.4-0.2-2.2-0.1c-0.4,0.1-0.6,0.6-0.3,0.9c0.3,0.6,0.6,1.1,1,1.5
			c0.2,0.1,0.5,0.4,0.8,0.5c1.6,0.4,3.1,0.7,4.8,0.8c0.3,0,0.3,0,0.4-0.1c0-0.8-0.6-0.9-1.1-1.2c-0.1,0.1-0.1,0-0.1,0
			C606.5,412.5,605.4,411.7,604.3,410.9z M599.9,381.9c1.2,0.1,2.5,0.2,3.7,0.2c0.1-0.1,0.3,0.5,0.3,0.6c0.1,0.6,0.3,1.2,0.2,2
			c1.2-0.1,2.2-0.2,3.5-0.3c0-0.8-0.2-1.5-0.4-2.4c1.3-0.2,2.4-0.3,3.7-0.5c0.1,0.6,0.3,1.5,0.4,2.4c1.4-0.5,2.3-0.7,3.5-1.1
			c-0.3-0.9-0.4-1.8-0.6-2.7c1.1-0.6,2.1-1.1,3.4-1.8c0.1,1,0.1,1.8,0.4,2.9c1.1-0.9,2.3-1.9,3.2-2.5c-0.1-1-0.3-1.5-0.4-2.4
			c0-0.1,0.1-0.3,0.2-0.4c1.1-0.9,2-1.9,3.1-2.8c0.1,0.6,0.2,1.3,0.3,1.9c0.2,0.1,0.2,0.1,0.2,0.2c0.6-0.8,1.2-1.6,1.6-2.6
			c0.2-0.2-0.1-1-0.4-1.2c-0.7-0.7-1.4-1.1-2.1-1.7c-1.3,1-2.4,1.9-3.5,2.9c-0.3-1.6-1.1-3.1-0.7-4.8c-1.3-0.5-2.5-1-4-1.3
			c0,0.5,0.1,0.8,0.1,1c0.4,2.3,0.8,4.5,1.1,6.8c0.1,0.2-0.1,0.7-0.2,0.7c-0.9,0.5-1.9,1.1-3,1.6c-0.7-3.6-1.3-7.1-2-10.7
			c-1.1,0-2.2,0.1-3.5,0.2c0.6,3.9,1.4,7.7,2,11.4c-1.3,0.2-2.4,0.3-3.7,0.5c-0.6-3.9-1.3-7.6-1.9-11.4c-1.2,0.4-2.2,0.6-3.4,0.9
			c0.5,3.4,1.3,6.8,1.8,10.5c-1.4-0.2-2.5-0.4-3.7-0.6c-0.1-0.1-0.4-0.5-0.4-0.7c-0.5-2.1-0.9-4.4-1.3-6.7c0.1-0.2,0-0.3-0.1-0.4
			c-0.2,0-0.2,0-0.3-0.1c-0.2,0.6-0.5,1.1-0.5,1.6c-0.3,3.1,0,6.2,0.7,9.3c0.3,1.5,1.4,2.8,2.6,3.4
			C599.9,383.3,599.7,382.7,599.9,381.9z M595.6,398.6c1.3,3.4,2.7,6.8,4.3,10.2c0,0.3,0.5,0.6,0.8,0.8c0.5,0.3,1,0.3,1.7,0.4
			c0.6,0,1.2-0.4,0.9-1c-0.3-0.9-0.4-1.9-1-2.6c-1.7-2.1-2.6-4.3-3.9-6.5c-0.9-1.6-1.9-3-3-4.4c0,0-0.2-0.1-0.2-0.2
			c-0.1,0.2-0.1,0.2-0.3,0.2C595.1,396.5,595.2,397.5,595.6,398.6z M590.6,356.1c0.2-1.7,0.3-3.5,0.7-5.1c0.3-1.3,0.7-2.2,0.9-3.5
			c0.2-0.7,0.2-1.6,0.1-2.4c0.1-0.7-0.6-0.9-1.2-0.6c-0.4,0.3-0.9,0.5-1.3,1c-0.5,0.3-0.7,0.9-0.8,1.2c-0.4,4.5-0.7,9.1-0.3,13.6
			c0,0.2,0.1,0.3,0.1,0.5c0.1-0.1,0.1,0,0.1,0C589.6,359.1,590.2,357.7,590.6,356.1z M600.5,335.8c-1,1.3-1.8,2.4-2.7,3.5
			c-0.6,0.8-0.5,2.4,0.4,2.9c0.5,0.3,1.4,0.5,2,0.2c0.9-0.3,1.5-1,2.3-1.5c0.7-0.4,0.9-1,1-1.8c0.1-1.2,0.2-2.1,0.4-3.3
			c0-1-0.3-1.2-1.3-1.1c-0.1,0.2-0.1,0.2-0.3,0.2c0.1-0.1,0-0.1,0-0.1C601.7,335.2,601,335.5,600.5,335.8z M610.9,412.4
			c1,0.8,2.3,1.4,3.3,2.2c1,0.7,2,0.5,3.1,0.3c0.7-0.1,0.9-0.7,0.5-1.4c-0.5-0.9-1-1.9-1.6-2.9c-0.1-0.3-0.4-0.7-0.6-0.9
			c-1.4-0.8-2.9-1.7-4.5-1.2c-1.2,0.2-1.5,0.9-1.3,1.9c-0.1,0.2,0,0.3,0.1,0.4c-0.1,0.2-0.1,0.2-0.2,0.2
			C610.1,411.6,610.4,411.9,610.9,412.4z M609.9,403.8c1.2,1.3,2.6,1.7,4.1,1.8c0.2,0.2,0.5-0.2,0.6-0.3c0.1-0.6,0.2-1.1,0.4-1.5
			c0.4-2.2-0.6-3.5-2.8-3.6c-1.1,0-2.2,0.1-3.3,0.1C608.5,401.7,609,402.8,609.9,403.8z M599.8,350.9c0.2,0.1,0.4,0.3,0.5,0.3
			c1-0.3,2.1-0.6,3-1.1c1.9-0.8,2.2-2,1.3-3.8c0-0.3-0.3-0.5-0.3-0.6c-0.8-1.4-1-1.5-2.3-0.4c-1.6,1.2-2.5,2.6-2.2,4.9
			C599.9,350.3,599.9,350.6,599.8,350.9z M601,389.7c0.8,0.6,1.3,1.5,1.4,2.4c0.4,1.6,2,2.6,3.5,2.6c1.3-0.2,1.9-1,1.5-2.1
			c-0.1-0.5-0.2-1.2-0.5-1.5c-0.2-0.4-0.6-0.9-0.9-1.1c-0.9-0.7-1.8-1.1-2.8-1.4c-0.3-0.1-0.6,0-0.9,0.2c-0.3,0.3-0.8,0.4-1.4,0.7
			C601.1,389.6,601.1,389.6,601,389.7z M597.1,364.5c0.3,0.1,0.6,0,0.7,0.1c0.9,0.5,1.3,0.1,1.7-0.4c0.6-0.7,1.1-1.3,1.7-2
			c0.1-0.2,0.1-0.2,0.2-0.2c0.6-0.8,0.4-3.3-0.3-3.8c-0.3-0.2-0.8-0.3-1.2-0.2c-1.5,0.3-2.6,1.8-2.5,3.2c0.1,1.1-0.2,2-0.8,2.9
			c-0.1,0.1-0.1,0.1-0.2,0.4C596.7,364.4,597,364.4,597.1,364.5z M578.9,375.6c-0.2-1-0.7-1.3-1.8-1.1c-2.9,0.8-4.6,3.9-3.6,6.7
			c0.3,0.7,0.6,1.5,1,2.2c0.1-0.2,0.1-0.2,0.3-0.2c-0.1-0.4-0.2-0.7-0.4-1.2c-0.6-2.2,0.5-3.4,2.8-3.1c1.3,0.1,2,1,2.8,2.1
			C579.5,379.3,579.3,377.6,578.9,375.6z M594.5,393.7c0.9,1.1,1.8,2.2,2.6,3.3c1.5,2.3,2.9,4.6,4.4,6.9c0.5,0.5,1,0.9,1.6,1.4
			c-0.1-1.6-0.1-3.1-1.2-4.5c-1.4-1.8-3-3.6-4.5-5.5c-1-1.2-1.9-2.3-2.9-3.6c-0.2-0.3-0.3-0.3-0.5-0.5c-0.1-0.1-0.1,0-0.1,0
			C594,392.1,593.9,392.9,594.5,393.7z M590.8,360.1c0.9-2,1.7-4.1,2.5-6.2c0.9-1.8,0.6-3.5-0.3-5.3c-0.2,0.7-0.6,1.3-0.8,1.9
			c-0.6,3-1,6-2.2,9c-0.3,0.9-0.6,1.7-0.9,2.6c-0.3,0.8-0.3,1.7,0.1,2.8C590,363.3,590.8,361.7,590.8,360.1z M592.6,378.4
			c0.1,4.5-1.4,6.2-6.4,6.6c-0.7,0.1-1.4-0.1-2.3,0c0.2,0.2,0.5,0.3,0.8,0.5c1.9,0.8,4,0.9,6,0.4c1.6-0.4,2.4-1.4,2.8-2.9
			c0.6-2.2,0.2-4.5-0.3-6.7c-0.2-0.9-0.4-1.8-0.8-2.7c0.1-0.1,0.1-0.1,0,0C592.5,375.3,592.7,376.9,592.6,378.4z M600.7,395.1
			c-0.4-0.7-0.7-1.2-1.2-1.7c-1.5-1.5-3-3.1-4.5-4.6c-0.1-0.1-0.4-0.1-0.7-0.2c0.1,0.3-0.1,0.6,0.1,0.8c0.7,1.4,1.7,2.7,2.9,4
			c1.1,1.2,2,2.3,2.9,3.4c0.2,0.2,0.4,0.4,0.6,0.6C601.4,396.7,601.1,395.8,600.7,395.1z M594.1,338.3c-1.1,0.7-2.1,1.1-3.1,1.7
			c-0.4,0.3-0.7,0.7-1,1.3c-0.2,0.3-0.2,1-0.3,1.4c-0.2,0.6,0.1,0.8,0.5,0.8c1.2-0.1,2-0.3,2.7-1.4c0.7-1,1.5-2,2.3-3.1
			c0.2-0.3,0.6-0.8,0.1-1.3C594.7,338,594.4,338.2,594.1,338.3z M593.2,358.6c-0.8,1.9-1.6,3.8-2.1,5.7c-0.3,0.9-0.3,1.8-0.4,2.6
			c-0.1,0.1,0.2,0.3,0.3,0.3c0.1-0.1,0.3-0.2,0.3-0.3c1-2.5,2.1-4.8,3.1-7.3c0.1-0.7-0.1-1.5-0.2-2.3c0-0.3-0.3-0.5-0.5-0.8
			C593.3,357.5,593.1,357.9,593.2,358.6z M612.5,406.6c-0.9-0.6-2.1-1.2-3-1.8c-0.9-0.6-1.3-1.4-1.6-2.5c-0.1-0.4-0.2-0.8-0.4-1.1
			c-0.1,0.1-0.1,0-0.1,0c-0.4,0.6-0.9,1.3-1.1,2.1c-0.2,0.7,0.1,1.3,0.6,1.8c1.3,1,2.8,2.1,4.6,2.4c1,0.2,1.7,0.4,2.5,0.5
			c0.1-0.2,0.1-0.2,0.2-0.2C613.7,407.4,613.1,406.9,612.5,406.6z M613.8,417.4c-0.1-0.6,0-1.1-0.1-1.7c-0.3-0.3-0.3-0.7-0.5-0.9
			c-0.6-0.4-1.1-0.9-1.7-1.3c-0.5-0.4-1-0.2-1.3,0.2c-0.9,1-0.9,2.1-0.1,2.9c0.7,0.8,1.5,1.2,2.3,1.6c0.2,0.2,0.5,0.2,0.5,0.3
			C613.5,418.4,613.8,418.2,613.8,417.4z M599.1,333.4c-0.2-0.8-0.8-1-1.3-0.5c-1.1,0.7-1.9,1.9-2.1,3.2c-0.2,0.7,0.8,2.2,1.7,2.1
			c0.3,0.1,0.6-0.1,0.7-0.3c0.4-0.6,0.7-1.2,1-1.8s0.1-1.2,0.2-1.9l-0.1,0C599,334,598.9,333.6,599.1,333.4z M598.2,345.4
			c-0.4,0.6-0.9,1.1-1.3,1.9c-0.5,0.9-0.4,1.6,0.3,2.2c0.4,0.5,0.7,0.8,1.4,1.5c0-0.5,0.1-0.8,0.1-1.2c-0.1-1.6,0.3-2.8,1.3-4
			c0.8-0.7,1.3-1.2,2-2c0.3-0.4,0.5-0.9,0.8-1.2c-0.2-0.1-0.2-0.1-0.2-0.2C601.1,343.5,599.2,344,598.2,345.4z M595.8,358.4
			c0.9-0.5,1.8-0.7,2.7-1.3c0.5-0.1,0.8-0.7,0.8-1.2c0.2-1,0.2-2.1,0.3-3.2C597.5,353.1,595.6,356.3,595.8,358.4z M584.1,377.1
			c0.7-0.4,0.9-1.1,0.6-1.9c-0.1-0.7-0.9-1.3-1.7-1.2c-1.6,0.1-2.7,1.5-2.2,3c0.2,0.7,0.7,0.9,1.9,0.8
			C582.9,377.6,583.6,377.6,584.1,377.1z M607.6,399c-0.6-1.2-1.2-2.4-1.8-3.4c-0.1-0.2-0.3-0.4-0.5-0.4c-0.9-0.1-2-0.3-3.2-0.5
			C602.7,397,605.8,399.4,607.6,399z M602.2,393.8c0-1.8-1-2.7-2.1-3.4c-1.8-1-3.5-2-5.2-2.8C596.8,390.1,599.3,392,602.2,393.8z
			 M591.4,338.2c1.3-0.2,1.9-0.6,2.4-1.4c0.4-0.8,0.6-1.6,0.9-2.2c0.6-1.4,1.4-3,2.1-4.5c-0.2-0.1-0.2-0.1-0.2-0.2
			C594.3,332.1,592.6,335,591.4,338.2z M594.9,350.1c0.3,1.4,0.1,2.8-0.3,4.2c0.1,0.2,0,0.4,0,0.5c0.1,0.4,0.2,0.7,0.4,1.2
			c0.3-0.2,0.5-0.5,0.7-0.7c0.5-0.9,1.1-1.7,1.6-2.6c0.2-0.2,0.2-0.6,0.2-0.7c-0.6-1-1.5-2-2.1-2.9c-0.1,0.2-0.1,0.2-0.3,0.2
			C594.9,349.5,594.9,349.8,594.9,350.1z M591.3,367.8c0.2,0.1,0.2,0.1,0.2,0.2c0.4-0.5,0.6-0.8,1-1.3c0.8-0.7,1.4-1.5,2.1-2.2
			c1.1-1.1,1.8-2.1,1.8-3.8c0.1-0.2,0-0.3-0.1-0.4c0,0,0-0.2-0.1-0.5C593.9,362.4,592.2,365,591.3,367.8z M594.7,340.8
			c-0.5,1.5-1,2.9-1.4,4.4c0,0.5,0.2,0.7,0.7,0.6c0.4-0.1,0.7-0.3,0.9-0.5c1.2-1.2,1.9-2.6,1.5-4.3c-0.1-0.4-0.1-0.8-0.2-1.3
			c-0.2-0.1-0.2-0.1-0.2-0.2C595.7,339.9,595.1,340.1,594.7,340.8z M600.4,355.3c0.3,0.6,0.6,0.7,1,0.3c0.1-0.2,0.3-0.4,0.4-0.5
			c0.9-1.3,1.8-2.8,2.8-4.2C602.1,350.6,599.7,353.1,600.4,355.3z M605.7,400.3c0.1-0.1-0.2-0.3-0.3-0.3c-0.9-0.8-2-1.5-3-2.3
			c-0.1-0.1-0.1-0.1-0.4-0.2c0.3,0.6,0.2,1.2,0.5,1.5c0.9,1.2,1.8,2.6,1.7,4.3c0,0.3,0.4,0.5,0.5,0.8c0.2,0.1,0.2,0.1,0.3,0.1
			C605.3,403,605.8,401.7,605.7,400.3z M608.4,416.8c-0.7-0.9-1.7-1.2-2.8-0.9c0.5,1.5,4.8,4.9,7.3,5.6
			C611.3,420.1,609.7,418.2,608.4,416.8z M605.8,408c-0.2-0.1-0.5-0.1-0.7-0.1c-0.6-0.1-0.7,0.4-0.5,0.8c1,1.5,1.9,2.9,3.3,3.9
			c0.2,0,0.7,0.2,1.1,0.4C609,410.6,607.6,408.3,605.8,408z M610.2,397.2c-0.6-0.4-0.9-0.7-1.5-1c-0.2-0.2-0.7-0.2-0.8-0.1
			c-0.1,0.1-0.3,0.5-0.1,0.8c0.4,1.2,1,2,2,2.5c1.1,0.4,2.2,0.4,3.4,0C612,398.4,611.2,397.7,610.2,397.2z M603.6,332.6
			c-0.2-0.7-0.5-1.5-0.8-2.3c-0.3-0.6-0.9-0.6-1.2-0.1c-0.4,0.6-0.7,1.5-0.9,2.2s0.1,1,0.9,1.1c0.1,0.1,0.4,0,0.5,0
			c0.2,0.2,0.5,0.2,0.7,0.1C603.5,333.7,603.8,333.3,603.6,332.6z M616.8,416.1L616.8,416.1c-1.6,0.5-1.9,1.3-0.6,2.4
			c0.5,0.4,0.9,0.7,1.3,1c0.3,0.2,0.7,0.2,0.9-0.5c0.2-0.6,0.1-1.3,0.2-2C618.2,415.8,618.1,415.8,616.8,416.1z M601.1,329.2
			c0.1-0.1-0.5-0.5-0.7-0.7c-0.5-0.4-1-0.3-1.3,0.2c-0.2,0.3-0.5,0.6-0.6,0.9c-0.3,0.4-0.4,1.1-0.8,1.7
			C599.2,331.6,600.8,330.6,601.1,329.2z M615.2,421.8c0.5,0.6,1.1,0.7,1.5,0.3c0.6-0.6,0.7-0.7,0-1.4c-1.2-1.2-2.1-1.2-3.2-0.7
			C614,420.6,614.5,421.1,615.2,421.8z M609,408.2c-0.5-1.3-2.9-2.8-4.4-2.5C606.3,406.6,607.3,407.7,609,408.2z M597.5,343.9
			c-1.3,1.2-1.9,2.4-2.9,3.8C596.1,347.2,597.5,345.3,597.5,343.9z M571.1,398.5c-0.7-0.2-1.5,0.1-1.8,0.7c-0.3,0.7-0.2,1.5,0.4,2.1
			C570.3,400.4,570.7,399.3,571.1,398.5z M563.1,363c-0.3,0.7-0.4,1.1,0.2,1.9c0.6-0.8,1.2-1.6,1.9-2.4
			C564.3,362.2,563.6,362.4,563.1,363z M596.4,386.4c-0.3-0.2-0.7-0.2-1.2-0.1c1,1.3,2.4,1.7,4,1.8
			C598.2,387.3,597.3,386.9,596.4,386.4z M592.3,369.2c0.3-0.2,0.7-0.2,0.9-0.5c0.7-0.9,1.4-1.8,2.1-2.7
			C594,366.7,592.8,367.6,592.3,369.2z M586.6,373.8c-0.1-0.2-0.6-0.4-0.9-0.7c-0.1-0.1-0.4,0.4-0.4,0.6c0,0.3,0.4,0.6,0.7,0.9
			c0.1-0.2,0.1-0.2,0.3-0.2C586.3,374.1,586.6,373.8,586.6,373.8z"/>
		<path d="M598.1,329.6c0.2-0.3,0.4-0.7,0.6-0.9c0.4-0.5,0.9-0.6,1.3-0.2c0.4,0,0.7,0.6,0.7,0.7c-0.2,1.5-1.6,2.6-3.1,2.2
			C598.1,330.8,598.2,330.1,598.1,329.6z"/>
	</g>
</g>
</svg>
